<svg width="1536" height="1024" viewBox="0 0 1536 1024" fill="none" xmlns="http://www.w3.org/2000/svg">
<g clip-path="url(#clip0_218_463)">
<g filter="url(#filter0_d_218_463)">
<g clip-path="url(#clip1_218_463)">
<path d="M243 181C243 167.193 254.193 156 268 156H1323C1336.81 156 1348 167.193 1348 181V1060H243V181Z" fill="#F9FAFB"/>
<mask id="path-4-inside-1_218_463" fill="white">
<path d="M243 156H1348V218H243V156Z"/>
</mask>
<path d="M243 156H1348V218H243V156Z" fill="white"/>
<circle cx="293" cy="187" r="10" fill="#D1D5DB"/>
<circle cx="294" cy="187" r="10" fill="#D1D5DB"/>
<circle cx="319" cy="187" r="10" fill="#D1D5DB"/>
<circle cx="344" cy="187" r="10" fill="#D1D5DB"/>
<path d="M1348 217H243V219H1348V217Z" fill="#D1D5DB" mask="url(#path-4-inside-1_218_463)"/>
<g opacity="0.3">
<rect x="366.5" y="272.5" width="385" height="385" rx="24.5" fill="white" stroke="#BFC3C9"/>
<rect x="843" y="451" width="365" height="12" rx="6" fill="#D1D5DB"/>
<rect x="843" y="496.055" width="220.051" height="11.6971" rx="5.84854" fill="#D1D5DB"/>
<rect x="843" y="559.657" width="138.903" height="49.7126" rx="10" fill="#eb542b"/>
<path d="M851.271 363H844.044L855.056 331.099H863.748L874.745 363H867.518L859.527 338.389H859.278L851.271 363ZM850.82 350.461H867.892V355.726H850.82V350.461ZM883.78 331.099V363H877.145V331.099H883.78ZM887.78 371.972V339.074H894.322V343.093H894.618C894.909 342.449 895.329 341.795 895.88 341.13C896.44 340.455 897.167 339.895 898.06 339.448C898.964 338.991 900.085 338.763 901.425 338.763C903.17 338.763 904.779 339.22 906.254 340.133C907.728 341.037 908.907 342.402 909.79 344.23C910.672 346.047 911.114 348.327 911.114 351.068C911.114 353.737 910.683 355.99 909.821 357.829C908.969 359.656 907.806 361.043 906.332 361.988C904.868 362.922 903.227 363.389 901.409 363.389C900.122 363.389 899.026 363.177 898.123 362.751C897.23 362.325 896.498 361.79 895.926 361.146C895.355 360.492 894.919 359.833 894.618 359.168H894.416V371.972H887.78ZM894.275 351.037C894.275 352.46 894.473 353.701 894.867 354.76C895.262 355.819 895.833 356.645 896.581 357.237C897.328 357.818 898.237 358.109 899.307 358.109C900.387 358.109 901.3 357.813 902.048 357.221C902.796 356.619 903.362 355.788 903.746 354.729C904.141 353.659 904.338 352.429 904.338 351.037C904.338 349.656 904.146 348.441 903.762 347.392C903.377 346.343 902.811 345.523 902.064 344.931C901.316 344.339 900.397 344.043 899.307 344.043C898.227 344.043 897.313 344.329 896.565 344.9C895.828 345.471 895.262 346.281 894.867 347.33C894.473 348.379 894.275 349.614 894.275 351.037ZM914.222 363V339.074H920.857V363H914.222ZM917.555 335.99C916.569 335.99 915.722 335.663 915.016 335.009C914.32 334.344 913.972 333.55 913.972 332.625C913.972 331.712 914.32 330.928 915.016 330.273C915.722 329.609 916.569 329.276 917.555 329.276C918.542 329.276 919.383 329.609 920.079 330.273C920.785 330.928 921.138 331.712 921.138 332.625C921.138 333.55 920.785 334.344 920.079 335.009C919.383 335.663 918.542 335.99 917.555 335.99ZM931.493 349.168V363H924.857V339.074H931.181V343.295H931.462C931.991 341.904 932.879 340.803 934.125 339.993C935.371 339.173 936.882 338.763 938.658 338.763C940.319 338.763 941.768 339.126 943.004 339.853C944.24 340.58 945.2 341.618 945.886 342.968C946.571 344.308 946.914 345.907 946.914 347.766V363H940.278V348.95C940.288 347.486 939.914 346.343 939.156 345.523C938.398 344.692 937.355 344.277 936.025 344.277C935.132 344.277 934.343 344.469 933.658 344.853C932.983 345.237 932.453 345.798 932.069 346.535C931.695 347.262 931.503 348.14 931.493 349.168ZM961.731 363.467C959.27 363.467 957.152 362.969 955.376 361.972C953.611 360.965 952.25 359.542 951.295 357.704C950.34 355.855 949.862 353.67 949.862 351.146C949.862 348.685 950.34 346.525 951.295 344.666C952.25 342.807 953.595 341.359 955.329 340.32C957.074 339.282 959.12 338.763 961.467 338.763C963.045 338.763 964.514 339.017 965.875 339.526C967.245 340.024 968.44 340.777 969.457 341.784C970.485 342.792 971.285 344.059 971.856 345.585C972.427 347.101 972.713 348.877 972.713 350.912V352.735H952.51V348.623H966.467C966.467 347.667 966.259 346.821 965.844 346.084C965.428 345.346 964.852 344.77 964.115 344.355C963.388 343.929 962.541 343.716 961.576 343.716C960.568 343.716 959.675 343.95 958.896 344.417C958.128 344.874 957.526 345.492 957.089 346.271C956.653 347.039 956.43 347.896 956.42 348.841V352.751C956.42 353.934 956.638 354.957 957.074 355.819C957.52 356.681 958.149 357.346 958.959 357.813C959.769 358.28 960.729 358.514 961.84 358.514C962.578 358.514 963.253 358.41 963.865 358.202C964.478 357.995 965.002 357.683 965.439 357.268C965.875 356.852 966.207 356.344 966.435 355.741L972.573 356.146C972.261 357.621 971.623 358.909 970.657 360.009C969.701 361.1 968.466 361.951 966.95 362.564C965.444 363.166 963.704 363.467 961.731 363.467ZM975.727 339.074H982.363V364.184C982.363 366.032 982 367.528 981.273 368.67C980.546 369.812 979.502 370.648 978.142 371.178C976.792 371.707 975.177 371.972 973.297 371.972C973.069 371.972 972.851 371.967 972.643 371.957C972.425 371.957 972.197 371.951 971.958 371.941V366.754C972.134 366.764 972.29 366.77 972.425 366.77C972.55 366.78 972.685 366.785 972.83 366.785C973.9 366.785 974.647 366.557 975.073 366.1C975.509 365.653 975.727 364.978 975.727 364.075V339.074ZM979.03 335.99C978.053 335.99 977.212 335.663 976.506 335.009C975.8 334.344 975.447 333.55 975.447 332.625C975.447 331.712 975.8 330.928 976.506 330.273C977.212 329.609 978.053 329.276 979.03 329.276C980.026 329.276 980.873 329.609 981.569 330.273C982.275 330.928 982.628 331.712 982.628 332.625C982.628 333.55 982.275 334.344 981.569 335.009C980.873 335.663 980.026 335.99 979.03 335.99ZM1006.27 345.897L1000.19 346.271C1000.09 345.751 999.868 345.284 999.525 344.869C999.182 344.443 998.731 344.105 998.17 343.856C997.619 343.597 996.96 343.467 996.192 343.467C995.163 343.467 994.296 343.685 993.59 344.121C992.884 344.547 992.531 345.118 992.531 345.834C992.531 346.406 992.759 346.888 993.216 347.283C993.673 347.678 994.457 347.994 995.568 348.233L999.899 349.106C1002.22 349.583 1003.96 350.352 1005.1 351.411C1006.24 352.47 1006.81 353.862 1006.81 355.585C1006.81 357.154 1006.35 358.529 1005.43 359.713C1004.51 360.897 1003.26 361.821 1001.66 362.486C1000.07 363.14 998.237 363.467 996.16 363.467C992.993 363.467 990.47 362.808 988.59 361.489C986.721 360.16 985.625 358.353 985.303 356.068L991.83 355.726C992.027 356.691 992.505 357.429 993.263 357.938C994.021 358.436 994.992 358.685 996.176 358.685C997.339 358.685 998.274 358.462 998.98 358.015C999.696 357.559 1000.06 356.972 1000.07 356.255C1000.06 355.653 999.805 355.16 999.307 354.775C998.808 354.381 998.04 354.08 997.002 353.872L992.858 353.046C990.522 352.579 988.782 351.769 987.64 350.616C986.508 349.464 985.942 347.994 985.942 346.208C985.942 344.671 986.357 343.347 987.188 342.236C988.029 341.125 989.208 340.268 990.724 339.666C992.251 339.064 994.037 338.763 996.083 338.763C999.104 338.763 1001.48 339.401 1003.22 340.679C1004.96 341.956 1005.98 343.695 1006.27 345.897ZM1028.3 363.467C1026.09 363.467 1024.19 363.073 1022.59 362.283C1021 361.494 1019.76 360.425 1018.9 359.075C1018.05 357.714 1017.63 356.198 1017.63 354.526C1017.63 353.28 1017.87 352.174 1018.37 351.208C1018.87 350.243 1019.57 349.355 1020.46 348.545C1021.35 347.724 1022.39 346.909 1023.58 346.099L1029.76 342.034C1030.56 341.525 1031.15 340.99 1031.52 340.429C1031.89 339.858 1032.08 339.24 1032.08 338.576C1032.08 337.942 1031.83 337.356 1031.32 336.816C1030.81 336.276 1030.09 336.011 1029.15 336.021C1028.53 336.021 1027.99 336.161 1027.53 336.442C1027.08 336.712 1026.72 337.07 1026.46 337.516C1026.21 337.953 1026.08 338.441 1026.08 338.981C1026.08 339.645 1026.27 340.32 1026.64 341.006C1027.02 341.691 1027.52 342.418 1028.14 343.186C1028.76 343.944 1029.44 344.765 1030.18 345.648L1045.31 363H1038.39L1025.77 348.95C1024.94 348.005 1024.11 347.018 1023.28 345.99C1022.46 344.952 1021.77 343.851 1021.22 342.688C1020.67 341.514 1020.4 340.242 1020.4 338.872C1020.4 337.324 1020.76 335.933 1021.47 334.697C1022.2 333.461 1023.22 332.485 1024.53 331.769C1025.83 331.042 1027.36 330.678 1029.11 330.678C1030.81 330.678 1032.28 331.026 1033.51 331.722C1034.76 332.407 1035.72 333.321 1036.38 334.463C1037.06 335.595 1037.39 336.841 1037.39 338.202C1037.39 339.708 1037.02 341.073 1036.27 342.299C1035.53 343.514 1034.5 344.604 1033.16 345.57L1026.64 350.258C1025.76 350.902 1025.11 351.561 1024.68 352.236C1024.27 352.901 1024.06 353.54 1024.06 354.152C1024.06 354.91 1024.25 355.591 1024.62 356.193C1024.99 356.795 1025.52 357.273 1026.21 357.626C1026.89 357.969 1027.7 358.14 1028.62 358.14C1029.74 358.14 1030.85 357.886 1031.94 357.377C1033.04 356.858 1034.04 356.125 1034.93 355.18C1035.83 354.225 1036.56 353.093 1037.1 351.785C1037.64 350.476 1037.91 349.028 1037.91 347.439H1043.41C1043.41 349.391 1043.19 351.151 1042.77 352.719C1042.34 354.277 1041.75 355.637 1040.99 356.8C1040.23 357.953 1039.37 358.898 1038.39 359.635C1038.08 359.833 1037.78 360.02 1037.49 360.196C1037.2 360.373 1036.89 360.56 1036.58 360.757C1035.4 361.712 1034.07 362.403 1032.61 362.829C1031.16 363.254 1029.72 363.467 1028.3 363.467ZM1054.5 336.66V331.099H1080.7V336.66H1070.93V363H1064.27V336.66H1054.5ZM1087.14 363.452C1085.62 363.452 1084.25 363.187 1083.06 362.657C1081.87 362.117 1080.92 361.323 1080.23 360.274C1079.54 359.215 1079.2 357.896 1079.2 356.318C1079.2 354.988 1079.44 353.872 1079.93 352.969C1080.42 352.065 1081.08 351.338 1081.92 350.788C1082.76 350.237 1083.72 349.822 1084.79 349.542C1085.87 349.261 1087 349.064 1088.19 348.95C1089.58 348.804 1090.7 348.669 1091.55 348.545C1092.4 348.41 1093.02 348.212 1093.4 347.953C1093.79 347.693 1093.98 347.309 1093.98 346.8V346.707C1093.98 345.72 1093.67 344.957 1093.05 344.417C1092.43 343.877 1091.56 343.607 1090.43 343.607C1089.23 343.607 1088.28 343.872 1087.58 344.401C1086.87 344.921 1086.4 345.575 1086.18 346.364L1080.04 345.866C1080.35 344.412 1080.96 343.155 1081.88 342.096C1082.79 341.026 1083.97 340.206 1085.41 339.635C1086.87 339.053 1088.55 338.763 1090.46 338.763C1091.79 338.763 1093.06 338.918 1094.28 339.23C1095.5 339.541 1096.59 340.024 1097.53 340.679C1098.49 341.333 1099.24 342.174 1099.79 343.202C1100.34 344.22 1100.62 345.44 1100.62 346.863V363H1094.32V359.682H1094.14C1093.75 360.43 1093.24 361.089 1092.59 361.66C1091.95 362.221 1091.18 362.663 1090.27 362.984C1089.37 363.296 1088.33 363.452 1087.14 363.452ZM1089.04 358.872C1090.02 358.872 1090.88 358.68 1091.63 358.296C1092.38 357.901 1092.96 357.372 1093.39 356.707C1093.81 356.042 1094.03 355.29 1094.03 354.448V351.909C1093.82 352.044 1093.53 352.169 1093.17 352.283C1092.82 352.387 1092.42 352.486 1091.97 352.579C1091.52 352.662 1091.08 352.74 1090.63 352.813C1090.18 352.875 1089.78 352.932 1089.42 352.984C1088.64 353.098 1087.96 353.28 1087.38 353.529C1086.79 353.779 1086.34 354.116 1086.02 354.542C1085.7 354.957 1085.54 355.476 1085.54 356.1C1085.54 357.003 1085.86 357.694 1086.52 358.171C1087.18 358.639 1088.02 358.872 1089.04 358.872ZM1104.45 363V339.074H1111.08V363H1104.45ZM1107.78 335.99C1106.79 335.99 1105.95 335.663 1105.24 335.009C1104.55 334.344 1104.2 333.55 1104.2 332.625C1104.2 331.712 1104.55 330.928 1105.24 330.273C1105.95 329.609 1106.79 329.276 1107.78 329.276C1108.77 329.276 1109.61 329.609 1110.3 330.273C1111.01 330.928 1111.36 331.712 1111.36 332.625C1111.36 333.55 1111.01 334.344 1110.3 335.009C1109.61 335.663 1108.77 335.99 1107.78 335.99ZM1121.72 331.099V363H1115.08V331.099H1121.72ZM1130.44 363L1123.93 339.074H1130.64L1134.35 355.149H1134.57L1138.43 339.074H1145.02L1148.94 355.056H1149.15L1152.79 339.074H1159.49L1152.99 363H1145.97L1141.86 347.953H1141.56L1137.45 363H1130.44ZM1161.71 363V339.074H1168.35V363H1161.71ZM1165.05 335.99C1164.06 335.99 1163.21 335.663 1162.51 335.009C1161.81 334.344 1161.46 333.55 1161.46 332.625C1161.46 331.712 1161.81 330.928 1162.51 330.273C1163.21 329.609 1164.06 329.276 1165.05 329.276C1166.03 329.276 1166.87 329.609 1167.57 330.273C1168.28 330.928 1168.63 331.712 1168.63 332.625C1168.63 333.55 1168.28 334.344 1167.57 335.009C1166.87 335.663 1166.03 335.99 1165.05 335.99ZM1178.98 349.168V363H1172.35V339.074H1178.67V343.295H1178.95C1179.48 341.904 1180.37 340.803 1181.62 339.993C1182.86 339.173 1184.37 338.763 1186.15 338.763C1187.81 338.763 1189.26 339.126 1190.49 339.853C1191.73 340.58 1192.69 341.618 1193.38 342.968C1194.06 344.308 1194.4 345.907 1194.4 347.766V363H1187.77V348.95C1187.78 347.486 1187.41 346.343 1186.65 345.523C1185.89 344.692 1184.85 344.277 1183.52 344.277C1182.62 344.277 1181.83 344.469 1181.15 344.853C1180.47 345.237 1179.94 345.798 1179.56 346.535C1179.19 347.262 1178.99 348.14 1178.98 349.168ZM1207.14 363.389C1205.32 363.389 1203.67 362.922 1202.2 361.988C1200.73 361.043 1199.57 359.656 1198.71 357.829C1197.86 355.99 1197.43 353.737 1197.43 351.068C1197.43 348.327 1197.87 346.047 1198.75 344.23C1199.64 342.402 1200.81 341.037 1202.28 340.133C1203.75 339.22 1205.36 338.763 1207.12 338.763C1208.46 338.763 1209.58 338.991 1210.47 339.448C1211.37 339.895 1212.1 340.455 1212.65 341.13C1213.21 341.795 1213.64 342.449 1213.93 343.093H1214.13V331.099H1220.75V363H1214.21V359.168H1213.93C1213.62 359.833 1213.17 360.492 1212.6 361.146C1212.04 361.79 1211.31 362.325 1210.41 362.751C1209.51 363.177 1208.42 363.389 1207.14 363.389ZM1209.24 358.109C1210.31 358.109 1211.21 357.818 1211.95 357.237C1212.7 356.645 1213.27 355.819 1213.66 354.76C1214.07 353.701 1214.27 352.46 1214.27 351.037C1214.27 349.614 1214.07 348.379 1213.68 347.33C1213.28 346.281 1212.71 345.471 1211.96 344.9C1211.22 344.329 1210.31 344.043 1209.24 344.043C1208.15 344.043 1207.23 344.339 1206.48 344.931C1205.73 345.523 1205.17 346.343 1204.78 347.392C1204.4 348.441 1204.21 349.656 1204.21 351.037C1204.21 352.429 1204.4 353.659 1204.78 354.729C1205.18 355.788 1205.74 356.619 1206.48 357.221C1207.23 357.813 1208.15 358.109 1209.24 358.109ZM873.92 395.267H867.097C866.973 394.385 866.718 393.601 866.334 392.915C865.95 392.22 865.456 391.628 864.854 391.14C864.252 390.651 863.556 390.278 862.767 390.018C861.988 389.758 861.142 389.629 860.228 389.629C858.577 389.629 857.138 390.039 855.913 390.859C854.688 391.669 853.738 392.853 853.063 394.411C852.388 395.958 852.05 397.838 852.05 400.049C852.05 402.324 852.388 404.234 853.063 405.782C853.748 407.329 854.703 408.497 855.929 409.286C857.154 410.076 858.572 410.47 860.181 410.47C861.085 410.47 861.921 410.351 862.689 410.112C863.468 409.873 864.158 409.525 864.761 409.068C865.363 408.601 865.861 408.035 866.256 407.37C866.661 406.706 866.941 405.948 867.097 405.096L873.92 405.127C873.743 406.592 873.302 408.004 872.596 409.364C871.9 410.714 870.96 411.924 869.776 412.994C868.603 414.053 867.201 414.894 865.571 415.517C863.951 416.13 862.118 416.436 860.072 416.436C857.227 416.436 854.683 415.792 852.44 414.505C850.207 413.217 848.441 411.353 847.143 408.913C845.856 406.472 845.212 403.518 845.212 400.049C845.212 396.571 845.866 393.611 847.175 391.171C848.483 388.73 850.259 386.872 852.502 385.594C854.745 384.307 857.268 383.663 860.072 383.663C861.921 383.663 863.634 383.922 865.212 384.442C866.801 384.961 868.208 385.719 869.434 386.716C870.659 387.702 871.656 388.912 872.424 390.345C873.203 391.778 873.702 393.419 873.92 395.267ZM894.746 393.274C894.622 392.017 894.087 391.041 893.142 390.345C892.197 389.649 890.914 389.301 889.294 389.301C888.194 389.301 887.264 389.457 886.506 389.769C885.748 390.07 885.167 390.491 884.762 391.03C884.367 391.57 884.17 392.183 884.17 392.869C884.149 393.44 884.268 393.938 884.528 394.364C884.798 394.79 885.167 395.158 885.634 395.47C886.101 395.771 886.641 396.036 887.254 396.264C887.866 396.482 888.521 396.669 889.216 396.825L892.083 397.51C893.474 397.822 894.751 398.237 895.914 398.757C897.078 399.276 898.085 399.914 898.936 400.672C899.788 401.431 900.447 402.324 900.915 403.352C901.392 404.38 901.636 405.558 901.647 406.888C901.636 408.84 901.138 410.533 900.151 411.966C899.175 413.388 897.763 414.494 895.914 415.283C894.076 416.062 891.859 416.452 889.263 416.452C886.688 416.452 884.445 416.057 882.534 415.268C880.634 414.479 879.149 413.31 878.079 411.763C877.02 410.205 876.464 408.279 876.412 405.984H882.939C883.012 407.054 883.318 407.947 883.858 408.663C884.408 409.37 885.141 409.904 886.054 410.268C886.979 410.621 888.022 410.797 889.185 410.797C890.328 410.797 891.319 410.631 892.16 410.299C893.012 409.967 893.671 409.505 894.139 408.913C894.606 408.321 894.84 407.64 894.84 406.872C894.84 406.156 894.627 405.553 894.201 405.065C893.786 404.577 893.173 404.162 892.363 403.819C891.563 403.476 890.582 403.165 889.419 402.884L885.945 402.012C883.256 401.358 881.132 400.335 879.574 398.943C878.017 397.552 877.243 395.678 877.254 393.32C877.243 391.389 877.757 389.701 878.796 388.258C879.844 386.814 881.283 385.688 883.11 384.878C884.938 384.068 887.015 383.663 889.341 383.663C891.709 383.663 893.775 384.068 895.541 384.878C897.316 385.688 898.698 386.814 899.684 388.258C900.671 389.701 901.179 391.373 901.211 393.274H894.746ZM922.173 393.274C922.049 392.017 921.514 391.041 920.569 390.345C919.624 389.649 918.341 389.301 916.721 389.301C915.621 389.301 914.691 389.457 913.933 389.769C913.175 390.07 912.594 390.491 912.189 391.03C911.794 391.57 911.597 392.183 911.597 392.869C911.576 393.44 911.695 393.938 911.955 394.364C912.225 394.79 912.594 395.158 913.061 395.47C913.528 395.771 914.068 396.036 914.681 396.264C915.294 396.482 915.948 396.669 916.644 396.825L919.51 397.51C920.901 397.822 922.178 398.237 923.342 398.757C924.505 399.276 925.512 399.914 926.363 400.672C927.215 401.431 927.874 402.324 928.342 403.352C928.819 404.38 929.063 405.558 929.074 406.888C929.063 408.84 928.565 410.533 927.578 411.966C926.602 413.388 925.19 414.494 923.342 415.283C921.503 416.062 919.286 416.452 916.69 416.452C914.115 416.452 911.872 416.057 909.961 415.268C908.061 414.479 906.576 413.31 905.506 411.763C904.447 410.205 903.891 408.279 903.839 405.984H910.366C910.439 407.054 910.745 407.947 911.285 408.663C911.836 409.37 912.568 409.904 913.481 410.268C914.406 410.621 915.449 410.797 916.612 410.797C917.755 410.797 918.746 410.631 919.588 410.299C920.439 409.967 921.098 409.505 921.566 408.913C922.033 408.321 922.267 407.64 922.267 406.872C922.267 406.156 922.054 405.553 921.628 405.065C921.213 404.577 920.6 404.162 919.79 403.819C918.99 403.476 918.009 403.165 916.846 402.884L913.372 402.012C910.683 401.358 908.559 400.335 907.002 398.943C905.444 397.552 904.67 395.678 904.681 393.32C904.67 391.389 905.184 389.701 906.223 388.258C907.272 386.814 908.71 385.688 910.537 384.878C912.365 384.068 914.442 383.663 916.768 383.663C919.136 383.663 921.202 384.068 922.968 384.878C924.743 385.688 926.125 386.814 927.111 388.258C928.098 389.701 928.606 391.373 928.638 393.274H922.173ZM951.816 416.467C949.366 416.467 947.258 415.948 945.492 414.91C943.737 413.861 942.387 412.407 941.442 410.548C940.508 408.689 940.04 406.55 940.04 404.131C940.04 401.68 940.513 399.53 941.458 397.682C942.413 395.823 943.768 394.374 945.523 393.336C947.278 392.287 949.366 391.763 951.785 391.763C953.873 391.763 955.7 392.142 957.268 392.9C958.836 393.658 960.077 394.722 960.991 396.093C961.905 397.464 962.409 399.073 962.502 400.922H956.24C956.064 399.728 955.596 398.767 954.838 398.04C954.091 397.303 953.109 396.934 951.894 396.934C950.866 396.934 949.968 397.214 949.2 397.775C948.441 398.326 947.85 399.13 947.424 400.19C946.998 401.249 946.785 402.531 946.785 404.037C946.785 405.564 946.993 406.862 947.408 407.931C947.834 409.001 948.431 409.816 949.2 410.377C949.968 410.938 950.866 411.218 951.894 411.218C952.652 411.218 953.333 411.062 953.935 410.751C954.548 410.439 955.051 409.987 955.446 409.395C955.851 408.793 956.116 408.071 956.24 407.23H962.502C962.398 409.058 961.9 410.668 961.007 412.059C960.124 413.44 958.904 414.52 957.346 415.299C955.788 416.078 953.945 416.467 951.816 416.467ZM976.245 416.467C973.825 416.467 971.733 415.953 969.968 414.925C968.213 413.887 966.857 412.443 965.902 410.595C964.947 408.736 964.469 406.581 964.469 404.131C964.469 401.659 964.947 399.499 965.902 397.651C966.857 395.792 968.213 394.348 969.968 393.32C971.733 392.282 973.825 391.763 976.245 391.763C978.665 391.763 980.752 392.282 982.507 393.32C984.272 394.348 985.633 395.792 986.588 397.651C987.543 399.499 988.021 401.659 988.021 404.131C988.021 406.581 987.543 408.736 986.588 410.595C985.633 412.443 984.272 413.887 982.507 414.925C980.752 415.953 978.665 416.467 976.245 416.467ZM976.276 411.327C977.377 411.327 978.296 411.015 979.033 410.392C979.77 409.759 980.326 408.897 980.7 407.807C981.084 406.716 981.276 405.475 981.276 404.084C981.276 402.692 981.084 401.451 980.7 400.361C980.326 399.271 979.77 398.409 979.033 397.775C978.296 397.142 977.377 396.825 976.276 396.825C975.165 396.825 974.23 397.142 973.472 397.775C972.725 398.409 972.159 399.271 971.774 400.361C971.401 401.451 971.214 402.692 971.214 404.084C971.214 405.475 971.401 406.716 971.774 407.807C972.159 408.897 972.725 409.759 973.472 410.392C974.23 411.015 975.165 411.327 976.276 411.327ZM991.02 416V392.074H997.344V396.295H997.624C998.123 394.894 998.954 393.788 1000.12 392.978C1001.28 392.168 1002.67 391.763 1004.29 391.763C1005.93 391.763 1007.33 392.173 1008.48 392.993C1009.63 393.803 1010.4 394.904 1010.79 396.295H1011.04C1011.52 394.925 1012.41 393.829 1013.68 393.009C1014.97 392.178 1016.49 391.763 1018.25 391.763C1020.48 391.763 1022.29 392.474 1023.68 393.897C1025.09 395.309 1025.79 397.313 1025.79 399.909V416H1019.17V401.218C1019.17 399.888 1018.81 398.892 1018.11 398.227C1017.4 397.562 1016.52 397.23 1015.46 397.23C1014.26 397.23 1013.32 397.614 1012.64 398.383C1011.97 399.141 1011.63 400.143 1011.63 401.389V416H1005.19V401.077C1005.19 399.904 1004.86 398.969 1004.18 398.274C1003.52 397.578 1002.64 397.23 1001.55 397.23C1000.81 397.23 1000.15 397.417 999.556 397.791C998.974 398.154 998.512 398.668 998.169 399.333C997.827 399.987 997.655 400.756 997.655 401.638V416H991.02ZM1029.71 424.972V392.074H1036.25V396.093H1036.55C1036.84 395.449 1037.26 394.795 1037.81 394.13C1038.37 393.455 1039.1 392.895 1039.99 392.448C1040.9 391.991 1042.02 391.763 1043.36 391.763C1045.1 391.763 1046.71 392.22 1048.19 393.133C1049.66 394.037 1050.84 395.402 1051.72 397.23C1052.61 399.047 1053.05 401.327 1053.05 404.068C1053.05 406.737 1052.62 408.99 1051.75 410.829C1050.9 412.656 1049.74 414.043 1048.26 414.988C1046.8 415.922 1045.16 416.389 1043.34 416.389C1042.05 416.389 1040.96 416.177 1040.06 415.751C1039.16 415.325 1038.43 414.79 1037.86 414.146C1037.29 413.492 1036.85 412.833 1036.55 412.168H1036.35V424.972H1029.71ZM1036.21 404.037C1036.21 405.46 1036.41 406.701 1036.8 407.76C1037.19 408.819 1037.77 409.645 1038.51 410.237C1039.26 410.818 1040.17 411.109 1041.24 411.109C1042.32 411.109 1043.23 410.813 1043.98 410.221C1044.73 409.619 1045.29 408.788 1045.68 407.729C1046.07 406.659 1046.27 405.429 1046.27 404.037C1046.27 402.656 1046.08 401.441 1045.69 400.392C1045.31 399.343 1044.74 398.523 1044 397.931C1043.25 397.339 1042.33 397.043 1041.24 397.043C1040.16 397.043 1039.25 397.329 1038.5 397.9C1037.76 398.471 1037.19 399.281 1036.8 400.33C1036.41 401.379 1036.21 402.614 1036.21 404.037ZM1066.96 416.467C1064.55 416.467 1062.45 415.953 1060.69 414.925C1058.93 413.887 1057.58 412.443 1056.62 410.595C1055.67 408.736 1055.19 406.581 1055.19 404.131C1055.19 401.659 1055.67 399.499 1056.62 397.651C1057.58 395.792 1058.93 394.348 1060.69 393.32C1062.45 392.282 1064.55 391.763 1066.96 391.763C1069.38 391.763 1071.47 392.282 1073.23 393.32C1074.99 394.348 1076.35 395.792 1077.31 397.651C1078.26 399.499 1078.74 401.659 1078.74 404.131C1078.74 406.581 1078.26 408.736 1077.31 410.595C1076.35 412.443 1074.99 413.887 1073.23 414.925C1071.47 415.953 1069.38 416.467 1066.96 416.467ZM1067 411.327C1068.1 411.327 1069.02 411.015 1069.75 410.392C1070.49 409.759 1071.05 408.897 1071.42 407.807C1071.8 406.716 1072 405.475 1072 404.084C1072 402.692 1071.8 401.451 1071.42 400.361C1071.05 399.271 1070.49 398.409 1069.75 397.775C1069.02 397.142 1068.1 396.825 1067 396.825C1065.88 396.825 1064.95 397.142 1064.19 397.775C1063.44 398.409 1062.88 399.271 1062.49 400.361C1062.12 401.451 1061.93 402.692 1061.93 404.084C1061.93 405.475 1062.12 406.716 1062.49 407.807C1062.88 408.897 1063.44 409.759 1064.19 410.392C1064.95 411.015 1065.88 411.327 1067 411.327ZM1088.38 402.168V416H1081.74V392.074H1088.06V396.295H1088.34C1088.87 394.904 1089.76 393.803 1091.01 392.993C1092.25 392.173 1093.76 391.763 1095.54 391.763C1097.2 391.763 1098.65 392.126 1099.89 392.853C1101.12 393.58 1102.08 394.618 1102.77 395.968C1103.45 397.308 1103.8 398.907 1103.8 400.766V416H1097.16V401.95C1097.17 400.486 1096.8 399.343 1096.04 398.523C1095.28 397.692 1094.24 397.277 1092.91 397.277C1092.02 397.277 1091.23 397.469 1090.54 397.853C1089.87 398.237 1089.34 398.798 1088.95 399.535C1088.58 400.262 1088.39 401.14 1088.38 402.168ZM1118.61 416.467C1116.15 416.467 1114.03 415.969 1112.26 414.972C1110.49 413.965 1109.13 412.542 1108.18 410.704C1107.22 408.855 1106.74 406.67 1106.74 404.146C1106.74 401.685 1107.22 399.525 1108.18 397.666C1109.13 395.807 1110.48 394.359 1112.21 393.32C1113.96 392.282 1116 391.763 1118.35 391.763C1119.93 391.763 1121.4 392.017 1122.76 392.526C1124.13 393.024 1125.32 393.777 1126.34 394.784C1127.37 395.792 1128.17 397.059 1128.74 398.585C1129.31 400.101 1129.6 401.877 1129.6 403.912V405.735H1109.39V401.623H1123.35C1123.35 400.667 1123.14 399.821 1122.73 399.084C1122.31 398.346 1121.73 397.77 1121 397.355C1120.27 396.929 1119.42 396.716 1118.46 396.716C1117.45 396.716 1116.56 396.95 1115.78 397.417C1115.01 397.874 1114.41 398.492 1113.97 399.271C1113.54 400.039 1113.31 400.896 1113.3 401.841V405.751C1113.3 406.934 1113.52 407.957 1113.96 408.819C1114.4 409.681 1115.03 410.346 1115.84 410.813C1116.65 411.28 1117.61 411.514 1118.72 411.514C1119.46 411.514 1120.14 411.41 1120.75 411.202C1121.36 410.995 1121.89 410.683 1122.32 410.268C1122.76 409.852 1123.09 409.344 1123.32 408.741L1129.46 409.146C1129.14 410.621 1128.51 411.909 1127.54 413.009C1126.58 414.1 1125.35 414.951 1123.83 415.564C1122.33 416.166 1120.59 416.467 1118.61 416.467ZM1139.25 402.168V416H1132.61V392.074H1138.93V396.295H1139.21C1139.74 394.904 1140.63 393.803 1141.88 392.993C1143.12 392.173 1144.64 391.763 1146.41 391.763C1148.07 391.763 1149.52 392.126 1150.76 392.853C1151.99 393.58 1152.95 394.618 1153.64 395.968C1154.32 397.308 1154.67 398.907 1154.67 400.766V416H1148.03V401.95C1148.04 400.486 1147.67 399.343 1146.91 398.523C1146.15 397.692 1145.11 397.277 1143.78 397.277C1142.89 397.277 1142.1 397.469 1141.41 397.853C1140.74 398.237 1140.21 398.798 1139.82 399.535C1139.45 400.262 1139.26 401.14 1139.25 402.168ZM1171.31 392.074V397.059H1156.9V392.074H1171.31ZM1160.17 386.342H1166.81V408.648C1166.81 409.26 1166.9 409.738 1167.09 410.081C1167.27 410.413 1167.53 410.647 1167.86 410.782C1168.21 410.917 1168.6 410.984 1169.05 410.984C1169.36 410.984 1169.67 410.958 1169.98 410.906C1170.29 410.844 1170.53 410.797 1170.7 410.766L1171.74 415.704C1171.41 415.808 1170.94 415.927 1170.34 416.062C1169.74 416.208 1169.01 416.296 1168.14 416.327C1166.55 416.389 1165.14 416.177 1163.94 415.688C1162.74 415.2 1161.82 414.442 1161.15 413.414C1160.49 412.386 1160.16 411.088 1160.17 409.52V386.342ZM1193.92 398.897L1187.85 399.271C1187.74 398.751 1187.52 398.284 1187.18 397.869C1186.83 397.443 1186.38 397.105 1185.82 396.856C1185.27 396.597 1184.61 396.467 1183.84 396.467C1182.81 396.467 1181.95 396.685 1181.24 397.121C1180.53 397.547 1180.18 398.118 1180.18 398.834C1180.18 399.406 1180.41 399.888 1180.87 400.283C1181.32 400.678 1182.11 400.994 1183.22 401.233L1187.55 402.106C1189.88 402.583 1191.61 403.352 1192.75 404.411C1193.89 405.47 1194.47 406.862 1194.47 408.585C1194.47 410.154 1194 411.529 1193.08 412.713C1192.17 413.897 1190.91 414.821 1189.31 415.486C1187.72 416.14 1185.89 416.467 1183.81 416.467C1180.64 416.467 1178.12 415.808 1176.24 414.489C1174.37 413.16 1173.28 411.353 1172.95 409.068L1179.48 408.726C1179.68 409.691 1180.16 410.429 1180.91 410.938C1181.67 411.436 1182.64 411.685 1183.83 411.685C1184.99 411.685 1185.92 411.462 1186.63 411.015C1187.35 410.559 1187.71 409.972 1187.72 409.255C1187.71 408.653 1187.46 408.16 1186.96 407.775C1186.46 407.381 1185.69 407.08 1184.65 406.872L1180.51 406.046C1178.17 405.579 1176.43 404.769 1175.29 403.616C1174.16 402.464 1173.59 400.994 1173.59 399.208C1173.59 397.671 1174.01 396.347 1174.84 395.236C1175.68 394.125 1176.86 393.268 1178.38 392.666C1179.9 392.064 1181.69 391.763 1183.73 391.763C1186.76 391.763 1189.13 392.401 1190.87 393.679C1192.61 394.956 1193.63 396.695 1193.92 398.897ZM1201.21 416.405C1200.18 416.405 1199.3 416.042 1198.56 415.315C1197.83 414.577 1197.47 413.695 1197.47 412.667C1197.47 411.649 1197.83 410.777 1198.56 410.05C1199.3 409.323 1200.18 408.959 1201.21 408.959C1202.2 408.959 1203.08 409.323 1203.82 410.05C1204.57 410.777 1204.95 411.649 1204.95 412.667C1204.95 413.352 1204.77 413.98 1204.42 414.551C1204.07 415.112 1203.62 415.564 1203.06 415.907C1202.5 416.239 1201.88 416.405 1201.21 416.405Z" fill="#5A5A5A"/>
</g>
<g opacity="0.3">
<rect x="366.495" y="717.48" width="271.182" height="381.04" rx="24.248" fill="white" stroke="#BFC3C9" stroke-width="0.989714"/>
<rect x="392.723" y="902.062" width="217.788" height="11.5768" rx="5.78838" fill="#D1D5DB"/>
<rect x="392.723" y="936.702" width="217.788" height="7.91771" rx="3.95885" fill="#F0F1F3"/>
<rect x="392.723" y="955.506" width="174.19" height="7.91771" rx="3.95885" fill="#F0F1F3"/>
<rect x="392.723" y="974.311" width="196.953" height="7.91771" rx="3.95885" fill="#F0F1F3"/>
<rect x="379.969" y="733.266" width="244.232" height="142.617" rx="21.8382" fill="white" stroke="#BFC3C9" stroke-width="0.891357"/>
<rect x="663.409" y="717.48" width="271.182" height="381.04" rx="24.248" fill="white" stroke="#BFC3C9" stroke-width="0.989714"/>
<rect x="689.637" y="902.062" width="217.788" height="11.5768" rx="5.78838" fill="#D1D5DB"/>
<rect x="689.637" y="936.702" width="217.788" height="7.91771" rx="3.95885" fill="#F0F1F3"/>
<rect x="689.637" y="955.506" width="174.19" height="7.91771" rx="3.95885" fill="#F0F1F3"/>
<rect x="689.637" y="974.312" width="196.953" height="7.91771" rx="3.95885" fill="#F0F1F3"/>
<rect x="676.883" y="733.266" width="244.232" height="142.617" rx="21.8382" fill="white" stroke="#BFC3C9" stroke-width="0.891357"/>
<rect x="960.323" y="717.48" width="271.182" height="381.04" rx="24.248" fill="white" stroke="#BFC3C9" stroke-width="0.989714"/>
<rect x="986.551" y="902.062" width="217.788" height="11.5768" rx="5.78838" fill="#D1D5DB"/>
<rect x="986.551" y="936.702" width="217.788" height="7.91771" rx="3.95885" fill="#F0F1F3"/>
<rect x="986.551" y="955.506" width="174.19" height="7.91771" rx="3.95885" fill="#F0F1F3"/>
<rect x="986.551" y="974.312" width="196.953" height="7.91771" rx="3.95885" fill="#F0F1F3"/>
<rect x="973.797" y="733.266" width="244.232" height="142.617" rx="21.8382" fill="white" stroke="#BFC3C9" stroke-width="0.891357"/>
</g>
<g filter="url(#filter1_d_218_463)">
<g clip-path="url(#clip2_218_463)">
<rect x="532.298" y="493.298" width="526.14" height="229.404" rx="14.5984" fill="white" stroke="#BFC3C9" stroke-width="0.595855"/>
<rect x="562" y="512" width="78" height="8" rx="4" fill="#D1D5DB"/>
<rect x="562" y="604" width="78" height="8" rx="4" fill="#D1D5DB"/>
<rect x="562" y="630" width="52" height="8" rx="4" fill="#D1D5DB"/>
<rect x="562" y="656" width="103" height="8" rx="4" fill="#D1D5DB"/>
<rect x="562" y="682" width="87" height="8" rx="4" fill="#D1D5DB"/>
<mask id="path-40-inside-2_218_463" fill="white">
<path d="M532 538H1059V580H532V538Z"/>
</mask>
<path d="M532 538H1059V580H532V538Z" fill="#E7E8E9"/>
<path d="M536 580V538H528V580H536Z" fill="#eb542b" mask="url(#path-40-inside-2_218_463)"/>
<rect x="562" y="556" width="78" height="8" rx="4" fill="white"/>
</g>
</g>
</g>
<path d="M243.5 181C243.5 167.469 254.469 156.5 268 156.5H1323C1336.53 156.5 1347.5 167.469 1347.5 181V1059.5H243.5V181Z" stroke="#BFC3C9" shape-rendering="crispEdges"/>
</g>
</g>
<defs>
<filter id="filter0_d_218_463" x="131.183" y="66.5465" width="1328.63" height="1127.63" filterUnits="userSpaceOnUse" color-interpolation-filters="sRGB">
<feFlood flood-opacity="0" result="BackgroundImageFix"/>
<feColorMatrix in="SourceAlpha" type="matrix" values="0 0 0 0 0 0 0 0 0 0 0 0 0 0 0 0 0 0 127 0" result="hardAlpha"/>
<feOffset dy="22.3634"/>
<feGaussianBlur stdDeviation="55.9085"/>
<feComposite in2="hardAlpha" operator="out"/>
<feColorMatrix type="matrix" values="0 0 0 0 0 0 0 0 0 0 0 0 0 0 0 0 0 0 0.15 0"/>
<feBlend mode="normal" in2="BackgroundImageFix" result="effect1_dropShadow_218_463"/>
<feBlend mode="normal" in="SourceGraphic" in2="effect1_dropShadow_218_463" result="shape"/>
</filter>
<filter id="filter1_d_218_463" x="420.183" y="403.546" width="750.37" height="453.634" filterUnits="userSpaceOnUse" color-interpolation-filters="sRGB">
<feFlood flood-opacity="0" result="BackgroundImageFix"/>
<feColorMatrix in="SourceAlpha" type="matrix" values="0 0 0 0 0 0 0 0 0 0 0 0 0 0 0 0 0 0 127 0" result="hardAlpha"/>
<feOffset dy="22.3634"/>
<feGaussianBlur stdDeviation="55.9085"/>
<feComposite in2="hardAlpha" operator="out"/>
<feColorMatrix type="matrix" values="0 0 0 0 0 0 0 0 0 0 0 0 0 0 0 0 0 0 0.15 0"/>
<feBlend mode="normal" in2="BackgroundImageFix" result="effect1_dropShadow_218_463"/>
<feBlend mode="normal" in="SourceGraphic" in2="effect1_dropShadow_218_463" result="shape"/>
</filter>
<clipPath id="clip0_218_463">
<rect width="1536" height="1024" fill="white"/>
</clipPath>
<clipPath id="clip1_218_463">
<path d="M243 181C243 167.193 254.193 156 268 156H1323C1336.81 156 1348 167.193 1348 181V1060H243V181Z" fill="white"/>
</clipPath>
<clipPath id="clip2_218_463">
<rect x="532" y="493" width="526.736" height="230" rx="14.9" fill="white"/>
</clipPath>
</defs>
</svg>
