<svg width="1536" height="1024" viewBox="0 0 1536 1024" fill="none" xmlns="http://www.w3.org/2000/svg">
<g clip-path="url(#clip0_211_232)">
<g filter="url(#filter0_d_211_232)">
<g clip-path="url(#clip1_211_232)">
<path d="M243 181C243 167.193 254.193 156 268 156H1323C1336.81 156 1348 167.193 1348 181V1060H243V181Z" fill="#F9FAFB"/>
<mask id="path-4-inside-1_211_232" fill="white">
<path d="M243 156H1348V218H243V156Z"/>
</mask>
<path d="M243 156H1348V218H243V156Z" fill="white"/>
<circle cx="293" cy="187" r="10" fill="#D1D5DB"/>
<circle cx="294" cy="187" r="10" fill="#D1D5DB"/>
<circle cx="319" cy="187" r="10" fill="#D1D5DB"/>
<circle cx="344" cy="187" r="10" fill="#D1D5DB"/>
<path d="M1348 217H243V219H1348V217Z" fill="#D1D5DB" mask="url(#path-4-inside-1_211_232)"/>
<g clip-path="url(#clip2_211_232)">
<rect x="354.5" y="415.5" width="883" height="385" rx="24.5" fill="white" stroke="#BFC3C9"/>
<rect x="614" y="622" width="365" height="12" rx="6" fill="#D1D5DB"/>
<rect x="727" y="675" width="138.903" height="49.7126" rx="10" fill="#eb542b"/>
<path d="M614.651 534H607.423L618.436 502.099H627.128L638.125 534H630.897L622.906 509.389H622.657L614.651 534ZM614.199 521.461H631.271V526.726H614.199V521.461ZM647.16 502.099V534H640.524V502.099H647.16ZM651.159 542.972V510.074H657.702V514.093H657.998C658.288 513.449 658.709 512.795 659.259 512.13C659.82 511.455 660.547 510.895 661.44 510.448C662.343 509.991 663.465 509.763 664.805 509.763C666.549 509.763 668.159 510.22 669.633 511.133C671.108 512.037 672.287 513.402 673.169 515.23C674.052 517.047 674.493 519.327 674.493 522.068C674.493 524.737 674.062 526.99 673.2 528.829C672.349 530.656 671.186 532.043 669.711 532.988C668.247 533.922 666.606 534.389 664.789 534.389C663.501 534.389 662.406 534.177 661.502 533.751C660.609 533.325 659.877 532.79 659.306 532.146C658.735 531.492 658.299 530.833 657.998 530.168H657.795V542.972H651.159ZM657.655 522.037C657.655 523.46 657.852 524.701 658.247 525.76C658.641 526.819 659.213 527.645 659.96 528.237C660.708 528.818 661.617 529.109 662.686 529.109C663.766 529.109 664.68 528.813 665.428 528.221C666.175 527.619 666.741 526.788 667.126 525.729C667.52 524.659 667.717 523.429 667.717 522.037C667.717 520.656 667.525 519.441 667.141 518.392C666.757 517.343 666.191 516.523 665.443 515.931C664.696 515.339 663.777 515.043 662.686 515.043C661.606 515.043 660.692 515.329 659.945 515.9C659.207 516.471 658.641 517.281 658.247 518.33C657.852 519.379 657.655 520.614 657.655 522.037ZM677.601 534V510.074H684.237V534H677.601ZM680.935 506.99C679.948 506.99 679.102 506.663 678.396 506.009C677.7 505.344 677.352 504.55 677.352 503.625C677.352 502.712 677.7 501.928 678.396 501.273C679.102 500.609 679.948 500.276 680.935 500.276C681.921 500.276 682.762 500.609 683.458 501.273C684.164 501.928 684.517 502.712 684.517 503.625C684.517 504.55 684.164 505.344 683.458 506.009C682.762 506.663 681.921 506.99 680.935 506.99ZM694.872 520.168V534H688.237V510.074H694.561V514.295H694.841C695.371 512.904 696.259 511.803 697.505 510.993C698.751 510.173 700.262 509.763 702.037 509.763C703.699 509.763 705.148 510.126 706.383 510.853C707.619 511.58 708.58 512.618 709.265 513.968C709.95 515.308 710.293 516.907 710.293 518.766V534H703.657V519.95C703.668 518.486 703.294 517.343 702.536 516.523C701.778 515.692 700.734 515.277 699.405 515.277C698.512 515.277 697.723 515.469 697.037 515.853C696.362 516.237 695.833 516.798 695.449 517.535C695.075 518.262 694.883 519.14 694.872 520.168ZM725.111 534.467C722.65 534.467 720.531 533.969 718.756 532.972C716.99 531.965 715.63 530.542 714.674 528.704C713.719 526.855 713.241 524.67 713.241 522.146C713.241 519.685 713.719 517.525 714.674 515.666C715.63 513.807 716.975 512.359 718.709 511.32C720.453 510.282 722.499 509.763 724.846 509.763C726.424 509.763 727.894 510.017 729.254 510.526C730.625 511.024 731.819 511.777 732.837 512.784C733.865 513.792 734.665 515.059 735.236 516.585C735.807 518.101 736.092 519.877 736.092 521.912V523.735H715.889V519.623H729.846C729.846 518.667 729.638 517.821 729.223 517.084C728.808 516.346 728.231 515.77 727.494 515.355C726.767 514.929 725.921 514.716 724.955 514.716C723.948 514.716 723.055 514.95 722.276 515.417C721.507 515.874 720.905 516.492 720.469 517.271C720.033 518.039 719.81 518.896 719.799 519.841V523.751C719.799 524.934 720.017 525.957 720.453 526.819C720.9 527.681 721.528 528.346 722.338 528.813C723.148 529.28 724.109 529.514 725.22 529.514C725.957 529.514 726.632 529.41 727.245 529.202C727.858 528.995 728.382 528.683 728.818 528.268C729.254 527.852 729.587 527.344 729.815 526.741L735.952 527.146C735.641 528.621 735.002 529.909 734.036 531.009C733.081 532.1 731.845 532.951 730.329 533.564C728.823 534.166 727.084 534.467 725.111 534.467ZM739.107 510.074H745.743V535.184C745.743 537.032 745.379 538.528 744.652 539.67C743.925 540.812 742.882 541.648 741.521 542.178C740.171 542.707 738.556 542.972 736.677 542.972C736.448 542.972 736.23 542.967 736.023 542.957C735.805 542.957 735.576 542.951 735.337 542.941V537.754C735.514 537.764 735.67 537.77 735.805 537.77C735.929 537.78 736.064 537.785 736.21 537.785C737.279 537.785 738.027 537.557 738.453 537.1C738.889 536.653 739.107 535.978 739.107 535.075V510.074ZM742.409 506.99C741.433 506.99 740.592 506.663 739.886 506.009C739.18 505.344 738.826 504.55 738.826 503.625C738.826 502.712 739.18 501.928 739.886 501.273C740.592 500.609 741.433 500.276 742.409 500.276C743.406 500.276 744.252 500.609 744.948 501.273C745.654 501.928 746.007 502.712 746.007 503.625C746.007 504.55 745.654 505.344 744.948 506.009C744.252 506.663 743.406 506.99 742.409 506.99ZM769.649 516.897L763.574 517.271C763.47 516.751 763.247 516.284 762.905 515.869C762.562 515.443 762.11 515.105 761.549 514.856C760.999 514.597 760.34 514.467 759.571 514.467C758.543 514.467 757.676 514.685 756.97 515.121C756.264 515.547 755.911 516.118 755.911 516.834C755.911 517.406 756.139 517.888 756.596 518.283C757.053 518.678 757.837 518.994 758.948 519.233L763.278 520.106C765.604 520.583 767.339 521.352 768.481 522.411C769.623 523.47 770.194 524.862 770.194 526.585C770.194 528.154 769.732 529.529 768.808 530.713C767.894 531.897 766.638 532.821 765.039 533.486C763.45 534.14 761.617 534.467 759.54 534.467C756.373 534.467 753.849 533.808 751.97 532.489C750.1 531.16 749.005 529.353 748.683 527.068L755.21 526.726C755.407 527.691 755.885 528.429 756.643 528.938C757.401 529.436 758.372 529.685 759.556 529.685C760.719 529.685 761.653 529.462 762.359 529.015C763.076 528.559 763.439 527.972 763.45 527.255C763.439 526.653 763.185 526.16 762.686 525.775C762.188 525.381 761.42 525.08 760.381 524.872L756.238 524.046C753.901 523.579 752.162 522.769 751.019 521.616C749.888 520.464 749.322 518.994 749.322 517.208C749.322 515.671 749.737 514.347 750.568 513.236C751.409 512.125 752.588 511.268 754.104 510.666C755.63 510.064 757.416 509.763 759.462 509.763C762.484 509.763 764.862 510.401 766.596 511.679C768.341 512.956 769.358 514.695 769.649 516.897ZM791.675 534.467C789.474 534.467 787.573 534.073 785.974 533.283C784.375 532.494 783.144 531.425 782.283 530.075C781.431 528.714 781.005 527.198 781.005 525.526C781.005 524.28 781.255 523.174 781.753 522.208C782.251 521.243 782.947 520.355 783.84 519.545C784.733 518.724 785.772 517.909 786.956 517.099L793.14 513.034C793.939 512.525 794.526 511.99 794.9 511.429C795.274 510.858 795.46 510.24 795.46 509.576C795.46 508.942 795.206 508.356 794.697 507.816C794.188 507.276 793.467 507.011 792.532 507.021C791.909 507.021 791.369 507.161 790.912 507.442C790.455 507.712 790.097 508.07 789.837 508.516C789.588 508.953 789.463 509.441 789.463 509.981C789.463 510.645 789.65 511.32 790.024 512.006C790.398 512.691 790.897 513.418 791.52 514.186C792.143 514.944 792.823 515.765 793.56 516.648L808.685 534H801.769L789.152 519.95C788.321 519.005 787.49 518.018 786.66 516.99C785.839 515.952 785.154 514.851 784.604 513.688C784.053 512.514 783.778 511.242 783.778 509.872C783.778 508.324 784.136 506.933 784.853 505.697C785.58 504.461 786.597 503.485 787.906 502.769C789.214 502.042 790.741 501.678 792.485 501.678C794.188 501.678 795.658 502.026 796.894 502.722C798.14 503.407 799.095 504.321 799.76 505.463C800.435 506.595 800.772 507.841 800.772 509.202C800.772 510.708 800.398 512.073 799.651 513.299C798.913 514.514 797.875 515.604 796.535 516.57L790.024 521.258C789.142 521.902 788.487 522.561 788.062 523.236C787.646 523.901 787.438 524.54 787.438 525.152C787.438 525.91 787.625 526.591 787.999 527.193C788.373 527.795 788.903 528.273 789.588 528.626C790.273 528.969 791.078 529.14 792.002 529.14C793.124 529.14 794.23 528.886 795.32 528.377C796.421 527.858 797.418 527.125 798.311 526.18C799.214 525.225 799.936 524.093 800.476 522.785C801.016 521.476 801.286 520.028 801.286 518.439H806.785C806.785 520.391 806.572 522.151 806.146 523.719C805.72 525.277 805.128 526.637 804.37 527.8C803.612 528.953 802.745 529.898 801.769 530.635C801.458 530.833 801.156 531.02 800.866 531.196C800.575 531.373 800.274 531.56 799.962 531.757C798.778 532.712 797.454 533.403 795.99 533.829C794.536 534.254 793.098 534.467 791.675 534.467ZM817.88 507.66V502.099H844.08V507.66H834.313V534H827.647V507.66H817.88ZM850.521 534.452C848.995 534.452 847.634 534.187 846.44 533.657C845.246 533.117 844.301 532.323 843.605 531.274C842.92 530.215 842.577 528.896 842.577 527.318C842.577 525.988 842.821 524.872 843.309 523.969C843.797 523.065 844.462 522.338 845.303 521.788C846.144 521.237 847.1 520.822 848.169 520.542C849.249 520.261 850.381 520.064 851.565 519.95C852.956 519.804 854.078 519.669 854.93 519.545C855.781 519.41 856.399 519.212 856.783 518.953C857.167 518.693 857.359 518.309 857.359 517.8V517.707C857.359 516.72 857.048 515.957 856.425 515.417C855.812 514.877 854.94 514.607 853.808 514.607C852.614 514.607 851.664 514.872 850.957 515.401C850.251 515.921 849.784 516.575 849.556 517.364L843.418 516.866C843.73 515.412 844.343 514.155 845.256 513.096C846.17 512.026 847.349 511.206 848.792 510.635C850.246 510.053 851.928 509.763 853.839 509.763C855.168 509.763 856.44 509.918 857.655 510.23C858.881 510.541 859.966 511.024 860.911 511.679C861.866 512.333 862.619 513.174 863.17 514.202C863.72 515.22 863.995 516.44 863.995 517.863V534H857.702V530.682H857.515C857.131 531.43 856.617 532.089 855.973 532.66C855.329 533.221 854.556 533.663 853.652 533.984C852.749 534.296 851.705 534.452 850.521 534.452ZM852.422 529.872C853.398 529.872 854.26 529.68 855.007 529.296C855.755 528.901 856.342 528.372 856.768 527.707C857.193 527.042 857.406 526.29 857.406 525.448V522.909C857.199 523.044 856.913 523.169 856.55 523.283C856.196 523.387 855.797 523.486 855.35 523.579C854.904 523.662 854.457 523.74 854.011 523.813C853.564 523.875 853.159 523.932 852.796 523.984C852.017 524.098 851.336 524.28 850.755 524.529C850.173 524.779 849.722 525.116 849.4 525.542C849.078 525.957 848.917 526.476 848.917 527.1C848.917 528.003 849.244 528.694 849.898 529.171C850.563 529.639 851.404 529.872 852.422 529.872ZM867.827 534V510.074H874.463V534H867.827ZM871.161 506.99C870.174 506.99 869.328 506.663 868.622 506.009C867.926 505.344 867.578 504.55 867.578 503.625C867.578 502.712 867.926 501.928 868.622 501.273C869.328 500.609 870.174 500.276 871.161 500.276C872.147 500.276 872.988 500.609 873.684 501.273C874.39 501.928 874.743 502.712 874.743 503.625C874.743 504.55 874.39 505.344 873.684 506.009C872.988 506.663 872.147 506.99 871.161 506.99ZM885.098 502.099V534H878.463V502.099H885.098ZM893.818 534L887.307 510.074H894.02L897.728 526.149H897.946L901.809 510.074H908.398L912.323 526.056H912.525L916.17 510.074H922.868L916.373 534H909.348L905.235 518.953H904.94L900.827 534H893.818ZM925.092 534V510.074H931.728V534H925.092ZM928.426 506.99C927.439 506.99 926.593 506.663 925.887 506.009C925.191 505.344 924.843 504.55 924.843 503.625C924.843 502.712 925.191 501.928 925.887 501.273C926.593 500.609 927.439 500.276 928.426 500.276C929.412 500.276 930.253 500.609 930.949 501.273C931.655 501.928 932.008 502.712 932.008 503.625C932.008 504.55 931.655 505.344 930.949 506.009C930.253 506.663 929.412 506.99 928.426 506.99ZM942.363 520.168V534H935.728V510.074H942.052V514.295H942.332C942.862 512.904 943.75 511.803 944.996 510.993C946.242 510.173 947.753 509.763 949.529 509.763C951.19 509.763 952.639 510.126 953.874 510.853C955.11 511.58 956.071 512.618 956.756 513.968C957.442 515.308 957.784 516.907 957.784 518.766V534H951.149V519.95C951.159 518.486 950.785 517.343 950.027 516.523C949.269 515.692 948.225 515.277 946.896 515.277C946.003 515.277 945.214 515.469 944.528 515.853C943.853 516.237 943.324 516.798 942.94 517.535C942.566 518.262 942.374 519.14 942.363 520.168ZM970.515 534.389C968.697 534.389 967.051 533.922 965.577 532.988C964.113 532.043 962.95 530.656 962.088 528.829C961.236 526.99 960.81 524.737 960.81 522.068C960.81 519.327 961.252 517.047 962.134 515.23C963.017 513.402 964.19 512.037 965.655 511.133C967.129 510.22 968.744 509.763 970.499 509.763C971.839 509.763 972.955 509.991 973.848 510.448C974.752 510.895 975.478 511.455 976.029 512.13C976.59 512.795 977.015 513.449 977.306 514.093H977.509V502.099H984.129V534H977.586V530.168H977.306C976.995 530.833 976.553 531.492 975.982 532.146C975.421 532.79 974.689 533.325 973.786 533.751C972.893 534.177 971.802 534.389 970.515 534.389ZM972.618 529.109C973.687 529.109 974.591 528.818 975.328 528.237C976.076 527.645 976.647 526.819 977.041 525.76C977.446 524.701 977.649 523.46 977.649 522.037C977.649 520.614 977.451 519.379 977.057 518.33C976.662 517.281 976.091 516.471 975.343 515.9C974.596 515.329 973.687 515.043 972.618 515.043C971.527 515.043 970.608 515.339 969.86 515.931C969.113 516.523 968.547 517.343 968.163 518.392C967.778 519.441 967.586 520.656 967.586 522.037C967.586 523.429 967.778 524.659 968.163 525.729C968.557 526.788 969.123 527.619 969.86 528.221C970.608 528.813 971.527 529.109 972.618 529.109ZM644.547 566.267H637.725C637.6 565.385 637.346 564.601 636.961 563.915C636.577 563.22 636.084 562.628 635.482 562.14C634.879 561.651 634.183 561.278 633.394 561.018C632.615 560.758 631.769 560.629 630.855 560.629C629.204 560.629 627.766 561.039 626.54 561.859C625.315 562.669 624.365 563.853 623.69 565.411C623.015 566.958 622.677 568.838 622.677 571.049C622.677 573.324 623.015 575.234 623.69 576.782C624.375 578.329 625.331 579.497 626.556 580.286C627.781 581.076 629.199 581.47 630.809 581.47C631.712 581.47 632.548 581.351 633.316 581.112C634.095 580.873 634.786 580.525 635.388 580.068C635.99 579.601 636.489 579.035 636.883 578.37C637.288 577.706 637.569 576.948 637.725 576.096L644.547 576.127C644.371 577.592 643.929 579.004 643.223 580.364C642.527 581.714 641.588 582.924 640.404 583.994C639.23 585.053 637.828 585.894 636.198 586.517C634.578 587.13 632.745 587.436 630.699 587.436C627.854 587.436 625.31 586.792 623.067 585.505C620.834 584.217 619.069 582.353 617.771 579.913C616.483 577.472 615.839 574.518 615.839 571.049C615.839 567.571 616.493 564.611 617.802 562.171C619.11 559.73 620.886 557.872 623.129 556.594C625.372 555.307 627.896 554.663 630.699 554.663C632.548 554.663 634.261 554.922 635.84 555.442C637.429 555.961 638.836 556.719 640.061 557.716C641.286 558.702 642.283 559.912 643.052 561.345C643.831 562.778 644.329 564.419 644.547 566.267ZM665.374 564.274C665.249 563.017 664.714 562.041 663.769 561.345C662.824 560.649 661.542 560.301 659.922 560.301C658.821 560.301 657.892 560.457 657.134 560.769C656.375 561.07 655.794 561.491 655.389 562.03C654.994 562.57 654.797 563.183 654.797 563.869C654.776 564.44 654.896 564.938 655.155 565.364C655.425 565.79 655.794 566.158 656.261 566.47C656.729 566.771 657.269 567.036 657.881 567.264C658.494 567.482 659.148 567.669 659.844 567.825L662.71 568.51C664.101 568.822 665.379 569.237 666.542 569.757C667.705 570.276 668.712 570.914 669.564 571.672C670.415 572.431 671.075 573.324 671.542 574.352C672.02 575.38 672.264 576.558 672.274 577.888C672.264 579.84 671.765 581.533 670.779 582.966C669.803 584.388 668.39 585.494 666.542 586.283C664.704 587.062 662.487 587.452 659.891 587.452C657.315 587.452 655.072 587.057 653.161 586.268C651.261 585.479 649.776 584.31 648.706 582.763C647.647 581.205 647.092 579.279 647.04 576.984H653.566C653.639 578.054 653.945 578.947 654.485 579.663C655.036 580.37 655.768 580.904 656.682 581.268C657.606 581.621 658.65 581.797 659.813 581.797C660.955 581.797 661.947 581.631 662.788 581.299C663.639 580.967 664.299 580.505 664.766 579.913C665.233 579.321 665.467 578.64 665.467 577.872C665.467 577.156 665.254 576.553 664.828 576.065C664.413 575.577 663.8 575.162 662.99 574.819C662.191 574.476 661.209 574.165 660.046 573.884L656.573 573.012C653.883 572.358 651.76 571.335 650.202 569.943C648.644 568.552 647.871 566.678 647.881 564.32C647.871 562.389 648.385 560.701 649.423 559.258C650.472 557.814 651.91 556.688 653.738 555.878C655.565 555.068 657.642 554.663 659.968 554.663C662.336 554.663 664.403 555.068 666.168 555.878C667.944 556.688 669.325 557.814 670.311 559.258C671.298 560.701 671.807 562.373 671.838 564.274H665.374ZM692.801 564.274C692.676 563.017 692.141 562.041 691.196 561.345C690.251 560.649 688.969 560.301 687.349 560.301C686.248 560.301 685.319 560.457 684.561 560.769C683.802 561.07 683.221 561.491 682.816 562.03C682.421 562.57 682.224 563.183 682.224 563.869C682.203 564.44 682.323 564.938 682.582 565.364C682.852 565.79 683.221 566.158 683.688 566.47C684.156 566.771 684.696 567.036 685.308 567.264C685.921 567.482 686.575 567.669 687.271 567.825L690.137 568.51C691.529 568.822 692.806 569.237 693.969 569.757C695.132 570.276 696.139 570.914 696.991 571.672C697.842 572.431 698.502 573.324 698.969 574.352C699.447 575.38 699.691 576.558 699.701 577.888C699.691 579.84 699.192 581.533 698.206 582.966C697.23 584.388 695.817 585.494 693.969 586.283C692.131 587.062 689.914 587.452 687.318 587.452C684.742 587.452 682.499 587.057 680.588 586.268C678.688 585.479 677.203 584.31 676.134 582.763C675.074 581.205 674.519 579.279 674.467 576.984H680.993C681.066 578.054 681.373 578.947 681.913 579.663C682.463 580.37 683.195 580.904 684.109 581.268C685.033 581.621 686.077 581.797 687.24 581.797C688.382 581.797 689.374 581.631 690.215 581.299C691.066 580.967 691.726 580.505 692.193 579.913C692.66 579.321 692.894 578.64 692.894 577.872C692.894 577.156 692.681 576.553 692.255 576.065C691.84 575.577 691.227 575.162 690.417 574.819C689.618 574.476 688.636 574.165 687.473 573.884L684 573.012C681.31 572.358 679.187 571.335 677.629 569.943C676.071 568.552 675.298 566.678 675.308 564.32C675.298 562.389 675.812 560.701 676.85 559.258C677.899 557.814 679.337 556.688 681.165 555.878C682.992 555.068 685.069 554.663 687.396 554.663C689.763 554.663 691.83 555.068 693.595 555.878C695.371 556.688 696.752 557.814 697.738 559.258C698.725 560.701 699.234 562.373 699.265 564.274H692.801ZM722.444 587.467C719.993 587.467 717.885 586.948 716.12 585.91C714.365 584.861 713.015 583.407 712.07 581.548C711.135 579.689 710.668 577.55 710.668 575.131C710.668 572.68 711.14 570.53 712.085 568.682C713.041 566.823 714.396 565.374 716.151 564.336C717.906 563.287 719.993 562.763 722.413 562.763C724.5 562.763 726.328 563.142 727.896 563.9C729.464 564.658 730.705 565.722 731.618 567.093C732.532 568.464 733.036 570.073 733.129 571.922H726.868C726.691 570.728 726.224 569.767 725.466 569.04C724.718 568.303 723.737 567.934 722.522 567.934C721.494 567.934 720.595 568.214 719.827 568.775C719.069 569.326 718.477 570.13 718.051 571.19C717.625 572.249 717.413 573.531 717.413 575.037C717.413 576.564 717.62 577.862 718.036 578.931C718.461 580.001 719.058 580.816 719.827 581.377C720.595 581.938 721.494 582.218 722.522 582.218C723.28 582.218 723.96 582.062 724.562 581.751C725.175 581.439 725.679 580.987 726.073 580.395C726.478 579.793 726.743 579.071 726.868 578.23H733.129C733.026 580.058 732.527 581.668 731.634 583.059C730.751 584.44 729.531 585.52 727.974 586.299C726.416 587.078 724.573 587.467 722.444 587.467ZM746.872 587.467C744.453 587.467 742.36 586.953 740.595 585.925C738.84 584.887 737.485 583.443 736.529 581.595C735.574 579.736 735.096 577.581 735.096 575.131C735.096 572.659 735.574 570.499 736.529 568.651C737.485 566.792 738.84 565.348 740.595 564.32C742.36 563.282 744.453 562.763 746.872 562.763C749.292 562.763 751.379 563.282 753.134 564.32C754.9 565.348 756.26 566.792 757.215 568.651C758.171 570.499 758.648 572.659 758.648 575.131C758.648 577.581 758.171 579.736 757.215 581.595C756.26 583.443 754.9 584.887 753.134 585.925C751.379 586.953 749.292 587.467 746.872 587.467ZM746.903 582.327C748.004 582.327 748.923 582.015 749.661 581.392C750.398 580.759 750.953 579.897 751.327 578.807C751.711 577.716 751.904 576.475 751.904 575.084C751.904 573.692 751.711 572.451 751.327 571.361C750.953 570.271 750.398 569.409 749.661 568.775C748.923 568.142 748.004 567.825 746.903 567.825C745.792 567.825 744.858 568.142 744.1 568.775C743.352 569.409 742.786 570.271 742.402 571.361C742.028 572.451 741.841 573.692 741.841 575.084C741.841 576.475 742.028 577.716 742.402 578.807C742.786 579.897 743.352 580.759 744.1 581.392C744.858 582.015 745.792 582.327 746.903 582.327ZM761.647 587V563.074H767.971V567.295H768.252C768.75 565.894 769.581 564.788 770.744 563.978C771.907 563.168 773.299 562.763 774.919 562.763C776.559 562.763 777.956 563.173 779.109 563.993C780.261 564.803 781.03 565.904 781.414 567.295H781.663C782.151 565.925 783.034 564.829 784.311 564.009C785.599 563.178 787.12 562.763 788.875 562.763C791.108 562.763 792.92 563.474 794.312 564.897C795.713 566.309 796.414 568.313 796.414 570.909V587H789.794V572.218C789.794 570.888 789.441 569.892 788.735 569.227C788.029 568.562 787.146 568.23 786.087 568.23C784.882 568.23 783.943 568.614 783.268 569.383C782.593 570.141 782.255 571.143 782.255 572.389V587H775.822V572.077C775.822 570.904 775.484 569.969 774.809 569.274C774.145 568.578 773.267 568.23 772.177 568.23C771.44 568.23 770.775 568.417 770.183 568.791C769.602 569.154 769.14 569.668 768.797 570.333C768.454 570.987 768.283 571.756 768.283 572.638V587H761.647ZM800.34 595.972V563.074H806.882V567.093H807.178C807.469 566.449 807.89 565.795 808.44 565.13C809.001 564.455 809.728 563.895 810.621 563.448C811.524 562.991 812.646 562.763 813.985 562.763C815.73 562.763 817.339 563.22 818.814 564.133C820.289 565.037 821.467 566.402 822.35 568.23C823.233 570.047 823.674 572.327 823.674 575.068C823.674 577.737 823.243 579.99 822.381 581.829C821.53 583.656 820.367 585.043 818.892 585.988C817.428 586.922 815.787 587.389 813.97 587.389C812.682 587.389 811.586 587.177 810.683 586.751C809.79 586.325 809.058 585.79 808.487 585.146C807.916 584.492 807.479 583.833 807.178 583.168H806.976V595.972H800.34ZM806.836 575.037C806.836 576.46 807.033 577.701 807.427 578.76C807.822 579.819 808.393 580.645 809.141 581.237C809.889 581.818 810.797 582.109 811.867 582.109C812.947 582.109 813.861 581.813 814.608 581.221C815.356 580.619 815.922 579.788 816.306 578.729C816.701 577.659 816.898 576.429 816.898 575.037C816.898 573.656 816.706 572.441 816.322 571.392C815.938 570.343 815.372 569.523 814.624 568.931C813.876 568.339 812.957 568.043 811.867 568.043C810.787 568.043 809.873 568.329 809.125 568.9C808.388 569.471 807.822 570.281 807.427 571.33C807.033 572.379 806.836 573.614 806.836 575.037ZM837.592 587.467C835.173 587.467 833.08 586.953 831.315 585.925C829.56 584.887 828.205 583.443 827.249 581.595C826.294 579.736 825.816 577.581 825.816 575.131C825.816 572.659 826.294 570.499 827.249 568.651C828.205 566.792 829.56 565.348 831.315 564.32C833.08 563.282 835.173 562.763 837.592 562.763C840.012 562.763 842.099 563.282 843.854 564.32C845.619 565.348 846.98 566.792 847.935 568.651C848.89 570.499 849.368 572.659 849.368 575.131C849.368 577.581 848.89 579.736 847.935 581.595C846.98 583.443 845.619 584.887 843.854 585.925C842.099 586.953 840.012 587.467 837.592 587.467ZM837.623 582.327C838.724 582.327 839.643 582.015 840.38 581.392C841.118 580.759 841.673 579.897 842.047 578.807C842.431 577.716 842.623 576.475 842.623 575.084C842.623 573.692 842.431 572.451 842.047 571.361C841.673 570.271 841.118 569.409 840.38 568.775C839.643 568.142 838.724 567.825 837.623 567.825C836.512 567.825 835.578 568.142 834.819 568.775C834.072 569.409 833.506 570.271 833.122 571.361C832.748 572.451 832.561 573.692 832.561 575.084C832.561 576.475 832.748 577.716 833.122 578.807C833.506 579.897 834.072 580.759 834.819 581.392C835.578 582.015 836.512 582.327 837.623 582.327ZM859.003 573.168V587H852.367V563.074H858.691V567.295H858.972C859.501 565.904 860.389 564.803 861.635 563.993C862.881 563.173 864.392 562.763 866.168 562.763C867.829 562.763 869.278 563.126 870.514 563.853C871.75 564.58 872.71 565.618 873.396 566.968C874.081 568.308 874.424 569.907 874.424 571.766V587H867.788V572.95C867.798 571.486 867.424 570.343 866.666 569.523C865.908 568.692 864.865 568.277 863.535 568.277C862.642 568.277 861.853 568.469 861.168 568.853C860.493 569.237 859.963 569.798 859.579 570.535C859.205 571.262 859.013 572.14 859.003 573.168ZM889.241 587.467C886.78 587.467 884.662 586.969 882.886 585.972C881.121 584.965 879.76 583.542 878.805 581.704C877.85 579.855 877.372 577.67 877.372 575.146C877.372 572.685 877.85 570.525 878.805 568.666C879.76 566.807 881.105 565.359 882.839 564.32C884.584 563.282 886.63 562.763 888.976 562.763C890.555 562.763 892.024 563.017 893.385 563.526C894.755 564.024 895.95 564.777 896.967 565.784C897.995 566.792 898.795 568.059 899.366 569.585C899.937 571.101 900.223 572.877 900.223 574.912V576.735H880.02V572.623H893.977C893.977 571.667 893.769 570.821 893.354 570.084C892.938 569.346 892.362 568.77 891.625 568.355C890.898 567.929 890.051 567.716 889.086 567.716C888.078 567.716 887.185 567.95 886.406 568.417C885.638 568.874 885.036 569.492 884.599 570.271C884.163 571.039 883.94 571.896 883.93 572.841V576.751C883.93 577.934 884.148 578.957 884.584 579.819C885.03 580.681 885.659 581.346 886.469 581.813C887.279 582.28 888.239 582.514 889.35 582.514C890.088 582.514 890.763 582.41 891.375 582.202C891.988 581.995 892.512 581.683 892.949 581.268C893.385 580.852 893.717 580.344 893.945 579.741L900.083 580.146C899.771 581.621 899.133 582.909 898.167 584.009C897.211 585.1 895.976 585.951 894.46 586.564C892.954 587.166 891.214 587.467 889.241 587.467ZM909.873 573.168V587H903.237V563.074H909.561V567.295H909.842C910.371 565.904 911.259 564.803 912.505 563.993C913.752 563.173 915.263 562.763 917.038 562.763C918.7 562.763 920.148 563.126 921.384 563.853C922.62 564.58 923.581 565.618 924.266 566.968C924.951 568.308 925.294 569.907 925.294 571.766V587H918.658V572.95C918.669 571.486 918.295 570.343 917.537 569.523C916.779 568.692 915.735 568.277 914.406 568.277C913.513 568.277 912.724 568.469 912.038 568.853C911.363 569.237 910.834 569.798 910.449 570.535C910.075 571.262 909.883 572.14 909.873 573.168ZM941.934 563.074V568.059H927.526V563.074H941.934ZM930.797 557.342H937.432V579.648C937.432 580.26 937.526 580.738 937.713 581.081C937.9 581.413 938.159 581.647 938.492 581.782C938.834 581.917 939.229 581.984 939.675 581.984C939.987 581.984 940.299 581.958 940.61 581.906C940.922 581.844 941.16 581.797 941.327 581.766L942.37 586.704C942.038 586.808 941.571 586.927 940.968 587.062C940.366 587.208 939.634 587.296 938.772 587.327C937.173 587.389 935.771 587.177 934.566 586.688C933.372 586.2 932.443 585.442 931.778 584.414C931.113 583.386 930.786 582.088 930.797 580.52V557.342ZM964.548 569.897L958.473 570.271C958.369 569.751 958.146 569.284 957.803 568.869C957.461 568.443 957.009 568.105 956.448 567.856C955.898 567.597 955.238 567.467 954.47 567.467C953.442 567.467 952.575 567.685 951.869 568.121C951.162 568.547 950.809 569.118 950.809 569.834C950.809 570.406 951.038 570.888 951.495 571.283C951.952 571.678 952.736 571.994 953.847 572.233L958.177 573.106C960.503 573.583 962.237 574.352 963.38 575.411C964.522 576.47 965.093 577.862 965.093 579.585C965.093 581.154 964.631 582.529 963.707 583.713C962.793 584.897 961.536 585.821 959.937 586.486C958.348 587.14 956.516 587.467 954.439 587.467C951.271 587.467 948.748 586.808 946.868 585.489C944.999 584.16 943.904 582.353 943.582 580.068L950.108 579.726C950.306 580.691 950.783 581.429 951.541 581.938C952.299 582.436 953.27 582.685 954.454 582.685C955.617 582.685 956.552 582.462 957.258 582.015C957.975 581.559 958.338 580.972 958.348 580.255C958.338 579.653 958.084 579.16 957.585 578.775C957.087 578.381 956.318 578.08 955.28 577.872L951.136 577.046C948.8 576.579 947.06 575.769 945.918 574.616C944.786 573.464 944.22 571.994 944.22 570.208C944.22 568.671 944.636 567.347 945.466 566.236C946.308 565.125 947.486 564.268 949.002 563.666C950.529 563.064 952.315 562.763 954.361 562.763C957.383 562.763 959.761 563.401 961.495 564.679C963.24 565.956 964.257 567.695 964.548 569.897ZM971.834 587.405C970.806 587.405 969.924 587.042 969.186 586.315C968.459 585.577 968.096 584.695 968.096 583.667C968.096 582.649 968.459 581.777 969.186 581.05C969.924 580.323 970.806 579.959 971.834 579.959C972.831 579.959 973.703 580.323 974.451 581.05C975.199 581.777 975.573 582.649 975.573 583.667C975.573 584.352 975.396 584.98 975.043 585.551C974.7 586.112 974.249 586.564 973.688 586.907C973.127 587.239 972.509 587.405 971.834 587.405Z" fill="#5A5A5A"/>
</g>
</g>
<path d="M243.5 181C243.5 167.469 254.469 156.5 268 156.5H1323C1336.53 156.5 1347.5 167.469 1347.5 181V1059.5H243.5V181Z" stroke="#BFC3C9" shape-rendering="crispEdges"/>
</g>
</g>
<defs>
<filter id="filter0_d_211_232" x="131.183" y="66.5465" width="1328.63" height="1127.63" filterUnits="userSpaceOnUse" color-interpolation-filters="sRGB">
<feFlood flood-opacity="0" result="BackgroundImageFix"/>
<feColorMatrix in="SourceAlpha" type="matrix" values="0 0 0 0 0 0 0 0 0 0 0 0 0 0 0 0 0 0 127 0" result="hardAlpha"/>
<feOffset dy="22.3634"/>
<feGaussianBlur stdDeviation="55.9085"/>
<feComposite in2="hardAlpha" operator="out"/>
<feColorMatrix type="matrix" values="0 0 0 0 0 0 0 0 0 0 0 0 0 0 0 0 0 0 0.15 0"/>
<feBlend mode="normal" in2="BackgroundImageFix" result="effect1_dropShadow_211_232"/>
<feBlend mode="normal" in="SourceGraphic" in2="effect1_dropShadow_211_232" result="shape"/>
</filter>
<clipPath id="clip0_211_232">
<rect width="1536" height="1024" fill="white"/>
</clipPath>
<clipPath id="clip1_211_232">
<path d="M243 181C243 167.193 254.193 156 268 156H1323C1336.81 156 1348 167.193 1348 181V1060H243V181Z" fill="white"/>
</clipPath>
<clipPath id="clip2_211_232">
<rect width="884" height="386" fill="white" transform="translate(354 415)"/>
</clipPath>
</defs>
</svg>
