<svg width="1536" height="1024" viewBox="0 0 1536 1024" fill="none" xmlns="http://www.w3.org/2000/svg">
<g clip-path="url(#clip0_216_154)">
<g filter="url(#filter0_d_216_154)">
<g clip-path="url(#clip1_216_154)">
<path d="M243 181C243 167.193 254.193 156 268 156H1323C1336.81 156 1348 167.193 1348 181V1060H243V181Z" fill="#F9FAFB"/>
<mask id="path-4-inside-1_216_154" fill="white">
<path d="M243 156H1348V218H243V156Z"/>
</mask>
<path d="M243 156H1348V218H243V156Z" fill="white"/>
<circle cx="293" cy="187" r="10" fill="#D1D5DB"/>
<circle cx="294" cy="187" r="10" fill="#D1D5DB"/>
<circle cx="319" cy="187" r="10" fill="#D1D5DB"/>
<circle cx="344" cy="187" r="10" fill="#D1D5DB"/>
<path d="M1348 217H243V219H1348V217Z" fill="#D1D5DB" mask="url(#path-4-inside-1_216_154)"/>
<rect x="614" y="596" width="365" height="12" rx="6" fill="#D1D5DB"/>
<path d="M583.273 552.392V547.081L596.591 526.099H601.171V533.451H598.461L590.065 546.738V546.987H608.991V552.392H583.273ZM598.585 558V550.772L598.71 548.42V526.099H605.034V558H598.585ZM624.677 558.701C621.997 558.691 619.692 558.031 617.761 556.723C615.839 555.414 614.36 553.519 613.321 551.037C612.293 548.555 611.784 545.57 611.795 542.081C611.795 538.602 612.309 535.637 613.337 533.186C614.375 530.736 615.855 528.872 617.776 527.594C619.708 526.307 622.008 525.663 624.677 525.663C627.345 525.663 629.64 526.307 631.562 527.594C633.493 528.882 634.978 530.751 636.017 533.202C637.055 535.642 637.569 538.602 637.559 542.081C637.559 545.58 637.039 548.571 636.001 551.053C634.973 553.535 633.498 555.43 631.577 556.738C629.656 558.047 627.356 558.701 624.677 558.701ZM624.677 553.109C626.504 553.109 627.963 552.19 629.054 550.352C630.144 548.514 630.684 545.757 630.674 542.081C630.674 539.661 630.424 537.646 629.926 536.037C629.438 534.427 628.742 533.217 627.839 532.407C626.946 531.597 625.892 531.192 624.677 531.192C622.859 531.192 621.406 532.101 620.315 533.918C619.225 535.736 618.674 538.456 618.664 542.081C618.664 544.531 618.908 546.577 619.396 548.218C619.895 549.848 620.596 551.074 621.499 551.894C622.402 552.704 623.462 553.109 624.677 553.109ZM640.569 552.392V547.081L653.887 526.099H658.467V533.451H655.756L647.361 546.738V546.987H666.286V552.392H640.569ZM655.881 558V550.772L656.006 548.42V526.099H662.33V558H655.881ZM693.27 539.417V544.682H678.721V539.417H693.27ZM706.569 558V526.099H719.155C721.575 526.099 723.636 526.561 725.339 527.485C727.042 528.399 728.34 529.671 729.233 531.301C730.137 532.921 730.588 534.791 730.588 536.909C730.588 539.028 730.131 540.897 729.218 542.517C728.304 544.137 726.98 545.398 725.245 546.302C723.522 547.205 721.434 547.657 718.984 547.657H710.962V542.252H717.893C719.191 542.252 720.261 542.029 721.102 541.582C721.954 541.125 722.587 540.497 723.002 539.697C723.428 538.887 723.641 537.958 723.641 536.909C723.641 535.85 723.428 534.926 723.002 534.136C722.587 533.337 721.954 532.719 721.102 532.283C720.251 531.836 719.171 531.613 717.862 531.613H713.314V558H706.569ZM739.709 558.452C738.182 558.452 736.822 558.187 735.628 557.657C734.433 557.117 733.488 556.323 732.793 555.274C732.107 554.215 731.765 552.896 731.765 551.318C731.765 549.988 732.009 548.872 732.497 547.969C732.985 547.065 733.649 546.338 734.491 545.788C735.332 545.237 736.287 544.822 737.357 544.542C738.437 544.261 739.569 544.064 740.752 543.95C742.144 543.804 743.265 543.669 744.117 543.545C744.969 543.41 745.586 543.212 745.971 542.953C746.355 542.693 746.547 542.309 746.547 541.8V541.707C746.547 540.72 746.235 539.957 745.612 539.417C745 538.877 744.127 538.607 742.995 538.607C741.801 538.607 740.851 538.872 740.145 539.401C739.439 539.921 738.971 540.575 738.743 541.364L732.606 540.866C732.917 539.412 733.53 538.155 734.444 537.096C735.358 536.026 736.536 535.206 737.98 534.635C739.434 534.053 741.116 533.763 743.027 533.763C744.356 533.763 745.628 533.918 746.843 534.23C748.068 534.541 749.153 535.024 750.098 535.679C751.054 536.333 751.807 537.174 752.357 538.202C752.907 539.22 753.183 540.44 753.183 541.863V558H746.89V554.682H746.703C746.319 555.43 745.804 556.089 745.161 556.66C744.517 557.221 743.743 557.663 742.84 557.984C741.936 558.296 740.893 558.452 739.709 558.452ZM741.609 553.872C742.585 553.872 743.447 553.68 744.195 553.296C744.943 552.901 745.529 552.372 745.955 551.707C746.381 551.042 746.594 550.29 746.594 549.448V546.909C746.386 547.044 746.1 547.169 745.737 547.283C745.384 547.387 744.984 547.486 744.538 547.579C744.091 547.662 743.645 547.74 743.198 547.813C742.751 547.875 742.346 547.932 741.983 547.984C741.204 548.098 740.524 548.28 739.942 548.529C739.361 548.779 738.909 549.116 738.587 549.542C738.265 549.957 738.104 550.476 738.104 551.1C738.104 552.003 738.432 552.694 739.086 553.171C739.75 553.639 740.591 553.872 741.609 553.872ZM767.794 567.471C765.644 567.471 763.801 567.175 762.264 566.583C760.738 566.001 759.523 565.207 758.619 564.2C757.716 563.192 757.129 562.06 756.859 560.804L762.996 559.978C763.183 560.456 763.479 560.902 763.884 561.318C764.289 561.733 764.824 562.066 765.489 562.315C766.164 562.574 766.984 562.704 767.95 562.704C769.393 562.704 770.582 562.351 771.517 561.645C772.462 560.949 772.934 559.781 772.934 558.14V553.763H772.654C772.363 554.428 771.927 555.056 771.345 555.648C770.764 556.24 770.016 556.723 769.102 557.097C768.189 557.47 767.098 557.657 765.831 557.657C764.035 557.657 762.399 557.242 760.925 556.411C759.46 555.57 758.292 554.288 757.42 552.564C756.558 550.83 756.127 548.638 756.127 545.99C756.127 543.28 756.568 541.016 757.451 539.199C758.334 537.382 759.507 536.021 760.971 535.118C762.446 534.214 764.061 533.763 765.816 533.763C767.155 533.763 768.277 533.991 769.18 534.448C770.084 534.895 770.811 535.455 771.361 536.13C771.922 536.795 772.353 537.449 772.654 538.093H772.903V534.074H779.492V558.234C779.492 560.269 778.994 561.972 777.997 563.343C777 564.714 775.619 565.742 773.853 566.427C772.098 567.123 770.079 567.471 767.794 567.471ZM767.934 552.673C769.004 552.673 769.907 552.408 770.645 551.878C771.392 551.338 771.963 550.57 772.358 549.573C772.763 548.566 772.965 547.361 772.965 545.959C772.965 544.557 772.768 543.342 772.374 542.314C771.979 541.276 771.408 540.471 770.66 539.9C769.912 539.329 769.004 539.043 767.934 539.043C766.844 539.043 765.925 539.339 765.177 539.931C764.429 540.513 763.863 541.323 763.479 542.361C763.095 543.399 762.903 544.599 762.903 545.959C762.903 547.34 763.095 548.535 763.479 549.542C763.874 550.539 764.44 551.312 765.177 551.863C765.925 552.403 766.844 552.673 767.934 552.673ZM794.36 558.467C791.899 558.467 789.781 557.969 788.005 556.972C786.24 555.965 784.879 554.542 783.924 552.704C782.969 550.855 782.491 548.67 782.491 546.146C782.491 543.685 782.969 541.525 783.924 539.666C784.879 537.807 786.224 536.359 787.958 535.32C789.703 534.282 791.749 533.763 794.096 533.763C795.674 533.763 797.143 534.017 798.504 534.526C799.875 535.024 801.069 535.777 802.086 536.784C803.115 537.792 803.914 539.059 804.485 540.585C805.056 542.101 805.342 543.877 805.342 545.912V547.735H785.139V543.623H799.096C799.096 542.667 798.888 541.821 798.473 541.084C798.057 540.346 797.481 539.77 796.744 539.355C796.017 538.929 795.17 538.716 794.205 538.716C793.197 538.716 792.304 538.95 791.525 539.417C790.757 539.874 790.155 540.492 789.719 541.271C789.282 542.039 789.059 542.896 789.049 543.841V547.751C789.049 548.934 789.267 549.957 789.703 550.819C790.149 551.681 790.778 552.346 791.588 552.813C792.398 553.28 793.358 553.514 794.469 553.514C795.207 553.514 795.882 553.41 796.494 553.202C797.107 552.995 797.632 552.683 798.068 552.268C798.504 551.852 798.836 551.344 799.065 550.741L805.202 551.146C804.89 552.621 804.252 553.909 803.286 555.009C802.33 556.1 801.095 556.951 799.579 557.564C798.073 558.166 796.333 558.467 794.36 558.467ZM823.828 544.168V558H817.193V534.074H823.517V538.295H823.797C824.327 536.904 825.215 535.803 826.461 534.993C827.707 534.173 829.218 533.763 830.994 533.763C832.655 533.763 834.104 534.126 835.34 534.853C836.575 535.58 837.536 536.618 838.221 537.968C838.907 539.308 839.249 540.907 839.249 542.766V558H832.614V543.95C832.624 542.486 832.25 541.343 831.492 540.523C830.734 539.692 829.69 539.277 828.361 539.277C827.468 539.277 826.679 539.469 825.993 539.853C825.318 540.237 824.789 540.798 824.405 541.535C824.031 542.262 823.839 543.14 823.828 544.168ZM853.973 558.467C851.554 558.467 849.461 557.953 847.696 556.925C845.941 555.887 844.586 554.443 843.631 552.595C842.675 550.736 842.197 548.581 842.197 546.131C842.197 543.659 842.675 541.499 843.631 539.651C844.586 537.792 845.941 536.348 847.696 535.32C849.461 534.282 851.554 533.763 853.973 533.763C856.393 533.763 858.48 534.282 860.235 535.32C862.001 536.348 863.361 537.792 864.316 539.651C865.272 541.499 865.749 543.659 865.749 546.131C865.749 548.581 865.272 550.736 864.316 552.595C863.361 554.443 862.001 555.887 860.235 556.925C858.48 557.953 856.393 558.467 853.973 558.467ZM854.005 553.327C855.105 553.327 856.024 553.015 856.762 552.392C857.499 551.759 858.055 550.897 858.428 549.807C858.813 548.716 859.005 547.475 859.005 546.084C859.005 544.692 858.813 543.451 858.428 542.361C858.055 541.271 857.499 540.409 856.762 539.775C856.024 539.142 855.105 538.825 854.005 538.825C852.893 538.825 851.959 539.142 851.201 539.775C850.453 540.409 849.887 541.271 849.503 542.361C849.129 543.451 848.942 544.692 848.942 546.084C848.942 547.475 849.129 548.716 849.503 549.807C849.887 550.897 850.453 551.759 851.201 552.392C851.959 553.015 852.893 553.327 854.005 553.327ZM881.475 534.074V539.059H867.066V534.074H881.475ZM870.337 528.342H876.973V550.648C876.973 551.26 877.066 551.738 877.253 552.081C877.44 552.413 877.7 552.647 878.032 552.782C878.375 552.917 878.769 552.984 879.216 552.984C879.527 552.984 879.839 552.958 880.15 552.906C880.462 552.844 880.701 552.797 880.867 552.766L881.911 557.704C881.578 557.808 881.111 557.927 880.509 558.062C879.906 558.208 879.174 558.296 878.312 558.327C876.713 558.389 875.311 558.177 874.107 557.688C872.913 557.2 871.983 556.442 871.318 555.414C870.654 554.386 870.327 553.088 870.337 551.52V528.342ZM906.184 534.074V539.059H891.417V534.074H906.184ZM894.797 558V532.345C894.797 530.611 895.135 529.173 895.81 528.03C896.495 526.888 897.43 526.031 898.613 525.46C899.797 524.889 901.142 524.603 902.648 524.603C903.665 524.603 904.595 524.681 905.436 524.837C906.288 524.993 906.921 525.133 907.336 525.258L906.153 530.242C905.893 530.159 905.571 530.081 905.187 530.009C904.813 529.936 904.429 529.9 904.034 529.9C903.058 529.9 902.378 530.128 901.994 530.585C901.609 531.031 901.417 531.66 901.417 532.47V558H894.797ZM918.875 558.467C916.456 558.467 914.363 557.953 912.598 556.925C910.843 555.887 909.488 554.443 908.532 552.595C907.577 550.736 907.099 548.581 907.099 546.131C907.099 543.659 907.577 541.499 908.532 539.651C909.488 537.792 910.843 536.348 912.598 535.32C914.363 534.282 916.456 533.763 918.875 533.763C921.295 533.763 923.382 534.282 925.137 535.32C926.902 536.348 928.263 537.792 929.218 539.651C930.173 541.499 930.651 543.659 930.651 546.131C930.651 548.581 930.173 550.736 929.218 552.595C928.263 554.443 926.902 555.887 925.137 556.925C923.382 557.953 921.295 558.467 918.875 558.467ZM918.906 553.327C920.007 553.327 920.926 553.015 921.663 552.392C922.401 551.759 922.956 550.897 923.33 549.807C923.714 548.716 923.906 547.475 923.906 546.084C923.906 544.692 923.714 543.451 923.33 542.361C922.956 541.271 922.401 540.409 921.663 539.775C920.926 539.142 920.007 538.825 918.906 538.825C917.795 538.825 916.861 539.142 916.103 539.775C915.355 540.409 914.789 541.271 914.405 542.361C914.031 543.451 913.844 544.692 913.844 546.084C913.844 547.475 914.031 548.716 914.405 549.807C914.789 550.897 915.355 551.759 916.103 552.392C916.861 553.015 917.795 553.327 918.906 553.327ZM948.993 547.813V534.074H955.629V558H949.258V553.654H949.009C948.469 555.056 947.57 556.183 946.314 557.034C945.068 557.886 943.546 558.312 941.75 558.312C940.151 558.312 938.744 557.948 937.529 557.221C936.314 556.494 935.363 555.461 934.678 554.121C934.003 552.782 933.66 551.177 933.65 549.308V534.074H940.286V548.124C940.296 549.537 940.675 550.653 941.423 551.473C942.171 552.294 943.173 552.704 944.429 552.704C945.229 552.704 945.976 552.522 946.672 552.159C947.368 551.785 947.929 551.235 948.354 550.508C948.791 549.781 949.003 548.882 948.993 547.813ZM966.256 544.168V558H959.621V534.074H965.945V538.295H966.225C966.755 536.904 967.643 535.803 968.889 534.993C970.135 534.173 971.646 533.763 973.422 533.763C975.083 533.763 976.532 534.126 977.768 534.853C979.003 535.58 979.964 536.618 980.649 537.968C981.335 539.308 981.677 540.907 981.677 542.766V558H975.042V543.95C975.052 542.486 974.678 541.343 973.92 540.523C973.162 539.692 972.118 539.277 970.789 539.277C969.896 539.277 969.107 539.469 968.421 539.853C967.747 540.237 967.217 540.798 966.833 541.535C966.459 542.262 966.267 543.14 966.256 544.168ZM994.408 558.389C992.59 558.389 990.944 557.922 989.47 556.988C988.006 556.043 986.843 554.656 985.981 552.829C985.129 550.99 984.703 548.737 984.703 546.068C984.703 543.327 985.145 541.047 986.027 539.23C986.91 537.402 988.084 536.037 989.548 535.133C991.022 534.22 992.637 533.763 994.392 533.763C995.732 533.763 996.848 533.991 997.741 534.448C998.645 534.895 999.371 535.455 999.922 536.13C1000.48 536.795 1000.91 537.449 1001.2 538.093H1001.4V526.099H1008.02V558H1001.48V554.168H1001.2C1000.89 554.833 1000.45 555.492 999.875 556.146C999.314 556.79 998.582 557.325 997.679 557.751C996.786 558.177 995.695 558.389 994.408 558.389ZM996.511 553.109C997.58 553.109 998.484 552.818 999.221 552.237C999.969 551.645 1000.54 550.819 1000.93 549.76C1001.34 548.701 1001.54 547.46 1001.54 546.037C1001.54 544.614 1001.34 543.379 1000.95 542.33C1000.56 541.281 999.984 540.471 999.236 539.9C998.489 539.329 997.58 539.043 996.511 539.043C995.42 539.043 994.501 539.339 993.753 539.931C993.006 540.523 992.44 541.343 992.056 542.392C991.671 543.441 991.479 544.656 991.479 546.037C991.479 547.429 991.671 548.659 992.056 549.729C992.45 550.788 993.016 551.619 993.753 552.221C994.501 552.813 995.42 553.109 996.511 553.109Z" fill="#5A5A5A"/>
</g>
<path d="M243.5 181C243.5 167.469 254.469 156.5 268 156.5H1323C1336.53 156.5 1347.5 167.469 1347.5 181V1059.5H243.5V181Z" stroke="#BFC3C9" shape-rendering="crispEdges"/>
</g>
</g>
<defs>
<filter id="filter0_d_216_154" x="131.183" y="66.5465" width="1328.63" height="1127.63" filterUnits="userSpaceOnUse" color-interpolation-filters="sRGB">
<feFlood flood-opacity="0" result="BackgroundImageFix"/>
<feColorMatrix in="SourceAlpha" type="matrix" values="0 0 0 0 0 0 0 0 0 0 0 0 0 0 0 0 0 0 127 0" result="hardAlpha"/>
<feOffset dy="22.3634"/>
<feGaussianBlur stdDeviation="55.9085"/>
<feComposite in2="hardAlpha" operator="out"/>
<feColorMatrix type="matrix" values="0 0 0 0 0 0 0 0 0 0 0 0 0 0 0 0 0 0 0.15 0"/>
<feBlend mode="normal" in2="BackgroundImageFix" result="effect1_dropShadow_216_154"/>
<feBlend mode="normal" in="SourceGraphic" in2="effect1_dropShadow_216_154" result="shape"/>
</filter>
<clipPath id="clip0_216_154">
<rect width="1536" height="1024" fill="white"/>
</clipPath>
<clipPath id="clip1_216_154">
<path d="M243 181C243 167.193 254.193 156 268 156H1323C1336.81 156 1348 167.193 1348 181V1060H243V181Z" fill="white"/>
</clipPath>
</defs>
</svg>
