<svg width="1536" height="1024" viewBox="0 0 1536 1024" fill="none" xmlns="http://www.w3.org/2000/svg">
<g clip-path="url(#clip0_211_480)">
<g filter="url(#filter0_d_211_480)">
<g clip-path="url(#clip1_211_480)">
<path d="M243 181C243 167.193 254.193 156 268 156H1323C1336.81 156 1348 167.193 1348 181V1060H243V181Z" fill="#F9FAFB"/>
<mask id="path-4-inside-1_211_480" fill="white">
<path d="M243 156H1348V218H243V156Z"/>
</mask>
<path d="M243 156H1348V218H243V156Z" fill="white"/>
<circle cx="293" cy="187" r="10" fill="#D1D5DB"/>
<circle cx="294" cy="187" r="10" fill="#D1D5DB"/>
<circle cx="319" cy="187" r="10" fill="#D1D5DB"/>
<circle cx="344" cy="187" r="10" fill="#D1D5DB"/>
<path d="M1348 217H243V219H1348V217Z" fill="#D1D5DB" mask="url(#path-4-inside-1_211_480)"/>
<rect x="376" y="548" width="107" height="12" rx="6" fill="#D1D5DB"/>
<rect x="742" y="548" width="397" height="12" rx="6" fill="#D1D5DB"/>
<rect x="742" y="592" width="353" height="8" rx="4" fill="#D8DCE1"/>
<rect x="742" y="608" width="318" height="8" rx="4" fill="#D8DCE1"/>
<rect x="742" y="624" width="353" height="8" rx="4" fill="#D8DCE1"/>
<rect x="742" y="640" width="178" height="8" rx="4" fill="#D8DCE1"/>
<rect x="376" y="711" width="107" height="12" rx="6" fill="#D1D5DB"/>
<rect x="742" y="711" width="397" height="12" rx="6" fill="#D1D5DB"/>
<rect x="742" y="755" width="353" height="8" rx="4" fill="#D8DCE1"/>
<rect x="742" y="771" width="318" height="8" rx="4" fill="#D8DCE1"/>
<rect x="742" y="787" width="353" height="8" rx="4" fill="#D8DCE1"/>
<rect x="742" y="803" width="178" height="8" rx="4" fill="#D8DCE1"/>
<rect x="376" y="874" width="107" height="12" rx="6" fill="#D1D5DB"/>
<rect x="742" y="874" width="397" height="12" rx="6" fill="#D1D5DB"/>
<rect x="742" y="918" width="353" height="8" rx="4" fill="#D8DCE1"/>
<rect x="742" y="934" width="318" height="8" rx="4" fill="#D8DCE1"/>
<rect x="742" y="950" width="353" height="8" rx="4" fill="#D8DCE1"/>
<rect x="742" y="966" width="178" height="8" rx="4" fill="#D8DCE1"/>
<path d="M378.773 391V359.099H399.895V364.66H385.517V372.261H398.493V377.822H385.517V391H378.773ZM402.605 391V367.074H409.039V371.249H409.288C409.724 369.764 410.456 368.642 411.484 367.884C412.512 367.116 413.696 366.731 415.036 366.731C415.368 366.731 415.726 366.752 416.11 366.794C416.495 366.835 416.832 366.892 417.123 366.965V372.853C416.811 372.76 416.38 372.677 415.83 372.604C415.28 372.531 414.776 372.495 414.319 372.495C413.343 372.495 412.471 372.708 411.702 373.133C410.944 373.549 410.342 374.13 409.895 374.878C409.459 375.626 409.241 376.488 409.241 377.464V391H402.605ZM429.028 391.467C426.567 391.467 424.448 390.969 422.672 389.972C420.907 388.965 419.547 387.542 418.591 385.704C417.636 383.855 417.158 381.67 417.158 379.146C417.158 376.685 417.636 374.525 418.591 372.666C419.547 370.807 420.891 369.359 422.626 368.32C424.37 367.282 426.416 366.763 428.763 366.763C430.341 366.763 431.811 367.017 433.171 367.526C434.542 368.024 435.736 368.777 436.754 369.784C437.782 370.792 438.581 372.059 439.153 373.585C439.724 375.101 440.009 376.877 440.009 378.912V380.735H419.806V376.623H433.763C433.763 375.667 433.555 374.821 433.14 374.084C432.725 373.346 432.148 372.77 431.411 372.355C430.684 371.929 429.838 371.716 428.872 371.716C427.865 371.716 426.972 371.95 426.193 372.417C425.424 372.874 424.822 373.492 424.386 374.271C423.95 375.039 423.726 375.896 423.716 376.841V380.751C423.716 381.934 423.934 382.957 424.37 383.819C424.817 384.681 425.445 385.346 426.255 385.813C427.065 386.28 428.026 386.514 429.137 386.514C429.874 386.514 430.549 386.41 431.162 386.202C431.774 385.995 432.299 385.683 432.735 385.268C433.171 384.852 433.503 384.344 433.732 383.741L439.869 384.146C439.558 385.621 438.919 386.909 437.953 388.009C436.998 389.1 435.762 389.951 434.246 390.564C432.74 391.166 431.001 391.467 429.028 391.467ZM458.834 399.972V387.168H458.632C458.32 387.833 457.879 388.492 457.308 389.146C456.747 389.79 456.015 390.325 455.111 390.751C454.218 391.177 453.128 391.389 451.84 391.389C450.023 391.389 448.377 390.922 446.902 389.988C445.438 389.043 444.275 387.656 443.413 385.829C442.562 383.99 442.136 381.737 442.136 379.068C442.136 376.327 442.577 374.047 443.46 372.23C444.343 370.402 445.516 369.037 446.98 368.133C448.455 367.22 450.07 366.763 451.825 366.763C453.164 366.763 454.281 366.991 455.174 367.448C456.077 367.895 456.804 368.455 457.354 369.13C457.915 369.795 458.341 370.449 458.632 371.093H458.912V367.074H465.454V399.972H458.834ZM453.943 386.109C455.013 386.109 455.916 385.818 456.653 385.237C457.401 384.645 457.972 383.819 458.367 382.76C458.772 381.701 458.974 380.46 458.974 379.037C458.974 377.614 458.777 376.379 458.382 375.33C457.988 374.281 457.417 373.471 456.669 372.9C455.921 372.329 455.013 372.043 453.943 372.043C452.853 372.043 451.934 372.339 451.186 372.931C450.438 373.523 449.872 374.343 449.488 375.392C449.104 376.441 448.912 377.656 448.912 379.037C448.912 380.429 449.104 381.659 449.488 382.729C449.883 383.788 450.449 384.619 451.186 385.221C451.934 385.813 452.853 386.109 453.943 386.109ZM484.809 380.813V367.074H491.444V391H485.073V386.654H484.824C484.284 388.056 483.386 389.183 482.129 390.034C480.883 390.886 479.362 391.312 477.565 391.312C475.966 391.312 474.559 390.948 473.344 390.221C472.129 389.494 471.179 388.461 470.494 387.121C469.819 385.782 469.476 384.177 469.466 382.308V367.074H476.101V381.124C476.112 382.537 476.491 383.653 477.238 384.473C477.986 385.294 478.988 385.704 480.245 385.704C481.044 385.704 481.792 385.522 482.488 385.159C483.183 384.785 483.744 384.235 484.17 383.508C484.606 382.781 484.819 381.882 484.809 380.813ZM506.34 391.467C503.879 391.467 501.76 390.969 499.985 389.972C498.219 388.965 496.859 387.542 495.903 385.704C494.948 383.855 494.47 381.67 494.47 379.146C494.47 376.685 494.948 374.525 495.903 372.666C496.859 370.807 498.204 369.359 499.938 368.32C501.682 367.282 503.728 366.763 506.075 366.763C507.654 366.763 509.123 367.017 510.483 367.526C511.854 368.024 513.048 368.777 514.066 369.784C515.094 370.792 515.894 372.059 516.465 373.585C517.036 375.101 517.321 376.877 517.321 378.912V380.735H497.118V376.623H511.075C511.075 375.667 510.868 374.821 510.452 374.084C510.037 373.346 509.46 372.77 508.723 372.355C507.996 371.929 507.15 371.716 506.184 371.716C505.177 371.716 504.284 371.95 503.505 372.417C502.736 372.874 502.134 373.492 501.698 374.271C501.262 375.039 501.039 375.896 501.028 376.841V380.751C501.028 381.934 501.246 382.957 501.682 383.819C502.129 384.681 502.757 385.346 503.567 385.813C504.377 386.28 505.338 386.514 506.449 386.514C507.186 386.514 507.861 386.41 508.474 386.202C509.087 385.995 509.611 385.683 510.047 385.268C510.483 384.852 510.816 384.344 511.044 383.741L517.181 384.146C516.87 385.621 516.231 386.909 515.265 388.009C514.31 389.1 513.074 389.951 511.558 390.564C510.052 391.166 508.313 391.467 506.34 391.467ZM526.972 377.168V391H520.336V367.074H526.66V371.295H526.94C527.47 369.904 528.358 368.803 529.604 367.993C530.85 367.173 532.361 366.763 534.137 366.763C535.798 366.763 537.247 367.126 538.483 367.853C539.719 368.58 540.679 369.618 541.364 370.968C542.05 372.308 542.393 373.907 542.393 375.766V391H535.757V376.95C535.767 375.486 535.393 374.343 534.635 373.523C533.877 372.692 532.834 372.277 531.504 372.277C530.611 372.277 529.822 372.469 529.137 372.853C528.462 373.237 527.932 373.798 527.548 374.535C527.174 375.262 526.982 376.14 526.972 377.168ZM559.033 367.074V372.059H544.624V367.074H559.033ZM547.895 361.342H554.531V383.648C554.531 384.26 554.624 384.738 554.811 385.081C554.998 385.413 555.258 385.647 555.59 385.782C555.933 385.917 556.328 385.984 556.774 385.984C557.086 385.984 557.397 385.958 557.709 385.906C558.02 385.844 558.259 385.797 558.425 385.766L559.469 390.704C559.137 390.808 558.669 390.927 558.067 391.062C557.465 391.208 556.733 391.296 555.871 391.327C554.271 391.389 552.869 391.177 551.665 390.688C550.471 390.2 549.541 389.442 548.877 388.414C548.212 387.386 547.885 386.088 547.895 384.52V361.342ZM586.686 399.972V387.168H586.483C586.172 387.833 585.731 388.492 585.159 389.146C584.599 389.79 583.867 390.325 582.963 390.751C582.07 391.177 580.98 391.389 579.692 391.389C577.875 391.389 576.229 390.922 574.754 389.988C573.29 389.043 572.127 387.656 571.265 385.829C570.413 383.99 569.988 381.737 569.988 379.068C569.988 376.327 570.429 374.047 571.312 372.23C572.194 370.402 573.368 369.037 574.832 368.133C576.307 367.22 577.921 366.763 579.676 366.763C581.016 366.763 582.132 366.991 583.025 367.448C583.929 367.895 584.656 368.455 585.206 369.13C585.767 369.795 586.193 370.449 586.483 371.093H586.764V367.074H593.306V399.972H586.686ZM581.795 386.109C582.864 386.109 583.768 385.818 584.505 385.237C585.253 384.645 585.824 383.819 586.219 382.76C586.624 381.701 586.826 380.46 586.826 379.037C586.826 377.614 586.629 376.379 586.234 375.33C585.84 374.281 585.268 373.471 584.521 372.9C583.773 372.329 582.864 372.043 581.795 372.043C580.704 372.043 579.785 372.339 579.038 372.931C578.29 373.523 577.724 374.343 577.34 375.392C576.956 376.441 576.764 377.656 576.764 379.037C576.764 380.429 576.956 381.659 577.34 382.729C577.734 383.788 578.3 384.619 579.038 385.221C579.785 385.813 580.704 386.109 581.795 386.109ZM612.66 380.813V367.074H619.296V391H612.925V386.654H612.676C612.136 388.056 611.238 389.183 609.981 390.034C608.735 390.886 607.214 391.312 605.417 391.312C603.818 391.312 602.411 390.948 601.196 390.221C599.981 389.494 599.031 388.461 598.345 387.121C597.67 385.782 597.328 384.177 597.317 382.308V367.074H603.953V381.124C603.963 382.537 604.342 383.653 605.09 384.473C605.838 385.294 606.84 385.704 608.096 385.704C608.896 385.704 609.644 385.522 610.339 385.159C611.035 384.785 611.596 384.235 612.022 383.508C612.458 382.781 612.671 381.882 612.66 380.813ZM634.192 391.467C631.731 391.467 629.612 390.969 627.836 389.972C626.071 388.965 624.711 387.542 623.755 385.704C622.8 383.855 622.322 381.67 622.322 379.146C622.322 376.685 622.8 374.525 623.755 372.666C624.711 370.807 626.055 369.359 627.79 368.32C629.534 367.282 631.58 366.763 633.927 366.763C635.505 366.763 636.975 367.017 638.335 367.526C639.706 368.024 640.9 368.777 641.918 369.784C642.946 370.792 643.745 372.059 644.317 373.585C644.888 375.101 645.173 376.877 645.173 378.912V380.735H624.97V376.623H638.927C638.927 375.667 638.719 374.821 638.304 374.084C637.889 373.346 637.312 372.77 636.575 372.355C635.848 371.929 635.002 371.716 634.036 371.716C633.029 371.716 632.136 371.95 631.357 372.417C630.588 372.874 629.986 373.492 629.55 374.271C629.114 375.039 628.89 375.896 628.88 376.841V380.751C628.88 381.934 629.098 382.957 629.534 383.819C629.981 384.681 630.609 385.346 631.419 385.813C632.229 386.28 633.19 386.514 634.301 386.514C635.038 386.514 635.713 386.41 636.326 386.202C636.938 385.995 637.463 385.683 637.899 385.268C638.335 384.852 638.667 384.344 638.896 383.741L645.033 384.146C644.722 385.621 644.083 386.909 643.117 388.009C642.162 389.1 640.926 389.951 639.41 390.564C637.904 391.166 636.165 391.467 634.192 391.467ZM668.095 373.897L662.02 374.271C661.916 373.751 661.693 373.284 661.35 372.869C661.007 372.443 660.556 372.105 659.995 371.856C659.444 371.597 658.785 371.467 658.017 371.467C656.989 371.467 656.121 371.685 655.415 372.121C654.709 372.547 654.356 373.118 654.356 373.834C654.356 374.406 654.585 374.888 655.041 375.283C655.498 375.678 656.282 375.994 657.394 376.233L661.724 377.106C664.05 377.583 665.784 378.352 666.926 379.411C668.069 380.47 668.64 381.862 668.64 383.585C668.64 385.154 668.178 386.529 667.254 387.713C666.34 388.897 665.083 389.821 663.484 390.486C661.895 391.14 660.062 391.467 657.985 391.467C654.818 391.467 652.295 390.808 650.415 389.489C648.546 388.16 647.45 386.353 647.128 384.068L653.655 383.726C653.852 384.691 654.33 385.429 655.088 385.938C655.846 386.436 656.817 386.685 658.001 386.685C659.164 386.685 660.099 386.462 660.805 386.015C661.521 385.559 661.885 384.972 661.895 384.255C661.885 383.653 661.63 383.16 661.132 382.775C660.633 382.381 659.865 382.08 658.827 381.872L654.683 381.046C652.347 380.579 650.607 379.769 649.465 378.616C648.333 377.464 647.767 375.994 647.767 374.208C647.767 372.671 648.182 371.347 649.013 370.236C649.854 369.125 651.033 368.268 652.549 367.666C654.076 367.064 655.862 366.763 657.908 366.763C660.929 366.763 663.307 367.401 665.042 368.679C666.786 369.956 667.804 371.695 668.095 373.897ZM684.229 367.074V372.059H669.82V367.074H684.229ZM673.091 361.342H679.727V383.648C679.727 384.26 679.82 384.738 680.007 385.081C680.194 385.413 680.454 385.647 680.786 385.782C681.129 385.917 681.523 385.984 681.97 385.984C682.282 385.984 682.593 385.958 682.905 385.906C683.216 385.844 683.455 385.797 683.621 385.766L684.665 390.704C684.332 390.808 683.865 390.927 683.263 391.062C682.661 391.208 681.928 391.296 681.067 391.327C679.467 391.389 678.065 391.177 676.861 390.688C675.667 390.2 674.737 389.442 674.073 388.414C673.408 387.386 673.081 386.088 673.091 384.52V361.342ZM687.235 391V367.074H693.871V391H687.235ZM690.569 363.99C689.582 363.99 688.736 363.663 688.03 363.009C687.334 362.344 686.986 361.55 686.986 360.625C686.986 359.712 687.334 358.928 688.03 358.273C688.736 357.609 689.582 357.276 690.569 357.276C691.555 357.276 692.396 357.609 693.092 358.273C693.798 358.928 694.151 359.712 694.151 360.625C694.151 361.55 693.798 362.344 693.092 363.009C692.396 363.663 691.555 363.99 690.569 363.99ZM708.681 391.467C706.261 391.467 704.169 390.953 702.403 389.925C700.648 388.887 699.293 387.443 698.338 385.595C697.383 383.736 696.905 381.581 696.905 379.131C696.905 376.659 697.383 374.499 698.338 372.651C699.293 370.792 700.648 369.348 702.403 368.32C704.169 367.282 706.261 366.763 708.681 366.763C711.1 366.763 713.188 367.282 714.943 368.32C716.708 369.348 718.068 370.792 719.024 372.651C719.979 374.499 720.457 376.659 720.457 379.131C720.457 381.581 719.979 383.736 719.024 385.595C718.068 387.443 716.708 388.887 714.943 389.925C713.188 390.953 711.1 391.467 708.681 391.467ZM708.712 386.327C709.813 386.327 710.732 386.015 711.469 385.392C712.206 384.759 712.762 383.897 713.136 382.807C713.52 381.716 713.712 380.475 713.712 379.084C713.712 377.692 713.52 376.451 713.136 375.361C712.762 374.271 712.206 373.409 711.469 372.775C710.732 372.142 709.813 371.825 708.712 371.825C707.601 371.825 706.666 372.142 705.908 372.775C705.16 373.409 704.595 374.271 704.21 375.361C703.836 376.451 703.65 377.692 703.65 379.084C703.65 380.475 703.836 381.716 704.21 382.807C704.595 383.897 705.16 384.759 705.908 385.392C706.666 386.015 707.601 386.327 708.712 386.327ZM730.091 377.168V391H723.456V367.074H729.78V371.295H730.06C730.59 369.904 731.478 368.803 732.724 367.993C733.97 367.173 735.481 366.763 737.257 366.763C738.918 366.763 740.367 367.126 741.603 367.853C742.838 368.58 743.799 369.618 744.484 370.968C745.17 372.308 745.512 373.907 745.512 375.766V391H738.877V376.95C738.887 375.486 738.513 374.343 737.755 373.523C736.997 372.692 735.953 372.277 734.624 372.277C733.731 372.277 732.942 372.469 732.257 372.853C731.582 373.237 731.052 373.798 730.668 374.535C730.294 375.262 730.102 376.14 730.091 377.168ZM769.333 373.897L763.258 374.271C763.155 373.751 762.931 373.284 762.589 372.869C762.246 372.443 761.794 372.105 761.233 371.856C760.683 371.597 760.024 371.467 759.255 371.467C758.227 371.467 757.36 371.685 756.654 372.121C755.948 372.547 755.595 373.118 755.595 373.834C755.595 374.406 755.823 374.888 756.28 375.283C756.737 375.678 757.521 375.994 758.632 376.233L762.962 377.106C765.289 377.583 767.023 378.352 768.165 379.411C769.307 380.47 769.879 381.862 769.879 383.585C769.879 385.154 769.416 386.529 768.492 387.713C767.578 388.897 766.322 389.821 764.723 390.486C763.134 391.14 761.301 391.467 759.224 391.467C756.057 391.467 753.533 390.808 751.654 389.489C749.785 388.16 748.689 386.353 748.367 384.068L754.894 383.726C755.091 384.691 755.569 385.429 756.327 385.938C757.085 386.436 758.056 386.685 759.24 386.685C760.403 386.685 761.337 386.462 762.043 386.015C762.76 385.559 763.123 384.972 763.134 384.255C763.123 383.653 762.869 383.16 762.371 382.775C761.872 382.381 761.104 382.08 760.065 381.872L755.922 381.046C753.585 380.579 751.846 379.769 750.704 378.616C749.572 377.464 749.006 375.994 749.006 374.208C749.006 372.671 749.421 371.347 750.252 370.236C751.093 369.125 752.272 368.268 753.788 367.666C755.314 367.064 757.1 366.763 759.146 366.763C762.168 366.763 764.546 367.401 766.28 368.679C768.025 369.956 769.043 371.695 769.333 373.897ZM788.4 391.452C786.873 391.452 785.513 391.187 784.319 390.657C783.125 390.117 782.18 389.323 781.484 388.274C780.798 387.215 780.456 385.896 780.456 384.318C780.456 382.988 780.7 381.872 781.188 380.969C781.676 380.065 782.341 379.338 783.182 378.788C784.023 378.237 784.978 377.822 786.048 377.542C787.128 377.261 788.26 377.064 789.444 376.95C790.835 376.804 791.957 376.669 792.808 376.545C793.66 376.41 794.278 376.212 794.662 375.953C795.046 375.693 795.238 375.309 795.238 374.8V374.707C795.238 373.72 794.927 372.957 794.303 372.417C793.691 371.877 792.819 371.607 791.687 371.607C790.492 371.607 789.542 371.872 788.836 372.401C788.13 372.921 787.663 373.575 787.434 374.364L781.297 373.866C781.608 372.412 782.221 371.155 783.135 370.096C784.049 369.026 785.227 368.206 786.671 367.635C788.125 367.053 789.807 366.763 791.718 366.763C793.047 366.763 794.319 366.918 795.534 367.23C796.759 367.541 797.845 368.024 798.79 368.679C799.745 369.333 800.498 370.174 801.048 371.202C801.599 372.22 801.874 373.44 801.874 374.863V391H795.581V387.682H795.394C795.01 388.43 794.496 389.089 793.852 389.66C793.208 390.221 792.434 390.663 791.531 390.984C790.627 391.296 789.584 391.452 788.4 391.452ZM790.3 386.872C791.276 386.872 792.138 386.68 792.886 386.296C793.634 385.901 794.22 385.372 794.646 384.707C795.072 384.042 795.285 383.29 795.285 382.448V379.909C795.077 380.044 794.792 380.169 794.428 380.283C794.075 380.387 793.675 380.486 793.229 380.579C792.782 380.662 792.336 380.74 791.889 380.813C791.443 380.875 791.038 380.932 790.674 380.984C789.895 381.098 789.215 381.28 788.634 381.529C788.052 381.779 787.6 382.116 787.278 382.542C786.956 382.957 786.796 383.476 786.796 384.1C786.796 385.003 787.123 385.694 787.777 386.171C788.441 386.639 789.283 386.872 790.3 386.872ZM812.342 377.168V391H805.706V367.074H812.03V371.295H812.311C812.84 369.904 813.728 368.803 814.974 367.993C816.22 367.173 817.731 366.763 819.507 366.763C821.168 366.763 822.617 367.126 823.853 367.853C825.089 368.58 826.049 369.618 826.735 370.968C827.42 372.308 827.763 373.907 827.763 375.766V391H821.127V376.95C821.137 375.486 820.763 374.343 820.005 373.523C819.247 372.692 818.204 372.277 816.874 372.277C815.981 372.277 815.192 372.469 814.507 372.853C813.832 373.237 813.302 373.798 812.918 374.535C812.544 375.262 812.352 376.14 812.342 377.168ZM840.493 391.389C838.676 391.389 837.03 390.922 835.555 389.988C834.091 389.043 832.928 387.656 832.066 385.829C831.214 383.99 830.789 381.737 830.789 379.068C830.789 376.327 831.23 374.047 832.113 372.23C832.995 370.402 834.169 369.037 835.633 368.133C837.108 367.22 838.722 366.763 840.477 366.763C841.817 366.763 842.933 366.991 843.826 367.448C844.73 367.895 845.457 368.455 846.007 369.13C846.568 369.795 846.994 370.449 847.284 371.093H847.487V359.099H854.107V391H847.565V387.168H847.284C846.973 387.833 846.532 388.492 845.96 389.146C845.4 389.79 844.668 390.325 843.764 390.751C842.871 391.177 841.781 391.389 840.493 391.389ZM842.596 386.109C843.665 386.109 844.569 385.818 845.306 385.237C846.054 384.645 846.625 383.819 847.02 382.76C847.425 381.701 847.627 380.46 847.627 379.037C847.627 377.614 847.43 376.379 847.035 375.33C846.641 374.281 846.069 373.471 845.322 372.9C844.574 372.329 843.665 372.043 842.596 372.043C841.505 372.043 840.586 372.339 839.839 372.931C839.091 373.523 838.525 374.343 838.141 375.392C837.757 376.441 837.565 377.656 837.565 379.037C837.565 380.429 837.757 381.659 838.141 382.729C838.536 383.788 839.101 384.619 839.839 385.221C840.586 385.813 841.505 386.109 842.596 386.109ZM873.906 391.452C872.379 391.452 871.019 391.187 869.825 390.657C868.63 390.117 867.685 389.323 866.99 388.274C866.304 387.215 865.962 385.896 865.962 384.318C865.962 382.988 866.206 381.872 866.694 380.969C867.182 380.065 867.846 379.338 868.688 378.788C869.529 378.237 870.484 377.822 871.554 377.542C872.634 377.261 873.766 377.064 874.949 376.95C876.341 376.804 877.462 376.669 878.314 376.545C879.165 376.41 879.783 376.212 880.168 375.953C880.552 375.693 880.744 375.309 880.744 374.8V374.707C880.744 373.72 880.432 372.957 879.809 372.417C879.197 371.877 878.324 371.607 877.192 371.607C875.998 371.607 875.048 371.872 874.342 372.401C873.636 372.921 873.168 373.575 872.94 374.364L866.803 373.866C867.114 372.412 867.727 371.155 868.641 370.096C869.555 369.026 870.733 368.206 872.177 367.635C873.631 367.053 875.313 366.763 877.224 366.763C878.553 366.763 879.825 366.918 881.04 367.23C882.265 367.541 883.35 368.024 884.295 368.679C885.251 369.333 886.004 370.174 886.554 371.202C887.104 372.22 887.38 373.44 887.38 374.863V391H881.087V387.682H880.9C880.515 388.43 880.001 389.089 879.358 389.66C878.714 390.221 877.94 390.663 877.037 390.984C876.133 391.296 875.09 391.452 873.906 391.452ZM875.806 386.872C876.782 386.872 877.644 386.68 878.392 386.296C879.14 385.901 879.726 385.372 880.152 384.707C880.578 384.042 880.791 383.29 880.791 382.448V379.909C880.583 380.044 880.297 380.169 879.934 380.283C879.581 380.387 879.181 380.486 878.735 380.579C878.288 380.662 877.841 380.74 877.395 380.813C876.948 380.875 876.543 380.932 876.18 380.984C875.401 381.098 874.721 381.28 874.139 381.529C873.558 381.779 873.106 382.116 872.784 382.542C872.462 382.957 872.301 383.476 872.301 384.1C872.301 385.003 872.628 385.694 873.283 386.171C873.947 386.639 874.788 386.872 875.806 386.872ZM897.847 377.168V391H891.212V367.074H897.536V371.295H897.816C898.346 369.904 899.234 368.803 900.48 367.993C901.726 367.173 903.237 366.763 905.013 366.763C906.674 366.763 908.123 367.126 909.359 367.853C910.594 368.58 911.555 369.618 912.24 370.968C912.926 372.308 913.268 373.907 913.268 375.766V391H906.633V376.95C906.643 375.486 906.269 374.343 905.511 373.523C904.753 372.692 903.709 372.277 902.38 372.277C901.487 372.277 900.698 372.469 900.013 372.853C899.338 373.237 898.808 373.798 898.424 374.535C898.05 375.262 897.858 376.14 897.847 377.168ZM937.089 373.897L931.015 374.271C930.911 373.751 930.687 373.284 930.345 372.869C930.002 372.443 929.55 372.105 928.99 371.856C928.439 371.597 927.78 371.467 927.011 371.467C925.983 371.467 925.116 371.685 924.41 372.121C923.704 372.547 923.351 373.118 923.351 373.834C923.351 374.406 923.579 374.888 924.036 375.283C924.493 375.678 925.277 375.994 926.388 376.233L930.719 377.106C933.045 377.583 934.779 378.352 935.921 379.411C937.064 380.47 937.635 381.862 937.635 383.585C937.635 385.154 937.173 386.529 936.248 387.713C935.334 388.897 934.078 389.821 932.479 390.486C930.89 391.14 929.057 391.467 926.98 391.467C923.813 391.467 921.289 390.808 919.41 389.489C917.541 388.16 916.445 386.353 916.123 384.068L922.65 383.726C922.847 384.691 923.325 385.429 924.083 385.938C924.841 386.436 925.812 386.685 926.996 386.685C928.159 386.685 929.093 386.462 929.8 386.015C930.516 385.559 930.88 384.972 930.89 384.255C930.88 383.653 930.625 383.16 930.127 382.775C929.628 382.381 928.86 382.08 927.821 381.872L923.678 381.046C921.341 380.579 919.602 379.769 918.46 378.616C917.328 377.464 916.762 375.994 916.762 374.208C916.762 372.671 917.177 371.347 918.008 370.236C918.849 369.125 920.028 368.268 921.544 367.666C923.07 367.064 924.857 366.763 926.902 366.763C929.924 366.763 932.302 367.401 934.036 368.679C935.781 369.956 936.799 371.695 937.089 373.897ZM945.217 391L938.706 367.074H945.419L949.127 383.149H949.345L953.208 367.074H959.797L963.722 383.056H963.925L967.57 367.074H974.268L967.772 391H960.747L956.635 375.953H956.339L952.227 391H945.217ZM986.795 391.467C984.334 391.467 982.216 390.969 980.44 389.972C978.675 388.965 977.314 387.542 976.359 385.704C975.404 383.855 974.926 381.67 974.926 379.146C974.926 376.685 975.404 374.525 976.359 372.666C977.314 370.807 978.659 369.359 980.393 368.32C982.138 367.282 984.184 366.763 986.531 366.763C988.109 366.763 989.579 367.017 990.939 367.526C992.31 368.024 993.504 368.777 994.522 369.784C995.55 370.792 996.349 372.059 996.92 373.585C997.491 375.101 997.777 376.877 997.777 378.912V380.735H977.574V376.623H991.531C991.531 375.667 991.323 374.821 990.908 374.084C990.492 373.346 989.916 372.77 989.179 372.355C988.452 371.929 987.605 371.716 986.64 371.716C985.632 371.716 984.739 371.95 983.961 372.417C983.192 372.874 982.59 373.492 982.154 374.271C981.717 375.039 981.494 375.896 981.484 376.841V380.751C981.484 381.934 981.702 382.957 982.138 383.819C982.585 384.681 983.213 385.346 984.023 385.813C984.833 386.28 985.793 386.514 986.905 386.514C987.642 386.514 988.317 386.41 988.929 386.202C989.542 385.995 990.067 385.683 990.503 385.268C990.939 384.852 991.271 384.344 991.5 383.741L997.637 384.146C997.325 385.621 996.687 386.909 995.721 388.009C994.766 389.1 993.53 389.951 992.014 390.564C990.508 391.166 988.769 391.467 986.795 391.467ZM1000.79 391V367.074H1007.22V371.249H1007.47C1007.91 369.764 1008.64 368.642 1009.67 367.884C1010.7 367.116 1011.88 366.731 1013.22 366.731C1013.55 366.731 1013.91 366.752 1014.3 366.794C1014.68 366.835 1015.02 366.892 1015.31 366.965V372.853C1015 372.76 1014.57 372.677 1014.02 372.604C1013.47 372.531 1012.96 372.495 1012.51 372.495C1011.53 372.495 1010.66 372.708 1009.89 373.133C1009.13 373.549 1008.53 374.13 1008.08 374.878C1007.65 375.626 1007.43 376.488 1007.43 377.464V391H1000.79ZM1037.33 373.897L1031.26 374.271C1031.15 373.751 1030.93 373.284 1030.59 372.869C1030.24 372.443 1029.79 372.105 1029.23 371.856C1028.68 371.597 1028.02 371.467 1027.25 371.467C1026.22 371.467 1025.36 371.685 1024.65 372.121C1023.95 372.547 1023.59 373.118 1023.59 373.834C1023.59 374.406 1023.82 374.888 1024.28 375.283C1024.73 375.678 1025.52 375.994 1026.63 376.233L1030.96 377.106C1033.29 377.583 1035.02 378.352 1036.16 379.411C1037.3 380.47 1037.88 381.862 1037.88 383.585C1037.88 385.154 1037.41 386.529 1036.49 387.713C1035.58 388.897 1034.32 389.821 1032.72 390.486C1031.13 391.14 1029.3 391.467 1027.22 391.467C1024.05 391.467 1021.53 390.808 1019.65 389.489C1017.78 388.16 1016.69 386.353 1016.36 384.068L1022.89 383.726C1023.09 384.691 1023.57 385.429 1024.32 385.938C1025.08 386.436 1026.05 386.685 1027.24 386.685C1028.4 386.685 1029.33 386.462 1030.04 386.015C1030.76 385.559 1031.12 384.972 1031.13 384.255C1031.12 383.653 1030.87 383.16 1030.37 382.775C1029.87 382.381 1029.1 382.08 1028.06 381.872L1023.92 381.046C1021.58 380.579 1019.84 379.769 1018.7 378.616C1017.57 377.464 1017 375.994 1017 374.208C1017 372.671 1017.42 371.347 1018.25 370.236C1019.09 369.125 1020.27 368.268 1021.79 367.666C1023.31 367.064 1025.1 366.763 1027.14 366.763C1030.17 366.763 1032.54 367.401 1034.28 368.679C1036.02 369.956 1037.04 371.695 1037.33 373.897Z" fill="#5A5A5A"/>
</g>
<path d="M243.5 181C243.5 167.469 254.469 156.5 268 156.5H1323C1336.53 156.5 1347.5 167.469 1347.5 181V1059.5H243.5V181Z" stroke="#BFC3C9" shape-rendering="crispEdges"/>
</g>
</g>
<defs>
<filter id="filter0_d_211_480" x="131.183" y="66.5465" width="1328.63" height="1127.63" filterUnits="userSpaceOnUse" color-interpolation-filters="sRGB">
<feFlood flood-opacity="0" result="BackgroundImageFix"/>
<feColorMatrix in="SourceAlpha" type="matrix" values="0 0 0 0 0 0 0 0 0 0 0 0 0 0 0 0 0 0 127 0" result="hardAlpha"/>
<feOffset dy="22.3634"/>
<feGaussianBlur stdDeviation="55.9085"/>
<feComposite in2="hardAlpha" operator="out"/>
<feColorMatrix type="matrix" values="0 0 0 0 0 0 0 0 0 0 0 0 0 0 0 0 0 0 0.15 0"/>
<feBlend mode="normal" in2="BackgroundImageFix" result="effect1_dropShadow_211_480"/>
<feBlend mode="normal" in="SourceGraphic" in2="effect1_dropShadow_211_480" result="shape"/>
</filter>
<clipPath id="clip0_211_480">
<rect width="1536" height="1024" fill="white"/>
</clipPath>
<clipPath id="clip1_211_480">
<path d="M243 181C243 167.193 254.193 156 268 156H1323C1336.81 156 1348 167.193 1348 181V1060H243V181Z" fill="white"/>
</clipPath>
</defs>
</svg>
