<svg width="1536" height="1024" viewBox="0 0 1536 1024" fill="none" xmlns="http://www.w3.org/2000/svg">
<g clip-path="url(#clip0_211_112)">
<g filter="url(#filter0_d_211_112)">
<g clip-path="url(#clip1_211_112)">
<path d="M243 181C243 167.193 254.193 156 268 156H1323C1336.81 156 1348 167.193 1348 181V1060H243V181Z" fill="#F9FAFB"/>
<mask id="path-4-inside-1_211_112" fill="white">
<path d="M243 156H1348V218H243V156Z"/>
</mask>
<path d="M243 156H1348V218H243V156Z" fill="white"/>
<circle cx="293" cy="187" r="10" fill="#D1D5DB"/>
<circle cx="294" cy="187" r="10" fill="#D1D5DB"/>
<circle cx="319" cy="187" r="10" fill="#D1D5DB"/>
<circle cx="344" cy="187" r="10" fill="#D1D5DB"/>
<path d="M1348 217H243V219H1348V217Z" fill="#D1D5DB" mask="url(#path-4-inside-1_211_112)"/>
<rect x="354" y="594" width="365" height="12" rx="6" fill="#D1D5DB"/>
<rect x="354" y="639.055" width="220.051" height="11.6971" rx="5.84854" fill="#D1D5DB"/>
<rect x="354" y="702.657" width="138.903" height="49.7126" rx="10" fill="#eb542b"/>
<path d="M362.271 506H355.044L366.056 474.099H374.748L385.745 506H378.518L370.527 481.389H370.278L362.271 506ZM361.82 493.461H378.892V498.726H361.82V493.461ZM394.78 474.099V506H388.145V474.099H394.78ZM398.78 514.972V482.074H405.322V486.093H405.618C405.909 485.449 406.329 484.795 406.88 484.13C407.44 483.455 408.167 482.895 409.06 482.448C409.964 481.991 411.085 481.763 412.425 481.763C414.17 481.763 415.779 482.22 417.254 483.133C418.728 484.037 419.907 485.402 420.79 487.23C421.672 489.047 422.114 491.327 422.114 494.068C422.114 496.737 421.683 498.99 420.821 500.829C419.969 502.656 418.806 504.043 417.332 504.988C415.868 505.922 414.227 506.389 412.409 506.389C411.122 506.389 410.026 506.177 409.123 505.751C408.23 505.325 407.498 504.79 406.926 504.146C406.355 503.492 405.919 502.833 405.618 502.168H405.416V514.972H398.78ZM405.275 494.037C405.275 495.46 405.473 496.701 405.867 497.76C406.262 498.819 406.833 499.645 407.581 500.237C408.328 500.818 409.237 501.109 410.307 501.109C411.387 501.109 412.3 500.813 413.048 500.221C413.796 499.619 414.362 498.788 414.746 497.729C415.141 496.659 415.338 495.429 415.338 494.037C415.338 492.656 415.146 491.441 414.762 490.392C414.377 489.343 413.811 488.523 413.064 487.931C412.316 487.339 411.397 487.043 410.307 487.043C409.227 487.043 408.313 487.329 407.565 487.9C406.828 488.471 406.262 489.281 405.867 490.33C405.473 491.379 405.275 492.614 405.275 494.037ZM425.222 506V482.074H431.857V506H425.222ZM428.555 478.99C427.569 478.99 426.722 478.663 426.016 478.009C425.32 477.344 424.972 476.55 424.972 475.625C424.972 474.712 425.32 473.928 426.016 473.273C426.722 472.609 427.569 472.276 428.555 472.276C429.542 472.276 430.383 472.609 431.079 473.273C431.785 473.928 432.138 474.712 432.138 475.625C432.138 476.55 431.785 477.344 431.079 478.009C430.383 478.663 429.542 478.99 428.555 478.99ZM442.493 492.168V506H435.857V482.074H442.181V486.295H442.462C442.991 484.904 443.879 483.803 445.125 482.993C446.371 482.173 447.882 481.763 449.658 481.763C451.319 481.763 452.768 482.126 454.004 482.853C455.24 483.58 456.2 484.618 456.886 485.968C457.571 487.308 457.914 488.907 457.914 490.766V506H451.278V491.95C451.288 490.486 450.914 489.343 450.156 488.523C449.398 487.692 448.355 487.277 447.025 487.277C446.132 487.277 445.343 487.469 444.658 487.853C443.983 488.237 443.453 488.798 443.069 489.535C442.695 490.262 442.503 491.14 442.493 492.168ZM472.731 506.467C470.27 506.467 468.152 505.969 466.376 504.972C464.611 503.965 463.25 502.542 462.295 500.704C461.34 498.855 460.862 496.67 460.862 494.146C460.862 491.685 461.34 489.525 462.295 487.666C463.25 485.807 464.595 484.359 466.329 483.32C468.074 482.282 470.12 481.763 472.467 481.763C474.045 481.763 475.514 482.017 476.875 482.526C478.245 483.024 479.44 483.777 480.457 484.784C481.485 485.792 482.285 487.059 482.856 488.585C483.427 490.101 483.713 491.877 483.713 493.912V495.735H463.51V491.623H477.467C477.467 490.667 477.259 489.821 476.844 489.084C476.428 488.346 475.852 487.77 475.115 487.355C474.388 486.929 473.541 486.716 472.576 486.716C471.568 486.716 470.675 486.95 469.896 487.417C469.128 487.874 468.526 488.492 468.089 489.271C467.653 490.039 467.43 490.896 467.42 491.841V495.751C467.42 496.934 467.638 497.957 468.074 498.819C468.52 499.681 469.149 500.346 469.959 500.813C470.769 501.28 471.729 501.514 472.84 501.514C473.578 501.514 474.253 501.41 474.865 501.202C475.478 500.995 476.002 500.683 476.439 500.268C476.875 499.852 477.207 499.344 477.435 498.741L483.573 499.146C483.261 500.621 482.623 501.909 481.657 503.009C480.701 504.1 479.466 504.951 477.95 505.564C476.444 506.166 474.704 506.467 472.731 506.467ZM486.727 482.074H493.363V507.184C493.363 509.032 493 510.528 492.273 511.67C491.546 512.812 490.502 513.648 489.142 514.178C487.792 514.707 486.177 514.972 484.297 514.972C484.069 514.972 483.851 514.967 483.643 514.957C483.425 514.957 483.197 514.951 482.958 514.941V509.754C483.134 509.764 483.29 509.77 483.425 509.77C483.55 509.78 483.685 509.785 483.83 509.785C484.9 509.785 485.647 509.557 486.073 509.1C486.509 508.653 486.727 507.978 486.727 507.075V482.074ZM490.03 478.99C489.053 478.99 488.212 478.663 487.506 478.009C486.8 477.344 486.447 476.55 486.447 475.625C486.447 474.712 486.8 473.928 487.506 473.273C488.212 472.609 489.053 472.276 490.03 472.276C491.026 472.276 491.873 472.609 492.569 473.273C493.275 473.928 493.628 474.712 493.628 475.625C493.628 476.55 493.275 477.344 492.569 478.009C491.873 478.663 491.026 478.99 490.03 478.99ZM517.27 488.897L511.195 489.271C511.091 488.751 510.868 488.284 510.525 487.869C510.182 487.443 509.731 487.105 509.17 486.856C508.619 486.597 507.96 486.467 507.192 486.467C506.163 486.467 505.296 486.685 504.59 487.121C503.884 487.547 503.531 488.118 503.531 488.834C503.531 489.406 503.759 489.888 504.216 490.283C504.673 490.678 505.457 490.994 506.568 491.233L510.899 492.106C513.225 492.583 514.959 493.352 516.101 494.411C517.244 495.47 517.815 496.862 517.815 498.585C517.815 500.154 517.353 501.529 516.429 502.713C515.515 503.897 514.258 504.821 512.659 505.486C511.07 506.14 509.237 506.467 507.16 506.467C503.993 506.467 501.47 505.808 499.59 504.489C497.721 503.16 496.625 501.353 496.303 499.068L502.83 498.726C503.027 499.691 503.505 500.429 504.263 500.938C505.021 501.436 505.992 501.685 507.176 501.685C508.339 501.685 509.274 501.462 509.98 501.015C510.696 500.559 511.06 499.972 511.07 499.255C511.06 498.653 510.805 498.16 510.307 497.775C509.808 497.381 509.04 497.08 508.002 496.872L503.858 496.046C501.522 495.579 499.782 494.769 498.64 493.616C497.508 492.464 496.942 490.994 496.942 489.208C496.942 487.671 497.357 486.347 498.188 485.236C499.029 484.125 500.208 483.268 501.724 482.666C503.251 482.064 505.037 481.763 507.083 481.763C510.104 481.763 512.482 482.401 514.217 483.679C515.961 484.956 516.979 486.695 517.27 488.897ZM539.296 506.467C537.094 506.467 535.194 506.073 533.595 505.283C531.996 504.494 530.765 503.425 529.903 502.075C529.052 500.714 528.626 499.198 528.626 497.526C528.626 496.28 528.875 495.174 529.373 494.208C529.872 493.243 530.568 492.355 531.461 491.545C532.354 490.724 533.392 489.909 534.576 489.099L540.76 485.034C541.56 484.525 542.146 483.99 542.52 483.429C542.894 482.858 543.081 482.24 543.081 481.576C543.081 480.942 542.827 480.356 542.318 479.816C541.809 479.276 541.087 479.011 540.153 479.021C539.529 479.021 538.989 479.161 538.533 479.442C538.076 479.712 537.717 480.07 537.458 480.516C537.209 480.953 537.084 481.441 537.084 481.981C537.084 482.645 537.271 483.32 537.645 484.006C538.019 484.691 538.517 485.418 539.14 486.186C539.763 486.944 540.443 487.765 541.181 488.648L556.306 506H549.39L536.772 491.95C535.942 491.005 535.111 490.018 534.28 488.99C533.46 487.952 532.774 486.851 532.224 485.688C531.674 484.514 531.398 483.242 531.398 481.872C531.398 480.324 531.757 478.933 532.473 477.697C533.2 476.461 534.218 475.485 535.526 474.769C536.835 474.042 538.361 473.678 540.106 473.678C541.809 473.678 543.278 474.026 544.514 474.722C545.76 475.407 546.716 476.321 547.38 477.463C548.055 478.595 548.393 479.841 548.393 481.202C548.393 482.708 548.019 484.073 547.271 485.299C546.534 486.514 545.495 487.604 544.156 488.57L537.645 493.258C536.762 493.902 536.108 494.561 535.682 495.236C535.267 495.901 535.059 496.54 535.059 497.152C535.059 497.91 535.246 498.591 535.62 499.193C535.994 499.795 536.523 500.273 537.209 500.626C537.894 500.969 538.699 501.14 539.623 501.14C540.744 501.14 541.85 500.886 542.941 500.377C544.042 499.858 545.038 499.125 545.932 498.18C546.835 497.225 547.557 496.093 548.097 494.785C548.637 493.476 548.907 492.028 548.907 490.439H554.405C554.405 492.391 554.192 494.151 553.767 495.719C553.341 497.277 552.749 498.637 551.991 499.8C551.233 500.953 550.366 501.898 549.39 502.635C549.078 502.833 548.777 503.02 548.486 503.196C548.195 503.373 547.894 503.56 547.583 503.757C546.399 504.712 545.075 505.403 543.611 505.829C542.157 506.254 540.718 506.467 539.296 506.467ZM565.5 479.66V474.099H591.7V479.66H581.934V506H575.267V479.66H565.5ZM598.142 506.452C596.615 506.452 595.255 506.187 594.061 505.657C592.866 505.117 591.921 504.323 591.226 503.274C590.54 502.215 590.198 500.896 590.198 499.318C590.198 497.988 590.442 496.872 590.93 495.969C591.418 495.065 592.082 494.338 592.924 493.788C593.765 493.237 594.72 492.822 595.79 492.542C596.87 492.261 598.002 492.064 599.185 491.95C600.577 491.804 601.698 491.669 602.55 491.545C603.402 491.41 604.019 491.212 604.404 490.953C604.788 490.693 604.98 490.309 604.98 489.8V489.707C604.98 488.72 604.668 487.957 604.045 487.417C603.433 486.877 602.56 486.607 601.428 486.607C600.234 486.607 599.284 486.872 598.578 487.401C597.872 487.921 597.404 488.575 597.176 489.364L591.039 488.866C591.35 487.412 591.963 486.155 592.877 485.096C593.791 484.026 594.969 483.206 596.413 482.635C597.867 482.053 599.549 481.763 601.46 481.763C602.789 481.763 604.061 481.918 605.276 482.23C606.501 482.541 607.586 483.024 608.531 483.679C609.487 484.333 610.24 485.174 610.79 486.202C611.34 487.22 611.616 488.44 611.616 489.863V506H605.323V502.682H605.136C604.751 503.43 604.237 504.089 603.594 504.66C602.95 505.221 602.176 505.663 601.273 505.984C600.369 506.296 599.326 506.452 598.142 506.452ZM600.042 501.872C601.018 501.872 601.88 501.68 602.628 501.296C603.376 500.901 603.962 500.372 604.388 499.707C604.814 499.042 605.027 498.29 605.027 497.448V494.909C604.819 495.044 604.533 495.169 604.17 495.283C603.817 495.387 603.417 495.486 602.971 495.579C602.524 495.662 602.077 495.74 601.631 495.813C601.184 495.875 600.779 495.932 600.416 495.984C599.637 496.098 598.957 496.28 598.375 496.529C597.794 496.779 597.342 497.116 597.02 497.542C596.698 497.957 596.537 498.476 596.537 499.1C596.537 500.003 596.864 500.694 597.519 501.171C598.183 501.639 599.024 501.872 600.042 501.872ZM615.448 506V482.074H622.084V506H615.448ZM618.781 478.99C617.795 478.99 616.948 478.663 616.242 478.009C615.546 477.344 615.199 476.55 615.199 475.625C615.199 474.712 615.546 473.928 616.242 473.273C616.948 472.609 617.795 472.276 618.781 472.276C619.768 472.276 620.609 472.609 621.305 473.273C622.011 473.928 622.364 474.712 622.364 475.625C622.364 476.55 622.011 477.344 621.305 478.009C620.609 478.663 619.768 478.99 618.781 478.99ZM632.719 474.099V506H626.083V474.099H632.719ZM641.438 506L634.927 482.074H641.641L645.348 498.149H645.566L649.429 482.074H656.018L659.943 498.056H660.146L663.791 482.074H670.489L663.993 506H656.968L652.856 490.953H652.56L648.448 506H641.438ZM672.713 506V482.074H679.348V506H672.713ZM676.046 478.99C675.06 478.99 674.213 478.663 673.507 478.009C672.811 477.344 672.463 476.55 672.463 475.625C672.463 474.712 672.811 473.928 673.507 473.273C674.213 472.609 675.06 472.276 676.046 472.276C677.033 472.276 677.874 472.609 678.57 473.273C679.276 473.928 679.629 474.712 679.629 475.625C679.629 476.55 679.276 477.344 678.57 478.009C677.874 478.663 677.033 478.99 676.046 478.99ZM689.984 492.168V506H683.348V482.074H689.672V486.295H689.953C690.482 484.904 691.37 483.803 692.616 482.993C693.862 482.173 695.373 481.763 697.149 481.763C698.811 481.763 700.259 482.126 701.495 482.853C702.731 483.58 703.691 484.618 704.377 485.968C705.062 487.308 705.405 488.907 705.405 490.766V506H698.769V491.95C698.779 490.486 698.406 489.343 697.647 488.523C696.889 487.692 695.846 487.277 694.517 487.277C693.624 487.277 692.834 487.469 692.149 487.853C691.474 488.237 690.944 488.798 690.56 489.535C690.186 490.262 689.994 491.14 689.984 492.168ZM718.135 506.389C716.318 506.389 714.672 505.922 713.197 504.988C711.733 504.043 710.57 502.656 709.708 500.829C708.857 498.99 708.431 496.737 708.431 494.068C708.431 491.327 708.872 489.047 709.755 487.23C710.637 485.402 711.811 484.037 713.275 483.133C714.75 482.22 716.365 481.763 718.12 481.763C719.459 481.763 720.575 481.991 721.469 482.448C722.372 482.895 723.099 483.455 723.649 484.13C724.21 484.795 724.636 485.449 724.927 486.093H725.129V474.099H731.749V506H725.207V502.168H724.927C724.615 502.833 724.174 503.492 723.603 504.146C723.042 504.79 722.31 505.325 721.406 505.751C720.513 506.177 719.423 506.389 718.135 506.389ZM720.238 501.109C721.308 501.109 722.211 500.818 722.948 500.237C723.696 499.645 724.267 498.819 724.662 497.76C725.067 496.701 725.269 495.46 725.269 494.037C725.269 492.614 725.072 491.379 724.677 490.33C724.283 489.281 723.712 488.471 722.964 487.9C722.216 487.329 721.308 487.043 720.238 487.043C719.148 487.043 718.229 487.339 717.481 487.931C716.733 488.523 716.167 489.343 715.783 490.392C715.399 491.441 715.207 492.656 715.207 494.037C715.207 495.429 715.399 496.659 715.783 497.729C716.178 498.788 716.744 499.619 717.481 500.221C718.229 500.813 719.148 501.109 720.238 501.109ZM384.92 538.267H378.097C377.973 537.385 377.718 536.601 377.334 535.915C376.95 535.22 376.456 534.628 375.854 534.14C375.252 533.651 374.556 533.278 373.767 533.018C372.988 532.758 372.142 532.629 371.228 532.629C369.577 532.629 368.138 533.039 366.913 533.859C365.688 534.669 364.738 535.853 364.063 537.411C363.388 538.958 363.05 540.838 363.05 543.049C363.05 545.324 363.388 547.234 364.063 548.782C364.748 550.329 365.703 551.497 366.929 552.286C368.154 553.076 369.572 553.47 371.181 553.47C372.085 553.47 372.921 553.351 373.689 553.112C374.468 552.873 375.158 552.525 375.761 552.068C376.363 551.601 376.861 551.035 377.256 550.37C377.661 549.706 377.941 548.948 378.097 548.096L384.92 548.127C384.743 549.592 384.302 551.004 383.596 552.364C382.9 553.714 381.96 554.924 380.776 555.994C379.603 557.053 378.201 557.894 376.571 558.517C374.951 559.13 373.118 559.436 371.072 559.436C368.227 559.436 365.683 558.792 363.44 557.505C361.207 556.217 359.441 554.353 358.143 551.913C356.856 549.472 356.212 546.518 356.212 543.049C356.212 539.571 356.866 536.611 358.175 534.171C359.483 531.73 361.259 529.872 363.502 528.594C365.745 527.307 368.268 526.663 371.072 526.663C372.921 526.663 374.634 526.922 376.212 527.442C377.801 527.961 379.208 528.719 380.434 529.716C381.659 530.702 382.656 531.912 383.424 533.345C384.203 534.778 384.702 536.419 384.92 538.267ZM405.746 536.274C405.622 535.017 405.087 534.041 404.142 533.345C403.197 532.649 401.914 532.301 400.294 532.301C399.194 532.301 398.264 532.457 397.506 532.769C396.748 533.07 396.167 533.491 395.762 534.03C395.367 534.57 395.17 535.183 395.17 535.869C395.149 536.44 395.268 536.938 395.528 537.364C395.798 537.79 396.167 538.158 396.634 538.47C397.101 538.771 397.641 539.036 398.254 539.264C398.866 539.482 399.521 539.669 400.216 539.825L403.083 540.51C404.474 540.822 405.751 541.237 406.914 541.757C408.078 542.276 409.085 542.914 409.936 543.672C410.788 544.431 411.447 545.324 411.915 546.352C412.392 547.38 412.636 548.558 412.647 549.888C412.636 551.84 412.138 553.533 411.151 554.966C410.175 556.388 408.763 557.494 406.914 558.283C405.076 559.062 402.859 559.452 400.263 559.452C397.688 559.452 395.445 559.057 393.534 558.268C391.634 557.479 390.149 556.31 389.079 554.763C388.02 553.205 387.464 551.279 387.412 548.984H393.939C394.012 550.054 394.318 550.947 394.858 551.663C395.408 552.37 396.141 552.904 397.054 553.268C397.979 553.621 399.022 553.797 400.185 553.797C401.328 553.797 402.319 553.631 403.16 553.299C404.012 552.967 404.671 552.505 405.139 551.913C405.606 551.321 405.84 550.64 405.84 549.872C405.84 549.156 405.627 548.553 405.201 548.065C404.786 547.577 404.173 547.162 403.363 546.819C402.563 546.476 401.582 546.165 400.419 545.884L396.945 545.012C394.256 544.358 392.132 543.335 390.574 541.943C389.017 540.552 388.243 538.678 388.254 536.32C388.243 534.389 388.757 532.701 389.796 531.258C390.844 529.814 392.283 528.688 394.11 527.878C395.938 527.068 398.015 526.663 400.341 526.663C402.709 526.663 404.775 527.068 406.541 527.878C408.316 528.688 409.698 529.814 410.684 531.258C411.671 532.701 412.179 534.373 412.211 536.274H405.746ZM433.173 536.274C433.049 535.017 432.514 534.041 431.569 533.345C430.624 532.649 429.341 532.301 427.721 532.301C426.621 532.301 425.691 532.457 424.933 532.769C424.175 533.07 423.594 533.491 423.189 534.03C422.794 534.57 422.597 535.183 422.597 535.869C422.576 536.44 422.695 536.938 422.955 537.364C423.225 537.79 423.594 538.158 424.061 538.47C424.528 538.771 425.068 539.036 425.681 539.264C426.294 539.482 426.948 539.669 427.644 539.825L430.51 540.51C431.901 540.822 433.178 541.237 434.342 541.757C435.505 542.276 436.512 542.914 437.363 543.672C438.215 544.431 438.874 545.324 439.342 546.352C439.819 547.38 440.063 548.558 440.074 549.888C440.063 551.84 439.565 553.533 438.578 554.966C437.602 556.388 436.19 557.494 434.342 558.283C432.503 559.062 430.286 559.452 427.69 559.452C425.115 559.452 422.872 559.057 420.961 558.268C419.061 557.479 417.576 556.31 416.506 554.763C415.447 553.205 414.891 551.279 414.839 548.984H421.366C421.439 550.054 421.745 550.947 422.285 551.663C422.836 552.37 423.568 552.904 424.481 553.268C425.406 553.621 426.449 553.797 427.612 553.797C428.755 553.797 429.746 553.631 430.588 553.299C431.439 552.967 432.098 552.505 432.566 551.913C433.033 551.321 433.267 550.64 433.267 549.872C433.267 549.156 433.054 548.553 432.628 548.065C432.213 547.577 431.6 547.162 430.79 546.819C429.99 546.476 429.009 546.165 427.846 545.884L424.372 545.012C421.683 544.358 419.559 543.335 418.002 541.943C416.444 540.552 415.67 538.678 415.681 536.32C415.67 534.389 416.184 532.701 417.223 531.258C418.272 529.814 419.71 528.688 421.537 527.878C423.365 527.068 425.442 526.663 427.768 526.663C430.136 526.663 432.202 527.068 433.968 527.878C435.743 528.688 437.125 529.814 438.111 531.258C439.098 532.701 439.606 534.373 439.638 536.274H433.173ZM462.816 559.467C460.366 559.467 458.258 558.948 456.492 557.91C454.737 556.861 453.387 555.407 452.442 553.548C451.508 551.689 451.04 549.55 451.04 547.131C451.04 544.68 451.513 542.53 452.458 540.682C453.413 538.823 454.768 537.374 456.523 536.336C458.278 535.287 460.366 534.763 462.785 534.763C464.873 534.763 466.7 535.142 468.268 535.9C469.836 536.658 471.077 537.722 471.991 539.093C472.905 540.464 473.409 542.073 473.502 543.922H467.24C467.064 542.728 466.596 541.767 465.838 541.04C465.091 540.303 464.109 539.934 462.894 539.934C461.866 539.934 460.968 540.214 460.2 540.775C459.441 541.326 458.85 542.13 458.424 543.19C457.998 544.249 457.785 545.531 457.785 547.037C457.785 548.564 457.993 549.862 458.408 550.931C458.834 552.001 459.431 552.816 460.2 553.377C460.968 553.938 461.866 554.218 462.894 554.218C463.652 554.218 464.333 554.062 464.935 553.751C465.548 553.439 466.051 552.987 466.446 552.395C466.851 551.793 467.116 551.071 467.24 550.23H473.502C473.398 552.058 472.9 553.668 472.007 555.059C471.124 556.44 469.904 557.52 468.346 558.299C466.788 559.078 464.945 559.467 462.816 559.467ZM487.245 559.467C484.825 559.467 482.733 558.953 480.968 557.925C479.213 556.887 477.857 555.443 476.902 553.595C475.947 551.736 475.469 549.581 475.469 547.131C475.469 544.659 475.947 542.499 476.902 540.651C477.857 538.792 479.213 537.348 480.968 536.32C482.733 535.282 484.825 534.763 487.245 534.763C489.665 534.763 491.752 535.282 493.507 536.32C495.272 537.348 496.633 538.792 497.588 540.651C498.543 542.499 499.021 544.659 499.021 547.131C499.021 549.581 498.543 551.736 497.588 553.595C496.633 555.443 495.272 556.887 493.507 557.925C491.752 558.953 489.665 559.467 487.245 559.467ZM487.276 554.327C488.377 554.327 489.296 554.015 490.033 553.392C490.77 552.759 491.326 551.897 491.7 550.807C492.084 549.716 492.276 548.475 492.276 547.084C492.276 545.692 492.084 544.451 491.7 543.361C491.326 542.271 490.77 541.409 490.033 540.775C489.296 540.142 488.377 539.825 487.276 539.825C486.165 539.825 485.23 540.142 484.472 540.775C483.725 541.409 483.159 542.271 482.774 543.361C482.401 544.451 482.214 545.692 482.214 547.084C482.214 548.475 482.401 549.716 482.774 550.807C483.159 551.897 483.725 552.759 484.472 553.392C485.23 554.015 486.165 554.327 487.276 554.327ZM502.02 559V535.074H508.344V539.295H508.624C509.123 537.894 509.954 536.788 511.117 535.978C512.28 535.168 513.671 534.763 515.291 534.763C516.932 534.763 518.329 535.173 519.481 535.993C520.634 536.803 521.402 537.904 521.787 539.295H522.036C522.524 537.925 523.407 536.829 524.684 536.009C525.972 535.178 527.493 534.763 529.248 534.763C531.481 534.763 533.293 535.474 534.684 536.897C536.086 538.309 536.787 540.313 536.787 542.909V559H530.167V544.218C530.167 542.888 529.814 541.892 529.108 541.227C528.402 540.562 527.519 540.23 526.46 540.23C525.255 540.23 524.315 540.614 523.64 541.383C522.965 542.141 522.628 543.143 522.628 544.389V559H516.195V544.077C516.195 542.904 515.857 541.969 515.182 541.274C514.517 540.578 513.64 540.23 512.55 540.23C511.812 540.23 511.148 540.417 510.556 540.791C509.974 541.154 509.512 541.668 509.169 542.333C508.827 542.987 508.655 543.756 508.655 544.638V559H502.02ZM540.713 567.972V535.074H547.255V539.093H547.551C547.842 538.449 548.262 537.795 548.813 537.13C549.373 536.455 550.1 535.895 550.993 535.448C551.897 534.991 553.018 534.763 554.358 534.763C556.102 534.763 557.712 535.22 559.187 536.133C560.661 537.037 561.84 538.402 562.723 540.23C563.605 542.047 564.047 544.327 564.047 547.068C564.047 549.737 563.616 551.99 562.754 553.829C561.902 555.656 560.739 557.043 559.265 557.988C557.8 558.922 556.16 559.389 554.342 559.389C553.055 559.389 551.959 559.177 551.056 558.751C550.163 558.325 549.43 557.79 548.859 557.146C548.288 556.492 547.852 555.833 547.551 555.168H547.348V567.972H540.713ZM547.208 547.037C547.208 548.46 547.405 549.701 547.8 550.76C548.195 551.819 548.766 552.645 549.514 553.237C550.261 553.818 551.17 554.109 552.239 554.109C553.319 554.109 554.233 553.813 554.981 553.221C555.729 552.619 556.295 551.788 556.679 550.729C557.073 549.659 557.271 548.429 557.271 547.037C557.271 545.656 557.079 544.441 556.694 543.392C556.31 542.343 555.744 541.523 554.997 540.931C554.249 540.339 553.33 540.043 552.239 540.043C551.159 540.043 550.246 540.329 549.498 540.9C548.761 541.471 548.195 542.281 547.8 543.33C547.405 544.379 547.208 545.614 547.208 547.037ZM577.965 559.467C575.545 559.467 573.453 558.953 571.687 557.925C569.932 556.887 568.577 555.443 567.622 553.595C566.666 551.736 566.189 549.581 566.189 547.131C566.189 544.659 566.666 542.499 567.622 540.651C568.577 538.792 569.932 537.348 571.687 536.32C573.453 535.282 575.545 534.763 577.965 534.763C580.384 534.763 582.472 535.282 584.227 536.32C585.992 537.348 587.352 538.792 588.308 540.651C589.263 542.499 589.741 544.659 589.741 547.131C589.741 549.581 589.263 551.736 588.308 553.595C587.352 555.443 585.992 556.887 584.227 557.925C582.472 558.953 580.384 559.467 577.965 559.467ZM577.996 554.327C579.097 554.327 580.016 554.015 580.753 553.392C581.49 552.759 582.046 551.897 582.42 550.807C582.804 549.716 582.996 548.475 582.996 547.084C582.996 545.692 582.804 544.451 582.42 543.361C582.046 542.271 581.49 541.409 580.753 540.775C580.016 540.142 579.097 539.825 577.996 539.825C576.885 539.825 575.95 540.142 575.192 540.775C574.444 541.409 573.878 542.271 573.494 543.361C573.12 544.451 572.933 545.692 572.933 547.084C572.933 548.475 573.12 549.716 573.494 550.807C573.878 551.897 574.444 552.759 575.192 553.392C575.95 554.015 576.885 554.327 577.996 554.327ZM599.375 545.168V559H592.74V535.074H599.064V539.295H599.344C599.874 537.904 600.762 536.803 602.008 535.993C603.254 535.173 604.765 534.763 606.541 534.763C608.202 534.763 609.651 535.126 610.886 535.853C612.122 536.58 613.083 537.618 613.768 538.968C614.454 540.308 614.796 541.907 614.796 543.766V559H608.161V544.95C608.171 543.486 607.797 542.343 607.039 541.523C606.281 540.692 605.237 540.277 603.908 540.277C603.015 540.277 602.226 540.469 601.54 540.853C600.865 541.237 600.336 541.798 599.952 542.535C599.578 543.262 599.386 544.14 599.375 545.168ZM629.614 559.467C627.153 559.467 625.034 558.969 623.259 557.972C621.493 556.965 620.133 555.542 619.178 553.704C618.222 551.855 617.744 549.67 617.744 547.146C617.744 544.685 618.222 542.525 619.178 540.666C620.133 538.807 621.478 537.359 623.212 536.32C624.956 535.282 627.002 534.763 629.349 534.763C630.928 534.763 632.397 535.017 633.757 535.526C635.128 536.024 636.322 536.777 637.34 537.784C638.368 538.792 639.168 540.059 639.739 541.585C640.31 543.101 640.596 544.877 640.596 546.912V548.735H620.392V544.623H634.349C634.349 543.667 634.142 542.821 633.726 542.084C633.311 541.346 632.734 540.77 631.997 540.355C631.27 539.929 630.424 539.716 629.458 539.716C628.451 539.716 627.558 539.95 626.779 540.417C626.011 540.874 625.408 541.492 624.972 542.271C624.536 543.039 624.313 543.896 624.302 544.841V548.751C624.302 549.934 624.52 550.957 624.956 551.819C625.403 552.681 626.031 553.346 626.841 553.813C627.651 554.28 628.612 554.514 629.723 554.514C630.46 554.514 631.135 554.41 631.748 554.202C632.361 553.995 632.885 553.683 633.321 553.268C633.757 552.852 634.09 552.344 634.318 551.741L640.455 552.146C640.144 553.621 639.505 554.909 638.539 556.009C637.584 557.1 636.348 557.951 634.832 558.564C633.326 559.166 631.587 559.467 629.614 559.467ZM650.246 545.168V559H643.61V535.074H649.934V539.295H650.214C650.744 537.904 651.632 536.803 652.878 535.993C654.124 535.173 655.635 534.763 657.411 534.763C659.072 534.763 660.521 535.126 661.757 535.853C662.993 536.58 663.953 537.618 664.639 538.968C665.324 540.308 665.667 541.907 665.667 543.766V559H659.031V544.95C659.041 543.486 658.667 542.343 657.909 541.523C657.151 540.692 656.108 540.277 654.778 540.277C653.885 540.277 653.096 540.469 652.411 540.853C651.736 541.237 651.206 541.798 650.822 542.535C650.448 543.262 650.256 544.14 650.246 545.168ZM682.307 535.074V540.059H667.898V535.074H682.307ZM671.169 529.342H677.805V551.648C677.805 552.26 677.899 552.738 678.085 553.081C678.272 553.413 678.532 553.647 678.864 553.782C679.207 553.917 679.602 553.984 680.048 553.984C680.36 553.984 680.671 553.958 680.983 553.906C681.294 553.844 681.533 553.797 681.699 553.766L682.743 558.704C682.411 558.808 681.943 558.927 681.341 559.062C680.739 559.208 680.007 559.296 679.145 559.327C677.545 559.389 676.144 559.177 674.939 558.688C673.745 558.2 672.815 557.442 672.151 556.414C671.486 555.386 671.159 554.088 671.169 552.52V529.342ZM704.921 541.897L698.846 542.271C698.742 541.751 698.519 541.284 698.176 540.869C697.833 540.443 697.381 540.105 696.821 539.856C696.27 539.597 695.611 539.467 694.842 539.467C693.814 539.467 692.947 539.685 692.241 540.121C691.535 540.547 691.182 541.118 691.182 541.834C691.182 542.406 691.41 542.888 691.867 543.283C692.324 543.678 693.108 543.994 694.219 544.233L698.55 545.106C700.876 545.583 702.61 546.352 703.752 547.411C704.895 548.47 705.466 549.862 705.466 551.585C705.466 553.154 705.004 554.529 704.079 555.713C703.166 556.897 701.909 557.821 700.31 558.486C698.721 559.14 696.888 559.467 694.811 559.467C691.644 559.467 689.121 558.808 687.241 557.489C685.372 556.16 684.276 554.353 683.954 552.068L690.481 551.726C690.678 552.691 691.156 553.429 691.914 553.938C692.672 554.436 693.643 554.685 694.827 554.685C695.99 554.685 696.925 554.462 697.631 554.015C698.347 553.559 698.711 552.972 698.721 552.255C698.711 551.653 698.456 551.16 697.958 550.775C697.459 550.381 696.691 550.08 695.652 549.872L691.509 549.046C689.173 548.579 687.433 547.769 686.291 546.616C685.159 545.464 684.593 543.994 684.593 542.208C684.593 540.671 685.008 539.347 685.839 538.236C686.68 537.125 687.859 536.268 689.375 535.666C690.902 535.064 692.688 534.763 694.733 534.763C697.755 534.763 700.133 535.401 701.868 536.679C703.612 537.956 704.63 539.695 704.921 541.897ZM712.207 559.405C711.179 559.405 710.296 559.042 709.559 558.315C708.832 557.577 708.468 556.695 708.468 555.667C708.468 554.649 708.832 553.777 709.559 553.05C710.296 552.323 711.179 551.959 712.207 551.959C713.204 551.959 714.076 552.323 714.824 553.05C715.571 553.777 715.945 554.649 715.945 555.667C715.945 556.352 715.769 556.98 715.416 557.551C715.073 558.112 714.621 558.564 714.061 558.907C713.5 559.239 712.882 559.405 712.207 559.405Z" fill="#5A5A5A"/>
<rect x="852.5" y="415.5" width="385" height="385" rx="24.5" fill="white" stroke="#BFC3C9"/>
</g>
<path d="M243.5 181C243.5 167.469 254.469 156.5 268 156.5H1323C1336.53 156.5 1347.5 167.469 1347.5 181V1059.5H243.5V181Z" stroke="#BFC3C9" shape-rendering="crispEdges"/>
</g>
</g>
<defs>
<filter id="filter0_d_211_112" x="131.183" y="66.5465" width="1328.63" height="1127.63" filterUnits="userSpaceOnUse" color-interpolation-filters="sRGB">
<feFlood flood-opacity="0" result="BackgroundImageFix"/>
<feColorMatrix in="SourceAlpha" type="matrix" values="0 0 0 0 0 0 0 0 0 0 0 0 0 0 0 0 0 0 127 0" result="hardAlpha"/>
<feOffset dy="22.3634"/>
<feGaussianBlur stdDeviation="55.9085"/>
<feComposite in2="hardAlpha" operator="out"/>
<feColorMatrix type="matrix" values="0 0 0 0 0 0 0 0 0 0 0 0 0 0 0 0 0 0 0.15 0"/>
<feBlend mode="normal" in2="BackgroundImageFix" result="effect1_dropShadow_211_112"/>
<feBlend mode="normal" in="SourceGraphic" in2="effect1_dropShadow_211_112" result="shape"/>
</filter>
<clipPath id="clip0_211_112">
<rect width="1536" height="1024" fill="white"/>
</clipPath>
<clipPath id="clip1_211_112">
<path d="M243 181C243 167.193 254.193 156 268 156H1323C1336.81 156 1348 167.193 1348 181V1060H243V181Z" fill="white"/>
</clipPath>
</defs>
</svg>
