<svg width="1536" height="1024" viewBox="0 0 1536 1024" fill="none" xmlns="http://www.w3.org/2000/svg">
<g clip-path="url(#clip0_211_129)">
<g filter="url(#filter0_d_211_129)">
<g clip-path="url(#clip1_211_129)">
<path d="M243 181C243 167.193 254.193 156 268 156H1323C1336.81 156 1348 167.193 1348 181V1060H243V181Z" fill="#F9FAFB"/>
<mask id="path-4-inside-1_211_129" fill="white">
<path d="M243 156H1348V218H243V156Z"/>
</mask>
<path d="M243 156H1348V218H243V156Z" fill="white"/>
<circle cx="293" cy="187" r="10" fill="#D1D5DB"/>
<circle cx="294" cy="187" r="10" fill="#D1D5DB"/>
<circle cx="319" cy="187" r="10" fill="#D1D5DB"/>
<circle cx="344" cy="187" r="10" fill="#D1D5DB"/>
<path d="M1348 217H243V219H1348V217Z" fill="#D1D5DB" mask="url(#path-4-inside-1_211_129)"/>
<rect x="346" y="601.273" width="272.451" height="10.6496" rx="5.32478" fill="#D1D5DB"/>
<rect x="346" y="641.258" width="195.288" height="10.3807" rx="5.19037" fill="#D1D5DB"/>
<path d="M348.989 579H346.377L350.357 567.473H353.497L357.471 579H354.859L351.972 570.107H351.882L348.989 579ZM348.826 574.469H354.994V576.371H348.826V574.469ZM360.736 567.473V579H358.338V567.473H360.736ZM362.181 582.242V570.354H364.545V571.807H364.652C364.757 571.574 364.909 571.338 365.108 571.097C365.31 570.854 365.573 570.651 365.896 570.49C366.222 570.324 366.628 570.242 367.112 570.242C367.742 570.242 368.324 570.407 368.856 570.737C369.389 571.064 369.815 571.557 370.134 572.218C370.453 572.874 370.613 573.698 370.613 574.689C370.613 575.653 370.457 576.467 370.145 577.131C369.838 577.792 369.417 578.293 368.885 578.634C368.356 578.972 367.763 579.141 367.106 579.141C366.641 579.141 366.245 579.064 365.918 578.91C365.596 578.756 365.331 578.563 365.125 578.33C364.918 578.094 364.761 577.856 364.652 577.615H364.579V582.242H362.181ZM364.528 574.677C364.528 575.191 364.599 575.64 364.742 576.022C364.885 576.405 365.091 576.704 365.361 576.917C365.631 577.128 365.96 577.233 366.346 577.233C366.736 577.233 367.067 577.126 367.337 576.912C367.607 576.694 367.811 576.394 367.95 576.011C368.093 575.625 368.164 575.18 368.164 574.677C368.164 574.178 368.095 573.739 367.956 573.36C367.817 572.981 367.613 572.685 367.342 572.471C367.072 572.257 366.74 572.15 366.346 572.15C365.956 572.15 365.626 572.253 365.356 572.46C365.089 572.666 364.885 572.959 364.742 573.338C364.599 573.717 364.528 574.163 364.528 574.677ZM371.736 579V570.354H374.133V579H371.736ZM372.94 569.24C372.584 569.24 372.278 569.122 372.023 568.885C371.771 568.645 371.646 568.358 371.646 568.024C371.646 567.694 371.771 567.411 372.023 567.174C372.278 566.934 372.584 566.814 372.94 566.814C373.297 566.814 373.601 566.934 373.852 567.174C374.107 567.411 374.235 567.694 374.235 568.024C374.235 568.358 374.107 568.645 373.852 568.885C373.601 569.122 373.297 569.24 372.94 569.24ZM377.976 574.002V579H375.579V570.354H377.864V571.88H377.965C378.157 571.377 378.477 570.979 378.928 570.687C379.378 570.39 379.924 570.242 380.566 570.242C381.166 570.242 381.689 570.373 382.136 570.636C382.582 570.899 382.93 571.274 383.177 571.762C383.425 572.246 383.549 572.824 383.549 573.495V579H381.151V573.923C381.155 573.394 381.02 572.981 380.746 572.685C380.472 572.385 380.095 572.234 379.614 572.234C379.292 572.234 379.006 572.304 378.759 572.443C378.515 572.582 378.324 572.784 378.185 573.051C378.05 573.313 377.98 573.63 377.976 574.002ZM388.903 579.169C388.014 579.169 387.248 578.989 386.607 578.629C385.969 578.265 385.477 577.75 385.132 577.086C384.787 576.418 384.614 575.628 384.614 574.717C384.614 573.827 384.787 573.047 385.132 572.375C385.477 571.703 385.963 571.18 386.59 570.805C387.22 570.43 387.959 570.242 388.807 570.242C389.378 570.242 389.909 570.334 390.4 570.518C390.896 570.698 391.327 570.97 391.695 571.334C392.066 571.698 392.355 572.156 392.562 572.707C392.768 573.255 392.871 573.897 392.871 574.632V575.291H385.571V573.805H390.614C390.614 573.46 390.539 573.154 390.389 572.887C390.239 572.621 390.031 572.413 389.764 572.263C389.502 572.109 389.196 572.032 388.847 572.032C388.483 572.032 388.16 572.116 387.879 572.285C387.601 572.45 387.383 572.673 387.226 572.955C387.068 573.233 386.987 573.542 386.984 573.884V575.296C386.984 575.724 387.062 576.094 387.22 576.405C387.381 576.717 387.608 576.957 387.901 577.126C388.194 577.295 388.541 577.379 388.942 577.379C389.209 577.379 389.453 577.341 389.674 577.266C389.896 577.191 390.085 577.079 390.243 576.929C390.4 576.779 390.52 576.595 390.603 576.377L392.821 576.523C392.708 577.056 392.477 577.522 392.128 577.919C391.783 578.313 391.336 578.621 390.789 578.842C390.245 579.06 389.616 579.169 388.903 579.169ZM393.96 570.354H396.358V579.428C396.358 580.096 396.227 580.636 395.964 581.049C395.702 581.462 395.324 581.764 394.833 581.955C394.345 582.146 393.762 582.242 393.082 582.242C393 582.242 392.921 582.24 392.846 582.236C392.767 582.236 392.685 582.235 392.598 582.231V580.356C392.662 580.36 392.718 580.362 392.767 580.362C392.812 580.366 392.861 580.368 392.914 580.368C393.3 580.368 393.57 580.285 393.724 580.12C393.882 579.959 393.96 579.715 393.96 579.388V570.354ZM395.154 569.24C394.801 569.24 394.497 569.122 394.242 568.885C393.987 568.645 393.859 568.358 393.859 568.024C393.859 567.694 393.987 567.411 394.242 567.174C394.497 566.934 394.801 566.814 395.154 566.814C395.514 566.814 395.82 566.934 396.071 567.174C396.326 567.411 396.454 567.694 396.454 568.024C396.454 568.358 396.326 568.645 396.071 568.885C395.82 569.122 395.514 569.24 395.154 569.24ZM404.997 572.82L402.802 572.955C402.764 572.767 402.683 572.598 402.56 572.448C402.436 572.294 402.273 572.173 402.07 572.082C401.871 571.989 401.633 571.942 401.355 571.942C400.984 571.942 400.67 572.021 400.415 572.178C400.16 572.332 400.032 572.538 400.032 572.797C400.032 573.004 400.115 573.178 400.28 573.321C400.445 573.463 400.728 573.578 401.13 573.664L402.695 573.979C403.535 574.152 404.162 574.43 404.575 574.812C404.987 575.195 405.194 575.698 405.194 576.321C405.194 576.887 405.027 577.385 404.693 577.812C404.363 578.24 403.909 578.574 403.331 578.814C402.757 579.051 402.094 579.169 401.344 579.169C400.199 579.169 399.288 578.931 398.608 578.454C397.933 577.974 397.537 577.321 397.421 576.495L399.779 576.371C399.85 576.72 400.023 576.987 400.297 577.171C400.571 577.351 400.922 577.441 401.349 577.441C401.77 577.441 402.107 577.36 402.363 577.199C402.622 577.034 402.753 576.822 402.757 576.563C402.753 576.345 402.661 576.167 402.481 576.028C402.301 575.886 402.023 575.777 401.648 575.702L400.151 575.403C399.306 575.234 398.678 574.942 398.265 574.525C397.856 574.109 397.651 573.578 397.651 572.932C397.651 572.377 397.802 571.899 398.102 571.497C398.406 571.096 398.832 570.786 399.379 570.568C399.931 570.351 400.576 570.242 401.316 570.242C402.408 570.242 403.267 570.473 403.894 570.934C404.524 571.396 404.892 572.024 404.997 572.82ZM412.956 579.169C412.16 579.169 411.474 579.026 410.896 578.741C410.318 578.456 409.873 578.069 409.562 577.582C409.254 577.09 409.1 576.542 409.1 575.938C409.1 575.488 409.19 575.088 409.37 574.739C409.551 574.39 409.802 574.069 410.125 573.777C410.447 573.48 410.823 573.186 411.25 572.893L413.485 571.424C413.774 571.24 413.986 571.047 414.121 570.844C414.256 570.638 414.324 570.415 414.324 570.174C414.324 569.945 414.232 569.733 414.048 569.538C413.864 569.343 413.603 569.248 413.265 569.251C413.04 569.251 412.845 569.302 412.68 569.403C412.515 569.501 412.385 569.63 412.292 569.792C412.202 569.949 412.157 570.126 412.157 570.321C412.157 570.561 412.224 570.805 412.359 571.052C412.494 571.3 412.674 571.563 412.9 571.84C413.125 572.114 413.37 572.411 413.637 572.73L419.102 579H416.603L412.044 573.923C411.744 573.582 411.444 573.225 411.143 572.854C410.847 572.478 410.599 572.081 410.4 571.66C410.202 571.236 410.102 570.777 410.102 570.281C410.102 569.722 410.232 569.219 410.491 568.773C410.753 568.326 411.121 567.974 411.594 567.715C412.067 567.452 412.618 567.321 413.249 567.321C413.864 567.321 414.395 567.446 414.841 567.698C415.292 567.945 415.637 568.276 415.877 568.688C416.121 569.097 416.243 569.548 416.243 570.039C416.243 570.583 416.108 571.077 415.838 571.52C415.571 571.959 415.196 572.353 414.712 572.702L412.359 574.396C412.04 574.628 411.804 574.867 411.65 575.111C411.5 575.351 411.425 575.582 411.425 575.803C411.425 576.077 411.492 576.323 411.627 576.54C411.763 576.758 411.954 576.931 412.202 577.058C412.449 577.182 412.74 577.244 413.074 577.244C413.479 577.244 413.879 577.152 414.273 576.968C414.671 576.78 415.031 576.516 415.354 576.174C415.68 575.829 415.941 575.42 416.136 574.947C416.331 574.475 416.429 573.951 416.429 573.377H418.416C418.416 574.082 418.339 574.719 418.185 575.285C418.031 575.848 417.817 576.34 417.543 576.76C417.269 577.176 416.956 577.518 416.603 577.784C416.491 577.856 416.382 577.923 416.277 577.987C416.172 578.051 416.063 578.118 415.95 578.189C415.522 578.535 415.044 578.784 414.515 578.938C413.99 579.092 413.47 579.169 412.956 579.169ZM422.425 569.482V567.473H431.892V569.482H428.363V579H425.954V569.482H422.425ZM434.22 579.163C433.668 579.163 433.176 579.068 432.745 578.876C432.313 578.681 431.972 578.394 431.72 578.015C431.473 577.632 431.349 577.156 431.349 576.585C431.349 576.105 431.437 575.702 431.614 575.375C431.79 575.049 432.03 574.786 432.334 574.587C432.638 574.388 432.983 574.238 433.37 574.137C433.76 574.036 434.169 573.964 434.597 573.923C435.099 573.87 435.505 573.822 435.812 573.777C436.12 573.728 436.343 573.657 436.482 573.563C436.621 573.469 436.69 573.33 436.69 573.146V573.113C436.69 572.756 436.578 572.48 436.353 572.285C436.131 572.09 435.816 571.992 435.407 571.992C434.976 571.992 434.632 572.088 434.377 572.279C434.122 572.467 433.953 572.703 433.871 572.989L431.653 572.809C431.765 572.283 431.987 571.829 432.317 571.446C432.647 571.06 433.073 570.764 433.595 570.557C434.12 570.347 434.728 570.242 435.418 570.242C435.899 570.242 436.358 570.298 436.797 570.411C437.24 570.523 437.632 570.698 437.974 570.934C438.319 571.171 438.591 571.475 438.79 571.846C438.989 572.214 439.088 572.655 439.088 573.169V579H436.814V577.801H436.747C436.608 578.071 436.422 578.31 436.19 578.516C435.957 578.719 435.677 578.878 435.351 578.994C435.024 579.107 434.647 579.163 434.22 579.163ZM434.906 577.508C435.259 577.508 435.57 577.439 435.841 577.3C436.111 577.158 436.323 576.966 436.477 576.726C436.63 576.486 436.707 576.214 436.707 575.91V574.992C436.632 575.041 436.529 575.086 436.398 575.128C436.27 575.165 436.126 575.201 435.964 575.234C435.803 575.264 435.642 575.293 435.48 575.319C435.319 575.341 435.173 575.362 435.041 575.381C434.76 575.422 434.514 575.488 434.304 575.578C434.094 575.668 433.931 575.79 433.814 575.944C433.698 576.094 433.64 576.281 433.64 576.507C433.64 576.833 433.758 577.083 433.994 577.255C434.235 577.424 434.538 577.508 434.906 577.508ZM440.473 579V570.354H442.871V579H440.473ZM441.678 569.24C441.321 569.24 441.015 569.122 440.76 568.885C440.509 568.645 440.383 568.358 440.383 568.024C440.383 567.694 440.509 567.411 440.76 567.174C441.015 566.934 441.321 566.814 441.678 566.814C442.034 566.814 442.338 566.934 442.589 567.174C442.845 567.411 442.972 567.694 442.972 568.024C442.972 568.358 442.845 568.645 442.589 568.885C442.338 569.122 442.034 569.24 441.678 569.24ZM446.714 567.473V579H444.316V567.473H446.714ZM449.865 579L447.512 570.354H449.938L451.277 576.163H451.356L452.752 570.354H455.133L456.551 576.129H456.624L457.942 570.354H460.362L458.015 579H455.476L453.99 573.563H453.883L452.397 579H449.865ZM461.165 579V570.354H463.563V579H461.165ZM462.37 569.24C462.013 569.24 461.708 569.122 461.452 568.885C461.201 568.645 461.075 568.358 461.075 568.024C461.075 567.694 461.201 567.411 461.452 567.174C461.708 566.934 462.013 566.814 462.37 566.814C462.726 566.814 463.03 566.934 463.282 567.174C463.537 567.411 463.665 567.694 463.665 568.024C463.665 568.358 463.537 568.645 463.282 568.885C463.03 569.122 462.726 569.24 462.37 569.24ZM467.406 574.002V579H465.008V570.354H467.294V571.88H467.395C467.586 571.377 467.907 570.979 468.357 570.687C468.808 570.39 469.354 570.242 469.995 570.242C470.596 570.242 471.119 570.373 471.566 570.636C472.012 570.899 472.359 571.274 472.607 571.762C472.855 572.246 472.979 572.824 472.979 573.495V579H470.581V573.923C470.584 573.394 470.449 572.981 470.175 572.685C469.902 572.385 469.524 572.234 469.044 572.234C468.721 572.234 468.436 572.304 468.189 572.443C467.945 572.582 467.753 572.784 467.614 573.051C467.479 573.313 467.41 573.63 467.406 574.002ZM477.579 579.141C476.922 579.141 476.327 578.972 475.794 578.634C475.265 578.293 474.845 577.792 474.534 577.131C474.226 576.467 474.072 575.653 474.072 574.689C474.072 573.698 474.231 572.874 474.55 572.218C474.869 571.557 475.293 571.064 475.822 570.737C476.355 570.407 476.939 570.242 477.573 570.242C478.057 570.242 478.46 570.324 478.783 570.49C479.11 570.651 479.372 570.854 479.571 571.097C479.774 571.338 479.928 571.574 480.033 571.807H480.106V567.473H482.498V579H480.134V577.615H480.033C479.92 577.856 479.761 578.094 479.554 578.33C479.352 578.563 479.087 578.756 478.761 578.91C478.438 579.064 478.044 579.141 477.579 579.141ZM478.338 577.233C478.725 577.233 479.051 577.128 479.318 576.917C479.588 576.704 479.794 576.405 479.937 576.022C480.083 575.64 480.156 575.191 480.156 574.677C480.156 574.163 480.085 573.717 479.943 573.338C479.8 572.959 479.594 572.666 479.323 572.46C479.053 572.253 478.725 572.15 478.338 572.15C477.944 572.15 477.612 572.257 477.342 572.471C477.072 572.685 476.868 572.981 476.729 573.36C476.59 573.739 476.52 574.178 476.52 574.677C476.52 575.18 476.59 575.625 476.729 576.011C476.871 576.394 477.076 576.694 477.342 576.912C477.612 577.126 477.944 577.233 478.338 577.233ZM497.403 571.508H494.937C494.892 571.189 494.8 570.906 494.662 570.658C494.523 570.407 494.344 570.193 494.127 570.017C493.909 569.84 493.658 569.705 493.373 569.612C493.091 569.518 492.785 569.471 492.455 569.471C491.859 569.471 491.339 569.619 490.896 569.915C490.453 570.208 490.11 570.636 489.866 571.199C489.622 571.758 489.5 572.437 489.5 573.236C489.5 574.058 489.622 574.749 489.866 575.308C490.114 575.867 490.459 576.289 490.902 576.574C491.344 576.859 491.857 577.002 492.438 577.002C492.765 577.002 493.067 576.959 493.344 576.872C493.626 576.786 493.875 576.66 494.093 576.495C494.311 576.326 494.491 576.122 494.633 575.882C494.78 575.642 494.881 575.368 494.937 575.06L497.403 575.071C497.339 575.6 497.179 576.111 496.924 576.602C496.673 577.09 496.333 577.527 495.905 577.914C495.481 578.296 494.975 578.6 494.386 578.826C493.8 579.047 493.138 579.158 492.399 579.158C491.371 579.158 490.451 578.925 489.641 578.46C488.834 577.994 488.196 577.321 487.727 576.439C487.262 575.557 487.029 574.49 487.029 573.236C487.029 571.979 487.266 570.91 487.738 570.028C488.211 569.146 488.853 568.475 489.663 568.013C490.474 567.548 491.386 567.315 492.399 567.315C493.067 567.315 493.686 567.409 494.256 567.596C494.83 567.784 495.339 568.058 495.782 568.418C496.224 568.775 496.585 569.212 496.862 569.73C497.144 570.248 497.324 570.84 497.403 571.508ZM504.928 570.788C504.883 570.334 504.69 569.981 504.348 569.73C504.007 569.478 503.544 569.353 502.958 569.353C502.56 569.353 502.225 569.409 501.951 569.521C501.677 569.63 501.467 569.782 501.32 569.977C501.178 570.173 501.106 570.394 501.106 570.642C501.099 570.848 501.142 571.028 501.236 571.182C501.333 571.336 501.467 571.469 501.635 571.582C501.804 571.69 501.999 571.786 502.221 571.869C502.442 571.947 502.679 572.015 502.93 572.071L503.966 572.319C504.469 572.431 504.93 572.582 505.35 572.769C505.771 572.957 506.135 573.188 506.442 573.461C506.75 573.735 506.988 574.058 507.157 574.43C507.33 574.801 507.418 575.227 507.422 575.707C507.418 576.413 507.238 577.024 506.881 577.542C506.529 578.056 506.018 578.456 505.35 578.741C504.686 579.023 503.885 579.163 502.947 579.163C502.016 579.163 501.206 579.021 500.515 578.735C499.829 578.45 499.292 578.028 498.906 577.469C498.523 576.906 498.322 576.21 498.303 575.381H500.662C500.688 575.767 500.799 576.09 500.994 576.349C501.193 576.604 501.457 576.797 501.787 576.929C502.121 577.056 502.499 577.12 502.919 577.12C503.332 577.12 503.69 577.06 503.994 576.94C504.302 576.82 504.54 576.653 504.709 576.439C504.878 576.225 504.962 575.979 504.962 575.702C504.962 575.443 504.885 575.225 504.731 575.049C504.581 574.872 504.36 574.722 504.067 574.598C503.778 574.475 503.424 574.362 503.003 574.261L501.748 573.946C500.776 573.709 500.009 573.34 499.446 572.837C498.883 572.334 498.604 571.657 498.607 570.805C498.604 570.107 498.789 569.497 499.165 568.975C499.544 568.454 500.063 568.047 500.724 567.754C501.384 567.461 502.135 567.315 502.975 567.315C503.831 567.315 504.577 567.461 505.215 567.754C505.857 568.047 506.356 568.454 506.712 568.975C507.069 569.497 507.253 570.101 507.264 570.788H504.928ZM514.839 570.788C514.794 570.334 514.601 569.981 514.259 569.73C513.918 569.478 513.454 569.353 512.869 569.353C512.471 569.353 512.135 569.409 511.861 569.521C511.587 569.63 511.377 569.782 511.231 569.977C511.088 570.173 511.017 570.394 511.017 570.642C511.01 570.848 511.053 571.028 511.146 571.182C511.244 571.336 511.377 571.469 511.546 571.582C511.715 571.69 511.91 571.786 512.131 571.869C512.353 571.947 512.589 572.015 512.841 572.071L513.876 572.319C514.379 572.431 514.841 572.582 515.261 572.769C515.681 572.957 516.045 573.188 516.353 573.461C516.661 573.735 516.899 574.058 517.068 574.43C517.24 574.801 517.329 575.227 517.332 575.707C517.329 576.413 517.148 577.024 516.792 577.542C516.439 578.056 515.929 578.456 515.261 578.741C514.597 579.023 513.796 579.163 512.858 579.163C511.927 579.163 511.116 579.021 510.426 578.735C509.739 578.45 509.203 578.028 508.816 577.469C508.434 576.906 508.233 576.21 508.214 575.381H510.572C510.599 575.767 510.709 576.09 510.904 576.349C511.103 576.604 511.368 576.797 511.698 576.929C512.032 577.056 512.409 577.12 512.829 577.12C513.242 577.12 513.601 577.06 513.905 576.94C514.212 576.82 514.45 576.653 514.619 576.439C514.788 576.225 514.873 575.979 514.873 575.702C514.873 575.443 514.796 575.225 514.642 575.049C514.492 574.872 514.27 574.722 513.978 574.598C513.689 574.475 513.334 574.362 512.914 574.261L511.659 573.946C510.687 573.709 509.919 573.34 509.357 572.837C508.794 572.334 508.514 571.657 508.518 570.805C508.514 570.107 508.7 569.497 509.075 568.975C509.454 568.454 509.974 568.047 510.634 567.754C511.295 567.461 512.045 567.315 512.886 567.315C513.741 567.315 514.488 567.461 515.126 567.754C515.768 568.047 516.267 568.454 516.623 568.975C516.98 569.497 517.163 570.101 517.175 570.788H514.839ZM525.55 579.169C524.665 579.169 523.903 578.981 523.265 578.606C522.631 578.227 522.143 577.702 521.802 577.03C521.464 576.358 521.295 575.585 521.295 574.711C521.295 573.825 521.466 573.049 521.807 572.381C522.152 571.709 522.642 571.186 523.276 570.81C523.91 570.431 524.665 570.242 525.539 570.242C526.293 570.242 526.954 570.379 527.52 570.653C528.087 570.927 528.535 571.311 528.866 571.807C529.196 572.302 529.378 572.884 529.411 573.552H527.149C527.085 573.12 526.916 572.773 526.642 572.51C526.372 572.244 526.017 572.111 525.578 572.111C525.207 572.111 524.882 572.212 524.605 572.415C524.331 572.613 524.117 572.904 523.963 573.287C523.809 573.67 523.732 574.133 523.732 574.677C523.732 575.229 523.807 575.698 523.957 576.084C524.111 576.471 524.327 576.765 524.605 576.968C524.882 577.171 525.207 577.272 525.578 577.272C525.852 577.272 526.098 577.216 526.316 577.103C526.537 576.991 526.719 576.827 526.862 576.613C527.008 576.396 527.104 576.135 527.149 575.831H529.411C529.374 576.492 529.194 577.073 528.871 577.576C528.552 578.075 528.111 578.465 527.548 578.747C526.986 579.028 526.32 579.169 525.55 579.169ZM534.377 579.169C533.503 579.169 532.747 578.983 532.109 578.612C531.475 578.236 530.985 577.715 530.64 577.047C530.295 576.375 530.122 575.597 530.122 574.711C530.122 573.818 530.295 573.037 530.64 572.37C530.985 571.698 531.475 571.176 532.109 570.805C532.747 570.43 533.503 570.242 534.377 570.242C535.252 570.242 536.006 570.43 536.64 570.805C537.278 571.176 537.77 571.698 538.115 572.37C538.46 573.037 538.633 573.818 538.633 574.711C538.633 575.597 538.46 576.375 538.115 577.047C537.77 577.715 537.278 578.236 536.64 578.612C536.006 578.983 535.252 579.169 534.377 579.169ZM534.389 577.311C534.786 577.311 535.119 577.199 535.385 576.974C535.651 576.745 535.852 576.433 535.987 576.039C536.126 575.645 536.195 575.197 536.195 574.694C536.195 574.191 536.126 573.743 535.987 573.349C535.852 572.955 535.651 572.643 535.385 572.415C535.119 572.186 534.786 572.071 534.389 572.071C533.987 572.071 533.649 572.186 533.376 572.415C533.105 572.643 532.901 572.955 532.762 573.349C532.627 573.743 532.559 574.191 532.559 574.694C532.559 575.197 532.627 575.645 532.762 576.039C532.901 576.433 533.105 576.745 533.376 576.974C533.649 577.199 533.987 577.311 534.389 577.311ZM539.716 579V570.354H542.001V571.88H542.103C542.283 571.373 542.583 570.974 543.003 570.681C543.424 570.388 543.926 570.242 544.512 570.242C545.105 570.242 545.609 570.39 546.026 570.687C546.442 570.979 546.72 571.377 546.859 571.88H546.949C547.125 571.385 547.444 570.989 547.906 570.692C548.371 570.392 548.921 570.242 549.555 570.242C550.362 570.242 551.017 570.499 551.519 571.013C552.026 571.523 552.279 572.248 552.279 573.186V579H549.887V573.658C549.887 573.178 549.759 572.818 549.504 572.578C549.249 572.338 548.93 572.218 548.547 572.218C548.112 572.218 547.773 572.356 547.529 572.634C547.285 572.908 547.163 573.27 547.163 573.72V579H544.838V573.608C544.838 573.184 544.716 572.846 544.472 572.595C544.232 572.343 543.915 572.218 543.521 572.218C543.255 572.218 543.015 572.285 542.801 572.42C542.591 572.552 542.424 572.737 542.3 572.977C542.176 573.214 542.114 573.491 542.114 573.81V579H539.716ZM553.698 582.242V570.354H556.062V571.807H556.169C556.274 571.574 556.426 571.338 556.625 571.097C556.827 570.854 557.09 570.651 557.413 570.49C557.739 570.324 558.144 570.242 558.628 570.242C559.259 570.242 559.84 570.407 560.373 570.737C560.906 571.064 561.332 571.557 561.651 572.218C561.97 572.874 562.129 573.698 562.129 574.689C562.129 575.653 561.974 576.467 561.662 577.131C561.354 577.792 560.934 578.293 560.401 578.634C559.872 578.972 559.279 579.141 558.623 579.141C558.157 579.141 557.762 579.064 557.435 578.91C557.112 578.756 556.848 578.563 556.641 578.33C556.435 578.094 556.278 577.856 556.169 577.615H556.096V582.242H553.698ZM556.045 574.677C556.045 575.191 556.116 575.64 556.259 576.022C556.401 576.405 556.608 576.704 556.878 576.917C557.148 577.128 557.476 577.233 557.863 577.233C558.253 577.233 558.583 577.126 558.854 576.912C559.124 576.694 559.328 576.394 559.467 576.011C559.61 575.625 559.681 575.18 559.681 574.677C559.681 574.178 559.612 573.739 559.473 573.36C559.334 572.981 559.129 572.685 558.859 572.471C558.589 572.257 558.257 572.15 557.863 572.15C557.473 572.15 557.142 572.253 556.872 572.46C556.606 572.666 556.401 572.959 556.259 573.338C556.116 573.717 556.045 574.163 556.045 574.677ZM567.159 579.169C566.284 579.169 565.528 578.983 564.89 578.612C564.256 578.236 563.766 577.715 563.421 577.047C563.076 576.375 562.903 575.597 562.903 574.711C562.903 573.818 563.076 573.037 563.421 572.37C563.766 571.698 564.256 571.176 564.89 570.805C565.528 570.43 566.284 570.242 567.159 570.242C568.033 570.242 568.787 570.43 569.421 570.805C570.059 571.176 570.551 571.698 570.896 572.37C571.241 573.037 571.414 573.818 571.414 574.711C571.414 575.597 571.241 576.375 570.896 577.047C570.551 577.715 570.059 578.236 569.421 578.612C568.787 578.983 568.033 579.169 567.159 579.169ZM567.17 577.311C567.568 577.311 567.9 577.199 568.166 576.974C568.433 576.745 568.633 576.433 568.768 576.039C568.907 575.645 568.977 575.197 568.977 574.694C568.977 574.191 568.907 573.743 568.768 573.349C568.633 572.955 568.433 572.643 568.166 572.415C567.9 572.186 567.568 572.071 567.17 572.071C566.768 572.071 566.431 572.186 566.157 572.415C565.887 572.643 565.682 572.955 565.543 573.349C565.408 573.743 565.341 574.191 565.341 574.694C565.341 575.197 565.408 575.645 565.543 576.039C565.682 576.433 565.887 576.745 566.157 576.974C566.431 577.199 566.768 577.311 567.17 577.311ZM574.895 574.002V579H572.497V570.354H574.783V571.88H574.884C575.075 571.377 575.396 570.979 575.846 570.687C576.297 570.39 576.843 570.242 577.484 570.242C578.085 570.242 578.608 570.373 579.055 570.636C579.501 570.899 579.848 571.274 580.096 571.762C580.344 572.246 580.468 572.824 580.468 573.495V579H578.07V573.923C578.073 573.394 577.938 572.981 577.664 572.685C577.391 572.385 577.013 572.234 576.533 572.234C576.21 572.234 575.925 572.304 575.678 572.443C575.434 572.582 575.242 572.784 575.103 573.051C574.968 573.313 574.899 573.63 574.895 574.002ZM585.822 579.169C584.932 579.169 584.167 578.989 583.525 578.629C582.887 578.265 582.396 577.75 582.051 577.086C581.705 576.418 581.533 575.628 581.533 574.717C581.533 573.827 581.705 573.047 582.051 572.375C582.396 571.703 582.882 571.18 583.508 570.805C584.139 570.43 584.878 570.242 585.726 570.242C586.296 570.242 586.827 570.334 587.319 570.518C587.814 570.698 588.246 570.97 588.614 571.334C588.985 571.698 589.274 572.156 589.48 572.707C589.687 573.255 589.79 573.897 589.79 574.632V575.291H582.49V573.805H587.533C587.533 573.46 587.458 573.154 587.308 572.887C587.158 572.621 586.949 572.413 586.683 572.263C586.42 572.109 586.114 572.032 585.766 572.032C585.402 572.032 585.079 572.116 584.797 572.285C584.52 572.45 584.302 572.673 584.144 572.955C583.987 573.233 583.906 573.542 583.902 573.884V575.296C583.902 575.724 583.981 576.094 584.139 576.405C584.3 576.717 584.527 576.957 584.82 577.126C585.113 577.295 585.46 577.379 585.861 577.379C586.128 577.379 586.372 577.341 586.593 577.266C586.814 577.191 587.004 577.079 587.161 576.929C587.319 576.779 587.439 576.595 587.522 576.377L589.739 576.523C589.627 577.056 589.396 577.522 589.047 577.919C588.702 578.313 588.255 578.621 587.707 578.842C587.163 579.06 586.535 579.169 585.822 579.169ZM593.277 574.002V579H590.879V570.354H593.164V571.88H593.266C593.457 571.377 593.778 570.979 594.228 570.687C594.679 570.39 595.224 570.242 595.866 570.242C596.467 570.242 596.99 570.373 597.437 570.636C597.883 570.899 598.23 571.274 598.478 571.762C598.725 572.246 598.849 572.824 598.849 573.495V579H596.452V573.923C596.455 573.394 596.32 572.981 596.046 572.685C595.772 572.385 595.395 572.234 594.915 572.234C594.592 572.234 594.307 572.304 594.059 572.443C593.815 572.582 593.624 572.784 593.485 573.051C593.35 573.313 593.281 573.63 593.277 574.002ZM604.862 570.354V572.156H599.656V570.354H604.862ZM600.838 568.283H603.235V576.343C603.235 576.565 603.269 576.737 603.337 576.861C603.404 576.981 603.498 577.066 603.618 577.114C603.742 577.163 603.885 577.188 604.046 577.188C604.159 577.188 604.271 577.178 604.384 577.159C604.496 577.137 604.583 577.12 604.643 577.109L605.02 578.893C604.9 578.931 604.731 578.974 604.513 579.023C604.296 579.075 604.031 579.107 603.72 579.118C603.142 579.141 602.635 579.064 602.2 578.887C601.768 578.711 601.432 578.437 601.192 578.066C600.952 577.694 600.834 577.225 600.838 576.659V568.283ZM613.034 572.82L610.838 572.955C610.801 572.767 610.72 572.598 610.596 572.448C610.473 572.294 610.309 572.173 610.107 572.082C609.908 571.989 609.67 571.942 609.392 571.942C609.02 571.942 608.707 572.021 608.452 572.178C608.197 572.332 608.069 572.538 608.069 572.797C608.069 573.004 608.152 573.178 608.317 573.321C608.482 573.463 608.765 573.578 609.167 573.664L610.731 573.979C611.572 574.152 612.199 574.43 612.611 574.812C613.024 575.195 613.231 575.698 613.231 576.321C613.231 576.887 613.064 577.385 612.73 577.812C612.399 578.24 611.945 578.574 611.367 578.814C610.793 579.051 610.131 579.169 609.381 579.169C608.236 579.169 607.324 578.931 606.645 578.454C605.97 577.974 605.574 577.321 605.457 576.495L607.816 576.371C607.887 576.72 608.06 576.987 608.334 577.171C608.608 577.351 608.958 577.441 609.386 577.441C609.806 577.441 610.144 577.36 610.399 577.199C610.658 577.034 610.79 576.822 610.793 576.563C610.79 576.345 610.698 576.167 610.518 576.028C610.337 575.886 610.06 575.777 609.685 575.702L608.187 575.403C607.343 575.234 606.714 574.942 606.302 574.525C605.893 574.109 605.688 573.578 605.688 572.932C605.688 572.377 605.838 571.899 606.139 571.497C606.442 571.096 606.868 570.786 607.416 570.568C607.968 570.351 608.613 570.242 609.352 570.242C610.444 570.242 611.304 570.473 611.93 570.934C612.561 571.396 612.928 572.024 613.034 572.82ZM615.666 579.146C615.295 579.146 614.976 579.015 614.71 578.752C614.447 578.486 614.316 578.167 614.316 577.795C614.316 577.428 614.447 577.113 614.71 576.85C614.976 576.587 615.295 576.456 615.666 576.456C616.027 576.456 616.342 576.587 616.612 576.85C616.882 577.113 617.017 577.428 617.017 577.795C617.017 578.043 616.953 578.27 616.826 578.477C616.702 578.679 616.539 578.842 616.336 578.966C616.134 579.086 615.91 579.146 615.666 579.146Z" fill="#5A5A5A"/>
<rect x="346" y="503" width="40" height="40" rx="8" fill="#DDE0E4"/>
<rect x="679" y="601.273" width="272.451" height="10.6496" rx="5.32478" fill="#D1D5DB"/>
<rect x="679" y="641.258" width="195.288" height="10.3807" rx="5.19037" fill="#D1D5DB"/>
<path d="M681.989 579H679.377L683.357 567.473H686.497L690.471 579H687.859L684.972 570.107H684.882L681.989 579ZM681.826 574.469H687.994V576.371H681.826V574.469ZM693.736 567.473V579H691.338V567.473H693.736ZM695.181 582.242V570.354H697.545V571.807H697.652C697.757 571.574 697.909 571.338 698.108 571.097C698.31 570.854 698.573 570.651 698.896 570.49C699.222 570.324 699.628 570.242 700.112 570.242C700.742 570.242 701.324 570.407 701.856 570.737C702.389 571.064 702.815 571.557 703.134 572.218C703.453 572.874 703.613 573.698 703.613 574.689C703.613 575.653 703.457 576.467 703.145 577.131C702.838 577.792 702.417 578.293 701.885 578.634C701.356 578.972 700.763 579.141 700.106 579.141C699.641 579.141 699.245 579.064 698.918 578.91C698.596 578.756 698.331 578.563 698.125 578.33C697.918 578.094 697.761 577.856 697.652 577.615H697.579V582.242H695.181ZM697.528 574.677C697.528 575.191 697.599 575.64 697.742 576.022C697.885 576.405 698.091 576.704 698.361 576.917C698.631 577.128 698.96 577.233 699.346 577.233C699.736 577.233 700.067 577.126 700.337 576.912C700.607 576.694 700.811 576.394 700.95 576.011C701.093 575.625 701.164 575.18 701.164 574.677C701.164 574.178 701.095 573.739 700.956 573.36C700.817 572.981 700.613 572.685 700.342 572.471C700.072 572.257 699.74 572.15 699.346 572.15C698.956 572.15 698.626 572.253 698.356 572.46C698.089 572.666 697.885 572.959 697.742 573.338C697.599 573.717 697.528 574.163 697.528 574.677ZM704.736 579V570.354H707.133V579H704.736ZM705.94 569.24C705.584 569.24 705.278 569.122 705.023 568.885C704.771 568.645 704.646 568.358 704.646 568.024C704.646 567.694 704.771 567.411 705.023 567.174C705.278 566.934 705.584 566.814 705.94 566.814C706.297 566.814 706.601 566.934 706.852 567.174C707.107 567.411 707.235 567.694 707.235 568.024C707.235 568.358 707.107 568.645 706.852 568.885C706.601 569.122 706.297 569.24 705.94 569.24ZM710.976 574.002V579H708.579V570.354H710.864V571.88H710.965C711.157 571.377 711.477 570.979 711.928 570.687C712.378 570.39 712.924 570.242 713.566 570.242C714.166 570.242 714.689 570.373 715.136 570.636C715.582 570.899 715.93 571.274 716.177 571.762C716.425 572.246 716.549 572.824 716.549 573.495V579H714.151V573.923C714.155 573.394 714.02 572.981 713.746 572.685C713.472 572.385 713.095 572.234 712.614 572.234C712.292 572.234 712.006 572.304 711.759 572.443C711.515 572.582 711.324 572.784 711.185 573.051C711.05 573.313 710.98 573.63 710.976 574.002ZM721.903 579.169C721.014 579.169 720.248 578.989 719.607 578.629C718.969 578.265 718.477 577.75 718.132 577.086C717.787 576.418 717.614 575.628 717.614 574.717C717.614 573.827 717.787 573.047 718.132 572.375C718.477 571.703 718.963 571.18 719.59 570.805C720.22 570.43 720.959 570.242 721.807 570.242C722.378 570.242 722.909 570.334 723.4 570.518C723.896 570.698 724.327 570.97 724.695 571.334C725.066 571.698 725.355 572.156 725.562 572.707C725.768 573.255 725.871 573.897 725.871 574.632V575.291H718.571V573.805H723.614C723.614 573.46 723.539 573.154 723.389 572.887C723.239 572.621 723.031 572.413 722.764 572.263C722.502 572.109 722.196 572.032 721.847 572.032C721.483 572.032 721.16 572.116 720.879 572.285C720.601 572.45 720.383 572.673 720.226 572.955C720.068 573.233 719.987 573.542 719.984 573.884V575.296C719.984 575.724 720.062 576.094 720.22 576.405C720.381 576.717 720.608 576.957 720.901 577.126C721.194 577.295 721.541 577.379 721.942 577.379C722.209 577.379 722.453 577.341 722.674 577.266C722.896 577.191 723.085 577.079 723.243 576.929C723.4 576.779 723.52 576.595 723.603 576.377L725.821 576.523C725.708 577.056 725.477 577.522 725.128 577.919C724.783 578.313 724.336 578.621 723.789 578.842C723.245 579.06 722.616 579.169 721.903 579.169ZM726.96 570.354H729.358V579.428C729.358 580.096 729.227 580.636 728.964 581.049C728.702 581.462 728.324 581.764 727.833 581.955C727.345 582.146 726.762 582.242 726.082 582.242C726 582.242 725.921 582.24 725.846 582.236C725.767 582.236 725.685 582.235 725.598 582.231V580.356C725.662 580.36 725.718 580.362 725.767 580.362C725.812 580.366 725.861 580.368 725.914 580.368C726.3 580.368 726.57 580.285 726.724 580.12C726.882 579.959 726.96 579.715 726.96 579.388V570.354ZM728.154 569.24C727.801 569.24 727.497 569.122 727.242 568.885C726.987 568.645 726.859 568.358 726.859 568.024C726.859 567.694 726.987 567.411 727.242 567.174C727.497 566.934 727.801 566.814 728.154 566.814C728.514 566.814 728.82 566.934 729.071 567.174C729.326 567.411 729.454 567.694 729.454 568.024C729.454 568.358 729.326 568.645 729.071 568.885C728.82 569.122 728.514 569.24 728.154 569.24ZM737.997 572.82L735.802 572.955C735.764 572.767 735.683 572.598 735.56 572.448C735.436 572.294 735.273 572.173 735.07 572.082C734.871 571.989 734.633 571.942 734.355 571.942C733.984 571.942 733.67 572.021 733.415 572.178C733.16 572.332 733.032 572.538 733.032 572.797C733.032 573.004 733.115 573.178 733.28 573.321C733.445 573.463 733.728 573.578 734.13 573.664L735.695 573.979C736.535 574.152 737.162 574.43 737.575 574.812C737.987 575.195 738.194 575.698 738.194 576.321C738.194 576.887 738.027 577.385 737.693 577.812C737.363 578.24 736.909 578.574 736.331 578.814C735.757 579.051 735.094 579.169 734.344 579.169C733.199 579.169 732.288 578.931 731.608 578.454C730.933 577.974 730.537 577.321 730.421 576.495L732.779 576.371C732.85 576.72 733.023 576.987 733.297 577.171C733.571 577.351 733.922 577.441 734.349 577.441C734.77 577.441 735.107 577.36 735.363 577.199C735.622 577.034 735.753 576.822 735.757 576.563C735.753 576.345 735.661 576.167 735.481 576.028C735.301 575.886 735.023 575.777 734.648 575.702L733.151 575.403C732.306 575.234 731.678 574.942 731.265 574.525C730.856 574.109 730.651 573.578 730.651 572.932C730.651 572.377 730.802 571.899 731.102 571.497C731.406 571.096 731.832 570.786 732.379 570.568C732.931 570.351 733.576 570.242 734.316 570.242C735.408 570.242 736.267 570.473 736.894 570.934C737.524 571.396 737.892 572.024 737.997 572.82ZM745.956 579.169C745.16 579.169 744.474 579.026 743.896 578.741C743.318 578.456 742.873 578.069 742.562 577.582C742.254 577.09 742.1 576.542 742.1 575.938C742.1 575.488 742.19 575.088 742.37 574.739C742.551 574.39 742.802 574.069 743.125 573.777C743.447 573.48 743.823 573.186 744.25 572.893L746.485 571.424C746.774 571.24 746.986 571.047 747.121 570.844C747.256 570.638 747.324 570.415 747.324 570.174C747.324 569.945 747.232 569.733 747.048 569.538C746.864 569.343 746.603 569.248 746.265 569.251C746.04 569.251 745.845 569.302 745.68 569.403C745.515 569.501 745.385 569.63 745.292 569.792C745.202 569.949 745.157 570.126 745.157 570.321C745.157 570.561 745.224 570.805 745.359 571.052C745.494 571.3 745.674 571.563 745.9 571.84C746.125 572.114 746.37 572.411 746.637 572.73L752.102 579H749.603L745.044 573.923C744.744 573.582 744.444 573.225 744.143 572.854C743.847 572.478 743.599 572.081 743.4 571.66C743.202 571.236 743.102 570.777 743.102 570.281C743.102 569.722 743.232 569.219 743.491 568.773C743.753 568.326 744.121 567.974 744.594 567.715C745.067 567.452 745.618 567.321 746.249 567.321C746.864 567.321 747.395 567.446 747.841 567.698C748.292 567.945 748.637 568.276 748.877 568.688C749.121 569.097 749.243 569.548 749.243 570.039C749.243 570.583 749.108 571.077 748.838 571.52C748.571 571.959 748.196 572.353 747.712 572.702L745.359 574.396C745.04 574.628 744.804 574.867 744.65 575.111C744.5 575.351 744.425 575.582 744.425 575.803C744.425 576.077 744.492 576.323 744.627 576.54C744.763 576.758 744.954 576.931 745.202 577.058C745.449 577.182 745.74 577.244 746.074 577.244C746.479 577.244 746.879 577.152 747.273 576.968C747.671 576.78 748.031 576.516 748.354 576.174C748.68 575.829 748.941 575.42 749.136 574.947C749.331 574.475 749.429 573.951 749.429 573.377H751.416C751.416 574.082 751.339 574.719 751.185 575.285C751.031 575.848 750.817 576.34 750.543 576.76C750.269 577.176 749.956 577.518 749.603 577.784C749.491 577.856 749.382 577.923 749.277 577.987C749.172 578.051 749.063 578.118 748.95 578.189C748.522 578.535 748.044 578.784 747.515 578.938C746.99 579.092 746.47 579.169 745.956 579.169ZM755.425 569.482V567.473H764.892V569.482H761.363V579H758.954V569.482H755.425ZM767.22 579.163C766.668 579.163 766.176 579.068 765.745 578.876C765.313 578.681 764.972 578.394 764.72 578.015C764.473 577.632 764.349 577.156 764.349 576.585C764.349 576.105 764.437 575.702 764.614 575.375C764.79 575.049 765.03 574.786 765.334 574.587C765.638 574.388 765.983 574.238 766.37 574.137C766.76 574.036 767.169 573.964 767.597 573.923C768.099 573.87 768.505 573.822 768.812 573.777C769.12 573.728 769.343 573.657 769.482 573.563C769.621 573.469 769.69 573.33 769.69 573.146V573.113C769.69 572.756 769.578 572.48 769.353 572.285C769.131 572.09 768.816 571.992 768.407 571.992C767.976 571.992 767.632 572.088 767.377 572.279C767.122 572.467 766.953 572.703 766.871 572.989L764.653 572.809C764.765 572.283 764.987 571.829 765.317 571.446C765.647 571.06 766.073 570.764 766.595 570.557C767.12 570.347 767.728 570.242 768.418 570.242C768.899 570.242 769.358 570.298 769.797 570.411C770.24 570.523 770.632 570.698 770.974 570.934C771.319 571.171 771.591 571.475 771.79 571.846C771.989 572.214 772.088 572.655 772.088 573.169V579H769.814V577.801H769.747C769.608 578.071 769.422 578.31 769.19 578.516C768.957 578.719 768.677 578.878 768.351 578.994C768.024 579.107 767.647 579.163 767.22 579.163ZM767.906 577.508C768.259 577.508 768.57 577.439 768.841 577.3C769.111 577.158 769.323 576.966 769.477 576.726C769.63 576.486 769.707 576.214 769.707 575.91V574.992C769.632 575.041 769.529 575.086 769.398 575.128C769.27 575.165 769.126 575.201 768.964 575.234C768.803 575.264 768.642 575.293 768.48 575.319C768.319 575.341 768.173 575.362 768.041 575.381C767.76 575.422 767.514 575.488 767.304 575.578C767.094 575.668 766.931 575.79 766.814 575.944C766.698 576.094 766.64 576.281 766.64 576.507C766.64 576.833 766.758 577.083 766.994 577.255C767.235 577.424 767.538 577.508 767.906 577.508ZM773.473 579V570.354H775.871V579H773.473ZM774.678 569.24C774.321 569.24 774.015 569.122 773.76 568.885C773.509 568.645 773.383 568.358 773.383 568.024C773.383 567.694 773.509 567.411 773.76 567.174C774.015 566.934 774.321 566.814 774.678 566.814C775.034 566.814 775.338 566.934 775.589 567.174C775.845 567.411 775.972 567.694 775.972 568.024C775.972 568.358 775.845 568.645 775.589 568.885C775.338 569.122 775.034 569.24 774.678 569.24ZM779.714 567.473V579H777.316V567.473H779.714ZM782.865 579L780.512 570.354H782.938L784.277 576.163H784.356L785.752 570.354H788.133L789.551 576.129H789.624L790.942 570.354H793.362L791.015 579H788.476L786.99 573.563H786.883L785.397 579H782.865ZM794.165 579V570.354H796.563V579H794.165ZM795.37 569.24C795.013 569.24 794.708 569.122 794.452 568.885C794.201 568.645 794.075 568.358 794.075 568.024C794.075 567.694 794.201 567.411 794.452 567.174C794.708 566.934 795.013 566.814 795.37 566.814C795.726 566.814 796.03 566.934 796.282 567.174C796.537 567.411 796.665 567.694 796.665 568.024C796.665 568.358 796.537 568.645 796.282 568.885C796.03 569.122 795.726 569.24 795.37 569.24ZM800.406 574.002V579H798.008V570.354H800.294V571.88H800.395C800.586 571.377 800.907 570.979 801.357 570.687C801.808 570.39 802.354 570.242 802.995 570.242C803.596 570.242 804.119 570.373 804.566 570.636C805.012 570.899 805.359 571.274 805.607 571.762C805.855 572.246 805.979 572.824 805.979 573.495V579H803.581V573.923C803.584 573.394 803.449 572.981 803.175 572.685C802.902 572.385 802.524 572.234 802.044 572.234C801.721 572.234 801.436 572.304 801.189 572.443C800.945 572.582 800.753 572.784 800.614 573.051C800.479 573.313 800.41 573.63 800.406 574.002ZM810.579 579.141C809.922 579.141 809.327 578.972 808.794 578.634C808.265 578.293 807.845 577.792 807.534 577.131C807.226 576.467 807.072 575.653 807.072 574.689C807.072 573.698 807.231 572.874 807.55 572.218C807.869 571.557 808.293 571.064 808.822 570.737C809.355 570.407 809.939 570.242 810.573 570.242C811.057 570.242 811.46 570.324 811.783 570.49C812.11 570.651 812.372 570.854 812.571 571.097C812.774 571.338 812.928 571.574 813.033 571.807H813.106V567.473H815.498V579H813.134V577.615H813.033C812.92 577.856 812.761 578.094 812.554 578.33C812.352 578.563 812.087 578.756 811.761 578.91C811.438 579.064 811.044 579.141 810.579 579.141ZM811.338 577.233C811.725 577.233 812.051 577.128 812.318 576.917C812.588 576.704 812.794 576.405 812.937 576.022C813.083 575.64 813.156 575.191 813.156 574.677C813.156 574.163 813.085 573.717 812.943 573.338C812.8 572.959 812.594 572.666 812.323 572.46C812.053 572.253 811.725 572.15 811.338 572.15C810.944 572.15 810.612 572.257 810.342 572.471C810.072 572.685 809.868 572.981 809.729 573.36C809.59 573.739 809.52 574.178 809.52 574.677C809.52 575.18 809.59 575.625 809.729 576.011C809.871 576.394 810.076 576.694 810.342 576.912C810.612 577.126 810.944 577.233 811.338 577.233ZM830.403 571.508H827.937C827.892 571.189 827.8 570.906 827.662 570.658C827.523 570.407 827.344 570.193 827.127 570.017C826.909 569.84 826.658 569.705 826.373 569.612C826.091 569.518 825.785 569.471 825.455 569.471C824.859 569.471 824.339 569.619 823.896 569.915C823.453 570.208 823.11 570.636 822.866 571.199C822.622 571.758 822.5 572.437 822.5 573.236C822.5 574.058 822.622 574.749 822.866 575.308C823.114 575.867 823.459 576.289 823.902 576.574C824.344 576.859 824.857 577.002 825.438 577.002C825.765 577.002 826.067 576.959 826.344 576.872C826.626 576.786 826.875 576.66 827.093 576.495C827.311 576.326 827.491 576.122 827.633 575.882C827.78 575.642 827.881 575.368 827.937 575.06L830.403 575.071C830.339 575.6 830.179 576.111 829.924 576.602C829.673 577.09 829.333 577.527 828.905 577.914C828.481 578.296 827.975 578.6 827.386 578.826C826.8 579.047 826.138 579.158 825.399 579.158C824.371 579.158 823.451 578.925 822.641 578.46C821.834 577.994 821.196 577.321 820.727 576.439C820.262 575.557 820.029 574.49 820.029 573.236C820.029 571.979 820.266 570.91 820.738 570.028C821.211 569.146 821.853 568.475 822.663 568.013C823.474 567.548 824.386 567.315 825.399 567.315C826.067 567.315 826.686 567.409 827.256 567.596C827.83 567.784 828.339 568.058 828.782 568.418C829.224 568.775 829.585 569.212 829.862 569.73C830.144 570.248 830.324 570.84 830.403 571.508ZM837.928 570.788C837.883 570.334 837.69 569.981 837.348 569.73C837.007 569.478 836.544 569.353 835.958 569.353C835.56 569.353 835.225 569.409 834.951 569.521C834.677 569.63 834.467 569.782 834.32 569.977C834.178 570.173 834.106 570.394 834.106 570.642C834.099 570.848 834.142 571.028 834.236 571.182C834.333 571.336 834.467 571.469 834.635 571.582C834.804 571.69 834.999 571.786 835.221 571.869C835.442 571.947 835.679 572.015 835.93 572.071L836.966 572.319C837.469 572.431 837.93 572.582 838.35 572.769C838.771 572.957 839.135 573.188 839.442 573.461C839.75 573.735 839.988 574.058 840.157 574.43C840.33 574.801 840.418 575.227 840.422 575.707C840.418 576.413 840.238 577.024 839.881 577.542C839.529 578.056 839.018 578.456 838.35 578.741C837.686 579.023 836.885 579.163 835.947 579.163C835.016 579.163 834.206 579.021 833.515 578.735C832.829 578.45 832.292 578.028 831.906 577.469C831.523 576.906 831.322 576.21 831.303 575.381H833.662C833.688 575.767 833.799 576.09 833.994 576.349C834.193 576.604 834.457 576.797 834.787 576.929C835.121 577.056 835.499 577.12 835.919 577.12C836.332 577.12 836.69 577.06 836.994 576.94C837.302 576.82 837.54 576.653 837.709 576.439C837.878 576.225 837.962 575.979 837.962 575.702C837.962 575.443 837.885 575.225 837.731 575.049C837.581 574.872 837.36 574.722 837.067 574.598C836.778 574.475 836.424 574.362 836.003 574.261L834.748 573.946C833.776 573.709 833.009 573.34 832.446 572.837C831.883 572.334 831.604 571.657 831.607 570.805C831.604 570.107 831.789 569.497 832.165 568.975C832.544 568.454 833.063 568.047 833.724 567.754C834.384 567.461 835.135 567.315 835.975 567.315C836.831 567.315 837.577 567.461 838.215 567.754C838.857 568.047 839.356 568.454 839.712 568.975C840.069 569.497 840.253 570.101 840.264 570.788H837.928ZM847.839 570.788C847.794 570.334 847.601 569.981 847.259 569.73C846.918 569.478 846.454 569.353 845.869 569.353C845.471 569.353 845.135 569.409 844.861 569.521C844.587 569.63 844.377 569.782 844.231 569.977C844.088 570.173 844.017 570.394 844.017 570.642C844.01 570.848 844.053 571.028 844.146 571.182C844.244 571.336 844.377 571.469 844.546 571.582C844.715 571.69 844.91 571.786 845.131 571.869C845.353 571.947 845.589 572.015 845.841 572.071L846.876 572.319C847.379 572.431 847.841 572.582 848.261 572.769C848.681 572.957 849.045 573.188 849.353 573.461C849.661 573.735 849.899 574.058 850.068 574.43C850.24 574.801 850.329 575.227 850.332 575.707C850.329 576.413 850.148 577.024 849.792 577.542C849.439 578.056 848.929 578.456 848.261 578.741C847.597 579.023 846.796 579.163 845.858 579.163C844.927 579.163 844.116 579.021 843.426 578.735C842.739 578.45 842.203 578.028 841.816 577.469C841.434 576.906 841.233 576.21 841.214 575.381H843.572C843.599 575.767 843.709 576.09 843.904 576.349C844.103 576.604 844.368 576.797 844.698 576.929C845.032 577.056 845.409 577.12 845.829 577.12C846.242 577.12 846.601 577.06 846.905 576.94C847.212 576.82 847.45 576.653 847.619 576.439C847.788 576.225 847.873 575.979 847.873 575.702C847.873 575.443 847.796 575.225 847.642 575.049C847.492 574.872 847.27 574.722 846.978 574.598C846.689 574.475 846.334 574.362 845.914 574.261L844.659 573.946C843.687 573.709 842.919 573.34 842.357 572.837C841.794 572.334 841.514 571.657 841.518 570.805C841.514 570.107 841.7 569.497 842.075 568.975C842.454 568.454 842.974 568.047 843.634 567.754C844.295 567.461 845.045 567.315 845.886 567.315C846.741 567.315 847.488 567.461 848.126 567.754C848.768 568.047 849.267 568.454 849.623 568.975C849.98 569.497 850.163 570.101 850.175 570.788H847.839ZM858.55 579.169C857.665 579.169 856.903 578.981 856.265 578.606C855.631 578.227 855.143 577.702 854.802 577.03C854.464 576.358 854.295 575.585 854.295 574.711C854.295 573.825 854.466 573.049 854.807 572.381C855.152 571.709 855.642 571.186 856.276 570.81C856.91 570.431 857.665 570.242 858.539 570.242C859.293 570.242 859.954 570.379 860.52 570.653C861.087 570.927 861.535 571.311 861.866 571.807C862.196 572.302 862.378 572.884 862.411 573.552H860.149C860.085 573.12 859.916 572.773 859.642 572.51C859.372 572.244 859.017 572.111 858.578 572.111C858.207 572.111 857.882 572.212 857.605 572.415C857.331 572.613 857.117 572.904 856.963 573.287C856.809 573.67 856.732 574.133 856.732 574.677C856.732 575.229 856.807 575.698 856.957 576.084C857.111 576.471 857.327 576.765 857.605 576.968C857.882 577.171 858.207 577.272 858.578 577.272C858.852 577.272 859.098 577.216 859.316 577.103C859.537 576.991 859.719 576.827 859.862 576.613C860.008 576.396 860.104 576.135 860.149 575.831H862.411C862.374 576.492 862.194 577.073 861.871 577.576C861.552 578.075 861.111 578.465 860.548 578.747C859.986 579.028 859.32 579.169 858.55 579.169ZM867.377 579.169C866.503 579.169 865.747 578.983 865.109 578.612C864.475 578.236 863.985 577.715 863.64 577.047C863.295 576.375 863.122 575.597 863.122 574.711C863.122 573.818 863.295 573.037 863.64 572.37C863.985 571.698 864.475 571.176 865.109 570.805C865.747 570.43 866.503 570.242 867.377 570.242C868.252 570.242 869.006 570.43 869.64 570.805C870.278 571.176 870.77 571.698 871.115 572.37C871.46 573.037 871.633 573.818 871.633 574.711C871.633 575.597 871.46 576.375 871.115 577.047C870.77 577.715 870.278 578.236 869.64 578.612C869.006 578.983 868.252 579.169 867.377 579.169ZM867.389 577.311C867.786 577.311 868.119 577.199 868.385 576.974C868.651 576.745 868.852 576.433 868.987 576.039C869.126 575.645 869.195 575.197 869.195 574.694C869.195 574.191 869.126 573.743 868.987 573.349C868.852 572.955 868.651 572.643 868.385 572.415C868.119 572.186 867.786 572.071 867.389 572.071C866.987 572.071 866.649 572.186 866.376 572.415C866.105 572.643 865.901 572.955 865.762 573.349C865.627 573.743 865.559 574.191 865.559 574.694C865.559 575.197 865.627 575.645 865.762 576.039C865.901 576.433 866.105 576.745 866.376 576.974C866.649 577.199 866.987 577.311 867.389 577.311ZM872.716 579V570.354H875.001V571.88H875.103C875.283 571.373 875.583 570.974 876.003 570.681C876.424 570.388 876.926 570.242 877.512 570.242C878.105 570.242 878.609 570.39 879.026 570.687C879.442 570.979 879.72 571.377 879.859 571.88H879.949C880.125 571.385 880.444 570.989 880.906 570.692C881.371 570.392 881.921 570.242 882.555 570.242C883.362 570.242 884.017 570.499 884.519 571.013C885.026 571.523 885.279 572.248 885.279 573.186V579H882.887V573.658C882.887 573.178 882.759 572.818 882.504 572.578C882.249 572.338 881.93 572.218 881.547 572.218C881.112 572.218 880.773 572.356 880.529 572.634C880.285 572.908 880.163 573.27 880.163 573.72V579H877.838V573.608C877.838 573.184 877.716 572.846 877.472 572.595C877.232 572.343 876.915 572.218 876.521 572.218C876.255 572.218 876.015 572.285 875.801 572.42C875.591 572.552 875.424 572.737 875.3 572.977C875.176 573.214 875.114 573.491 875.114 573.81V579H872.716ZM886.698 582.242V570.354H889.062V571.807H889.169C889.274 571.574 889.426 571.338 889.625 571.097C889.827 570.854 890.09 570.651 890.413 570.49C890.739 570.324 891.144 570.242 891.628 570.242C892.259 570.242 892.84 570.407 893.373 570.737C893.906 571.064 894.332 571.557 894.651 572.218C894.97 572.874 895.129 573.698 895.129 574.689C895.129 575.653 894.974 576.467 894.662 577.131C894.354 577.792 893.934 578.293 893.401 578.634C892.872 578.972 892.279 579.141 891.623 579.141C891.157 579.141 890.762 579.064 890.435 578.91C890.112 578.756 889.848 578.563 889.641 578.33C889.435 578.094 889.278 577.856 889.169 577.615H889.096V582.242H886.698ZM889.045 574.677C889.045 575.191 889.116 575.64 889.259 576.022C889.401 576.405 889.608 576.704 889.878 576.917C890.148 577.128 890.476 577.233 890.863 577.233C891.253 577.233 891.583 577.126 891.854 576.912C892.124 576.694 892.328 576.394 892.467 576.011C892.61 575.625 892.681 575.18 892.681 574.677C892.681 574.178 892.612 573.739 892.473 573.36C892.334 572.981 892.129 572.685 891.859 572.471C891.589 572.257 891.257 572.15 890.863 572.15C890.473 572.15 890.142 572.253 889.872 572.46C889.606 572.666 889.401 572.959 889.259 573.338C889.116 573.717 889.045 574.163 889.045 574.677ZM900.159 579.169C899.284 579.169 898.528 578.983 897.89 578.612C897.256 578.236 896.766 577.715 896.421 577.047C896.076 576.375 895.903 575.597 895.903 574.711C895.903 573.818 896.076 573.037 896.421 572.37C896.766 571.698 897.256 571.176 897.89 570.805C898.528 570.43 899.284 570.242 900.159 570.242C901.033 570.242 901.787 570.43 902.421 570.805C903.059 571.176 903.551 571.698 903.896 572.37C904.241 573.037 904.414 573.818 904.414 574.711C904.414 575.597 904.241 576.375 903.896 577.047C903.551 577.715 903.059 578.236 902.421 578.612C901.787 578.983 901.033 579.169 900.159 579.169ZM900.17 577.311C900.568 577.311 900.9 577.199 901.166 576.974C901.433 576.745 901.633 576.433 901.768 576.039C901.907 575.645 901.977 575.197 901.977 574.694C901.977 574.191 901.907 573.743 901.768 573.349C901.633 572.955 901.433 572.643 901.166 572.415C900.9 572.186 900.568 572.071 900.17 572.071C899.768 572.071 899.431 572.186 899.157 572.415C898.887 572.643 898.682 572.955 898.543 573.349C898.408 573.743 898.341 574.191 898.341 574.694C898.341 575.197 898.408 575.645 898.543 576.039C898.682 576.433 898.887 576.745 899.157 576.974C899.431 577.199 899.768 577.311 900.17 577.311ZM907.895 574.002V579H905.497V570.354H907.783V571.88H907.884C908.075 571.377 908.396 570.979 908.846 570.687C909.297 570.39 909.843 570.242 910.484 570.242C911.085 570.242 911.608 570.373 912.055 570.636C912.501 570.899 912.848 571.274 913.096 571.762C913.344 572.246 913.468 572.824 913.468 573.495V579H911.07V573.923C911.073 573.394 910.938 572.981 910.664 572.685C910.391 572.385 910.013 572.234 909.533 572.234C909.21 572.234 908.925 572.304 908.678 572.443C908.434 572.582 908.242 572.784 908.103 573.051C907.968 573.313 907.899 573.63 907.895 574.002ZM918.822 579.169C917.932 579.169 917.167 578.989 916.525 578.629C915.887 578.265 915.396 577.75 915.051 577.086C914.705 576.418 914.533 575.628 914.533 574.717C914.533 573.827 914.705 573.047 915.051 572.375C915.396 571.703 915.882 571.18 916.508 570.805C917.139 570.43 917.878 570.242 918.726 570.242C919.296 570.242 919.827 570.334 920.319 570.518C920.814 570.698 921.246 570.97 921.614 571.334C921.985 571.698 922.274 572.156 922.48 572.707C922.687 573.255 922.79 573.897 922.79 574.632V575.291H915.49V573.805H920.533C920.533 573.46 920.458 573.154 920.308 572.887C920.158 572.621 919.949 572.413 919.683 572.263C919.42 572.109 919.114 572.032 918.766 572.032C918.402 572.032 918.079 572.116 917.797 572.285C917.52 572.45 917.302 572.673 917.144 572.955C916.987 573.233 916.906 573.542 916.902 573.884V575.296C916.902 575.724 916.981 576.094 917.139 576.405C917.3 576.717 917.527 576.957 917.82 577.126C918.113 577.295 918.46 577.379 918.861 577.379C919.128 577.379 919.372 577.341 919.593 577.266C919.814 577.191 920.004 577.079 920.161 576.929C920.319 576.779 920.439 576.595 920.522 576.377L922.739 576.523C922.627 577.056 922.396 577.522 922.047 577.919C921.702 578.313 921.255 578.621 920.707 578.842C920.163 579.06 919.535 579.169 918.822 579.169ZM926.277 574.002V579H923.879V570.354H926.164V571.88H926.266C926.457 571.377 926.778 570.979 927.228 570.687C927.679 570.39 928.224 570.242 928.866 570.242C929.467 570.242 929.99 570.373 930.437 570.636C930.883 570.899 931.23 571.274 931.478 571.762C931.725 572.246 931.849 572.824 931.849 573.495V579H929.452V573.923C929.455 573.394 929.32 572.981 929.046 572.685C928.772 572.385 928.395 572.234 927.915 572.234C927.592 572.234 927.307 572.304 927.059 572.443C926.815 572.582 926.624 572.784 926.485 573.051C926.35 573.313 926.281 573.63 926.277 574.002ZM937.862 570.354V572.156H932.656V570.354H937.862ZM933.838 568.283H936.235V576.343C936.235 576.565 936.269 576.737 936.337 576.861C936.404 576.981 936.498 577.066 936.618 577.114C936.742 577.163 936.885 577.188 937.046 577.188C937.159 577.188 937.271 577.178 937.384 577.159C937.496 577.137 937.583 577.12 937.643 577.109L938.02 578.893C937.9 578.931 937.731 578.974 937.513 579.023C937.296 579.075 937.031 579.107 936.72 579.118C936.142 579.141 935.635 579.064 935.2 578.887C934.768 578.711 934.432 578.437 934.192 578.066C933.952 577.694 933.834 577.225 933.838 576.659V568.283ZM946.034 572.82L943.838 572.955C943.801 572.767 943.72 572.598 943.596 572.448C943.473 572.294 943.309 572.173 943.107 572.082C942.908 571.989 942.67 571.942 942.392 571.942C942.02 571.942 941.707 572.021 941.452 572.178C941.197 572.332 941.069 572.538 941.069 572.797C941.069 573.004 941.152 573.178 941.317 573.321C941.482 573.463 941.765 573.578 942.167 573.664L943.731 573.979C944.572 574.152 945.199 574.43 945.611 574.812C946.024 575.195 946.231 575.698 946.231 576.321C946.231 576.887 946.064 577.385 945.73 577.812C945.399 578.24 944.945 578.574 944.367 578.814C943.793 579.051 943.131 579.169 942.381 579.169C941.236 579.169 940.324 578.931 939.645 578.454C938.97 577.974 938.574 577.321 938.457 576.495L940.816 576.371C940.887 576.72 941.06 576.987 941.334 577.171C941.608 577.351 941.958 577.441 942.386 577.441C942.806 577.441 943.144 577.36 943.399 577.199C943.658 577.034 943.79 576.822 943.793 576.563C943.79 576.345 943.698 576.167 943.518 576.028C943.337 575.886 943.06 575.777 942.685 575.702L941.187 575.403C940.343 575.234 939.714 574.942 939.302 574.525C938.893 574.109 938.688 573.578 938.688 572.932C938.688 572.377 938.838 571.899 939.139 571.497C939.442 571.096 939.868 570.786 940.416 570.568C940.968 570.351 941.613 570.242 942.352 570.242C943.444 570.242 944.304 570.473 944.93 570.934C945.561 571.396 945.928 572.024 946.034 572.82ZM948.666 579.146C948.295 579.146 947.976 579.015 947.71 578.752C947.447 578.486 947.316 578.167 947.316 577.795C947.316 577.428 947.447 577.113 947.71 576.85C947.976 576.587 948.295 576.456 948.666 576.456C949.027 576.456 949.342 576.587 949.612 576.85C949.882 577.113 950.017 577.428 950.017 577.795C950.017 578.043 949.953 578.27 949.826 578.477C949.702 578.679 949.539 578.842 949.336 578.966C949.134 579.086 948.91 579.146 948.666 579.146Z" fill="#5A5A5A"/>
<rect x="679" y="503" width="40" height="40" rx="8" fill="#DDE0E4"/>
<rect x="1012" y="601.273" width="272.451" height="10.6496" rx="5.32478" fill="#D1D5DB"/>
<rect x="1012" y="641.258" width="195.288" height="10.3807" rx="5.19037" fill="#D1D5DB"/>
<path d="M1014.99 579H1012.38L1016.36 567.473H1019.5L1023.47 579H1020.86L1017.97 570.107H1017.88L1014.99 579ZM1014.83 574.469H1020.99V576.371H1014.83V574.469ZM1026.74 567.473V579H1024.34V567.473H1026.74ZM1028.18 582.242V570.354H1030.54V571.807H1030.65C1030.76 571.574 1030.91 571.338 1031.11 571.097C1031.31 570.854 1031.57 570.651 1031.9 570.49C1032.22 570.324 1032.63 570.242 1033.11 570.242C1033.74 570.242 1034.32 570.407 1034.86 570.737C1035.39 571.064 1035.82 571.557 1036.13 572.218C1036.45 572.874 1036.61 573.698 1036.61 574.689C1036.61 575.653 1036.46 576.467 1036.15 577.131C1035.84 577.792 1035.42 578.293 1034.88 578.634C1034.36 578.972 1033.76 579.141 1033.11 579.141C1032.64 579.141 1032.24 579.064 1031.92 578.91C1031.6 578.756 1031.33 578.563 1031.12 578.33C1030.92 578.094 1030.76 577.856 1030.65 577.615H1030.58V582.242H1028.18ZM1030.53 574.677C1030.53 575.191 1030.6 575.64 1030.74 576.022C1030.88 576.405 1031.09 576.704 1031.36 576.917C1031.63 577.128 1031.96 577.233 1032.35 577.233C1032.74 577.233 1033.07 577.126 1033.34 576.912C1033.61 576.694 1033.81 576.394 1033.95 576.011C1034.09 575.625 1034.16 575.18 1034.16 574.677C1034.16 574.178 1034.09 573.739 1033.96 573.36C1033.82 572.981 1033.61 572.685 1033.34 572.471C1033.07 572.257 1032.74 572.15 1032.35 572.15C1031.96 572.15 1031.63 572.253 1031.36 572.46C1031.09 572.666 1030.88 572.959 1030.74 573.338C1030.6 573.717 1030.53 574.163 1030.53 574.677ZM1037.74 579V570.354H1040.13V579H1037.74ZM1038.94 569.24C1038.58 569.24 1038.28 569.122 1038.02 568.885C1037.77 568.645 1037.65 568.358 1037.65 568.024C1037.65 567.694 1037.77 567.411 1038.02 567.174C1038.28 566.934 1038.58 566.814 1038.94 566.814C1039.3 566.814 1039.6 566.934 1039.85 567.174C1040.11 567.411 1040.23 567.694 1040.23 568.024C1040.23 568.358 1040.11 568.645 1039.85 568.885C1039.6 569.122 1039.3 569.24 1038.94 569.24ZM1043.98 574.002V579H1041.58V570.354H1043.86V571.88H1043.97C1044.16 571.377 1044.48 570.979 1044.93 570.687C1045.38 570.39 1045.92 570.242 1046.57 570.242C1047.17 570.242 1047.69 570.373 1048.14 570.636C1048.58 570.899 1048.93 571.274 1049.18 571.762C1049.42 572.246 1049.55 572.824 1049.55 573.495V579H1047.15V573.923C1047.15 573.394 1047.02 572.981 1046.75 572.685C1046.47 572.385 1046.09 572.234 1045.61 572.234C1045.29 572.234 1045.01 572.304 1044.76 572.443C1044.51 572.582 1044.32 572.784 1044.18 573.051C1044.05 573.313 1043.98 573.63 1043.98 574.002ZM1054.9 579.169C1054.01 579.169 1053.25 578.989 1052.61 578.629C1051.97 578.265 1051.48 577.75 1051.13 577.086C1050.79 576.418 1050.61 575.628 1050.61 574.717C1050.61 573.827 1050.79 573.047 1051.13 572.375C1051.48 571.703 1051.96 571.18 1052.59 570.805C1053.22 570.43 1053.96 570.242 1054.81 570.242C1055.38 570.242 1055.91 570.334 1056.4 570.518C1056.9 570.698 1057.33 570.97 1057.69 571.334C1058.07 571.698 1058.36 572.156 1058.56 572.707C1058.77 573.255 1058.87 573.897 1058.87 574.632V575.291H1051.57V573.805H1056.61C1056.61 573.46 1056.54 573.154 1056.39 572.887C1056.24 572.621 1056.03 572.413 1055.76 572.263C1055.5 572.109 1055.2 572.032 1054.85 572.032C1054.48 572.032 1054.16 572.116 1053.88 572.285C1053.6 572.45 1053.38 572.673 1053.23 572.955C1053.07 573.233 1052.99 573.542 1052.98 573.884V575.296C1052.98 575.724 1053.06 576.094 1053.22 576.405C1053.38 576.717 1053.61 576.957 1053.9 577.126C1054.19 577.295 1054.54 577.379 1054.94 577.379C1055.21 577.379 1055.45 577.341 1055.67 577.266C1055.9 577.191 1056.09 577.079 1056.24 576.929C1056.4 576.779 1056.52 576.595 1056.6 576.377L1058.82 576.523C1058.71 577.056 1058.48 577.522 1058.13 577.919C1057.78 578.313 1057.34 578.621 1056.79 578.842C1056.24 579.06 1055.62 579.169 1054.9 579.169ZM1059.96 570.354H1062.36V579.428C1062.36 580.096 1062.23 580.636 1061.96 581.049C1061.7 581.462 1061.32 581.764 1060.83 581.955C1060.35 582.146 1059.76 582.242 1059.08 582.242C1059 582.242 1058.92 582.24 1058.85 582.236C1058.77 582.236 1058.68 582.235 1058.6 582.231V580.356C1058.66 580.36 1058.72 580.362 1058.77 580.362C1058.81 580.366 1058.86 580.368 1058.91 580.368C1059.3 580.368 1059.57 580.285 1059.72 580.12C1059.88 579.959 1059.96 579.715 1059.96 579.388V570.354ZM1061.15 569.24C1060.8 569.24 1060.5 569.122 1060.24 568.885C1059.99 568.645 1059.86 568.358 1059.86 568.024C1059.86 567.694 1059.99 567.411 1060.24 567.174C1060.5 566.934 1060.8 566.814 1061.15 566.814C1061.51 566.814 1061.82 566.934 1062.07 567.174C1062.33 567.411 1062.45 567.694 1062.45 568.024C1062.45 568.358 1062.33 568.645 1062.07 568.885C1061.82 569.122 1061.51 569.24 1061.15 569.24ZM1071 572.82L1068.8 572.955C1068.76 572.767 1068.68 572.598 1068.56 572.448C1068.44 572.294 1068.27 572.173 1068.07 572.082C1067.87 571.989 1067.63 571.942 1067.36 571.942C1066.98 571.942 1066.67 572.021 1066.42 572.178C1066.16 572.332 1066.03 572.538 1066.03 572.797C1066.03 573.004 1066.11 573.178 1066.28 573.321C1066.45 573.463 1066.73 573.578 1067.13 573.664L1068.69 573.979C1069.54 574.152 1070.16 574.43 1070.57 574.812C1070.99 575.195 1071.19 575.698 1071.19 576.321C1071.19 576.887 1071.03 577.385 1070.69 577.812C1070.36 578.24 1069.91 578.574 1069.33 578.814C1068.76 579.051 1068.09 579.169 1067.34 579.169C1066.2 579.169 1065.29 578.931 1064.61 578.454C1063.93 577.974 1063.54 577.321 1063.42 576.495L1065.78 576.371C1065.85 576.72 1066.02 576.987 1066.3 577.171C1066.57 577.351 1066.92 577.441 1067.35 577.441C1067.77 577.441 1068.11 577.36 1068.36 577.199C1068.62 577.034 1068.75 576.822 1068.76 576.563C1068.75 576.345 1068.66 576.167 1068.48 576.028C1068.3 575.886 1068.02 575.777 1067.65 575.702L1066.15 575.403C1065.31 575.234 1064.68 574.942 1064.26 574.525C1063.86 574.109 1063.65 573.578 1063.65 572.932C1063.65 572.377 1063.8 571.899 1064.1 571.497C1064.41 571.096 1064.83 570.786 1065.38 570.568C1065.93 570.351 1066.58 570.242 1067.32 570.242C1068.41 570.242 1069.27 570.473 1069.89 570.934C1070.52 571.396 1070.89 572.024 1071 572.82ZM1078.96 579.169C1078.16 579.169 1077.47 579.026 1076.9 578.741C1076.32 578.456 1075.87 578.069 1075.56 577.582C1075.25 577.09 1075.1 576.542 1075.1 575.938C1075.1 575.488 1075.19 575.088 1075.37 574.739C1075.55 574.39 1075.8 574.069 1076.12 573.777C1076.45 573.48 1076.82 573.186 1077.25 572.893L1079.48 571.424C1079.77 571.24 1079.99 571.047 1080.12 570.844C1080.26 570.638 1080.32 570.415 1080.32 570.174C1080.32 569.945 1080.23 569.733 1080.05 569.538C1079.86 569.343 1079.6 569.248 1079.27 569.251C1079.04 569.251 1078.85 569.302 1078.68 569.403C1078.51 569.501 1078.39 569.63 1078.29 569.792C1078.2 569.949 1078.16 570.126 1078.16 570.321C1078.16 570.561 1078.22 570.805 1078.36 571.052C1078.49 571.3 1078.67 571.563 1078.9 571.84C1079.12 572.114 1079.37 572.411 1079.64 572.73L1085.1 579H1082.6L1078.04 573.923C1077.74 573.582 1077.44 573.225 1077.14 572.854C1076.85 572.478 1076.6 572.081 1076.4 571.66C1076.2 571.236 1076.1 570.777 1076.1 570.281C1076.1 569.722 1076.23 569.219 1076.49 568.773C1076.75 568.326 1077.12 567.974 1077.59 567.715C1078.07 567.452 1078.62 567.321 1079.25 567.321C1079.86 567.321 1080.39 567.446 1080.84 567.698C1081.29 567.945 1081.64 568.276 1081.88 568.688C1082.12 569.097 1082.24 569.548 1082.24 570.039C1082.24 570.583 1082.11 571.077 1081.84 571.52C1081.57 571.959 1081.2 572.353 1080.71 572.702L1078.36 574.396C1078.04 574.628 1077.8 574.867 1077.65 575.111C1077.5 575.351 1077.42 575.582 1077.42 575.803C1077.42 576.077 1077.49 576.323 1077.63 576.54C1077.76 576.758 1077.95 576.931 1078.2 577.058C1078.45 577.182 1078.74 577.244 1079.07 577.244C1079.48 577.244 1079.88 577.152 1080.27 576.968C1080.67 576.78 1081.03 576.516 1081.35 576.174C1081.68 575.829 1081.94 575.42 1082.14 574.947C1082.33 574.475 1082.43 573.951 1082.43 573.377H1084.42C1084.42 574.082 1084.34 574.719 1084.18 575.285C1084.03 575.848 1083.82 576.34 1083.54 576.76C1083.27 577.176 1082.96 577.518 1082.6 577.784C1082.49 577.856 1082.38 577.923 1082.28 577.987C1082.17 578.051 1082.06 578.118 1081.95 578.189C1081.52 578.535 1081.04 578.784 1080.51 578.938C1079.99 579.092 1079.47 579.169 1078.96 579.169ZM1088.42 569.482V567.473H1097.89V569.482H1094.36V579H1091.95V569.482H1088.42ZM1100.22 579.163C1099.67 579.163 1099.18 579.068 1098.74 578.876C1098.31 578.681 1097.97 578.394 1097.72 578.015C1097.47 577.632 1097.35 577.156 1097.35 576.585C1097.35 576.105 1097.44 575.702 1097.61 575.375C1097.79 575.049 1098.03 574.786 1098.33 574.587C1098.64 574.388 1098.98 574.238 1099.37 574.137C1099.76 574.036 1100.17 573.964 1100.6 573.923C1101.1 573.87 1101.5 573.822 1101.81 573.777C1102.12 573.728 1102.34 573.657 1102.48 573.563C1102.62 573.469 1102.69 573.33 1102.69 573.146V573.113C1102.69 572.756 1102.58 572.48 1102.35 572.285C1102.13 572.09 1101.82 571.992 1101.41 571.992C1100.98 571.992 1100.63 572.088 1100.38 572.279C1100.12 572.467 1099.95 572.703 1099.87 572.989L1097.65 572.809C1097.77 572.283 1097.99 571.829 1098.32 571.446C1098.65 571.06 1099.07 570.764 1099.59 570.557C1100.12 570.347 1100.73 570.242 1101.42 570.242C1101.9 570.242 1102.36 570.298 1102.8 570.411C1103.24 570.523 1103.63 570.698 1103.97 570.934C1104.32 571.171 1104.59 571.475 1104.79 571.846C1104.99 572.214 1105.09 572.655 1105.09 573.169V579H1102.81V577.801H1102.75C1102.61 578.071 1102.42 578.31 1102.19 578.516C1101.96 578.719 1101.68 578.878 1101.35 578.994C1101.02 579.107 1100.65 579.163 1100.22 579.163ZM1100.91 577.508C1101.26 577.508 1101.57 577.439 1101.84 577.3C1102.11 577.158 1102.32 576.966 1102.48 576.726C1102.63 576.486 1102.71 576.214 1102.71 575.91V574.992C1102.63 575.041 1102.53 575.086 1102.4 575.128C1102.27 575.165 1102.13 575.201 1101.96 575.234C1101.8 575.264 1101.64 575.293 1101.48 575.319C1101.32 575.341 1101.17 575.362 1101.04 575.381C1100.76 575.422 1100.51 575.488 1100.3 575.578C1100.09 575.668 1099.93 575.79 1099.81 575.944C1099.7 576.094 1099.64 576.281 1099.64 576.507C1099.64 576.833 1099.76 577.083 1099.99 577.255C1100.23 577.424 1100.54 577.508 1100.91 577.508ZM1106.47 579V570.354H1108.87V579H1106.47ZM1107.68 569.24C1107.32 569.24 1107.02 569.122 1106.76 568.885C1106.51 568.645 1106.38 568.358 1106.38 568.024C1106.38 567.694 1106.51 567.411 1106.76 567.174C1107.02 566.934 1107.32 566.814 1107.68 566.814C1108.03 566.814 1108.34 566.934 1108.59 567.174C1108.84 567.411 1108.97 567.694 1108.97 568.024C1108.97 568.358 1108.84 568.645 1108.59 568.885C1108.34 569.122 1108.03 569.24 1107.68 569.24ZM1112.71 567.473V579H1110.32V567.473H1112.71ZM1115.86 579L1113.51 570.354H1115.94L1117.28 576.163H1117.36L1118.75 570.354H1121.13L1122.55 576.129H1122.62L1123.94 570.354H1126.36L1124.01 579H1121.48L1119.99 573.563H1119.88L1118.4 579H1115.86ZM1127.17 579V570.354H1129.56V579H1127.17ZM1128.37 569.24C1128.01 569.24 1127.71 569.122 1127.45 568.885C1127.2 568.645 1127.08 568.358 1127.08 568.024C1127.08 567.694 1127.2 567.411 1127.45 567.174C1127.71 566.934 1128.01 566.814 1128.37 566.814C1128.73 566.814 1129.03 566.934 1129.28 567.174C1129.54 567.411 1129.66 567.694 1129.66 568.024C1129.66 568.358 1129.54 568.645 1129.28 568.885C1129.03 569.122 1128.73 569.24 1128.37 569.24ZM1133.41 574.002V579H1131.01V570.354H1133.29V571.88H1133.39C1133.59 571.377 1133.91 570.979 1134.36 570.687C1134.81 570.39 1135.35 570.242 1136 570.242C1136.6 570.242 1137.12 570.373 1137.57 570.636C1138.01 570.899 1138.36 571.274 1138.61 571.762C1138.85 572.246 1138.98 572.824 1138.98 573.495V579H1136.58V573.923C1136.58 573.394 1136.45 572.981 1136.18 572.685C1135.9 572.385 1135.52 572.234 1135.04 572.234C1134.72 572.234 1134.44 572.304 1134.19 572.443C1133.94 572.582 1133.75 572.784 1133.61 573.051C1133.48 573.313 1133.41 573.63 1133.41 574.002ZM1143.58 579.141C1142.92 579.141 1142.33 578.972 1141.79 578.634C1141.27 578.293 1140.84 577.792 1140.53 577.131C1140.23 576.467 1140.07 575.653 1140.07 574.689C1140.07 573.698 1140.23 572.874 1140.55 572.218C1140.87 571.557 1141.29 571.064 1141.82 570.737C1142.36 570.407 1142.94 570.242 1143.57 570.242C1144.06 570.242 1144.46 570.324 1144.78 570.49C1145.11 570.651 1145.37 570.854 1145.57 571.097C1145.77 571.338 1145.93 571.574 1146.03 571.807H1146.11V567.473H1148.5V579H1146.13V577.615H1146.03C1145.92 577.856 1145.76 578.094 1145.55 578.33C1145.35 578.563 1145.09 578.756 1144.76 578.91C1144.44 579.064 1144.04 579.141 1143.58 579.141ZM1144.34 577.233C1144.72 577.233 1145.05 577.128 1145.32 576.917C1145.59 576.704 1145.79 576.405 1145.94 576.022C1146.08 575.64 1146.16 575.191 1146.16 574.677C1146.16 574.163 1146.09 573.717 1145.94 573.338C1145.8 572.959 1145.59 572.666 1145.32 572.46C1145.05 572.253 1144.72 572.15 1144.34 572.15C1143.94 572.15 1143.61 572.257 1143.34 572.471C1143.07 572.685 1142.87 572.981 1142.73 573.36C1142.59 573.739 1142.52 574.178 1142.52 574.677C1142.52 575.18 1142.59 575.625 1142.73 576.011C1142.87 576.394 1143.08 576.694 1143.34 576.912C1143.61 577.126 1143.94 577.233 1144.34 577.233ZM1163.4 571.508H1160.94C1160.89 571.189 1160.8 570.906 1160.66 570.658C1160.52 570.407 1160.34 570.193 1160.13 570.017C1159.91 569.84 1159.66 569.705 1159.37 569.612C1159.09 569.518 1158.79 569.471 1158.46 569.471C1157.86 569.471 1157.34 569.619 1156.9 569.915C1156.45 570.208 1156.11 570.636 1155.87 571.199C1155.62 571.758 1155.5 572.437 1155.5 573.236C1155.5 574.058 1155.62 574.749 1155.87 575.308C1156.11 575.867 1156.46 576.289 1156.9 576.574C1157.34 576.859 1157.86 577.002 1158.44 577.002C1158.76 577.002 1159.07 576.959 1159.34 576.872C1159.63 576.786 1159.88 576.66 1160.09 576.495C1160.31 576.326 1160.49 576.122 1160.63 575.882C1160.78 575.642 1160.88 575.368 1160.94 575.06L1163.4 575.071C1163.34 575.6 1163.18 576.111 1162.92 576.602C1162.67 577.09 1162.33 577.527 1161.91 577.914C1161.48 578.296 1160.97 578.6 1160.39 578.826C1159.8 579.047 1159.14 579.158 1158.4 579.158C1157.37 579.158 1156.45 578.925 1155.64 578.46C1154.83 577.994 1154.2 577.321 1153.73 576.439C1153.26 575.557 1153.03 574.49 1153.03 573.236C1153.03 571.979 1153.27 570.91 1153.74 570.028C1154.21 569.146 1154.85 568.475 1155.66 568.013C1156.47 567.548 1157.39 567.315 1158.4 567.315C1159.07 567.315 1159.69 567.409 1160.26 567.596C1160.83 567.784 1161.34 568.058 1161.78 568.418C1162.22 568.775 1162.58 569.212 1162.86 569.73C1163.14 570.248 1163.32 570.84 1163.4 571.508ZM1170.93 570.788C1170.88 570.334 1170.69 569.981 1170.35 569.73C1170.01 569.478 1169.54 569.353 1168.96 569.353C1168.56 569.353 1168.22 569.409 1167.95 569.521C1167.68 569.63 1167.47 569.782 1167.32 569.977C1167.18 570.173 1167.11 570.394 1167.11 570.642C1167.1 570.848 1167.14 571.028 1167.24 571.182C1167.33 571.336 1167.47 571.469 1167.64 571.582C1167.8 571.69 1168 571.786 1168.22 571.869C1168.44 571.947 1168.68 572.015 1168.93 572.071L1169.97 572.319C1170.47 572.431 1170.93 572.582 1171.35 572.769C1171.77 572.957 1172.13 573.188 1172.44 573.461C1172.75 573.735 1172.99 574.058 1173.16 574.43C1173.33 574.801 1173.42 575.227 1173.42 575.707C1173.42 576.413 1173.24 577.024 1172.88 577.542C1172.53 578.056 1172.02 578.456 1171.35 578.741C1170.69 579.023 1169.89 579.163 1168.95 579.163C1168.02 579.163 1167.21 579.021 1166.52 578.735C1165.83 578.45 1165.29 578.028 1164.91 577.469C1164.52 576.906 1164.32 576.21 1164.3 575.381H1166.66C1166.69 575.767 1166.8 576.09 1166.99 576.349C1167.19 576.604 1167.46 576.797 1167.79 576.929C1168.12 577.056 1168.5 577.12 1168.92 577.12C1169.33 577.12 1169.69 577.06 1169.99 576.94C1170.3 576.82 1170.54 576.653 1170.71 576.439C1170.88 576.225 1170.96 575.979 1170.96 575.702C1170.96 575.443 1170.89 575.225 1170.73 575.049C1170.58 574.872 1170.36 574.722 1170.07 574.598C1169.78 574.475 1169.42 574.362 1169 574.261L1167.75 573.946C1166.78 573.709 1166.01 573.34 1165.45 572.837C1164.88 572.334 1164.6 571.657 1164.61 570.805C1164.6 570.107 1164.79 569.497 1165.16 568.975C1165.54 568.454 1166.06 568.047 1166.72 567.754C1167.38 567.461 1168.13 567.315 1168.98 567.315C1169.83 567.315 1170.58 567.461 1171.22 567.754C1171.86 568.047 1172.36 568.454 1172.71 568.975C1173.07 569.497 1173.25 570.101 1173.26 570.788H1170.93ZM1180.84 570.788C1180.79 570.334 1180.6 569.981 1180.26 569.73C1179.92 569.478 1179.45 569.353 1178.87 569.353C1178.47 569.353 1178.14 569.409 1177.86 569.521C1177.59 569.63 1177.38 569.782 1177.23 569.977C1177.09 570.173 1177.02 570.394 1177.02 570.642C1177.01 570.848 1177.05 571.028 1177.15 571.182C1177.24 571.336 1177.38 571.469 1177.55 571.582C1177.71 571.69 1177.91 571.786 1178.13 571.869C1178.35 571.947 1178.59 572.015 1178.84 572.071L1179.88 572.319C1180.38 572.431 1180.84 572.582 1181.26 572.769C1181.68 572.957 1182.05 573.188 1182.35 573.461C1182.66 573.735 1182.9 574.058 1183.07 574.43C1183.24 574.801 1183.33 575.227 1183.33 575.707C1183.33 576.413 1183.15 577.024 1182.79 577.542C1182.44 578.056 1181.93 578.456 1181.26 578.741C1180.6 579.023 1179.8 579.163 1178.86 579.163C1177.93 579.163 1177.12 579.021 1176.43 578.735C1175.74 578.45 1175.2 578.028 1174.82 577.469C1174.43 576.906 1174.23 576.21 1174.21 575.381H1176.57C1176.6 575.767 1176.71 576.09 1176.9 576.349C1177.1 576.604 1177.37 576.797 1177.7 576.929C1178.03 577.056 1178.41 577.12 1178.83 577.12C1179.24 577.12 1179.6 577.06 1179.9 576.94C1180.21 576.82 1180.45 576.653 1180.62 576.439C1180.79 576.225 1180.87 575.979 1180.87 575.702C1180.87 575.443 1180.8 575.225 1180.64 575.049C1180.49 574.872 1180.27 574.722 1179.98 574.598C1179.69 574.475 1179.33 574.362 1178.91 574.261L1177.66 573.946C1176.69 573.709 1175.92 573.34 1175.36 572.837C1174.79 572.334 1174.51 571.657 1174.52 570.805C1174.51 570.107 1174.7 569.497 1175.08 568.975C1175.45 568.454 1175.97 568.047 1176.63 567.754C1177.29 567.461 1178.05 567.315 1178.89 567.315C1179.74 567.315 1180.49 567.461 1181.13 567.754C1181.77 568.047 1182.27 568.454 1182.62 568.975C1182.98 569.497 1183.16 570.101 1183.17 570.788H1180.84ZM1191.55 579.169C1190.66 579.169 1189.9 578.981 1189.27 578.606C1188.63 578.227 1188.14 577.702 1187.8 577.03C1187.46 576.358 1187.3 575.585 1187.3 574.711C1187.3 573.825 1187.47 573.049 1187.81 572.381C1188.15 571.709 1188.64 571.186 1189.28 570.81C1189.91 570.431 1190.66 570.242 1191.54 570.242C1192.29 570.242 1192.95 570.379 1193.52 570.653C1194.09 570.927 1194.54 571.311 1194.87 571.807C1195.2 572.302 1195.38 572.884 1195.41 573.552H1193.15C1193.09 573.12 1192.92 572.773 1192.64 572.51C1192.37 572.244 1192.02 572.111 1191.58 572.111C1191.21 572.111 1190.88 572.212 1190.6 572.415C1190.33 572.613 1190.12 572.904 1189.96 573.287C1189.81 573.67 1189.73 574.133 1189.73 574.677C1189.73 575.229 1189.81 575.698 1189.96 576.084C1190.11 576.471 1190.33 576.765 1190.6 576.968C1190.88 577.171 1191.21 577.272 1191.58 577.272C1191.85 577.272 1192.1 577.216 1192.32 577.103C1192.54 576.991 1192.72 576.827 1192.86 576.613C1193.01 576.396 1193.1 576.135 1193.15 575.831H1195.41C1195.37 576.492 1195.19 577.073 1194.87 577.576C1194.55 578.075 1194.11 578.465 1193.55 578.747C1192.99 579.028 1192.32 579.169 1191.55 579.169ZM1200.38 579.169C1199.5 579.169 1198.75 578.983 1198.11 578.612C1197.47 578.236 1196.99 577.715 1196.64 577.047C1196.29 576.375 1196.12 575.597 1196.12 574.711C1196.12 573.818 1196.29 573.037 1196.64 572.37C1196.99 571.698 1197.47 571.176 1198.11 570.805C1198.75 570.43 1199.5 570.242 1200.38 570.242C1201.25 570.242 1202.01 570.43 1202.64 570.805C1203.28 571.176 1203.77 571.698 1204.11 572.37C1204.46 573.037 1204.63 573.818 1204.63 574.711C1204.63 575.597 1204.46 576.375 1204.11 577.047C1203.77 577.715 1203.28 578.236 1202.64 578.612C1202.01 578.983 1201.25 579.169 1200.38 579.169ZM1200.39 577.311C1200.79 577.311 1201.12 577.199 1201.38 576.974C1201.65 576.745 1201.85 576.433 1201.99 576.039C1202.13 575.645 1202.2 575.197 1202.2 574.694C1202.2 574.191 1202.13 573.743 1201.99 573.349C1201.85 572.955 1201.65 572.643 1201.38 572.415C1201.12 572.186 1200.79 572.071 1200.39 572.071C1199.99 572.071 1199.65 572.186 1199.38 572.415C1199.11 572.643 1198.9 572.955 1198.76 573.349C1198.63 573.743 1198.56 574.191 1198.56 574.694C1198.56 575.197 1198.63 575.645 1198.76 576.039C1198.9 576.433 1199.11 576.745 1199.38 576.974C1199.65 577.199 1199.99 577.311 1200.39 577.311ZM1205.72 579V570.354H1208V571.88H1208.1C1208.28 571.373 1208.58 570.974 1209 570.681C1209.42 570.388 1209.93 570.242 1210.51 570.242C1211.1 570.242 1211.61 570.39 1212.03 570.687C1212.44 570.979 1212.72 571.377 1212.86 571.88H1212.95C1213.13 571.385 1213.44 570.989 1213.91 570.692C1214.37 570.392 1214.92 570.242 1215.55 570.242C1216.36 570.242 1217.02 570.499 1217.52 571.013C1218.03 571.523 1218.28 572.248 1218.28 573.186V579H1215.89V573.658C1215.89 573.178 1215.76 572.818 1215.5 572.578C1215.25 572.338 1214.93 572.218 1214.55 572.218C1214.11 572.218 1213.77 572.356 1213.53 572.634C1213.28 572.908 1213.16 573.27 1213.16 573.72V579H1210.84V573.608C1210.84 573.184 1210.72 572.846 1210.47 572.595C1210.23 572.343 1209.92 572.218 1209.52 572.218C1209.25 572.218 1209.01 572.285 1208.8 572.42C1208.59 572.552 1208.42 572.737 1208.3 572.977C1208.18 573.214 1208.11 573.491 1208.11 573.81V579H1205.72ZM1219.7 582.242V570.354H1222.06V571.807H1222.17C1222.27 571.574 1222.43 571.338 1222.62 571.097C1222.83 570.854 1223.09 570.651 1223.41 570.49C1223.74 570.324 1224.14 570.242 1224.63 570.242C1225.26 570.242 1225.84 570.407 1226.37 570.737C1226.91 571.064 1227.33 571.557 1227.65 572.218C1227.97 572.874 1228.13 573.698 1228.13 574.689C1228.13 575.653 1227.97 576.467 1227.66 577.131C1227.35 577.792 1226.93 578.293 1226.4 578.634C1225.87 578.972 1225.28 579.141 1224.62 579.141C1224.16 579.141 1223.76 579.064 1223.44 578.91C1223.11 578.756 1222.85 578.563 1222.64 578.33C1222.44 578.094 1222.28 577.856 1222.17 577.615H1222.1V582.242H1219.7ZM1222.04 574.677C1222.04 575.191 1222.12 575.64 1222.26 576.022C1222.4 576.405 1222.61 576.704 1222.88 576.917C1223.15 577.128 1223.48 577.233 1223.86 577.233C1224.25 577.233 1224.58 577.126 1224.85 576.912C1225.12 576.694 1225.33 576.394 1225.47 576.011C1225.61 575.625 1225.68 575.18 1225.68 574.677C1225.68 574.178 1225.61 573.739 1225.47 573.36C1225.33 572.981 1225.13 572.685 1224.86 572.471C1224.59 572.257 1224.26 572.15 1223.86 572.15C1223.47 572.15 1223.14 572.253 1222.87 572.46C1222.61 572.666 1222.4 572.959 1222.26 573.338C1222.12 573.717 1222.04 574.163 1222.04 574.677ZM1233.16 579.169C1232.28 579.169 1231.53 578.983 1230.89 578.612C1230.26 578.236 1229.77 577.715 1229.42 577.047C1229.08 576.375 1228.9 575.597 1228.9 574.711C1228.9 573.818 1229.08 573.037 1229.42 572.37C1229.77 571.698 1230.26 571.176 1230.89 570.805C1231.53 570.43 1232.28 570.242 1233.16 570.242C1234.03 570.242 1234.79 570.43 1235.42 570.805C1236.06 571.176 1236.55 571.698 1236.9 572.37C1237.24 573.037 1237.41 573.818 1237.41 574.711C1237.41 575.597 1237.24 576.375 1236.9 577.047C1236.55 577.715 1236.06 578.236 1235.42 578.612C1234.79 578.983 1234.03 579.169 1233.16 579.169ZM1233.17 577.311C1233.57 577.311 1233.9 577.199 1234.17 576.974C1234.43 576.745 1234.63 576.433 1234.77 576.039C1234.91 575.645 1234.98 575.197 1234.98 574.694C1234.98 574.191 1234.91 573.743 1234.77 573.349C1234.63 572.955 1234.43 572.643 1234.17 572.415C1233.9 572.186 1233.57 572.071 1233.17 572.071C1232.77 572.071 1232.43 572.186 1232.16 572.415C1231.89 572.643 1231.68 572.955 1231.54 573.349C1231.41 573.743 1231.34 574.191 1231.34 574.694C1231.34 575.197 1231.41 575.645 1231.54 576.039C1231.68 576.433 1231.89 576.745 1232.16 576.974C1232.43 577.199 1232.77 577.311 1233.17 577.311ZM1240.9 574.002V579H1238.5V570.354H1240.78V571.88H1240.88C1241.08 571.377 1241.4 570.979 1241.85 570.687C1242.3 570.39 1242.84 570.242 1243.48 570.242C1244.08 570.242 1244.61 570.373 1245.05 570.636C1245.5 570.899 1245.85 571.274 1246.1 571.762C1246.34 572.246 1246.47 572.824 1246.47 573.495V579H1244.07V573.923C1244.07 573.394 1243.94 572.981 1243.66 572.685C1243.39 572.385 1243.01 572.234 1242.53 572.234C1242.21 572.234 1241.93 572.304 1241.68 572.443C1241.43 572.582 1241.24 572.784 1241.1 573.051C1240.97 573.313 1240.9 573.63 1240.9 574.002ZM1251.82 579.169C1250.93 579.169 1250.17 578.989 1249.53 578.629C1248.89 578.265 1248.4 577.75 1248.05 577.086C1247.71 576.418 1247.53 575.628 1247.53 574.717C1247.53 573.827 1247.71 573.047 1248.05 572.375C1248.4 571.703 1248.88 571.18 1249.51 570.805C1250.14 570.43 1250.88 570.242 1251.73 570.242C1252.3 570.242 1252.83 570.334 1253.32 570.518C1253.81 570.698 1254.25 570.97 1254.61 571.334C1254.99 571.698 1255.27 572.156 1255.48 572.707C1255.69 573.255 1255.79 573.897 1255.79 574.632V575.291H1248.49V573.805H1253.53C1253.53 573.46 1253.46 573.154 1253.31 572.887C1253.16 572.621 1252.95 572.413 1252.68 572.263C1252.42 572.109 1252.11 572.032 1251.77 572.032C1251.4 572.032 1251.08 572.116 1250.8 572.285C1250.52 572.45 1250.3 572.673 1250.14 572.955C1249.99 573.233 1249.91 573.542 1249.9 573.884V575.296C1249.9 575.724 1249.98 576.094 1250.14 576.405C1250.3 576.717 1250.53 576.957 1250.82 577.126C1251.11 577.295 1251.46 577.379 1251.86 577.379C1252.13 577.379 1252.37 577.341 1252.59 577.266C1252.81 577.191 1253 577.079 1253.16 576.929C1253.32 576.779 1253.44 576.595 1253.52 576.377L1255.74 576.523C1255.63 577.056 1255.4 577.522 1255.05 577.919C1254.7 578.313 1254.26 578.621 1253.71 578.842C1253.16 579.06 1252.53 579.169 1251.82 579.169ZM1259.28 574.002V579H1256.88V570.354H1259.16V571.88H1259.27C1259.46 571.377 1259.78 570.979 1260.23 570.687C1260.68 570.39 1261.22 570.242 1261.87 570.242C1262.47 570.242 1262.99 570.373 1263.44 570.636C1263.88 570.899 1264.23 571.274 1264.48 571.762C1264.73 572.246 1264.85 572.824 1264.85 573.495V579H1262.45V573.923C1262.46 573.394 1262.32 572.981 1262.05 572.685C1261.77 572.385 1261.4 572.234 1260.91 572.234C1260.59 572.234 1260.31 572.304 1260.06 572.443C1259.82 572.582 1259.62 572.784 1259.49 573.051C1259.35 573.313 1259.28 573.63 1259.28 574.002ZM1270.86 570.354V572.156H1265.66V570.354H1270.86ZM1266.84 568.283H1269.24V576.343C1269.24 576.565 1269.27 576.737 1269.34 576.861C1269.4 576.981 1269.5 577.066 1269.62 577.114C1269.74 577.163 1269.88 577.188 1270.05 577.188C1270.16 577.188 1270.27 577.178 1270.38 577.159C1270.5 577.137 1270.58 577.12 1270.64 577.109L1271.02 578.893C1270.9 578.931 1270.73 578.974 1270.51 579.023C1270.3 579.075 1270.03 579.107 1269.72 579.118C1269.14 579.141 1268.64 579.064 1268.2 578.887C1267.77 578.711 1267.43 578.437 1267.19 578.066C1266.95 577.694 1266.83 577.225 1266.84 576.659V568.283ZM1279.03 572.82L1276.84 572.955C1276.8 572.767 1276.72 572.598 1276.6 572.448C1276.47 572.294 1276.31 572.173 1276.11 572.082C1275.91 571.989 1275.67 571.942 1275.39 571.942C1275.02 571.942 1274.71 572.021 1274.45 572.178C1274.2 572.332 1274.07 572.538 1274.07 572.797C1274.07 573.004 1274.15 573.178 1274.32 573.321C1274.48 573.463 1274.77 573.578 1275.17 573.664L1276.73 573.979C1277.57 574.152 1278.2 574.43 1278.61 574.812C1279.02 575.195 1279.23 575.698 1279.23 576.321C1279.23 576.887 1279.06 577.385 1278.73 577.812C1278.4 578.24 1277.95 578.574 1277.37 578.814C1276.79 579.051 1276.13 579.169 1275.38 579.169C1274.24 579.169 1273.32 578.931 1272.65 578.454C1271.97 577.974 1271.57 577.321 1271.46 576.495L1273.82 576.371C1273.89 576.72 1274.06 576.987 1274.33 577.171C1274.61 577.351 1274.96 577.441 1275.39 577.441C1275.81 577.441 1276.14 577.36 1276.4 577.199C1276.66 577.034 1276.79 576.822 1276.79 576.563C1276.79 576.345 1276.7 576.167 1276.52 576.028C1276.34 575.886 1276.06 575.777 1275.68 575.702L1274.19 575.403C1273.34 575.234 1272.71 574.942 1272.3 574.525C1271.89 574.109 1271.69 573.578 1271.69 572.932C1271.69 572.377 1271.84 571.899 1272.14 571.497C1272.44 571.096 1272.87 570.786 1273.42 570.568C1273.97 570.351 1274.61 570.242 1275.35 570.242C1276.44 570.242 1277.3 570.473 1277.93 570.934C1278.56 571.396 1278.93 572.024 1279.03 572.82ZM1281.67 579.146C1281.29 579.146 1280.98 579.015 1280.71 578.752C1280.45 578.486 1280.32 578.167 1280.32 577.795C1280.32 577.428 1280.45 577.113 1280.71 576.85C1280.98 576.587 1281.29 576.456 1281.67 576.456C1282.03 576.456 1282.34 576.587 1282.61 576.85C1282.88 577.113 1283.02 577.428 1283.02 577.795C1283.02 578.043 1282.95 578.27 1282.83 578.477C1282.7 578.679 1282.54 578.842 1282.34 578.966C1282.13 579.086 1281.91 579.146 1281.67 579.146Z" fill="#5A5A5A"/>
<rect x="1012" y="503" width="40" height="40" rx="8" fill="#DDE0E4"/>
</g>
<path d="M243.5 181C243.5 167.469 254.469 156.5 268 156.5H1323C1336.53 156.5 1347.5 167.469 1347.5 181V1059.5H243.5V181Z" stroke="#BFC3C9" shape-rendering="crispEdges"/>
</g>
</g>
<defs>
<filter id="filter0_d_211_129" x="131.183" y="66.5465" width="1328.63" height="1127.63" filterUnits="userSpaceOnUse" color-interpolation-filters="sRGB">
<feFlood flood-opacity="0" result="BackgroundImageFix"/>
<feColorMatrix in="SourceAlpha" type="matrix" values="0 0 0 0 0 0 0 0 0 0 0 0 0 0 0 0 0 0 127 0" result="hardAlpha"/>
<feOffset dy="22.3634"/>
<feGaussianBlur stdDeviation="55.9085"/>
<feComposite in2="hardAlpha" operator="out"/>
<feColorMatrix type="matrix" values="0 0 0 0 0 0 0 0 0 0 0 0 0 0 0 0 0 0 0.15 0"/>
<feBlend mode="normal" in2="BackgroundImageFix" result="effect1_dropShadow_211_129"/>
<feBlend mode="normal" in="SourceGraphic" in2="effect1_dropShadow_211_129" result="shape"/>
</filter>
<clipPath id="clip0_211_129">
<rect width="1536" height="1024" fill="white"/>
</clipPath>
<clipPath id="clip1_211_129">
<path d="M243 181C243 167.193 254.193 156 268 156H1323C1336.81 156 1348 167.193 1348 181V1060H243V181Z" fill="white"/>
</clipPath>
</defs>
</svg>
