<svg width="1536" height="1024" viewBox="0 0 1536 1024" fill="none" xmlns="http://www.w3.org/2000/svg">
<g clip-path="url(#clip0_211_96)">
<g filter="url(#filter0_d_211_96)">
<g clip-path="url(#clip1_211_96)">
<path d="M243 181C243 167.193 254.193 156 268 156H1323C1336.81 156 1348 167.193 1348 181V1060H243V181Z" fill="#F9FAFB"/>
<mask id="path-4-inside-1_211_96" fill="white">
<path d="M243 156H1348V218H243V156Z"/>
</mask>
<path d="M243 156H1348V218H243V156Z" fill="white"/>
<circle cx="293" cy="187" r="10" fill="#D1D5DB"/>
<circle cx="294" cy="187" r="10" fill="#D1D5DB"/>
<circle cx="319" cy="187" r="10" fill="#D1D5DB"/>
<circle cx="344" cy="187" r="10" fill="#D1D5DB"/>
<path d="M1348 217H243V219H1348V217Z" fill="#D1D5DB" mask="url(#path-4-inside-1_211_96)"/>
<rect x="613" y="555" width="365" height="12" rx="6" fill="#D1D5DB"/>
<rect x="727" y="608" width="138.903" height="49.7126" rx="10" fill="#eb542b"/>
<path d="M424.271 509H417.044L428.056 477.099H436.748L447.745 509H440.518L432.527 484.389H432.278L424.271 509ZM423.82 496.461H440.892V501.726H423.82V496.461ZM456.78 477.099V509H450.145V477.099H456.78ZM460.78 517.972V485.074H467.322V489.093H467.618C467.909 488.449 468.329 487.795 468.88 487.13C469.44 486.455 470.167 485.895 471.06 485.448C471.964 484.991 473.085 484.763 474.425 484.763C476.17 484.763 477.779 485.22 479.254 486.133C480.728 487.037 481.907 488.402 482.79 490.23C483.672 492.047 484.114 494.327 484.114 497.068C484.114 499.737 483.683 501.99 482.821 503.829C481.969 505.656 480.806 507.043 479.332 507.988C477.868 508.922 476.227 509.389 474.409 509.389C473.122 509.389 472.026 509.177 471.123 508.751C470.23 508.325 469.498 507.79 468.926 507.146C468.355 506.492 467.919 505.833 467.618 505.168H467.416V517.972H460.78ZM467.275 497.037C467.275 498.46 467.473 499.701 467.867 500.76C468.262 501.819 468.833 502.645 469.581 503.237C470.328 503.818 471.237 504.109 472.307 504.109C473.387 504.109 474.3 503.813 475.048 503.221C475.796 502.619 476.362 501.788 476.746 500.729C477.141 499.659 477.338 498.429 477.338 497.037C477.338 495.656 477.146 494.441 476.762 493.392C476.377 492.343 475.811 491.523 475.064 490.931C474.316 490.339 473.397 490.043 472.307 490.043C471.227 490.043 470.313 490.329 469.565 490.9C468.828 491.471 468.262 492.281 467.867 493.33C467.473 494.379 467.275 495.614 467.275 497.037ZM487.222 509V485.074H493.857V509H487.222ZM490.555 481.99C489.569 481.99 488.722 481.663 488.016 481.009C487.32 480.344 486.972 479.55 486.972 478.625C486.972 477.712 487.32 476.928 488.016 476.273C488.722 475.609 489.569 475.276 490.555 475.276C491.542 475.276 492.383 475.609 493.079 476.273C493.785 476.928 494.138 477.712 494.138 478.625C494.138 479.55 493.785 480.344 493.079 481.009C492.383 481.663 491.542 481.99 490.555 481.99ZM504.493 495.168V509H497.857V485.074H504.181V489.295H504.462C504.991 487.904 505.879 486.803 507.125 485.993C508.371 485.173 509.882 484.763 511.658 484.763C513.319 484.763 514.768 485.126 516.004 485.853C517.24 486.58 518.2 487.618 518.886 488.968C519.571 490.308 519.914 491.907 519.914 493.766V509H513.278V494.95C513.288 493.486 512.914 492.343 512.156 491.523C511.398 490.692 510.355 490.277 509.025 490.277C508.132 490.277 507.343 490.469 506.658 490.853C505.983 491.237 505.453 491.798 505.069 492.535C504.695 493.262 504.503 494.14 504.493 495.168ZM534.731 509.467C532.27 509.467 530.152 508.969 528.376 507.972C526.611 506.965 525.25 505.542 524.295 503.704C523.34 501.855 522.862 499.67 522.862 497.146C522.862 494.685 523.34 492.525 524.295 490.666C525.25 488.807 526.595 487.359 528.329 486.32C530.074 485.282 532.12 484.763 534.467 484.763C536.045 484.763 537.514 485.017 538.875 485.526C540.245 486.024 541.44 486.777 542.457 487.784C543.485 488.792 544.285 490.059 544.856 491.585C545.427 493.101 545.713 494.877 545.713 496.912V498.735H525.51V494.623H539.467C539.467 493.667 539.259 492.821 538.844 492.084C538.428 491.346 537.852 490.77 537.115 490.355C536.388 489.929 535.541 489.716 534.576 489.716C533.568 489.716 532.675 489.95 531.896 490.417C531.128 490.874 530.526 491.492 530.089 492.271C529.653 493.039 529.43 493.896 529.42 494.841V498.751C529.42 499.934 529.638 500.957 530.074 501.819C530.52 502.681 531.149 503.346 531.959 503.813C532.769 504.28 533.729 504.514 534.84 504.514C535.578 504.514 536.253 504.41 536.865 504.202C537.478 503.995 538.002 503.683 538.439 503.268C538.875 502.852 539.207 502.344 539.435 501.741L545.573 502.146C545.261 503.621 544.623 504.909 543.657 506.009C542.701 507.1 541.466 507.951 539.95 508.564C538.444 509.166 536.704 509.467 534.731 509.467ZM548.727 485.074H555.363V510.184C555.363 512.032 555 513.528 554.273 514.67C553.546 515.812 552.502 516.648 551.142 517.178C549.792 517.707 548.177 517.972 546.297 517.972C546.069 517.972 545.851 517.967 545.643 517.957C545.425 517.957 545.197 517.951 544.958 517.941V512.754C545.134 512.764 545.29 512.77 545.425 512.77C545.55 512.78 545.685 512.785 545.83 512.785C546.9 512.785 547.647 512.557 548.073 512.1C548.509 511.653 548.727 510.978 548.727 510.075V485.074ZM552.03 481.99C551.053 481.99 550.212 481.663 549.506 481.009C548.8 480.344 548.447 479.55 548.447 478.625C548.447 477.712 548.8 476.928 549.506 476.273C550.212 475.609 551.053 475.276 552.03 475.276C553.026 475.276 553.873 475.609 554.569 476.273C555.275 476.928 555.628 477.712 555.628 478.625C555.628 479.55 555.275 480.344 554.569 481.009C553.873 481.663 553.026 481.99 552.03 481.99ZM579.27 491.897L573.195 492.271C573.091 491.751 572.868 491.284 572.525 490.869C572.182 490.443 571.731 490.105 571.17 489.856C570.619 489.597 569.96 489.467 569.192 489.467C568.163 489.467 567.296 489.685 566.59 490.121C565.884 490.547 565.531 491.118 565.531 491.834C565.531 492.406 565.759 492.888 566.216 493.283C566.673 493.678 567.457 493.994 568.568 494.233L572.899 495.106C575.225 495.583 576.959 496.352 578.101 497.411C579.244 498.47 579.815 499.862 579.815 501.585C579.815 503.154 579.353 504.529 578.429 505.713C577.515 506.897 576.258 507.821 574.659 508.486C573.07 509.14 571.237 509.467 569.16 509.467C565.993 509.467 563.47 508.808 561.59 507.489C559.721 506.16 558.625 504.353 558.303 502.068L564.83 501.726C565.027 502.691 565.505 503.429 566.263 503.938C567.021 504.436 567.992 504.685 569.176 504.685C570.339 504.685 571.274 504.462 571.98 504.015C572.696 503.559 573.06 502.972 573.07 502.255C573.06 501.653 572.805 501.16 572.307 500.775C571.808 500.381 571.04 500.08 570.002 499.872L565.858 499.046C563.522 498.579 561.782 497.769 560.64 496.616C559.508 495.464 558.942 493.994 558.942 492.208C558.942 490.671 559.357 489.347 560.188 488.236C561.029 487.125 562.208 486.268 563.724 485.666C565.251 485.064 567.037 484.763 569.083 484.763C572.104 484.763 574.482 485.401 576.217 486.679C577.961 487.956 578.979 489.695 579.27 491.897ZM601.296 509.467C599.094 509.467 597.194 509.073 595.595 508.283C593.996 507.494 592.765 506.425 591.903 505.075C591.052 503.714 590.626 502.198 590.626 500.526C590.626 499.28 590.875 498.174 591.373 497.208C591.872 496.243 592.568 495.355 593.461 494.545C594.354 493.724 595.392 492.909 596.576 492.099L602.76 488.034C603.56 487.525 604.146 486.99 604.52 486.429C604.894 485.858 605.081 485.24 605.081 484.576C605.081 483.942 604.827 483.356 604.318 482.816C603.809 482.276 603.087 482.011 602.153 482.021C601.529 482.021 600.989 482.161 600.533 482.442C600.076 482.712 599.717 483.07 599.458 483.516C599.209 483.953 599.084 484.441 599.084 484.981C599.084 485.645 599.271 486.32 599.645 487.006C600.019 487.691 600.517 488.418 601.14 489.186C601.763 489.944 602.443 490.765 603.181 491.648L618.306 509H611.39L598.772 494.95C597.942 494.005 597.111 493.018 596.28 491.99C595.46 490.952 594.774 489.851 594.224 488.688C593.674 487.514 593.398 486.242 593.398 484.872C593.398 483.324 593.757 481.933 594.473 480.697C595.2 479.461 596.218 478.485 597.526 477.769C598.835 477.042 600.361 476.678 602.106 476.678C603.809 476.678 605.278 477.026 606.514 477.722C607.76 478.407 608.716 479.321 609.38 480.463C610.055 481.595 610.393 482.841 610.393 484.202C610.393 485.708 610.019 487.073 609.271 488.299C608.534 489.514 607.495 490.604 606.156 491.57L599.645 496.258C598.762 496.902 598.108 497.561 597.682 498.236C597.267 498.901 597.059 499.54 597.059 500.152C597.059 500.91 597.246 501.591 597.62 502.193C597.994 502.795 598.523 503.273 599.209 503.626C599.894 503.969 600.699 504.14 601.623 504.14C602.744 504.14 603.85 503.886 604.941 503.377C606.042 502.858 607.038 502.125 607.932 501.18C608.835 500.225 609.557 499.093 610.097 497.785C610.637 496.476 610.907 495.028 610.907 493.439H616.405C616.405 495.391 616.192 497.151 615.767 498.719C615.341 500.277 614.749 501.637 613.991 502.8C613.233 503.953 612.366 504.898 611.39 505.635C611.078 505.833 610.777 506.02 610.486 506.196C610.195 506.373 609.894 506.56 609.583 506.757C608.399 507.712 607.075 508.403 605.611 508.829C604.157 509.254 602.718 509.467 601.296 509.467ZM627.5 482.66V477.099H653.7V482.66H643.934V509H637.267V482.66H627.5ZM660.142 509.452C658.615 509.452 657.255 509.187 656.061 508.657C654.866 508.117 653.921 507.323 653.226 506.274C652.54 505.215 652.198 503.896 652.198 502.318C652.198 500.988 652.442 499.872 652.93 498.969C653.418 498.065 654.082 497.338 654.924 496.788C655.765 496.237 656.72 495.822 657.79 495.542C658.87 495.261 660.002 495.064 661.185 494.95C662.577 494.804 663.698 494.669 664.55 494.545C665.402 494.41 666.019 494.212 666.404 493.953C666.788 493.693 666.98 493.309 666.98 492.8V492.707C666.98 491.72 666.668 490.957 666.045 490.417C665.433 489.877 664.56 489.607 663.428 489.607C662.234 489.607 661.284 489.872 660.578 490.401C659.872 490.921 659.404 491.575 659.176 492.364L653.039 491.866C653.35 490.412 653.963 489.155 654.877 488.096C655.791 487.026 656.969 486.206 658.413 485.635C659.867 485.053 661.549 484.763 663.46 484.763C664.789 484.763 666.061 484.918 667.276 485.23C668.501 485.541 669.586 486.024 670.531 486.679C671.487 487.333 672.24 488.174 672.79 489.202C673.34 490.22 673.616 491.44 673.616 492.863V509H667.323V505.682H667.136C666.751 506.43 666.237 507.089 665.594 507.66C664.95 508.221 664.176 508.663 663.273 508.984C662.369 509.296 661.326 509.452 660.142 509.452ZM662.042 504.872C663.018 504.872 663.88 504.68 664.628 504.296C665.376 503.901 665.962 503.372 666.388 502.707C666.814 502.042 667.027 501.29 667.027 500.448V497.909C666.819 498.044 666.533 498.169 666.17 498.283C665.817 498.387 665.417 498.486 664.971 498.579C664.524 498.662 664.077 498.74 663.631 498.813C663.184 498.875 662.779 498.932 662.416 498.984C661.637 499.098 660.957 499.28 660.375 499.529C659.794 499.779 659.342 500.116 659.02 500.542C658.698 500.957 658.537 501.476 658.537 502.1C658.537 503.003 658.864 503.694 659.519 504.171C660.183 504.639 661.024 504.872 662.042 504.872ZM677.448 509V485.074H684.084V509H677.448ZM680.781 481.99C679.795 481.99 678.948 481.663 678.242 481.009C677.546 480.344 677.199 479.55 677.199 478.625C677.199 477.712 677.546 476.928 678.242 476.273C678.948 475.609 679.795 475.276 680.781 475.276C681.768 475.276 682.609 475.609 683.305 476.273C684.011 476.928 684.364 477.712 684.364 478.625C684.364 479.55 684.011 480.344 683.305 481.009C682.609 481.663 681.768 481.99 680.781 481.99ZM694.719 477.099V509H688.083V477.099H694.719ZM703.438 509L696.927 485.074H703.641L707.348 501.149H707.566L711.429 485.074H718.018L721.943 501.056H722.146L725.791 485.074H732.489L725.993 509H718.968L714.856 493.953H714.56L710.448 509H703.438ZM734.713 509V485.074H741.348V509H734.713ZM738.046 481.99C737.06 481.99 736.213 481.663 735.507 481.009C734.811 480.344 734.463 479.55 734.463 478.625C734.463 477.712 734.811 476.928 735.507 476.273C736.213 475.609 737.06 475.276 738.046 475.276C739.033 475.276 739.874 475.609 740.57 476.273C741.276 476.928 741.629 477.712 741.629 478.625C741.629 479.55 741.276 480.344 740.57 481.009C739.874 481.663 739.033 481.99 738.046 481.99ZM751.984 495.168V509H745.348V485.074H751.672V489.295H751.953C752.482 487.904 753.37 486.803 754.616 485.993C755.862 485.173 757.373 484.763 759.149 484.763C760.811 484.763 762.259 485.126 763.495 485.853C764.731 486.58 765.691 487.618 766.377 488.968C767.062 490.308 767.405 491.907 767.405 493.766V509H760.769V494.95C760.779 493.486 760.406 492.343 759.647 491.523C758.889 490.692 757.846 490.277 756.517 490.277C755.624 490.277 754.834 490.469 754.149 490.853C753.474 491.237 752.944 491.798 752.56 492.535C752.186 493.262 751.994 494.14 751.984 495.168ZM780.135 509.389C778.318 509.389 776.672 508.922 775.197 507.988C773.733 507.043 772.57 505.656 771.708 503.829C770.857 501.99 770.431 499.737 770.431 497.068C770.431 494.327 770.872 492.047 771.755 490.23C772.637 488.402 773.811 487.037 775.275 486.133C776.75 485.22 778.365 484.763 780.12 484.763C781.459 484.763 782.575 484.991 783.469 485.448C784.372 485.895 785.099 486.455 785.649 487.13C786.21 487.795 786.636 488.449 786.927 489.093H787.129V477.099H793.749V509H787.207V505.168H786.927C786.615 505.833 786.174 506.492 785.603 507.146C785.042 507.79 784.31 508.325 783.406 508.751C782.513 509.177 781.423 509.389 780.135 509.389ZM782.238 504.109C783.308 504.109 784.211 503.818 784.948 503.237C785.696 502.645 786.267 501.819 786.662 500.76C787.067 499.701 787.269 498.46 787.269 497.037C787.269 495.614 787.072 494.379 786.677 493.33C786.283 492.281 785.712 491.471 784.964 490.9C784.216 490.329 783.308 490.043 782.238 490.043C781.148 490.043 780.229 490.339 779.481 490.931C778.733 491.523 778.167 492.343 777.783 493.392C777.399 494.441 777.207 495.656 777.207 497.037C777.207 498.429 777.399 499.659 777.783 500.729C778.178 501.788 778.744 502.619 779.481 503.221C780.229 503.813 781.148 504.109 782.238 504.109ZM834.997 488.267H828.174C828.05 487.385 827.795 486.601 827.411 485.915C827.027 485.22 826.534 484.628 825.931 484.14C825.329 483.651 824.633 483.278 823.844 483.018C823.065 482.758 822.219 482.629 821.305 482.629C819.654 482.629 818.216 483.039 816.99 483.859C815.765 484.669 814.815 485.853 814.14 487.411C813.465 488.958 813.127 490.838 813.127 493.049C813.127 495.324 813.465 497.234 814.14 498.782C814.825 500.329 815.78 501.497 817.006 502.286C818.231 503.076 819.649 503.47 821.258 503.47C822.162 503.47 822.998 503.351 823.766 503.112C824.545 502.873 825.236 502.525 825.838 502.068C826.44 501.601 826.939 501.035 827.333 500.37C827.738 499.706 828.019 498.948 828.174 498.096L834.997 498.127C834.82 499.592 834.379 501.004 833.673 502.364C832.977 503.714 832.037 504.924 830.854 505.994C829.68 507.053 828.278 507.894 826.648 508.517C825.028 509.13 823.195 509.436 821.149 509.436C818.304 509.436 815.76 508.792 813.517 507.505C811.284 506.217 809.519 504.353 808.221 501.913C806.933 499.472 806.289 496.518 806.289 493.049C806.289 489.571 806.943 486.611 808.252 484.171C809.56 481.73 811.336 479.872 813.579 478.594C815.822 477.307 818.345 476.663 821.149 476.663C822.998 476.663 824.711 476.922 826.29 477.442C827.878 477.961 829.285 478.719 830.511 479.716C831.736 480.702 832.733 481.912 833.502 483.345C834.28 484.778 834.779 486.419 834.997 488.267ZM855.823 486.274C855.699 485.017 855.164 484.041 854.219 483.345C853.274 482.649 851.991 482.301 850.372 482.301C849.271 482.301 848.341 482.457 847.583 482.769C846.825 483.07 846.244 483.491 845.839 484.03C845.444 484.57 845.247 485.183 845.247 485.869C845.226 486.44 845.345 486.938 845.605 487.364C845.875 487.79 846.244 488.158 846.711 488.47C847.178 488.771 847.718 489.036 848.331 489.264C848.944 489.482 849.598 489.669 850.294 489.825L853.16 490.51C854.551 490.822 855.829 491.237 856.992 491.757C858.155 492.276 859.162 492.914 860.014 493.672C860.865 494.431 861.524 495.324 861.992 496.352C862.469 497.38 862.713 498.558 862.724 499.888C862.713 501.84 862.215 503.533 861.229 504.966C860.252 506.388 858.84 507.494 856.992 508.283C855.154 509.062 852.936 509.452 850.34 509.452C847.765 509.452 845.522 509.057 843.611 508.268C841.711 507.479 840.226 506.31 839.156 504.763C838.097 503.205 837.541 501.279 837.49 498.984H844.016C844.089 500.054 844.395 500.947 844.935 501.663C845.486 502.37 846.218 502.904 847.132 503.268C848.056 503.621 849.099 503.797 850.262 503.797C851.405 503.797 852.396 503.631 853.238 503.299C854.089 502.967 854.749 502.505 855.216 501.913C855.683 501.321 855.917 500.64 855.917 499.872C855.917 499.156 855.704 498.553 855.278 498.065C854.863 497.577 854.25 497.162 853.44 496.819C852.641 496.476 851.659 496.165 850.496 495.884L847.023 495.012C844.333 494.358 842.209 493.335 840.652 491.943C839.094 490.552 838.32 488.678 838.331 486.32C838.32 484.389 838.834 482.701 839.873 481.258C840.922 479.814 842.36 478.688 844.188 477.878C846.015 477.068 848.092 476.663 850.418 476.663C852.786 476.663 854.852 477.068 856.618 477.878C858.394 478.688 859.775 479.814 860.761 481.258C861.748 482.701 862.257 484.373 862.288 486.274H855.823ZM883.25 486.274C883.126 485.017 882.591 484.041 881.646 483.345C880.701 482.649 879.419 482.301 877.799 482.301C876.698 482.301 875.768 482.457 875.01 482.769C874.252 483.07 873.671 483.491 873.266 484.03C872.871 484.57 872.674 485.183 872.674 485.869C872.653 486.44 872.772 486.938 873.032 487.364C873.302 487.79 873.671 488.158 874.138 488.47C874.605 488.771 875.145 489.036 875.758 489.264C876.371 489.482 877.025 489.669 877.721 489.825L880.587 490.51C881.978 490.822 883.256 491.237 884.419 491.757C885.582 492.276 886.589 492.914 887.441 493.672C888.292 494.431 888.951 495.324 889.419 496.352C889.896 497.38 890.141 498.558 890.151 499.888C890.141 501.84 889.642 503.533 888.656 504.966C887.679 506.388 886.267 507.494 884.419 508.283C882.581 509.062 880.364 509.452 877.767 509.452C875.192 509.452 872.949 509.057 871.038 508.268C869.138 507.479 867.653 506.31 866.583 504.763C865.524 503.205 864.969 501.279 864.917 498.984H871.443C871.516 500.054 871.822 500.947 872.362 501.663C872.913 502.37 873.645 502.904 874.559 503.268C875.483 503.621 876.526 503.797 877.69 503.797C878.832 503.797 879.824 503.631 880.665 503.299C881.516 502.967 882.176 502.505 882.643 501.913C883.11 501.321 883.344 500.64 883.344 499.872C883.344 499.156 883.131 498.553 882.705 498.065C882.29 497.577 881.677 497.162 880.867 496.819C880.068 496.476 879.086 496.165 877.923 495.884L874.45 495.012C871.76 494.358 869.636 493.335 868.079 491.943C866.521 490.552 865.747 488.678 865.758 486.32C865.747 484.389 866.261 482.701 867.3 481.258C868.349 479.814 869.787 478.688 871.615 477.878C873.442 477.068 875.519 476.663 877.845 476.663C880.213 476.663 882.279 477.068 884.045 477.878C885.821 478.688 887.202 479.814 888.188 481.258C889.175 482.701 889.684 484.373 889.715 486.274H883.25ZM912.894 509.467C910.443 509.467 908.335 508.948 906.569 507.91C904.814 506.861 903.464 505.407 902.519 503.548C901.585 501.689 901.118 499.55 901.118 497.131C901.118 494.68 901.59 492.53 902.535 490.682C903.49 488.823 904.846 487.374 906.601 486.336C908.356 485.287 910.443 484.763 912.862 484.763C914.95 484.763 916.777 485.142 918.345 485.9C919.913 486.658 921.154 487.722 922.068 489.093C922.982 490.464 923.486 492.073 923.579 493.922H917.317C917.141 492.728 916.674 491.767 915.915 491.04C915.168 490.303 914.186 489.934 912.971 489.934C911.943 489.934 911.045 490.214 910.277 490.775C909.519 491.326 908.927 492.13 908.501 493.19C908.075 494.249 907.862 495.531 907.862 497.037C907.862 498.564 908.07 499.862 908.485 500.931C908.911 502.001 909.508 502.816 910.277 503.377C911.045 503.938 911.943 504.218 912.971 504.218C913.73 504.218 914.41 504.062 915.012 503.751C915.625 503.439 916.128 502.987 916.523 502.395C916.928 501.793 917.193 501.071 917.317 500.23H923.579C923.475 502.058 922.977 503.668 922.084 505.059C921.201 506.44 919.981 507.52 918.423 508.299C916.866 509.078 915.022 509.467 912.894 509.467ZM937.322 509.467C934.902 509.467 932.81 508.953 931.045 507.925C929.29 506.887 927.934 505.443 926.979 503.595C926.024 501.736 925.546 499.581 925.546 497.131C925.546 494.659 926.024 492.499 926.979 490.651C927.934 488.792 929.29 487.348 931.045 486.32C932.81 485.282 934.902 484.763 937.322 484.763C939.742 484.763 941.829 485.282 943.584 486.32C945.349 487.348 946.71 488.792 947.665 490.651C948.62 492.499 949.098 494.659 949.098 497.131C949.098 499.581 948.62 501.736 947.665 503.595C946.71 505.443 945.349 506.887 943.584 507.925C941.829 508.953 939.742 509.467 937.322 509.467ZM937.353 504.327C938.454 504.327 939.373 504.015 940.11 503.392C940.848 502.759 941.403 501.897 941.777 500.807C942.161 499.716 942.353 498.475 942.353 497.084C942.353 495.692 942.161 494.451 941.777 493.361C941.403 492.271 940.848 491.409 940.11 490.775C939.373 490.142 938.454 489.825 937.353 489.825C936.242 489.825 935.307 490.142 934.549 490.775C933.802 491.409 933.236 492.271 932.852 493.361C932.478 494.451 932.291 495.692 932.291 497.084C932.291 498.475 932.478 499.716 932.852 500.807C933.236 501.897 933.802 502.759 934.549 503.392C935.307 504.015 936.242 504.327 937.353 504.327ZM952.097 509V485.074H958.421V489.295H958.701C959.2 487.894 960.031 486.788 961.194 485.978C962.357 485.168 963.748 484.763 965.368 484.763C967.009 484.763 968.406 485.173 969.558 485.993C970.711 486.803 971.48 487.904 971.864 489.295H972.113C972.601 487.925 973.484 486.829 974.761 486.009C976.049 485.178 977.57 484.763 979.325 484.763C981.558 484.763 983.37 485.474 984.761 486.897C986.163 488.309 986.864 490.313 986.864 492.909V509H980.244V494.218C980.244 492.888 979.891 491.892 979.185 491.227C978.479 490.562 977.596 490.23 976.537 490.23C975.332 490.23 974.392 490.614 973.717 491.383C973.042 492.141 972.705 493.143 972.705 494.389V509H966.272V494.077C966.272 492.904 965.934 491.969 965.259 491.274C964.595 490.578 963.717 490.23 962.627 490.23C961.889 490.23 961.225 490.417 960.633 490.791C960.051 491.154 959.589 491.668 959.247 492.333C958.904 492.987 958.733 493.756 958.733 494.638V509H952.097ZM990.79 517.972V485.074H997.332V489.093H997.628C997.919 488.449 998.339 487.795 998.89 487.13C999.45 486.455 1000.18 485.895 1001.07 485.448C1001.97 484.991 1003.1 484.763 1004.44 484.763C1006.18 484.763 1007.79 485.22 1009.26 486.133C1010.74 487.037 1011.92 488.402 1012.8 490.23C1013.68 492.047 1014.12 494.327 1014.12 497.068C1014.12 499.737 1013.69 501.99 1012.83 503.829C1011.98 505.656 1010.82 507.043 1009.34 507.988C1007.88 508.922 1006.24 509.389 1004.42 509.389C1003.13 509.389 1002.04 509.177 1001.13 508.751C1000.24 508.325 999.508 507.79 998.936 507.146C998.365 506.492 997.929 505.833 997.628 505.168H997.426V517.972H990.79ZM997.285 497.037C997.285 498.46 997.483 499.701 997.877 500.76C998.272 501.819 998.843 502.645 999.591 503.237C1000.34 503.818 1001.25 504.109 1002.32 504.109C1003.4 504.109 1004.31 503.813 1005.06 503.221C1005.81 502.619 1006.37 501.788 1006.76 500.729C1007.15 499.659 1007.35 498.429 1007.35 497.037C1007.35 495.656 1007.16 494.441 1006.77 493.392C1006.39 492.343 1005.82 491.523 1005.07 490.931C1004.33 490.339 1003.41 490.043 1002.32 490.043C1001.24 490.043 1000.32 490.329 999.575 490.9C998.838 491.471 998.272 492.281 997.877 493.33C997.483 494.379 997.285 495.614 997.285 497.037ZM1028.04 509.467C1025.62 509.467 1023.53 508.953 1021.76 507.925C1020.01 506.887 1018.65 505.443 1017.7 503.595C1016.74 501.736 1016.27 499.581 1016.27 497.131C1016.27 494.659 1016.74 492.499 1017.7 490.651C1018.65 488.792 1020.01 487.348 1021.76 486.32C1023.53 485.282 1025.62 484.763 1028.04 484.763C1030.46 484.763 1032.55 485.282 1034.3 486.32C1036.07 487.348 1037.43 488.792 1038.38 490.651C1039.34 492.499 1039.82 494.659 1039.82 497.131C1039.82 499.581 1039.34 501.736 1038.38 503.595C1037.43 505.443 1036.07 506.887 1034.3 507.925C1032.55 508.953 1030.46 509.467 1028.04 509.467ZM1028.07 504.327C1029.17 504.327 1030.09 504.015 1030.83 503.392C1031.57 502.759 1032.12 501.897 1032.5 500.807C1032.88 499.716 1033.07 498.475 1033.07 497.084C1033.07 495.692 1032.88 494.451 1032.5 493.361C1032.12 492.271 1031.57 491.409 1030.83 490.775C1030.09 490.142 1029.17 489.825 1028.07 489.825C1026.96 489.825 1026.03 490.142 1025.27 490.775C1024.52 491.409 1023.96 492.271 1023.57 493.361C1023.2 494.451 1023.01 495.692 1023.01 497.084C1023.01 498.475 1023.2 499.716 1023.57 500.807C1023.96 501.897 1024.52 502.759 1025.27 503.392C1026.03 504.015 1026.96 504.327 1028.07 504.327ZM1049.45 495.168V509H1042.82V485.074H1049.14V489.295H1049.42C1049.95 487.904 1050.84 486.803 1052.08 485.993C1053.33 485.173 1054.84 484.763 1056.62 484.763C1058.28 484.763 1059.73 485.126 1060.96 485.853C1062.2 486.58 1063.16 487.618 1063.85 488.968C1064.53 490.308 1064.87 491.907 1064.87 493.766V509H1058.24V494.95C1058.25 493.486 1057.87 492.343 1057.12 491.523C1056.36 490.692 1055.31 490.277 1053.99 490.277C1053.09 490.277 1052.3 490.469 1051.62 490.853C1050.94 491.237 1050.41 491.798 1050.03 492.535C1049.65 493.262 1049.46 494.14 1049.45 495.168ZM1079.69 509.467C1077.23 509.467 1075.11 508.969 1073.34 507.972C1071.57 506.965 1070.21 505.542 1069.25 503.704C1068.3 501.855 1067.82 499.67 1067.82 497.146C1067.82 494.685 1068.3 492.525 1069.25 490.666C1070.21 488.807 1071.55 487.359 1073.29 486.32C1075.03 485.282 1077.08 484.763 1079.43 484.763C1081 484.763 1082.47 485.017 1083.83 485.526C1085.21 486.024 1086.4 486.777 1087.42 487.784C1088.45 488.792 1089.24 490.059 1089.82 491.585C1090.39 493.101 1090.67 494.877 1090.67 496.912V498.735H1070.47V494.623H1084.43C1084.43 493.667 1084.22 492.821 1083.8 492.084C1083.39 491.346 1082.81 490.77 1082.07 490.355C1081.35 489.929 1080.5 489.716 1079.54 489.716C1078.53 489.716 1077.63 489.95 1076.86 490.417C1076.09 490.874 1075.49 491.492 1075.05 492.271C1074.61 493.039 1074.39 493.896 1074.38 494.841V498.751C1074.38 499.934 1074.6 500.957 1075.03 501.819C1075.48 502.681 1076.11 503.346 1076.92 503.813C1077.73 504.28 1078.69 504.514 1079.8 504.514C1080.54 504.514 1081.21 504.41 1081.83 504.202C1082.44 503.995 1082.96 503.683 1083.4 503.268C1083.83 502.852 1084.17 502.344 1084.4 501.741L1090.53 502.146C1090.22 503.621 1089.58 504.909 1088.62 506.009C1087.66 507.1 1086.43 507.951 1084.91 508.564C1083.4 509.166 1081.66 509.467 1079.69 509.467ZM1100.32 495.168V509H1093.69V485.074H1100.01V489.295H1100.29C1100.82 487.904 1101.71 486.803 1102.96 485.993C1104.2 485.173 1105.71 484.763 1107.49 484.763C1109.15 484.763 1110.6 485.126 1111.83 485.853C1113.07 486.58 1114.03 487.618 1114.72 488.968C1115.4 490.308 1115.74 491.907 1115.74 493.766V509H1109.11V494.95C1109.12 493.486 1108.74 492.343 1107.99 491.523C1107.23 490.692 1106.18 490.277 1104.86 490.277C1103.96 490.277 1103.17 490.469 1102.49 490.853C1101.81 491.237 1101.28 491.798 1100.9 492.535C1100.53 493.262 1100.33 494.14 1100.32 495.168ZM1132.38 485.074V490.059H1117.98V485.074H1132.38ZM1121.25 479.342H1127.88V501.648C1127.88 502.26 1127.98 502.738 1128.16 503.081C1128.35 503.413 1128.61 503.647 1128.94 503.782C1129.28 503.917 1129.68 503.984 1130.13 503.984C1130.44 503.984 1130.75 503.958 1131.06 503.906C1131.37 503.844 1131.61 503.797 1131.78 503.766L1132.82 508.704C1132.49 508.808 1132.02 508.927 1131.42 509.062C1130.82 509.208 1130.08 509.296 1129.22 509.327C1127.62 509.389 1126.22 509.177 1125.02 508.688C1123.82 508.2 1122.89 507.442 1122.23 506.414C1121.56 505.386 1121.24 504.088 1121.25 502.52V479.342ZM1155 491.897L1148.92 492.271C1148.82 491.751 1148.6 491.284 1148.25 490.869C1147.91 490.443 1147.46 490.105 1146.9 489.856C1146.35 489.597 1145.69 489.467 1144.92 489.467C1143.89 489.467 1143.02 489.685 1142.32 490.121C1141.61 490.547 1141.26 491.118 1141.26 491.834C1141.26 492.406 1141.49 492.888 1141.94 493.283C1142.4 493.678 1143.19 493.994 1144.3 494.233L1148.63 495.106C1150.95 495.583 1152.69 496.352 1153.83 497.411C1154.97 498.47 1155.54 499.862 1155.54 501.585C1155.54 503.154 1155.08 504.529 1154.16 505.713C1153.24 506.897 1151.99 507.821 1150.39 508.486C1148.8 509.14 1146.97 509.467 1144.89 509.467C1141.72 509.467 1139.2 508.808 1137.32 507.489C1135.45 506.16 1134.35 504.353 1134.03 502.068L1140.56 501.726C1140.76 502.691 1141.23 503.429 1141.99 503.938C1142.75 504.436 1143.72 504.685 1144.9 504.685C1146.07 504.685 1147 504.462 1147.71 504.015C1148.42 503.559 1148.79 502.972 1148.8 502.255C1148.79 501.653 1148.53 501.16 1148.03 500.775C1147.54 500.381 1146.77 500.08 1145.73 499.872L1141.59 499.046C1139.25 498.579 1137.51 497.769 1136.37 496.616C1135.24 495.464 1134.67 493.994 1134.67 492.208C1134.67 490.671 1135.09 489.347 1135.92 488.236C1136.76 487.125 1137.94 486.268 1139.45 485.666C1140.98 485.064 1142.76 484.763 1144.81 484.763C1147.83 484.763 1150.21 485.401 1151.94 486.679C1153.69 487.956 1154.71 489.695 1155 491.897ZM1162.28 509.405C1161.26 509.405 1160.37 509.042 1159.64 508.315C1158.91 507.577 1158.55 506.695 1158.55 505.667C1158.55 504.649 1158.91 503.777 1159.64 503.05C1160.37 502.323 1161.26 501.959 1162.28 501.959C1163.28 501.959 1164.15 502.323 1164.9 503.05C1165.65 503.777 1166.02 504.649 1166.02 505.667C1166.02 506.352 1165.85 506.98 1165.49 507.551C1165.15 508.112 1164.7 508.564 1164.14 508.907C1163.58 509.239 1162.96 509.405 1162.28 509.405Z" fill="#5A5A5A"/>
</g>
<path d="M243.5 181C243.5 167.469 254.469 156.5 268 156.5H1323C1336.53 156.5 1347.5 167.469 1347.5 181V1059.5H243.5V181Z" stroke="#BFC3C9" shape-rendering="crispEdges"/>
</g>
</g>
<defs>
<filter id="filter0_d_211_96" x="131.183" y="66.5465" width="1328.63" height="1127.63" filterUnits="userSpaceOnUse" color-interpolation-filters="sRGB">
<feFlood flood-opacity="0" result="BackgroundImageFix"/>
<feColorMatrix in="SourceAlpha" type="matrix" values="0 0 0 0 0 0 0 0 0 0 0 0 0 0 0 0 0 0 127 0" result="hardAlpha"/>
<feOffset dy="22.3634"/>
<feGaussianBlur stdDeviation="55.9085"/>
<feComposite in2="hardAlpha" operator="out"/>
<feColorMatrix type="matrix" values="0 0 0 0 0 0 0 0 0 0 0 0 0 0 0 0 0 0 0.15 0"/>
<feBlend mode="normal" in2="BackgroundImageFix" result="effect1_dropShadow_211_96"/>
<feBlend mode="normal" in="SourceGraphic" in2="effect1_dropShadow_211_96" result="shape"/>
</filter>
<clipPath id="clip0_211_96">
<rect width="1536" height="1024" fill="white"/>
</clipPath>
<clipPath id="clip1_211_96">
<path d="M243 181C243 167.193 254.193 156 268 156H1323C1336.81 156 1348 167.193 1348 181V1060H243V181Z" fill="white"/>
</clipPath>
</defs>
</svg>
