<svg width="1536" height="1024" viewBox="0 0 1536 1024" fill="none" xmlns="http://www.w3.org/2000/svg">
<g clip-path="url(#clip0_211_361)">
<g filter="url(#filter0_d_211_361)">
<g clip-path="url(#clip1_211_361)">
<path d="M243 181C243 167.193 254.193 156 268 156H1323C1336.81 156 1348 167.193 1348 181V1060H243V181Z" fill="#F9FAFB"/>
<mask id="path-4-inside-1_211_361" fill="white">
<path d="M243 156H1348V218H243V156Z"/>
</mask>
<path d="M243 156H1348V218H243V156Z" fill="white"/>
<circle cx="293" cy="187" r="10" fill="#D1D5DB"/>
<circle cx="294" cy="187" r="10" fill="#D1D5DB"/>
<circle cx="319" cy="187" r="10" fill="#D1D5DB"/>
<circle cx="344" cy="187" r="10" fill="#D1D5DB"/>
<path d="M1348 217H243V219H1348V217Z" fill="#D1D5DB" mask="url(#path-4-inside-1_211_361)"/>
<rect x="654" y="585" width="107" height="12" rx="6" fill="#D1D5DB"/>
<rect x="654" y="620" width="107" height="12" rx="6" fill="#D1D5DB"/>
<rect x="799" y="585" width="107" height="12" rx="6" fill="#D1D5DB"/>
<rect x="799" y="620" width="107" height="12" rx="6" fill="#D1D5DB"/>
<rect x="944" y="585" width="107" height="12" rx="6" fill="#D1D5DB"/>
<rect x="944" y="620" width="107" height="12" rx="6" fill="#D1D5DB"/>
<rect x="1089" y="585" width="107" height="12" rx="6" fill="#D1D5DB"/>
<rect x="1089" y="620" width="107" height="12" rx="6" fill="#D1D5DB"/>
<path d="M398.91 601H396.367L400.241 589.778H403.299L407.167 601H404.625L401.814 592.342H401.726L398.91 601ZM398.751 596.589H404.756V598.441H398.751V596.589ZM410.346 589.778V601H408.011V589.778H410.346ZM411.753 604.156V592.583H414.054V593.997H414.158C414.26 593.771 414.408 593.54 414.602 593.307C414.799 593.069 415.055 592.872 415.369 592.715C415.687 592.554 416.081 592.474 416.553 592.474C417.166 592.474 417.733 592.635 418.251 592.956C418.77 593.274 419.185 593.754 419.495 594.397C419.806 595.036 419.961 595.838 419.961 596.803C419.961 597.741 419.809 598.534 419.506 599.181C419.207 599.824 418.797 600.311 418.279 600.644C417.764 600.973 417.186 601.137 416.547 601.137C416.094 601.137 415.709 601.062 415.391 600.912C415.077 600.763 414.819 600.574 414.618 600.348C414.417 600.118 414.264 599.886 414.158 599.652H414.087V604.156H411.753ZM414.038 596.792C414.038 597.292 414.107 597.729 414.246 598.101C414.385 598.474 414.586 598.764 414.849 598.973C415.112 599.177 415.431 599.279 415.807 599.279C416.187 599.279 416.509 599.175 416.772 598.967C417.035 598.755 417.234 598.463 417.369 598.09C417.508 597.714 417.577 597.281 417.577 596.792C417.577 596.306 417.51 595.878 417.375 595.509C417.239 595.141 417.04 594.852 416.777 594.644C416.514 594.435 416.191 594.331 415.807 594.331C415.428 594.331 415.106 594.432 414.843 594.633C414.584 594.834 414.385 595.119 414.246 595.488C414.107 595.857 414.038 596.291 414.038 596.792ZM421.054 601V592.583H423.389V601H421.054ZM422.227 591.498C421.88 591.498 421.582 591.383 421.334 591.153C421.089 590.919 420.967 590.64 420.967 590.315C420.967 589.993 421.089 589.718 421.334 589.487C421.582 589.254 421.88 589.137 422.227 589.137C422.574 589.137 422.87 589.254 423.115 589.487C423.363 589.718 423.487 589.993 423.487 590.315C423.487 590.64 423.363 590.919 423.115 591.153C422.87 591.383 422.574 591.498 422.227 591.498ZM427.13 596.134V601H424.796V592.583H427.02V594.068H427.119C427.305 593.579 427.618 593.192 428.056 592.907C428.494 592.618 429.026 592.474 429.65 592.474C430.235 592.474 430.745 592.602 431.179 592.857C431.614 593.113 431.952 593.478 432.193 593.953C432.434 594.425 432.555 594.987 432.555 595.641V601H430.22V596.057C430.224 595.542 430.092 595.141 429.826 594.852C429.559 594.56 429.192 594.414 428.724 594.414C428.41 594.414 428.133 594.481 427.891 594.616C427.654 594.751 427.468 594.949 427.333 595.208C427.201 595.464 427.133 595.772 427.13 596.134ZM437.767 601.164C436.901 601.164 436.156 600.989 435.531 600.638C434.91 600.284 434.432 599.784 434.096 599.137C433.76 598.487 433.592 597.718 433.592 596.83C433.592 595.964 433.76 595.204 434.096 594.551C434.432 593.897 434.905 593.387 435.515 593.022C436.129 592.656 436.848 592.474 437.674 592.474C438.229 592.474 438.746 592.563 439.225 592.742C439.707 592.918 440.127 593.182 440.485 593.537C440.847 593.891 441.128 594.337 441.329 594.874C441.53 595.407 441.63 596.032 441.63 596.748V597.389H434.523V595.942H439.433C439.433 595.606 439.36 595.309 439.214 595.049C439.068 594.79 438.865 594.587 438.606 594.441C438.35 594.291 438.052 594.216 437.712 594.216C437.358 594.216 437.044 594.298 436.77 594.463C436.5 594.624 436.288 594.841 436.134 595.115C435.981 595.385 435.902 595.687 435.899 596.019V597.394C435.899 597.811 435.975 598.171 436.129 598.474C436.286 598.777 436.507 599.011 436.792 599.175C437.077 599.34 437.415 599.422 437.805 599.422C438.065 599.422 438.302 599.385 438.518 599.312C438.733 599.239 438.918 599.13 439.071 598.984C439.225 598.837 439.342 598.658 439.422 598.447L441.581 598.589C441.471 599.108 441.247 599.561 440.907 599.948C440.571 600.331 440.136 600.631 439.603 600.847C439.073 601.058 438.461 601.164 437.767 601.164ZM442.691 592.583H445.025V601.416C445.025 602.067 444.897 602.593 444.641 602.995C444.386 603.396 444.019 603.69 443.54 603.877C443.065 604.063 442.497 604.156 441.836 604.156C441.755 604.156 441.679 604.154 441.606 604.151C441.529 604.151 441.449 604.149 441.365 604.145V602.321C441.427 602.324 441.481 602.326 441.529 602.326C441.573 602.33 441.62 602.332 441.671 602.332C442.048 602.332 442.311 602.251 442.46 602.09C442.614 601.933 442.691 601.696 442.691 601.378V592.583ZM443.852 591.498C443.509 591.498 443.213 591.383 442.965 591.153C442.716 590.919 442.592 590.64 442.592 590.315C442.592 589.993 442.716 589.718 442.965 589.487C443.213 589.254 443.509 589.137 443.852 589.137C444.203 589.137 444.501 589.254 444.745 589.487C444.994 589.718 445.118 589.993 445.118 590.315C445.118 590.64 444.994 590.919 444.745 591.153C444.501 591.383 444.203 591.498 443.852 591.498ZM453.435 594.983L451.298 595.115C451.261 594.932 451.183 594.768 451.062 594.622C450.942 594.472 450.783 594.353 450.585 594.266C450.392 594.174 450.16 594.129 449.89 594.129C449.528 594.129 449.223 594.205 448.974 594.359C448.726 594.509 448.602 594.709 448.602 594.962C448.602 595.162 448.682 595.332 448.843 595.471C449.004 595.61 449.279 595.721 449.67 595.805L451.194 596.112C452.012 596.28 452.622 596.551 453.024 596.923C453.426 597.296 453.627 597.785 453.627 598.392C453.627 598.943 453.464 599.427 453.139 599.844C452.817 600.26 452.375 600.585 451.813 600.819C451.254 601.049 450.609 601.164 449.879 601.164C448.764 601.164 447.877 600.932 447.215 600.468C446.558 600.001 446.173 599.365 446.059 598.562L448.355 598.441C448.425 598.781 448.593 599.04 448.859 599.219C449.126 599.394 449.468 599.482 449.884 599.482C450.293 599.482 450.622 599.404 450.87 599.247C451.122 599.086 451.25 598.879 451.254 598.627C451.25 598.415 451.161 598.242 450.985 598.107C450.81 597.968 450.54 597.862 450.174 597.789L448.717 597.499C447.895 597.334 447.283 597.049 446.881 596.644C446.483 596.238 446.284 595.721 446.284 595.093C446.284 594.552 446.43 594.087 446.722 593.696C447.018 593.305 447.433 593.003 447.966 592.792C448.503 592.58 449.132 592.474 449.851 592.474C450.914 592.474 451.751 592.698 452.361 593.148C452.975 593.597 453.333 594.209 453.435 594.983ZM461.183 601.164C460.409 601.164 459.74 601.026 459.178 600.748C458.615 600.47 458.182 600.094 457.879 599.619C457.579 599.141 457.43 598.607 457.43 598.019C457.43 597.581 457.517 597.192 457.693 596.852C457.868 596.512 458.113 596.2 458.427 595.915C458.741 595.626 459.106 595.34 459.523 595.055L461.698 593.625C461.979 593.446 462.186 593.257 462.317 593.06C462.449 592.859 462.515 592.642 462.515 592.408C462.515 592.185 462.425 591.979 462.246 591.789C462.067 591.599 461.813 591.506 461.484 591.509C461.265 591.509 461.075 591.559 460.915 591.657C460.754 591.752 460.628 591.878 460.537 592.035C460.449 592.189 460.405 592.361 460.405 592.551C460.405 592.784 460.471 593.022 460.602 593.263C460.734 593.504 460.909 593.76 461.128 594.03C461.348 594.297 461.587 594.585 461.846 594.896L467.167 601H464.734L460.295 596.057C460.003 595.725 459.711 595.378 459.419 595.016C459.13 594.651 458.889 594.264 458.695 593.855C458.502 593.442 458.405 592.994 458.405 592.512C458.405 591.968 458.531 591.478 458.783 591.044C459.039 590.609 459.397 590.266 459.857 590.013C460.317 589.758 460.854 589.63 461.468 589.63C462.067 589.63 462.584 589.752 463.019 589.997C463.457 590.238 463.793 590.56 464.027 590.961C464.264 591.36 464.383 591.798 464.383 592.277C464.383 592.806 464.252 593.287 463.989 593.718C463.729 594.145 463.364 594.529 462.893 594.868L460.602 596.518C460.292 596.744 460.062 596.976 459.912 597.214C459.766 597.447 459.693 597.672 459.693 597.888C459.693 598.154 459.758 598.394 459.89 598.605C460.021 598.817 460.208 598.985 460.449 599.11C460.69 599.23 460.973 599.29 461.298 599.29C461.693 599.29 462.082 599.201 462.465 599.022C462.853 598.839 463.203 598.582 463.517 598.249C463.835 597.913 464.089 597.515 464.279 597.055C464.469 596.594 464.564 596.085 464.564 595.526H466.498C466.498 596.213 466.423 596.832 466.274 597.383C466.124 597.931 465.916 598.41 465.649 598.819C465.382 599.225 465.077 599.557 464.734 599.816C464.624 599.886 464.518 599.952 464.416 600.014C464.314 600.076 464.208 600.142 464.098 600.211C463.682 600.547 463.216 600.79 462.701 600.94C462.19 601.089 461.684 601.164 461.183 601.164ZM470.401 591.734V589.778H479.618V591.734H476.182V601H473.837V591.734H470.401ZM481.884 601.159C481.347 601.159 480.868 601.066 480.448 600.879C480.028 600.689 479.696 600.41 479.451 600.041C479.21 599.668 479.089 599.205 479.089 598.649C479.089 598.182 479.175 597.789 479.347 597.471C479.519 597.153 479.752 596.898 480.048 596.704C480.344 596.51 480.68 596.364 481.056 596.266C481.436 596.167 481.835 596.098 482.251 596.057C482.74 596.006 483.135 595.959 483.435 595.915C483.734 595.867 483.951 595.798 484.087 595.707C484.222 595.615 484.289 595.48 484.289 595.301V595.268C484.289 594.921 484.18 594.653 483.961 594.463C483.745 594.273 483.438 594.178 483.04 594.178C482.62 594.178 482.286 594.271 482.037 594.457C481.789 594.64 481.624 594.87 481.544 595.148L479.385 594.972C479.495 594.461 479.71 594.019 480.032 593.646C480.353 593.27 480.768 592.982 481.276 592.781C481.787 592.576 482.379 592.474 483.051 592.474C483.519 592.474 483.966 592.529 484.393 592.638C484.825 592.748 485.206 592.918 485.539 593.148C485.875 593.378 486.14 593.674 486.333 594.035C486.527 594.393 486.624 594.823 486.624 595.323V601H484.41V599.833H484.344C484.209 600.096 484.028 600.328 483.802 600.529C483.575 600.726 483.303 600.881 482.985 600.995C482.667 601.104 482.3 601.159 481.884 601.159ZM482.552 599.548C482.896 599.548 483.199 599.48 483.462 599.345C483.725 599.206 483.931 599.02 484.081 598.786C484.231 598.552 484.306 598.288 484.306 597.992V597.099C484.233 597.146 484.132 597.19 484.004 597.23C483.88 597.267 483.74 597.301 483.583 597.334C483.425 597.363 483.268 597.391 483.111 597.416C482.954 597.438 482.812 597.458 482.684 597.477C482.41 597.517 482.171 597.581 481.966 597.668C481.761 597.756 481.603 597.875 481.489 598.025C481.376 598.171 481.319 598.353 481.319 598.573C481.319 598.89 481.435 599.133 481.665 599.301C481.898 599.466 482.194 599.548 482.552 599.548ZM487.972 601V592.583H490.306V601H487.972ZM489.144 591.498C488.797 591.498 488.5 591.383 488.251 591.153C488.006 590.919 487.884 590.64 487.884 590.315C487.884 589.993 488.006 589.718 488.251 589.487C488.5 589.254 488.797 589.137 489.144 589.137C489.491 589.137 489.787 589.254 490.032 589.487C490.28 589.718 490.405 589.993 490.405 590.315C490.405 590.64 490.28 590.919 490.032 591.153C489.787 591.383 489.491 591.498 489.144 591.498ZM494.047 589.778V601H491.713V589.778H494.047ZM497.115 601L494.824 592.583H497.186L498.49 598.238H498.567L499.926 592.583H502.243L503.624 598.205H503.696L504.978 592.583H507.334L505.049 601H502.578L501.131 595.707H501.027L499.58 601H497.115ZM508.116 601V592.583H510.451V601H508.116ZM509.289 591.498C508.942 591.498 508.644 591.383 508.396 591.153C508.151 590.919 508.029 590.64 508.029 590.315C508.029 589.993 508.151 589.718 508.396 589.487C508.644 589.254 508.942 589.137 509.289 589.137C509.636 589.137 509.932 589.254 510.177 589.487C510.425 589.718 510.549 589.993 510.549 590.315C510.549 590.64 510.425 590.919 510.177 591.153C509.932 591.383 509.636 591.498 509.289 591.498ZM514.192 596.134V601H511.858V592.583H514.082V594.068H514.181C514.367 593.579 514.68 593.192 515.118 592.907C515.556 592.618 516.088 592.474 516.713 592.474C517.297 592.474 517.807 592.602 518.241 592.857C518.676 593.113 519.014 593.478 519.255 593.953C519.496 594.425 519.617 594.987 519.617 595.641V601H517.282V596.057C517.286 595.542 517.155 595.141 516.888 594.852C516.621 594.56 516.254 594.414 515.786 594.414C515.472 594.414 515.195 594.481 514.954 594.616C514.716 594.751 514.53 594.949 514.395 595.208C514.263 595.464 514.196 595.772 514.192 596.134ZM524.095 601.137C523.456 601.137 522.877 600.973 522.358 600.644C521.843 600.311 521.434 599.824 521.131 599.181C520.831 598.534 520.681 597.741 520.681 596.803C520.681 595.838 520.836 595.036 521.147 594.397C521.457 593.754 521.87 593.274 522.385 592.956C522.904 592.635 523.472 592.474 524.089 592.474C524.561 592.474 524.953 592.554 525.268 592.715C525.585 592.872 525.841 593.069 526.035 593.307C526.232 593.54 526.382 593.771 526.484 593.997H526.555V589.778H528.884V601H526.583V599.652H526.484C526.374 599.886 526.219 600.118 526.018 600.348C525.821 600.574 525.563 600.763 525.246 600.912C524.932 601.062 524.548 601.137 524.095 601.137ZM524.835 599.279C525.211 599.279 525.529 599.177 525.788 598.973C526.051 598.764 526.252 598.474 526.391 598.101C526.533 597.729 526.605 597.292 526.605 596.792C526.605 596.291 526.535 595.857 526.396 595.488C526.258 595.119 526.057 594.834 525.794 594.633C525.531 594.432 525.211 594.331 524.835 594.331C524.451 594.331 524.128 594.435 523.865 594.644C523.602 594.852 523.403 595.141 523.268 595.509C523.132 595.878 523.065 596.306 523.065 596.792C523.065 597.281 523.132 597.714 523.268 598.09C523.406 598.463 523.605 598.755 523.865 598.967C524.128 599.175 524.451 599.279 524.835 599.279ZM543.394 593.707H540.994C540.95 593.396 540.861 593.12 540.726 592.879C540.59 592.635 540.417 592.426 540.205 592.255C539.993 592.083 539.748 591.951 539.471 591.86C539.197 591.769 538.899 591.723 538.578 591.723C537.997 591.723 537.491 591.867 537.06 592.156C536.629 592.441 536.295 592.857 536.057 593.405C535.82 593.95 535.701 594.611 535.701 595.389C535.701 596.189 535.82 596.861 536.057 597.405C536.298 597.95 536.634 598.361 537.065 598.638C537.496 598.916 537.995 599.055 538.561 599.055C538.879 599.055 539.173 599.013 539.443 598.929C539.717 598.845 539.96 598.722 540.172 598.562C540.384 598.397 540.559 598.198 540.698 597.964C540.841 597.731 540.939 597.464 540.994 597.164L543.394 597.175C543.332 597.69 543.177 598.187 542.928 598.666C542.684 599.141 542.353 599.566 541.937 599.942C541.524 600.315 541.031 600.611 540.457 600.83C539.887 601.046 539.243 601.153 538.523 601.153C537.522 601.153 536.627 600.927 535.838 600.474C535.052 600.021 534.431 599.365 533.975 598.507C533.522 597.648 533.295 596.609 533.295 595.389C533.295 594.165 533.525 593.124 533.986 592.266C534.446 591.407 535.071 590.753 535.86 590.304C536.649 589.851 537.537 589.624 538.523 589.624C539.173 589.624 539.776 589.716 540.331 589.898C540.89 590.081 541.385 590.348 541.816 590.698C542.247 591.045 542.598 591.471 542.868 591.975C543.142 592.479 543.317 593.056 543.394 593.707ZM550.72 593.005C550.677 592.563 550.489 592.22 550.156 591.975C549.824 591.73 549.373 591.608 548.803 591.608C548.415 591.608 548.088 591.663 547.822 591.772C547.555 591.878 547.351 592.026 547.208 592.216C547.069 592.406 547 592.622 547 592.863C546.993 593.064 547.035 593.239 547.126 593.389C547.221 593.539 547.351 593.668 547.515 593.778C547.679 593.884 547.869 593.977 548.085 594.057C548.3 594.134 548.53 594.2 548.775 594.255L549.783 594.496C550.273 594.605 550.722 594.751 551.131 594.934C551.541 595.117 551.895 595.341 552.194 595.608C552.494 595.875 552.726 596.189 552.89 596.551C553.058 596.912 553.144 597.327 553.148 597.794C553.144 598.481 552.969 599.077 552.622 599.581C552.278 600.081 551.782 600.47 551.131 600.748C550.485 601.022 549.705 601.159 548.792 601.159C547.886 601.159 547.097 601.02 546.424 600.742C545.756 600.465 545.234 600.054 544.857 599.51C544.485 598.962 544.289 598.284 544.271 597.477H546.567C546.593 597.853 546.7 598.167 546.89 598.419C547.084 598.668 547.341 598.856 547.663 598.984C547.988 599.108 548.355 599.17 548.764 599.17C549.166 599.17 549.515 599.111 549.811 598.994C550.11 598.878 550.342 598.715 550.507 598.507C550.671 598.299 550.753 598.059 550.753 597.789C550.753 597.537 550.678 597.325 550.529 597.153C550.383 596.982 550.167 596.836 549.882 596.715C549.601 596.594 549.256 596.485 548.846 596.386L547.625 596.079C546.678 595.849 545.931 595.489 545.383 595C544.835 594.51 544.563 593.851 544.567 593.022C544.563 592.342 544.744 591.749 545.109 591.241C545.478 590.733 545.984 590.337 546.627 590.052C547.27 589.767 548.001 589.624 548.819 589.624C549.652 589.624 550.379 589.767 551 590.052C551.625 590.337 552.11 590.733 552.457 591.241C552.805 591.749 552.984 592.337 552.994 593.005H550.72ZM560.369 593.005C560.325 592.563 560.137 592.22 559.804 591.975C559.472 591.73 559.021 591.608 558.451 591.608C558.064 591.608 557.737 591.663 557.47 591.772C557.203 591.878 556.999 592.026 556.856 592.216C556.718 592.406 556.648 592.622 556.648 592.863C556.641 593.064 556.683 593.239 556.774 593.389C556.869 593.539 556.999 593.668 557.163 593.778C557.328 593.884 557.518 593.977 557.733 594.057C557.949 594.134 558.179 594.2 558.423 594.255L559.432 594.496C559.921 594.605 560.371 594.751 560.78 594.934C561.189 595.117 561.543 595.341 561.843 595.608C562.142 595.875 562.374 596.189 562.539 596.551C562.707 596.912 562.793 597.327 562.796 597.794C562.793 598.481 562.617 599.077 562.27 599.581C561.927 600.081 561.43 600.47 560.78 600.748C560.133 601.022 559.353 601.159 558.44 601.159C557.534 601.159 556.745 601.02 556.073 600.742C555.404 600.465 554.882 600.054 554.506 599.51C554.133 598.962 553.938 598.284 553.919 597.477H556.215C556.241 597.853 556.349 598.167 556.539 598.419C556.732 598.668 556.99 598.856 557.311 598.984C557.636 599.108 558.003 599.17 558.413 599.17C558.814 599.17 559.163 599.111 559.459 598.994C559.759 598.878 559.991 598.715 560.155 598.507C560.319 598.299 560.402 598.059 560.402 597.789C560.402 597.537 560.327 597.325 560.177 597.153C560.031 596.982 559.815 596.836 559.53 596.715C559.249 596.594 558.904 596.485 558.495 596.386L557.273 596.079C556.327 595.849 555.58 595.489 555.032 595C554.484 594.51 554.212 593.851 554.215 593.022C554.212 592.342 554.392 591.749 554.758 591.241C555.127 590.733 555.633 590.337 556.275 590.052C556.918 589.767 557.649 589.624 558.467 589.624C559.3 589.624 560.027 589.767 560.648 590.052C561.273 590.337 561.759 590.733 562.106 591.241C562.453 591.749 562.632 592.337 562.643 593.005H560.369ZM400.734 620.164C399.872 620.164 399.131 619.982 398.51 619.616C397.892 619.247 397.417 618.736 397.085 618.082C396.756 617.428 396.592 616.676 396.592 615.825C396.592 614.962 396.758 614.206 397.09 613.556C397.427 612.902 397.903 612.393 398.521 612.027C399.138 611.658 399.872 611.474 400.723 611.474C401.458 611.474 402.101 611.607 402.652 611.874C403.204 612.14 403.64 612.515 403.962 612.997C404.283 613.479 404.46 614.046 404.493 614.696H402.291C402.228 614.276 402.064 613.938 401.797 613.682C401.534 613.423 401.189 613.293 400.762 613.293C400.4 613.293 400.084 613.392 399.814 613.589C399.547 613.783 399.339 614.066 399.189 614.438C399.039 614.811 398.964 615.262 398.964 615.792C398.964 616.329 399.038 616.785 399.184 617.162C399.333 617.538 399.543 617.825 399.814 618.022C400.084 618.219 400.4 618.318 400.762 618.318C401.028 618.318 401.268 618.263 401.48 618.153C401.695 618.044 401.872 617.885 402.011 617.677C402.154 617.465 402.247 617.211 402.291 616.915H404.493C404.457 617.558 404.281 618.124 403.967 618.614C403.657 619.1 403.228 619.479 402.68 619.753C402.132 620.027 401.483 620.164 400.734 620.164ZM409.328 620.164C408.477 620.164 407.741 619.984 407.12 619.622C406.502 619.257 406.025 618.749 405.689 618.099C405.353 617.445 405.185 616.687 405.185 615.825C405.185 614.955 405.353 614.195 405.689 613.545C406.025 612.891 406.502 612.383 407.12 612.022C407.741 611.656 408.477 611.474 409.328 611.474C410.179 611.474 410.913 611.656 411.531 612.022C412.152 612.383 412.63 612.891 412.966 613.545C413.302 614.195 413.47 614.955 413.47 615.825C413.47 616.687 413.302 617.445 412.966 618.099C412.63 618.749 412.152 619.257 411.531 619.622C410.913 619.984 410.179 620.164 409.328 620.164ZM409.339 618.356C409.726 618.356 410.049 618.247 410.309 618.027C410.568 617.805 410.763 617.501 410.895 617.118C411.03 616.734 411.098 616.298 411.098 615.808C411.098 615.319 411.03 614.882 410.895 614.499C410.763 614.115 410.568 613.812 410.309 613.589C410.049 613.366 409.726 613.255 409.339 613.255C408.948 613.255 408.619 613.366 408.352 613.589C408.089 613.812 407.89 614.115 407.755 614.499C407.624 614.882 407.558 615.319 407.558 615.808C407.558 616.298 407.624 616.734 407.755 617.118C407.89 617.501 408.089 617.805 408.352 618.027C408.619 618.247 408.948 618.356 409.339 618.356ZM414.525 620V611.583H416.75V613.068H416.849C417.024 612.575 417.316 612.186 417.725 611.901C418.134 611.616 418.624 611.474 419.194 611.474C419.771 611.474 420.262 611.618 420.668 611.907C421.073 612.192 421.344 612.579 421.479 613.068H421.566C421.738 612.586 422.049 612.201 422.498 611.912C422.951 611.62 423.486 611.474 424.104 611.474C424.889 611.474 425.526 611.724 426.016 612.225C426.509 612.721 426.756 613.426 426.756 614.34V620H424.427V614.8C424.427 614.332 424.303 613.982 424.054 613.748C423.806 613.514 423.495 613.397 423.123 613.397C422.699 613.397 422.368 613.532 422.131 613.803C421.893 614.069 421.775 614.422 421.775 614.86V620H419.512V614.751C419.512 614.338 419.393 614.009 419.155 613.764C418.922 613.52 418.613 613.397 418.229 613.397C417.97 613.397 417.736 613.463 417.528 613.594C417.323 613.722 417.161 613.903 417.04 614.137C416.92 614.367 416.86 614.637 416.86 614.948V620H414.525ZM428.137 623.156V611.583H430.438V612.997H430.542C430.644 612.771 430.792 612.54 430.986 612.307C431.183 612.069 431.439 611.872 431.753 611.715C432.071 611.554 432.465 611.474 432.937 611.474C433.55 611.474 434.117 611.635 434.635 611.956C435.154 612.274 435.569 612.754 435.879 613.397C436.19 614.036 436.345 614.838 436.345 615.803C436.345 616.741 436.193 617.534 435.89 618.181C435.591 618.824 435.181 619.311 434.663 619.644C434.148 619.973 433.57 620.137 432.931 620.137C432.478 620.137 432.093 620.062 431.775 619.912C431.461 619.763 431.203 619.574 431.002 619.348C430.801 619.118 430.648 618.886 430.542 618.652H430.471V623.156H428.137ZM430.422 615.792C430.422 616.292 430.491 616.729 430.63 617.101C430.769 617.474 430.97 617.764 431.233 617.973C431.496 618.177 431.815 618.279 432.191 618.279C432.571 618.279 432.893 618.175 433.156 617.967C433.419 617.755 433.618 617.463 433.753 617.09C433.892 616.714 433.961 616.281 433.961 615.792C433.961 615.306 433.894 614.878 433.759 614.509C433.623 614.141 433.424 613.852 433.161 613.644C432.898 613.435 432.575 613.331 432.191 613.331C431.812 613.331 431.49 613.432 431.227 613.633C430.968 613.834 430.769 614.119 430.63 614.488C430.491 614.857 430.422 615.291 430.422 615.792ZM441.241 620.164C440.39 620.164 439.654 619.984 439.033 619.622C438.415 619.257 437.939 618.749 437.603 618.099C437.267 617.445 437.099 616.687 437.099 615.825C437.099 614.955 437.267 614.195 437.603 613.545C437.939 612.891 438.415 612.383 439.033 612.022C439.654 611.656 440.39 611.474 441.241 611.474C442.092 611.474 442.826 611.656 443.444 612.022C444.065 612.383 444.543 612.891 444.879 613.545C445.216 614.195 445.384 614.955 445.384 615.825C445.384 616.687 445.216 617.445 444.879 618.099C444.543 618.749 444.065 619.257 443.444 619.622C442.826 619.984 442.092 620.164 441.241 620.164ZM441.252 618.356C441.639 618.356 441.963 618.247 442.222 618.027C442.481 617.805 442.677 617.501 442.808 617.118C442.943 616.734 443.011 616.298 443.011 615.808C443.011 615.319 442.943 614.882 442.808 614.499C442.677 614.115 442.481 613.812 442.222 613.589C441.963 613.366 441.639 613.255 441.252 613.255C440.861 613.255 440.532 613.366 440.266 613.589C440.003 613.812 439.804 614.115 439.668 614.499C439.537 614.882 439.471 615.319 439.471 615.808C439.471 616.298 439.537 616.734 439.668 617.118C439.804 617.501 440.003 617.805 440.266 618.027C440.532 618.247 440.861 618.356 441.252 618.356ZM448.773 615.134V620H446.439V611.583H448.663V613.068H448.762C448.948 612.579 449.261 612.192 449.699 611.907C450.137 611.618 450.669 611.474 451.293 611.474C451.878 611.474 452.388 611.602 452.822 611.857C453.257 612.113 453.595 612.478 453.836 612.953C454.077 613.425 454.198 613.987 454.198 614.641V620H451.863V615.057C451.867 614.542 451.735 614.141 451.469 613.852C451.202 613.56 450.835 613.414 450.367 613.414C450.053 613.414 449.776 613.481 449.534 613.616C449.297 613.751 449.111 613.949 448.976 614.208C448.844 614.464 448.776 614.772 448.773 615.134ZM459.41 620.164C458.544 620.164 457.799 619.989 457.174 619.638C456.553 619.284 456.075 618.784 455.739 618.137C455.403 617.487 455.235 616.718 455.235 615.83C455.235 614.964 455.403 614.204 455.739 613.551C456.075 612.897 456.548 612.387 457.158 612.022C457.772 611.656 458.491 611.474 459.317 611.474C459.872 611.474 460.389 611.563 460.868 611.742C461.35 611.918 461.77 612.182 462.128 612.537C462.49 612.891 462.771 613.337 462.972 613.874C463.173 614.407 463.273 615.032 463.273 615.748V616.389H456.166V614.942H461.076C461.076 614.606 461.003 614.309 460.857 614.049C460.711 613.79 460.508 613.587 460.249 613.441C459.993 613.291 459.695 613.216 459.355 613.216C459.001 613.216 458.687 613.298 458.413 613.463C458.143 613.624 457.931 613.841 457.777 614.115C457.624 614.385 457.545 614.687 457.542 615.019V616.394C457.542 616.811 457.618 617.171 457.772 617.474C457.929 617.777 458.15 618.011 458.435 618.175C458.72 618.34 459.058 618.422 459.449 618.422C459.708 618.422 459.945 618.385 460.161 618.312C460.376 618.239 460.561 618.13 460.714 617.984C460.868 617.837 460.985 617.658 461.065 617.447L463.224 617.589C463.114 618.108 462.89 618.561 462.55 618.948C462.214 619.331 461.779 619.631 461.246 619.847C460.716 620.058 460.104 620.164 459.41 620.164ZM466.668 615.134V620H464.334V611.583H466.558V613.068H466.657C466.843 612.579 467.156 612.192 467.594 611.907C468.032 611.618 468.564 611.474 469.189 611.474C469.773 611.474 470.283 611.602 470.717 611.857C471.152 612.113 471.49 612.478 471.731 612.953C471.972 613.425 472.093 613.987 472.093 614.641V620H469.758V615.057C469.762 614.542 469.631 614.141 469.364 613.852C469.097 613.56 468.73 613.414 468.262 613.414C467.948 613.414 467.671 613.481 467.43 613.616C467.192 613.751 467.006 613.949 466.871 614.208C466.739 614.464 466.672 614.772 466.668 615.134ZM477.946 611.583V613.337H472.878V611.583H477.946ZM474.028 609.567H476.363V617.414C476.363 617.629 476.396 617.797 476.461 617.918C476.527 618.035 476.618 618.117 476.735 618.164C476.856 618.212 476.995 618.236 477.152 618.236C477.261 618.236 477.371 618.226 477.481 618.208C477.59 618.186 477.674 618.17 477.733 618.159L478.1 619.896C477.983 619.932 477.818 619.974 477.607 620.022C477.395 620.073 477.137 620.104 476.834 620.115C476.271 620.137 475.778 620.062 475.355 619.89C474.934 619.719 474.607 619.452 474.374 619.09C474.14 618.729 474.025 618.272 474.028 617.721V609.567ZM485.901 613.983L483.764 614.115C483.728 613.932 483.649 613.768 483.529 613.622C483.408 613.472 483.249 613.353 483.052 613.266C482.858 613.174 482.626 613.129 482.356 613.129C481.994 613.129 481.689 613.205 481.441 613.359C481.193 613.509 481.068 613.709 481.068 613.962C481.068 614.162 481.149 614.332 481.31 614.471C481.47 614.61 481.746 614.721 482.137 614.805L483.66 615.112C484.479 615.28 485.089 615.551 485.49 615.923C485.892 616.296 486.093 616.785 486.093 617.392C486.093 617.943 485.931 618.427 485.606 618.844C485.284 619.26 484.842 619.585 484.279 619.819C483.721 620.049 483.076 620.164 482.345 620.164C481.231 620.164 480.343 619.932 479.682 619.468C479.025 619.001 478.639 618.365 478.526 617.562L480.822 617.441C480.891 617.781 481.059 618.04 481.326 618.219C481.593 618.394 481.934 618.482 482.351 618.482C482.76 618.482 483.089 618.404 483.337 618.247C483.589 618.086 483.717 617.879 483.721 617.627C483.717 617.415 483.627 617.242 483.452 617.107C483.277 616.968 483.006 616.862 482.641 616.789L481.184 616.499C480.362 616.334 479.75 616.049 479.348 615.644C478.95 615.238 478.751 614.721 478.751 614.093C478.751 613.552 478.897 613.087 479.189 612.696C479.485 612.305 479.899 612.003 480.433 611.792C480.97 611.58 481.598 611.474 482.318 611.474C483.381 611.474 484.217 611.698 484.827 612.148C485.441 612.597 485.799 613.209 485.901 613.983ZM488.465 620.142C488.103 620.142 487.792 620.015 487.533 619.759C487.277 619.5 487.149 619.189 487.149 618.827C487.149 618.469 487.277 618.163 487.533 617.907C487.792 617.651 488.103 617.523 488.465 617.523C488.815 617.523 489.122 617.651 489.385 617.907C489.648 618.163 489.78 618.469 489.78 618.827C489.78 619.068 489.718 619.289 489.593 619.49C489.473 619.688 489.314 619.847 489.117 619.967C488.919 620.084 488.702 620.142 488.465 620.142Z" fill="#5A5A5A"/>
</g>
<path d="M243.5 181C243.5 167.469 254.469 156.5 268 156.5H1323C1336.53 156.5 1347.5 167.469 1347.5 181V1059.5H243.5V181Z" stroke="#BFC3C9" shape-rendering="crispEdges"/>
</g>
</g>
<defs>
<filter id="filter0_d_211_361" x="131.183" y="66.5465" width="1328.63" height="1127.63" filterUnits="userSpaceOnUse" color-interpolation-filters="sRGB">
<feFlood flood-opacity="0" result="BackgroundImageFix"/>
<feColorMatrix in="SourceAlpha" type="matrix" values="0 0 0 0 0 0 0 0 0 0 0 0 0 0 0 0 0 0 127 0" result="hardAlpha"/>
<feOffset dy="22.3634"/>
<feGaussianBlur stdDeviation="55.9085"/>
<feComposite in2="hardAlpha" operator="out"/>
<feColorMatrix type="matrix" values="0 0 0 0 0 0 0 0 0 0 0 0 0 0 0 0 0 0 0.15 0"/>
<feBlend mode="normal" in2="BackgroundImageFix" result="effect1_dropShadow_211_361"/>
<feBlend mode="normal" in="SourceGraphic" in2="effect1_dropShadow_211_361" result="shape"/>
</filter>
<clipPath id="clip0_211_361">
<rect width="1536" height="1024" fill="white"/>
</clipPath>
<clipPath id="clip1_211_361">
<path d="M243 181C243 167.193 254.193 156 268 156H1323C1336.81 156 1348 167.193 1348 181V1060H243V181Z" fill="white"/>
</clipPath>
</defs>
</svg>
