<svg width="1536" height="1024" viewBox="0 0 1536 1024" fill="none" xmlns="http://www.w3.org/2000/svg">
<g clip-path="url(#clip0_215_137)">
<g filter="url(#filter0_d_215_137)">
<g clip-path="url(#clip1_215_137)">
<path d="M243 181C243 167.193 254.193 156 268 156H1323C1336.81 156 1348 167.193 1348 181V1060H243V181Z" fill="#F9FAFB"/>
<mask id="path-4-inside-1_215_137" fill="white">
<path d="M243 156H1348V218H243V156Z"/>
</mask>
<path d="M243 156H1348V218H243V156Z" fill="white"/>
<circle cx="293" cy="187" r="10" fill="#D1D5DB"/>
<circle cx="294" cy="187" r="10" fill="#D1D5DB"/>
<circle cx="319" cy="187" r="10" fill="#D1D5DB"/>
<circle cx="344" cy="187" r="10" fill="#D1D5DB"/>
<path d="M1348 217H243V219H1348V217Z" fill="#D1D5DB" mask="url(#path-4-inside-1_215_137)"/>
<g clip-path="url(#clip2_215_137)">
<rect x="354.5" y="415.5" width="883" height="385" rx="24.5" fill="white" stroke="#BFC3C9"/>
<rect x="614" y="596" width="365" height="12" rx="6" fill="#D1D5DB"/>
<rect x="895" y="651" width="84" height="50" rx="10" fill="#eb542b"/>
<rect x="614" y="651" width="272" height="50" rx="10" fill="#DBDEE3"/>
<path d="M615.87 526.099H622.537V548.342C622.537 550.399 622.075 552.185 621.15 553.701C620.236 555.217 618.964 556.385 617.334 557.206C615.704 558.026 613.808 558.436 611.649 558.436C609.727 558.436 607.983 558.099 606.415 557.424C604.857 556.738 603.621 555.7 602.707 554.308C601.794 552.906 601.342 551.146 601.352 549.028H608.066C608.087 549.869 608.258 550.591 608.58 551.193C608.912 551.785 609.364 552.242 609.935 552.564C610.517 552.875 611.202 553.031 611.991 553.031C612.822 553.031 613.523 552.854 614.094 552.501C614.676 552.138 615.117 551.608 615.418 550.913C615.719 550.217 615.87 549.36 615.87 548.342V526.099ZM637.483 558.467C635.063 558.467 632.971 557.953 631.205 556.925C629.45 555.887 628.095 554.443 627.14 552.595C626.185 550.736 625.707 548.581 625.707 546.131C625.707 543.659 626.185 541.499 627.14 539.651C628.095 537.792 629.45 536.348 631.205 535.32C632.971 534.282 635.063 533.763 637.483 533.763C639.902 533.763 641.99 534.282 643.745 535.32C645.51 536.348 646.87 537.792 647.826 539.651C648.781 541.499 649.259 543.659 649.259 546.131C649.259 548.581 648.781 550.736 647.826 552.595C646.87 554.443 645.51 555.887 643.745 556.925C641.99 557.953 639.902 558.467 637.483 558.467ZM637.514 553.327C638.615 553.327 639.534 553.015 640.271 552.392C641.008 551.759 641.564 550.897 641.938 549.807C642.322 548.716 642.514 547.475 642.514 546.084C642.514 544.692 642.322 543.451 641.938 542.361C641.564 541.271 641.008 540.409 640.271 539.775C639.534 539.142 638.615 538.825 637.514 538.825C636.403 538.825 635.468 539.142 634.71 539.775C633.962 540.409 633.397 541.271 633.012 542.361C632.638 543.451 632.452 544.692 632.452 546.084C632.452 547.475 632.638 548.716 633.012 549.807C633.397 550.897 633.962 551.759 634.71 552.392C635.468 553.015 636.403 553.327 637.514 553.327ZM652.258 558V534.074H658.893V558H652.258ZM655.591 530.99C654.605 530.99 653.758 530.663 653.052 530.009C652.356 529.344 652.008 528.55 652.008 527.625C652.008 526.712 652.356 525.928 653.052 525.273C653.758 524.609 654.605 524.276 655.591 524.276C656.578 524.276 657.419 524.609 658.115 525.273C658.821 525.928 659.174 526.712 659.174 527.625C659.174 528.55 658.821 529.344 658.115 530.009C657.419 530.663 656.578 530.99 655.591 530.99ZM669.529 544.168V558H662.893V534.074H669.217V538.295H669.498C670.027 536.904 670.915 535.803 672.161 534.993C673.407 534.173 674.918 533.763 676.694 533.763C678.356 533.763 679.804 534.126 681.04 534.853C682.276 535.58 683.236 536.618 683.922 537.968C684.607 539.308 684.95 540.907 684.95 542.766V558H678.314V543.95C678.324 542.486 677.951 541.343 677.192 540.523C676.434 539.692 675.391 539.277 674.062 539.277C673.168 539.277 672.379 539.469 671.694 539.853C671.019 540.237 670.489 540.798 670.105 541.535C669.731 542.262 669.539 543.14 669.529 544.168ZM708.51 558.467C706.091 558.467 703.998 557.953 702.233 556.925C700.478 555.887 699.123 554.443 698.167 552.595C697.212 550.736 696.734 548.581 696.734 546.131C696.734 543.659 697.212 541.499 698.167 539.651C699.123 537.792 700.478 536.348 702.233 535.32C703.998 534.282 706.091 533.763 708.51 533.763C710.93 533.763 713.017 534.282 714.772 535.32C716.537 536.348 717.898 537.792 718.853 539.651C719.808 541.499 720.286 543.659 720.286 546.131C720.286 548.581 719.808 550.736 718.853 552.595C717.898 554.443 716.537 555.887 714.772 556.925C713.017 557.953 710.93 558.467 708.51 558.467ZM708.541 553.327C709.642 553.327 710.561 553.015 711.298 552.392C712.036 551.759 712.591 550.897 712.965 549.807C713.349 548.716 713.541 547.475 713.541 546.084C713.541 544.692 713.349 543.451 712.965 542.361C712.591 541.271 712.036 540.409 711.298 539.775C710.561 539.142 709.642 538.825 708.541 538.825C707.43 538.825 706.496 539.142 705.737 539.775C704.99 540.409 704.424 541.271 704.04 542.361C703.666 543.451 703.479 544.692 703.479 546.084C703.479 547.475 703.666 548.716 704.04 549.807C704.424 550.897 704.99 551.759 705.737 552.392C706.496 553.015 707.43 553.327 708.541 553.327ZM738.628 547.813V534.074H745.264V558H738.893V553.654H738.644C738.104 555.056 737.205 556.183 735.949 557.034C734.703 557.886 733.181 558.312 731.385 558.312C729.786 558.312 728.379 557.948 727.164 557.221C725.949 556.494 724.998 555.461 724.313 554.121C723.638 552.782 723.295 551.177 723.285 549.308V534.074H729.921V548.124C729.931 549.537 730.31 550.653 731.058 551.473C731.805 552.294 732.808 552.704 734.064 552.704C734.864 552.704 735.611 552.522 736.307 552.159C737.003 551.785 737.564 551.235 737.989 550.508C738.426 549.781 738.638 548.882 738.628 547.813ZM749.256 558V534.074H755.689V538.249H755.938C756.374 536.764 757.106 535.642 758.134 534.884C759.162 534.116 760.346 533.731 761.686 533.731C762.018 533.731 762.376 533.752 762.761 533.794C763.145 533.835 763.482 533.892 763.773 533.965V539.853C763.462 539.76 763.031 539.677 762.48 539.604C761.93 539.531 761.426 539.495 760.969 539.495C759.993 539.495 759.121 539.708 758.352 540.133C757.594 540.549 756.992 541.13 756.545 541.878C756.109 542.626 755.891 543.488 755.891 544.464V558H749.256ZM781.36 544.168V558H774.724V534.074H781.048V538.295H781.329C781.858 536.904 782.746 535.803 783.992 534.993C785.238 534.173 786.749 533.763 788.525 533.763C790.187 533.763 791.635 534.126 792.871 534.853C794.107 535.58 795.067 536.618 795.753 537.968C796.438 539.308 796.781 540.907 796.781 542.766V558H790.145V543.95C790.155 542.486 789.782 541.343 789.024 540.523C788.265 539.692 787.222 539.277 785.893 539.277C785 539.277 784.21 539.469 783.525 539.853C782.85 540.237 782.32 540.798 781.936 541.535C781.562 542.262 781.37 543.14 781.36 544.168ZM811.598 558.467C809.137 558.467 807.019 557.969 805.243 556.972C803.478 555.965 802.117 554.542 801.162 552.704C800.207 550.855 799.729 548.67 799.729 546.146C799.729 543.685 800.207 541.525 801.162 539.666C802.117 537.807 803.462 536.359 805.196 535.32C806.941 534.282 808.987 533.763 811.334 533.763C812.912 533.763 814.382 534.017 815.742 534.526C817.113 535.024 818.307 535.777 819.325 536.784C820.353 537.792 821.152 539.059 821.723 540.585C822.294 542.101 822.58 543.877 822.58 545.912V547.735H802.377V543.623H816.334C816.334 542.667 816.126 541.821 815.711 541.084C815.295 540.346 814.719 539.77 813.982 539.355C813.255 538.929 812.408 538.716 811.443 538.716C810.435 538.716 809.542 538.95 808.763 539.417C807.995 539.874 807.393 540.492 806.957 541.271C806.52 542.039 806.297 542.896 806.287 543.841V547.751C806.287 548.934 806.505 549.957 806.941 550.819C807.388 551.681 808.016 552.346 808.826 552.813C809.636 553.28 810.596 553.514 811.708 553.514C812.445 553.514 813.12 553.41 813.732 553.202C814.345 552.995 814.87 552.683 815.306 552.268C815.742 551.852 816.074 551.344 816.303 550.741L822.44 551.146C822.128 552.621 821.49 553.909 820.524 555.009C819.569 556.1 818.333 556.951 816.817 557.564C815.311 558.166 813.572 558.467 811.598 558.467ZM830.143 558L823.632 534.074H830.345L834.053 550.149H834.271L838.134 534.074H844.723L848.648 550.056H848.851L852.495 534.074H859.193L852.698 558H845.673L841.561 542.953H841.265L837.152 558H830.143ZM881.324 540.897L875.25 541.271C875.146 540.751 874.922 540.284 874.58 539.869C874.237 539.443 873.785 539.105 873.225 538.856C872.674 538.597 872.015 538.467 871.246 538.467C870.218 538.467 869.351 538.685 868.645 539.121C867.939 539.547 867.586 540.118 867.586 540.834C867.586 541.406 867.814 541.888 868.271 542.283C868.728 542.678 869.512 542.994 870.623 543.233L874.954 544.106C877.28 544.583 879.014 545.352 880.156 546.411C881.298 547.47 881.87 548.862 881.87 550.585C881.87 552.154 881.408 553.529 880.483 554.713C879.569 555.897 878.313 556.821 876.714 557.486C875.125 558.14 873.292 558.467 871.215 558.467C868.048 558.467 865.524 557.808 863.645 556.489C861.776 555.16 860.68 553.353 860.358 551.068L866.885 550.726C867.082 551.691 867.56 552.429 868.318 552.938C869.076 553.436 870.047 553.685 871.231 553.685C872.394 553.685 873.328 553.462 874.035 553.015C874.751 552.559 875.115 551.972 875.125 551.255C875.115 550.653 874.86 550.16 874.362 549.775C873.863 549.381 873.095 549.08 872.056 548.872L867.913 548.046C865.576 547.579 863.837 546.769 862.695 545.616C861.563 544.464 860.997 542.994 860.997 541.208C860.997 539.671 861.412 538.347 862.243 537.236C863.084 536.125 864.263 535.268 865.779 534.666C867.305 534.064 869.092 533.763 871.137 533.763C874.159 533.763 876.537 534.401 878.271 535.679C880.016 536.956 881.034 538.695 881.324 540.897ZM891.368 526.099V558H884.732V526.099H891.368ZM906.271 558.467C903.81 558.467 901.692 557.969 899.916 556.972C898.151 555.965 896.79 554.542 895.835 552.704C894.879 550.855 894.402 548.67 894.402 546.146C894.402 543.685 894.879 541.525 895.835 539.666C896.79 537.807 898.135 536.359 899.869 535.32C901.614 534.282 903.659 533.763 906.006 533.763C907.585 533.763 909.054 534.017 910.415 534.526C911.785 535.024 912.98 535.777 913.997 536.784C915.025 537.792 915.825 539.059 916.396 540.585C916.967 542.101 917.253 543.877 917.253 545.912V547.735H897.05V543.623H911.007C911.007 542.667 910.799 541.821 910.383 541.084C909.968 540.346 909.392 539.77 908.654 539.355C907.928 538.929 907.081 538.716 906.115 538.716C905.108 538.716 904.215 538.95 903.436 539.417C902.668 539.874 902.065 540.492 901.629 541.271C901.193 542.039 900.97 542.896 900.96 543.841V547.751C900.96 548.934 901.178 549.957 901.614 550.819C902.06 551.681 902.689 552.346 903.499 552.813C904.309 553.28 905.269 553.514 906.38 553.514C907.118 553.514 907.793 553.41 908.405 553.202C909.018 552.995 909.542 552.683 909.978 552.268C910.415 551.852 910.747 551.344 910.975 550.741L917.113 551.146C916.801 552.621 916.162 553.909 915.197 555.009C914.241 556.1 913.006 556.951 911.489 557.564C909.984 558.166 908.244 558.467 906.271 558.467ZM932.993 534.074V539.059H918.585V534.074H932.993ZM921.856 528.342H928.492V550.648C928.492 551.26 928.585 551.738 928.772 552.081C928.959 552.413 929.219 552.647 929.551 552.782C929.894 552.917 930.288 552.984 930.735 552.984C931.046 552.984 931.358 552.958 931.669 552.906C931.981 552.844 932.22 552.797 932.386 552.766L933.43 557.704C933.097 557.808 932.63 557.927 932.028 558.062C931.425 558.208 930.693 558.296 929.831 558.327C928.232 558.389 926.83 558.177 925.626 557.688C924.431 557.2 923.502 556.442 922.837 555.414C922.173 554.386 921.846 553.088 921.856 551.52V528.342ZM948.726 534.074V539.059H934.318V534.074H948.726ZM937.589 528.342H944.225V550.648C944.225 551.26 944.318 551.738 944.505 552.081C944.692 552.413 944.951 552.647 945.284 552.782C945.626 552.917 946.021 552.984 946.468 552.984C946.779 552.984 947.091 552.958 947.402 552.906C947.714 552.844 947.953 552.797 948.119 552.766L949.162 557.704C948.83 557.808 948.363 557.927 947.76 558.062C947.158 558.208 946.426 558.296 945.564 558.327C943.965 558.389 942.563 558.177 941.358 557.688C940.164 557.2 939.235 556.442 938.57 555.414C937.906 554.386 937.578 553.088 937.589 551.52V528.342ZM962.38 558.467C959.918 558.467 957.8 557.969 956.024 556.972C954.259 555.965 952.898 554.542 951.943 552.704C950.988 550.855 950.51 548.67 950.51 546.146C950.51 543.685 950.988 541.525 951.943 539.666C952.898 537.807 954.243 536.359 955.977 535.32C957.722 534.282 959.768 533.763 962.115 533.763C963.693 533.763 965.163 534.017 966.523 534.526C967.894 535.024 969.088 535.777 970.106 536.784C971.134 537.792 971.933 539.059 972.504 540.585C973.076 542.101 973.361 543.877 973.361 545.912V547.735H953.158V543.623H967.115C967.115 542.667 966.907 541.821 966.492 541.084C966.076 540.346 965.5 539.77 964.763 539.355C964.036 538.929 963.19 538.716 962.224 538.716C961.216 538.716 960.323 538.95 959.545 539.417C958.776 539.874 958.174 540.492 957.738 541.271C957.302 542.039 957.078 542.896 957.068 543.841V547.751C957.068 548.934 957.286 549.957 957.722 550.819C958.169 551.681 958.797 552.346 959.607 552.813C960.417 553.28 961.377 553.514 962.489 553.514C963.226 553.514 963.901 553.41 964.514 553.202C965.126 552.995 965.651 552.683 966.087 552.268C966.523 551.852 966.855 551.344 967.084 550.741L973.221 551.146C972.909 552.621 972.271 553.909 971.305 555.009C970.35 556.1 969.114 556.951 967.598 557.564C966.092 558.166 964.353 558.467 962.38 558.467ZM976.376 558V534.074H982.809V538.249H983.058C983.494 536.764 984.226 535.642 985.254 534.884C986.282 534.116 987.466 533.731 988.806 533.731C989.138 533.731 989.496 533.752 989.881 533.794C990.265 533.835 990.602 533.892 990.893 533.965V539.853C990.582 539.76 990.151 539.677 989.6 539.604C989.05 539.531 988.546 539.495 988.089 539.495C987.113 539.495 986.241 539.708 985.472 540.133C984.714 540.549 984.112 541.13 983.665 541.878C983.229 542.626 983.011 543.488 983.011 544.464V558H976.376Z" fill="#5A5A5A"/>
</g>
</g>
<path d="M243.5 181C243.5 167.469 254.469 156.5 268 156.5H1323C1336.53 156.5 1347.5 167.469 1347.5 181V1059.5H243.5V181Z" stroke="#BFC3C9" shape-rendering="crispEdges"/>
</g>
</g>
<defs>
<filter id="filter0_d_215_137" x="131.183" y="66.5465" width="1328.63" height="1127.63" filterUnits="userSpaceOnUse" color-interpolation-filters="sRGB">
<feFlood flood-opacity="0" result="BackgroundImageFix"/>
<feColorMatrix in="SourceAlpha" type="matrix" values="0 0 0 0 0 0 0 0 0 0 0 0 0 0 0 0 0 0 127 0" result="hardAlpha"/>
<feOffset dy="22.3634"/>
<feGaussianBlur stdDeviation="55.9085"/>
<feComposite in2="hardAlpha" operator="out"/>
<feColorMatrix type="matrix" values="0 0 0 0 0 0 0 0 0 0 0 0 0 0 0 0 0 0 0.15 0"/>
<feBlend mode="normal" in2="BackgroundImageFix" result="effect1_dropShadow_215_137"/>
<feBlend mode="normal" in="SourceGraphic" in2="effect1_dropShadow_215_137" result="shape"/>
</filter>
<clipPath id="clip0_215_137">
<rect width="1536" height="1024" fill="white"/>
</clipPath>
<clipPath id="clip1_215_137">
<path d="M243 181C243 167.193 254.193 156 268 156H1323C1336.81 156 1348 167.193 1348 181V1060H243V181Z" fill="white"/>
</clipPath>
<clipPath id="clip2_215_137">
<rect width="884" height="386" fill="white" transform="translate(354 415)"/>
</clipPath>
</defs>
</svg>
