<svg width="1536" height="1024" viewBox="0 0 1536 1024" fill="none" xmlns="http://www.w3.org/2000/svg">
<g clip-path="url(#clip0_218_360)">
<g filter="url(#filter0_d_218_360)">
<g clip-path="url(#clip1_218_360)">
<path d="M228 181C228 167.193 239.193 156 253 156H1308C1321.81 156 1333 167.193 1333 181V1060H228V181Z" fill="#F9FAFB"/>
<mask id="path-4-inside-1_218_360" fill="white">
<path d="M228 156H1333V218H228V156Z"/>
</mask>
<path d="M228 156H1333V218H228V156Z" fill="white"/>
<circle cx="278" cy="187" r="10" fill="#D1D5DB"/>
<circle cx="279" cy="187" r="10" fill="#D1D5DB"/>
<circle cx="304" cy="187" r="10" fill="#D1D5DB"/>
<circle cx="329" cy="187" r="10" fill="#D1D5DB"/>
<path d="M1333 217H228V219H1333V217Z" fill="#D1D5DB" mask="url(#path-4-inside-1_218_360)"/>
<path d="M406.5 589.652C406.5 580.179 414.179 572.5 423.652 572.5H555.542V642.108H423.652C414.179 642.108 406.5 634.429 406.5 624.956V589.652Z" fill="white" stroke="#D1D5DB"/>
<path d="M476.693 611.111V608.463L487.284 603.799V606.845L480.033 609.757L480.13 609.599V609.975L480.033 609.817L487.284 612.728V615.774L476.693 611.111Z" fill="black"/>
<rect x="555.543" y="572.5" width="149.042" height="69.608" fill="white" stroke="#D1D5DB"/>
<path d="M633.8 600.542V615.947H630.543V603.633H630.453L626.925 605.845V602.956L630.739 600.542H633.8Z" fill="black"/>
<rect x="855.629" y="572.5" width="149.042" height="69.608" fill="white" stroke="#D1D5DB"/>
<path d="M930.579 616.158C929.455 616.158 928.455 615.965 927.577 615.579C926.705 615.188 926.015 614.651 925.509 613.969C925.007 613.282 924.749 612.49 924.734 611.592H928.014C928.034 611.968 928.156 612.299 928.382 612.585C928.613 612.866 928.919 613.084 929.3 613.239C929.681 613.395 930.11 613.472 930.586 613.472C931.083 613.472 931.521 613.385 931.903 613.209C932.284 613.034 932.582 612.79 932.798 612.48C933.013 612.169 933.121 611.81 933.121 611.404C933.121 610.993 933.006 610.629 932.775 610.313C932.549 609.992 932.223 609.741 931.797 609.561C931.376 609.38 930.875 609.29 930.293 609.29H928.856V606.898H930.293C930.784 606.898 931.218 606.813 931.594 606.642C931.975 606.472 932.271 606.236 932.482 605.935C932.692 605.629 932.798 605.273 932.798 604.867C932.798 604.481 932.705 604.142 932.519 603.852C932.339 603.556 932.083 603.325 931.752 603.16C931.426 602.994 931.045 602.911 930.609 602.911C930.167 602.911 929.764 602.992 929.398 603.152C929.032 603.308 928.738 603.531 928.518 603.822C928.297 604.112 928.179 604.453 928.164 604.845H925.042C925.057 603.957 925.311 603.175 925.802 602.498C926.294 601.821 926.955 601.292 927.788 600.91C928.625 600.524 929.571 600.331 930.624 600.331C931.687 600.331 932.617 600.524 933.414 600.91C934.212 601.297 934.831 601.818 935.272 602.475C935.719 603.127 935.939 603.859 935.934 604.672C935.939 605.534 935.671 606.254 935.13 606.83C934.593 607.407 933.893 607.773 933.031 607.929V608.049C934.164 608.194 935.027 608.588 935.618 609.23C936.215 609.867 936.511 610.664 936.506 611.622C936.511 612.5 936.258 613.279 935.746 613.961C935.24 614.643 934.54 615.18 933.648 615.571C932.755 615.962 931.732 616.158 930.579 616.158Z" fill="black"/>
<path d="M1004.67 572.5H1136.56C1146.03 572.5 1153.71 580.179 1153.71 589.652V624.956C1153.71 634.429 1146.03 642.108 1136.56 642.108H1004.67V572.5Z" fill="white" stroke="#D1D5DB"/>
<path d="M1075 613.239V610.674L1081.43 600.542H1083.64V604.092H1082.33L1078.28 610.509V610.629H1087.42V613.239H1075ZM1082.39 615.947V612.457L1082.45 611.321V600.542H1085.51V615.947H1082.39Z" fill="black"/>
<rect x="696.99" y="569.99" width="165.188" height="75.6281" rx="17.9119" fill="white" stroke="#3d67f6" stroke-width="3.98043"/>
<path d="M774.628 620.947V618.6L780.112 613.523C780.578 613.072 780.969 612.665 781.285 612.304C781.606 611.943 781.85 611.59 782.015 611.244C782.18 610.893 782.263 610.514 782.263 610.108C782.263 609.656 782.16 609.268 781.955 608.942C781.749 608.611 781.468 608.358 781.112 608.182C780.756 608.002 780.353 607.911 779.901 607.911C779.43 607.911 779.019 608.007 778.668 608.197C778.317 608.388 778.046 608.661 777.855 609.017C777.665 609.373 777.569 609.797 777.569 610.288H774.478C774.478 609.28 774.706 608.405 775.162 607.663C775.619 606.921 776.258 606.347 777.08 605.941C777.903 605.534 778.851 605.331 779.924 605.331C781.027 605.331 781.987 605.527 782.805 605.918C783.627 606.304 784.267 606.841 784.723 607.528C785.179 608.215 785.408 609.002 785.408 609.89C785.408 610.471 785.292 611.046 785.061 611.612C784.836 612.179 784.432 612.808 783.85 613.5C783.269 614.187 782.449 615.012 781.391 615.975L779.142 618.179V618.284H785.611V620.947H774.628Z" fill="black"/>
</g>
<path d="M228.5 181C228.5 167.469 239.469 156.5 253 156.5H1308C1321.53 156.5 1332.5 167.469 1332.5 181V1059.5H228.5V181Z" stroke="#BFC3C9" shape-rendering="crispEdges"/>
</g>
</g>
<defs>
<filter id="filter0_d_218_360" x="116.183" y="66.5465" width="1328.63" height="1127.63" filterUnits="userSpaceOnUse" color-interpolation-filters="sRGB">
<feFlood flood-opacity="0" result="BackgroundImageFix"/>
<feColorMatrix in="SourceAlpha" type="matrix" values="0 0 0 0 0 0 0 0 0 0 0 0 0 0 0 0 0 0 127 0" result="hardAlpha"/>
<feOffset dy="22.3634"/>
<feGaussianBlur stdDeviation="55.9085"/>
<feComposite in2="hardAlpha" operator="out"/>
<feColorMatrix type="matrix" values="0 0 0 0 0 0 0 0 0 0 0 0 0 0 0 0 0 0 0.15 0"/>
<feBlend mode="normal" in2="BackgroundImageFix" result="effect1_dropShadow_218_360"/>
<feBlend mode="normal" in="SourceGraphic" in2="effect1_dropShadow_218_360" result="shape"/>
</filter>
<clipPath id="clip0_218_360">
<rect width="1536" height="1024" fill="white"/>
</clipPath>
<clipPath id="clip1_218_360">
<path d="M228 181C228 167.193 239.193 156 253 156H1308C1321.81 156 1333 167.193 1333 181V1060H228V181Z" fill="white"/>
</clipPath>
</defs>
</svg>
