<svg width="1536" height="1024" viewBox="0 0 1536 1024" fill="none" xmlns="http://www.w3.org/2000/svg">
<g clip-path="url(#clip0_211_387)">
<g filter="url(#filter0_d_211_387)">
<g clip-path="url(#clip1_211_387)">
<path d="M243 181C243 167.193 254.193 156 268 156H1323C1336.81 156 1348 167.193 1348 181V1060H243V181Z" fill="#F9FAFB"/>
<mask id="path-4-inside-1_211_387" fill="white">
<path d="M243 156H1348V218H243V156Z"/>
</mask>
<path d="M243 156H1348V218H243V156Z" fill="white"/>
<circle cx="293" cy="187" r="10" fill="#D1D5DB"/>
<circle cx="294" cy="187" r="10" fill="#D1D5DB"/>
<circle cx="319" cy="187" r="10" fill="#D1D5DB"/>
<circle cx="344" cy="187" r="10" fill="#D1D5DB"/>
<path d="M1348 217H243V219H1348V217Z" fill="#D1D5DB" mask="url(#path-4-inside-1_211_387)"/>
<rect x="465.638" y="579.638" width="307.723" height="491.591" rx="31.2831" fill="white" stroke="#BFC3C9" stroke-width="1.27686"/>
<path d="M512.133 663.793V633.838H514.052V663.793H512.133ZM517.223 643.725C517.129 642.781 516.727 642.048 516.018 641.525C515.308 641.003 514.344 640.741 513.127 640.741C512.3 640.741 511.602 640.858 511.033 641.092C510.463 641.319 510.027 641.635 509.722 642.04C509.426 642.446 509.278 642.906 509.278 643.421C509.262 643.85 509.352 644.224 509.547 644.544C509.75 644.864 510.027 645.141 510.378 645.375C510.729 645.601 511.134 645.8 511.594 645.972C512.055 646.136 512.546 646.276 513.069 646.393L515.222 646.908C516.267 647.142 517.227 647.454 518.1 647.844C518.974 648.234 519.731 648.714 520.37 649.283C521.01 649.853 521.505 650.524 521.857 651.296C522.215 652.068 522.399 652.954 522.406 653.952C522.399 655.419 522.024 656.69 521.283 657.767C520.55 658.835 519.489 659.666 518.1 660.259C516.72 660.844 515.054 661.137 513.104 661.137C511.169 661.137 509.484 660.84 508.049 660.247C506.621 659.655 505.506 658.777 504.702 657.615C503.907 656.444 503.489 654.997 503.45 653.273H508.353C508.408 654.077 508.638 654.748 509.044 655.286C509.457 655.817 510.007 656.218 510.693 656.491C511.388 656.757 512.172 656.889 513.045 656.889C513.904 656.889 514.649 656.764 515.28 656.515C515.92 656.265 516.415 655.918 516.766 655.473C517.118 655.029 517.293 654.518 517.293 653.94C517.293 653.402 517.133 652.95 516.813 652.583C516.501 652.216 516.041 651.904 515.433 651.647C514.832 651.39 514.095 651.155 513.221 650.945L510.612 650.29C508.591 649.798 506.996 649.03 505.826 647.984C504.656 646.939 504.074 645.531 504.082 643.76C504.074 642.309 504.461 641.042 505.241 639.957C506.029 638.873 507.109 638.027 508.482 637.418C509.855 636.81 511.415 636.505 513.162 636.505C514.941 636.505 516.493 636.81 517.82 637.418C519.154 638.027 520.191 638.873 520.932 639.957C521.673 641.042 522.055 642.298 522.079 643.725H517.223ZM535.111 636.833V660.797H530.045V641.642H529.904L524.416 645.083V640.589L530.349 636.833H535.111ZM548.489 636.505C549.722 636.505 550.907 636.712 552.046 637.126C553.193 637.539 554.215 638.198 555.112 639.103C556.017 640.008 556.731 641.209 557.253 642.707C557.784 644.197 558.053 646.026 558.061 648.195C558.061 650.231 557.831 652.049 557.37 653.648C556.918 655.239 556.267 656.593 555.416 657.708C554.566 658.824 553.54 659.674 552.339 660.259C551.138 660.836 549.796 661.125 548.314 661.125C546.714 661.125 545.303 660.817 544.078 660.201C542.853 659.577 541.866 658.73 541.117 657.661C540.376 656.585 539.928 655.376 539.772 654.034H544.768C544.963 654.908 545.373 655.586 545.997 656.07C546.621 656.546 547.393 656.784 548.314 656.784C549.874 656.784 551.06 656.105 551.871 654.748C552.682 653.383 553.092 651.514 553.099 649.143H552.936C552.577 649.845 552.093 650.45 551.485 650.957C550.876 651.456 550.178 651.842 549.39 652.115C548.61 652.388 547.779 652.525 546.898 652.525C545.486 652.525 544.226 652.193 543.118 651.53C542.011 650.867 541.137 649.954 540.497 648.792C539.857 647.63 539.538 646.303 539.538 644.813C539.53 643.206 539.9 641.775 540.649 640.519C541.398 639.263 542.443 638.28 543.785 637.57C545.135 636.853 546.703 636.498 548.489 636.505ZM548.524 640.484C547.736 640.484 547.034 640.671 546.418 641.046C545.81 641.42 545.326 641.923 544.967 642.555C544.616 643.187 544.444 643.893 544.452 644.673C544.452 645.461 544.624 646.171 544.967 646.803C545.318 647.427 545.794 647.926 546.395 648.3C547.003 648.667 547.697 648.85 548.477 648.85C549.063 648.85 549.605 648.741 550.104 648.523C550.603 648.304 551.036 648.004 551.403 647.622C551.777 647.232 552.07 646.783 552.28 646.276C552.491 645.769 552.596 645.231 552.596 644.661C552.589 643.905 552.409 643.21 552.058 642.578C551.707 641.947 551.223 641.44 550.607 641.057C549.991 640.675 549.297 640.484 548.524 640.484ZM562.578 661.102C561.805 661.102 561.142 660.829 560.589 660.283C560.042 659.729 559.769 659.066 559.769 658.293C559.769 657.529 560.042 656.874 560.589 656.327C561.142 655.781 561.805 655.508 562.578 655.508C563.327 655.508 563.982 655.781 564.544 656.327C565.105 656.874 565.386 657.529 565.386 658.293C565.386 658.808 565.253 659.28 564.988 659.709C564.731 660.13 564.391 660.47 563.97 660.727C563.549 660.977 563.085 661.102 562.578 661.102ZM576.874 661.324C574.861 661.316 573.13 660.821 571.679 659.838C570.236 658.855 569.124 657.431 568.344 655.567C567.572 653.702 567.189 651.46 567.197 648.839C567.197 646.225 567.583 643.998 568.356 642.157C569.136 640.316 570.247 638.916 571.69 637.956C573.141 636.989 574.869 636.505 576.874 636.505C578.879 636.505 580.603 636.989 582.046 637.956C583.497 638.924 584.613 640.328 585.393 642.169C586.173 644.002 586.559 646.225 586.551 648.839C586.551 651.468 586.161 653.714 585.381 655.579C584.609 657.443 583.501 658.867 582.058 659.85C580.615 660.832 578.887 661.324 576.874 661.324ZM576.874 657.123C578.247 657.123 579.343 656.433 580.162 655.052C580.981 653.671 581.387 651.6 581.379 648.839C581.379 647.021 581.192 645.508 580.817 644.299C580.451 643.089 579.928 642.181 579.249 641.572C578.579 640.964 577.787 640.659 576.874 640.659C575.509 640.659 574.417 641.342 573.598 642.707C572.779 644.072 572.365 646.116 572.357 648.839C572.357 650.68 572.541 652.216 572.907 653.449C573.282 654.674 573.808 655.594 574.487 656.21C575.166 656.819 575.961 657.123 576.874 657.123ZM598.571 661.324C596.559 661.316 594.827 660.821 593.376 659.838C591.933 658.855 590.821 657.431 590.041 655.567C589.269 653.702 588.887 651.46 588.894 648.839C588.894 646.225 589.281 643.998 590.053 642.157C590.833 640.316 591.945 638.916 593.388 637.956C594.839 636.989 596.567 636.505 598.571 636.505C600.576 636.505 602.3 636.989 603.743 637.956C605.194 638.924 606.31 640.328 607.09 642.169C607.87 644.002 608.256 646.225 608.248 648.839C608.248 651.468 607.858 653.714 607.078 655.579C606.306 657.443 605.198 658.867 603.755 659.85C602.312 660.832 600.584 661.324 598.571 661.324ZM598.571 657.123C599.944 657.123 601.04 656.433 601.859 655.052C602.679 653.671 603.084 651.6 603.076 648.839C603.076 647.021 602.889 645.508 602.515 644.299C602.148 643.089 601.625 642.181 600.947 641.572C600.276 640.964 599.484 640.659 598.571 640.659C597.206 640.659 596.114 641.342 595.295 642.707C594.476 644.072 594.063 646.116 594.055 648.839C594.055 650.68 594.238 652.216 594.605 653.449C594.979 654.674 595.506 655.594 596.184 656.21C596.863 656.819 597.659 657.123 598.571 657.123Z" fill="#5A5A5A"/>
<rect x="502.029" y="803.727" width="10.2149" height="10.2149" rx="5.10744" fill="#eb542b"/>
<rect x="516.074" y="803.727" width="128.963" height="10.2149" rx="5.10744" fill="#D1D5DB"/>
<rect x="502.029" y="827.987" width="10.2149" height="10.2149" rx="5.10744" fill="#eb542b"/>
<rect x="516.074" y="827.987" width="128.963" height="10.2149" rx="5.10744" fill="#D1D5DB"/>
<rect x="502.029" y="852.248" width="10.2149" height="10.2149" rx="5.10744" fill="#eb542b"/>
<rect x="516.074" y="852.248" width="128.963" height="10.2149" rx="5.10744" fill="#D1D5DB"/>
<rect x="502.029" y="876.508" width="10.2149" height="10.2149" rx="5.10744" fill="#eb542b"/>
<rect x="516.074" y="876.508" width="128.963" height="10.2149" rx="5.10744" fill="#D1D5DB"/>
<rect x="502.029" y="900.769" width="10.2149" height="10.2149" rx="5.10744" fill="#eb542b"/>
<rect x="516.074" y="900.769" width="128.963" height="10.2149" rx="5.10744" fill="#D1D5DB"/>
<rect x="502.029" y="925.029" width="10.2149" height="10.2149" rx="5.10744" fill="#eb542b"/>
<rect x="516.074" y="925.029" width="128.963" height="10.2149" rx="5.10744" fill="#D1D5DB"/>
<rect x="502.029" y="730.946" width="233.665" height="43.4132" rx="12.7686" fill="#E4E6EA"/>
<rect x="817.638" y="579.638" width="307.723" height="491.591" rx="31.2831" fill="white" stroke="#BFC3C9" stroke-width="1.27686"/>
<path d="M861.317 663.793V633.838H863.236V663.793H861.317ZM866.407 643.725C866.314 642.781 865.912 642.048 865.202 641.525C864.492 641.003 863.529 640.741 862.312 640.741C861.485 640.741 860.787 640.858 860.217 641.092C859.648 641.319 859.211 641.635 858.907 642.04C858.61 642.446 858.462 642.906 858.462 643.421C858.446 643.85 858.536 644.224 858.731 644.544C858.934 644.864 859.211 645.141 859.562 645.375C859.913 645.601 860.319 645.8 860.779 645.972C861.239 646.136 861.731 646.276 862.253 646.393L864.406 646.908C865.452 647.142 866.411 647.454 867.285 647.844C868.158 648.234 868.915 648.714 869.555 649.283C870.195 649.853 870.69 650.524 871.041 651.296C871.4 652.068 871.583 652.954 871.591 653.952C871.583 655.419 871.209 656.69 870.468 657.767C869.734 658.835 868.673 659.666 867.285 660.259C865.904 660.844 864.239 661.137 862.288 661.137C860.354 661.137 858.669 660.84 857.233 660.247C855.806 659.655 854.69 658.777 853.887 657.615C853.091 656.444 852.674 654.997 852.635 653.273H857.538C857.592 654.077 857.822 654.748 858.228 655.286C858.641 655.817 859.191 656.218 859.878 656.491C860.572 656.757 861.356 656.889 862.23 656.889C863.088 656.889 863.833 656.764 864.465 656.515C865.104 656.265 865.6 655.918 865.951 655.473C866.302 655.029 866.477 654.518 866.477 653.94C866.477 653.402 866.317 652.95 865.998 652.583C865.686 652.216 865.225 651.904 864.617 651.647C864.016 651.39 863.279 651.155 862.405 650.945L859.796 650.29C857.776 649.798 856.18 649.03 855.01 647.984C853.84 646.939 853.259 645.531 853.267 643.76C853.259 642.309 853.645 641.042 854.425 639.957C855.213 638.873 856.293 638.027 857.666 637.418C859.039 636.81 860.599 636.505 862.347 636.505C864.125 636.505 865.678 636.81 867.004 637.418C868.338 638.027 869.375 638.873 870.117 639.957C870.858 641.042 871.24 642.298 871.263 643.725H866.407ZM882.541 636.505C883.773 636.505 884.959 636.712 886.098 637.126C887.245 637.539 888.266 638.198 889.164 639.103C890.068 640.008 890.782 641.209 891.305 642.707C891.835 644.197 892.104 646.026 892.112 648.195C892.112 650.231 891.882 652.049 891.422 653.648C890.969 655.239 890.318 656.593 889.468 657.708C888.617 658.824 887.592 659.674 886.39 660.259C885.189 660.836 883.847 661.125 882.365 661.125C880.766 661.125 879.354 660.817 878.129 660.201C876.904 659.577 875.918 658.73 875.169 657.661C874.428 656.585 873.979 655.376 873.823 654.034H878.82C879.015 654.908 879.424 655.586 880.048 656.07C880.672 656.546 881.445 656.784 882.365 656.784C883.925 656.784 885.111 656.105 885.922 654.748C886.734 653.383 887.143 651.514 887.151 649.143H886.987C886.628 649.845 886.145 650.45 885.536 650.957C884.928 651.456 884.229 651.842 883.442 652.115C882.662 652.388 881.831 652.525 880.949 652.525C879.537 652.525 878.277 652.193 877.17 651.53C876.062 650.867 875.188 649.954 874.549 648.792C873.909 647.63 873.589 646.303 873.589 644.813C873.581 643.206 873.952 641.775 874.701 640.519C875.45 639.263 876.495 638.28 877.837 637.57C879.186 636.853 880.754 636.498 882.541 636.505ZM882.576 640.484C881.788 640.484 881.086 640.671 880.469 641.046C879.861 641.42 879.377 641.923 879.019 642.555C878.667 643.187 878.496 643.893 878.504 644.673C878.504 645.461 878.675 646.171 879.019 646.803C879.37 647.427 879.845 647.926 880.446 648.3C881.055 648.667 881.749 648.85 882.529 648.85C883.114 648.85 883.656 648.741 884.155 648.523C884.655 648.304 885.088 648.004 885.454 647.622C885.829 647.232 886.121 646.783 886.332 646.276C886.542 645.769 886.648 645.231 886.648 644.661C886.64 643.905 886.461 643.21 886.109 642.578C885.758 641.947 885.275 641.44 884.659 641.057C884.042 640.675 883.348 640.484 882.576 640.484ZM903.305 636.505C904.537 636.505 905.723 636.712 906.862 637.126C908.009 637.539 909.031 638.198 909.928 639.103C910.833 640.008 911.546 641.209 912.069 642.707C912.6 644.197 912.869 646.026 912.876 648.195C912.876 650.231 912.646 652.049 912.186 653.648C911.734 655.239 911.082 656.593 910.232 657.708C909.382 658.824 908.356 659.674 907.155 660.259C905.953 660.836 904.611 661.125 903.129 661.125C901.53 661.125 900.118 660.817 898.893 660.201C897.669 659.577 896.682 658.73 895.933 657.661C895.192 656.585 894.743 655.376 894.587 654.034H899.584C899.779 654.908 900.188 655.586 900.812 656.07C901.436 656.546 902.209 656.784 903.129 656.784C904.689 656.784 905.875 656.105 906.686 654.748C907.498 653.383 907.907 651.514 907.915 649.143H907.751C907.392 649.845 906.909 650.45 906.3 650.957C905.692 651.456 904.994 651.842 904.206 652.115C903.426 652.388 902.595 652.525 901.713 652.525C900.301 652.525 899.042 652.193 897.934 651.53C896.826 650.867 895.952 649.954 895.313 648.792C894.673 647.63 894.353 646.303 894.353 644.813C894.345 643.206 894.716 641.775 895.465 640.519C896.214 639.263 897.259 638.28 898.601 637.57C899.95 636.853 901.518 636.498 903.305 636.505ZM903.34 640.484C902.552 640.484 901.85 640.671 901.234 641.046C900.625 641.42 900.142 641.923 899.783 642.555C899.432 643.187 899.26 643.893 899.268 644.673C899.268 645.461 899.439 646.171 899.783 646.803C900.134 647.427 900.61 647.926 901.21 648.3C901.819 648.667 902.513 648.85 903.293 648.85C903.878 648.85 904.42 648.741 904.92 648.523C905.419 648.304 905.852 648.004 906.218 647.622C906.593 647.232 906.885 646.783 907.096 646.276C907.307 645.769 907.412 645.231 907.412 644.661C907.404 643.905 907.225 643.21 906.874 642.578C906.523 641.947 906.039 641.44 905.423 641.057C904.806 640.675 904.112 640.484 903.34 640.484ZM917.393 661.102C916.621 661.102 915.958 660.829 915.404 660.283C914.858 659.729 914.585 659.066 914.585 658.293C914.585 657.529 914.858 656.874 915.404 656.327C915.958 655.781 916.621 655.508 917.393 655.508C918.142 655.508 918.798 655.781 919.359 656.327C919.921 656.874 920.202 657.529 920.202 658.293C920.202 658.808 920.069 659.28 919.804 659.709C919.546 660.13 919.207 660.47 918.786 660.727C918.365 660.977 917.9 661.102 917.393 661.102ZM931.69 661.324C929.677 661.316 927.945 660.821 926.494 659.838C925.051 658.855 923.94 657.431 923.159 655.567C922.387 653.702 922.005 651.46 922.013 648.839C922.013 646.225 922.399 643.998 923.171 642.157C923.951 640.316 925.063 638.916 926.506 637.956C927.957 636.989 929.685 636.505 931.69 636.505C933.695 636.505 935.418 636.989 936.862 637.956C938.313 638.924 939.428 640.328 940.208 642.169C940.988 644.002 941.374 646.225 941.367 648.839C941.367 651.468 940.977 653.714 940.197 655.579C939.424 657.443 938.317 658.867 936.873 659.85C935.43 660.832 933.702 661.324 931.69 661.324ZM931.69 657.123C933.063 657.123 934.159 656.433 934.978 655.052C935.797 653.671 936.202 651.6 936.195 648.839C936.195 647.021 936.007 645.508 935.633 644.299C935.266 643.089 934.744 642.181 934.065 641.572C933.394 640.964 932.602 640.659 931.69 640.659C930.325 640.659 929.232 641.342 928.413 642.707C927.594 644.072 927.181 646.116 927.173 648.839C927.173 650.68 927.356 652.216 927.723 653.449C928.097 654.674 928.624 655.594 929.303 656.21C929.981 656.819 930.777 657.123 931.69 657.123ZM953.387 661.324C951.374 661.316 949.643 660.821 948.192 659.838C946.748 658.855 945.637 657.431 944.857 655.567C944.085 653.702 943.702 651.46 943.71 648.839C943.71 646.225 944.096 643.998 944.868 642.157C945.649 640.316 946.76 638.916 948.203 637.956C949.654 636.989 951.382 636.505 953.387 636.505C955.392 636.505 957.116 636.989 958.559 637.956C960.01 638.924 961.125 640.328 961.906 642.169C962.686 644.002 963.072 646.225 963.064 648.839C963.064 651.468 962.674 653.714 961.894 655.579C961.122 657.443 960.014 658.867 958.571 659.85C957.128 660.832 955.4 661.324 953.387 661.324ZM953.387 657.123C954.76 657.123 955.856 656.433 956.675 655.052C957.494 653.671 957.9 651.6 957.892 648.839C957.892 647.021 957.705 645.508 957.33 644.299C956.964 643.089 956.441 642.181 955.762 641.572C955.092 640.964 954.3 640.659 953.387 640.659C952.022 640.659 950.93 641.342 950.111 642.707C949.292 644.072 948.878 646.116 948.87 648.839C948.87 650.68 949.054 652.216 949.42 653.449C949.795 654.674 950.321 655.594 951 656.21C951.679 656.819 952.474 657.123 953.387 657.123Z" fill="#5A5A5A"/>
<rect x="854.029" y="803.727" width="10.2149" height="10.2149" rx="5.10744" fill="#eb542b"/>
<rect x="868.074" y="803.727" width="128.963" height="10.2149" rx="5.10744" fill="#D1D5DB"/>
<rect x="854.029" y="827.987" width="10.2149" height="10.2149" rx="5.10744" fill="#eb542b"/>
<rect x="868.074" y="827.987" width="128.963" height="10.2149" rx="5.10744" fill="#D1D5DB"/>
<rect x="854.029" y="852.248" width="10.2149" height="10.2149" rx="5.10744" fill="#eb542b"/>
<rect x="868.074" y="852.248" width="128.963" height="10.2149" rx="5.10744" fill="#D1D5DB"/>
<rect x="854.029" y="876.508" width="10.2149" height="10.2149" rx="5.10744" fill="#eb542b"/>
<rect x="868.074" y="876.508" width="128.963" height="10.2149" rx="5.10744" fill="#D1D5DB"/>
<rect x="854.029" y="900.769" width="10.2149" height="10.2149" rx="5.10744" fill="#eb542b"/>
<rect x="868.074" y="900.769" width="128.963" height="10.2149" rx="5.10744" fill="#D1D5DB"/>
<rect x="854.029" y="925.029" width="10.2149" height="10.2149" rx="5.10744" fill="#eb542b"/>
<rect x="868.074" y="925.029" width="128.963" height="10.2149" rx="5.10744" fill="#D1D5DB"/>
<rect x="854.029" y="730.946" width="233.665" height="43.4132" rx="12.7686" fill="#E4E6EA"/>
</g>
<path d="M243.5 181C243.5 167.469 254.469 156.5 268 156.5H1323C1336.53 156.5 1347.5 167.469 1347.5 181V1059.5H243.5V181Z" stroke="#BFC3C9" shape-rendering="crispEdges"/>
</g>
<rect x="699" y="485" width="194" height="12" rx="6" fill="#D1D5DB"/>
<path d="M614.651 397H607.423L618.436 365.099H627.128L638.125 397H630.897L622.906 372.389H622.657L614.651 397ZM614.199 384.461H631.271V389.726H614.199V384.461ZM647.16 365.099V397H640.524V365.099H647.16ZM651.159 405.972V373.074H657.702V377.093H657.998C658.288 376.449 658.709 375.795 659.259 375.13C659.82 374.455 660.547 373.895 661.44 373.448C662.343 372.991 663.465 372.763 664.805 372.763C666.549 372.763 668.159 373.22 669.633 374.133C671.108 375.037 672.287 376.402 673.169 378.23C674.052 380.047 674.493 382.327 674.493 385.068C674.493 387.737 674.062 389.99 673.2 391.829C672.349 393.656 671.186 395.043 669.711 395.988C668.247 396.922 666.606 397.389 664.789 397.389C663.501 397.389 662.406 397.177 661.502 396.751C660.609 396.325 659.877 395.79 659.306 395.146C658.735 394.492 658.299 393.833 657.998 393.168H657.795V405.972H651.159ZM657.655 385.037C657.655 386.46 657.852 387.701 658.247 388.76C658.641 389.819 659.213 390.645 659.96 391.237C660.708 391.818 661.617 392.109 662.686 392.109C663.766 392.109 664.68 391.813 665.428 391.221C666.175 390.619 666.741 389.788 667.126 388.729C667.52 387.659 667.717 386.429 667.717 385.037C667.717 383.656 667.525 382.441 667.141 381.392C666.757 380.343 666.191 379.523 665.443 378.931C664.696 378.339 663.777 378.043 662.686 378.043C661.606 378.043 660.692 378.329 659.945 378.9C659.207 379.471 658.641 380.281 658.247 381.33C657.852 382.379 657.655 383.614 657.655 385.037ZM677.601 397V373.074H684.237V397H677.601ZM680.935 369.99C679.948 369.99 679.102 369.663 678.396 369.009C677.7 368.344 677.352 367.55 677.352 366.625C677.352 365.712 677.7 364.928 678.396 364.273C679.102 363.609 679.948 363.276 680.935 363.276C681.921 363.276 682.762 363.609 683.458 364.273C684.164 364.928 684.517 365.712 684.517 366.625C684.517 367.55 684.164 368.344 683.458 369.009C682.762 369.663 681.921 369.99 680.935 369.99ZM694.872 383.168V397H688.237V373.074H694.561V377.295H694.841C695.371 375.904 696.259 374.803 697.505 373.993C698.751 373.173 700.262 372.763 702.037 372.763C703.699 372.763 705.148 373.126 706.383 373.853C707.619 374.58 708.58 375.618 709.265 376.968C709.95 378.308 710.293 379.907 710.293 381.766V397H703.657V382.95C703.668 381.486 703.294 380.343 702.536 379.523C701.778 378.692 700.734 378.277 699.405 378.277C698.512 378.277 697.723 378.469 697.037 378.853C696.362 379.237 695.833 379.798 695.449 380.535C695.075 381.262 694.883 382.14 694.872 383.168ZM725.111 397.467C722.65 397.467 720.531 396.969 718.756 395.972C716.99 394.965 715.63 393.542 714.674 391.704C713.719 389.855 713.241 387.67 713.241 385.146C713.241 382.685 713.719 380.525 714.674 378.666C715.63 376.807 716.975 375.359 718.709 374.32C720.453 373.282 722.499 372.763 724.846 372.763C726.424 372.763 727.894 373.017 729.254 373.526C730.625 374.024 731.819 374.777 732.837 375.784C733.865 376.792 734.665 378.059 735.236 379.585C735.807 381.101 736.092 382.877 736.092 384.912V386.735H715.889V382.623H729.846C729.846 381.667 729.638 380.821 729.223 380.084C728.808 379.346 728.231 378.77 727.494 378.355C726.767 377.929 725.921 377.716 724.955 377.716C723.948 377.716 723.055 377.95 722.276 378.417C721.507 378.874 720.905 379.492 720.469 380.271C720.033 381.039 719.81 381.896 719.799 382.841V386.751C719.799 387.934 720.017 388.957 720.453 389.819C720.9 390.681 721.528 391.346 722.338 391.813C723.148 392.28 724.109 392.514 725.22 392.514C725.957 392.514 726.632 392.41 727.245 392.202C727.858 391.995 728.382 391.683 728.818 391.268C729.254 390.852 729.587 390.344 729.815 389.741L735.952 390.146C735.641 391.621 735.002 392.909 734.036 394.009C733.081 395.1 731.845 395.951 730.329 396.564C728.823 397.166 727.084 397.467 725.111 397.467ZM739.107 373.074H745.743V398.184C745.743 400.032 745.379 401.528 744.652 402.67C743.925 403.812 742.882 404.648 741.521 405.178C740.171 405.707 738.556 405.972 736.677 405.972C736.448 405.972 736.23 405.967 736.023 405.957C735.805 405.957 735.576 405.951 735.337 405.941V400.754C735.514 400.764 735.67 400.77 735.805 400.77C735.929 400.78 736.064 400.785 736.21 400.785C737.279 400.785 738.027 400.557 738.453 400.1C738.889 399.653 739.107 398.978 739.107 398.075V373.074ZM742.409 369.99C741.433 369.99 740.592 369.663 739.886 369.009C739.18 368.344 738.826 367.55 738.826 366.625C738.826 365.712 739.18 364.928 739.886 364.273C740.592 363.609 741.433 363.276 742.409 363.276C743.406 363.276 744.252 363.609 744.948 364.273C745.654 364.928 746.007 365.712 746.007 366.625C746.007 367.55 745.654 368.344 744.948 369.009C744.252 369.663 743.406 369.99 742.409 369.99ZM769.649 379.897L763.574 380.271C763.47 379.751 763.247 379.284 762.905 378.869C762.562 378.443 762.11 378.105 761.549 377.856C760.999 377.597 760.34 377.467 759.571 377.467C758.543 377.467 757.676 377.685 756.97 378.121C756.264 378.547 755.911 379.118 755.911 379.834C755.911 380.406 756.139 380.888 756.596 381.283C757.053 381.678 757.837 381.994 758.948 382.233L763.278 383.106C765.604 383.583 767.339 384.352 768.481 385.411C769.623 386.47 770.194 387.862 770.194 389.585C770.194 391.154 769.732 392.529 768.808 393.713C767.894 394.897 766.638 395.821 765.039 396.486C763.45 397.14 761.617 397.467 759.54 397.467C756.373 397.467 753.849 396.808 751.97 395.489C750.1 394.16 749.005 392.353 748.683 390.068L755.21 389.726C755.407 390.691 755.885 391.429 756.643 391.938C757.401 392.436 758.372 392.685 759.556 392.685C760.719 392.685 761.653 392.462 762.359 392.015C763.076 391.559 763.439 390.972 763.45 390.255C763.439 389.653 763.185 389.16 762.686 388.775C762.188 388.381 761.42 388.08 760.381 387.872L756.238 387.046C753.901 386.579 752.162 385.769 751.019 384.616C749.888 383.464 749.322 381.994 749.322 380.208C749.322 378.671 749.737 377.347 750.568 376.236C751.409 375.125 752.588 374.268 754.104 373.666C755.63 373.064 757.416 372.763 759.462 372.763C762.484 372.763 764.862 373.401 766.596 374.679C768.341 375.956 769.358 377.695 769.649 379.897ZM791.675 397.467C789.474 397.467 787.573 397.073 785.974 396.283C784.375 395.494 783.144 394.425 782.283 393.075C781.431 391.714 781.005 390.198 781.005 388.526C781.005 387.28 781.255 386.174 781.753 385.208C782.251 384.243 782.947 383.355 783.84 382.545C784.733 381.724 785.772 380.909 786.956 380.099L793.14 376.034C793.939 375.525 794.526 374.99 794.9 374.429C795.274 373.858 795.46 373.24 795.46 372.576C795.46 371.942 795.206 371.356 794.697 370.816C794.188 370.276 793.467 370.011 792.532 370.021C791.909 370.021 791.369 370.161 790.912 370.442C790.455 370.712 790.097 371.07 789.837 371.516C789.588 371.953 789.463 372.441 789.463 372.981C789.463 373.645 789.65 374.32 790.024 375.006C790.398 375.691 790.897 376.418 791.52 377.186C792.143 377.944 792.823 378.765 793.56 379.648L808.685 397H801.769L789.152 382.95C788.321 382.005 787.49 381.018 786.66 379.99C785.839 378.952 785.154 377.851 784.604 376.688C784.053 375.514 783.778 374.242 783.778 372.872C783.778 371.324 784.136 369.933 784.853 368.697C785.58 367.461 786.597 366.485 787.906 365.769C789.214 365.042 790.741 364.678 792.485 364.678C794.188 364.678 795.658 365.026 796.894 365.722C798.14 366.407 799.095 367.321 799.76 368.463C800.435 369.595 800.772 370.841 800.772 372.202C800.772 373.708 800.398 375.073 799.651 376.299C798.913 377.514 797.875 378.604 796.535 379.57L790.024 384.258C789.142 384.902 788.487 385.561 788.062 386.236C787.646 386.901 787.438 387.54 787.438 388.152C787.438 388.91 787.625 389.591 787.999 390.193C788.373 390.795 788.903 391.273 789.588 391.626C790.273 391.969 791.078 392.14 792.002 392.14C793.124 392.14 794.23 391.886 795.32 391.377C796.421 390.858 797.418 390.125 798.311 389.18C799.214 388.225 799.936 387.093 800.476 385.785C801.016 384.476 801.286 383.028 801.286 381.439H806.785C806.785 383.391 806.572 385.151 806.146 386.719C805.72 388.277 805.128 389.637 804.37 390.8C803.612 391.953 802.745 392.898 801.769 393.635C801.458 393.833 801.156 394.02 800.866 394.196C800.575 394.373 800.274 394.56 799.962 394.757C798.778 395.712 797.454 396.403 795.99 396.829C794.536 397.254 793.098 397.467 791.675 397.467ZM817.88 370.66V365.099H844.08V370.66H834.313V397H827.647V370.66H817.88ZM850.521 397.452C848.995 397.452 847.634 397.187 846.44 396.657C845.246 396.117 844.301 395.323 843.605 394.274C842.92 393.215 842.577 391.896 842.577 390.318C842.577 388.988 842.821 387.872 843.309 386.969C843.797 386.065 844.462 385.338 845.303 384.788C846.144 384.237 847.1 383.822 848.169 383.542C849.249 383.261 850.381 383.064 851.565 382.95C852.956 382.804 854.078 382.669 854.93 382.545C855.781 382.41 856.399 382.212 856.783 381.953C857.167 381.693 857.359 381.309 857.359 380.8V380.707C857.359 379.72 857.048 378.957 856.425 378.417C855.812 377.877 854.94 377.607 853.808 377.607C852.614 377.607 851.664 377.872 850.957 378.401C850.251 378.921 849.784 379.575 849.556 380.364L843.418 379.866C843.73 378.412 844.343 377.155 845.256 376.096C846.17 375.026 847.349 374.206 848.792 373.635C850.246 373.053 851.928 372.763 853.839 372.763C855.168 372.763 856.44 372.918 857.655 373.23C858.881 373.541 859.966 374.024 860.911 374.679C861.866 375.333 862.619 376.174 863.17 377.202C863.72 378.22 863.995 379.44 863.995 380.863V397H857.702V393.682H857.515C857.131 394.43 856.617 395.089 855.973 395.66C855.329 396.221 854.556 396.663 853.652 396.984C852.749 397.296 851.705 397.452 850.521 397.452ZM852.422 392.872C853.398 392.872 854.26 392.68 855.007 392.296C855.755 391.901 856.342 391.372 856.768 390.707C857.193 390.042 857.406 389.29 857.406 388.448V385.909C857.199 386.044 856.913 386.169 856.55 386.283C856.196 386.387 855.797 386.486 855.35 386.579C854.904 386.662 854.457 386.74 854.011 386.813C853.564 386.875 853.159 386.932 852.796 386.984C852.017 387.098 851.336 387.28 850.755 387.529C850.173 387.779 849.722 388.116 849.4 388.542C849.078 388.957 848.917 389.476 848.917 390.1C848.917 391.003 849.244 391.694 849.898 392.171C850.563 392.639 851.404 392.872 852.422 392.872ZM867.827 397V373.074H874.463V397H867.827ZM871.161 369.99C870.174 369.99 869.328 369.663 868.622 369.009C867.926 368.344 867.578 367.55 867.578 366.625C867.578 365.712 867.926 364.928 868.622 364.273C869.328 363.609 870.174 363.276 871.161 363.276C872.147 363.276 872.988 363.609 873.684 364.273C874.39 364.928 874.743 365.712 874.743 366.625C874.743 367.55 874.39 368.344 873.684 369.009C872.988 369.663 872.147 369.99 871.161 369.99ZM885.098 365.099V397H878.463V365.099H885.098ZM893.818 397L887.307 373.074H894.02L897.728 389.149H897.946L901.809 373.074H908.398L912.323 389.056H912.525L916.17 373.074H922.868L916.373 397H909.348L905.235 381.953H904.94L900.827 397H893.818ZM925.092 397V373.074H931.728V397H925.092ZM928.426 369.99C927.439 369.99 926.593 369.663 925.887 369.009C925.191 368.344 924.843 367.55 924.843 366.625C924.843 365.712 925.191 364.928 925.887 364.273C926.593 363.609 927.439 363.276 928.426 363.276C929.412 363.276 930.253 363.609 930.949 364.273C931.655 364.928 932.008 365.712 932.008 366.625C932.008 367.55 931.655 368.344 930.949 369.009C930.253 369.663 929.412 369.99 928.426 369.99ZM942.363 383.168V397H935.728V373.074H942.052V377.295H942.332C942.862 375.904 943.75 374.803 944.996 373.993C946.242 373.173 947.753 372.763 949.529 372.763C951.19 372.763 952.639 373.126 953.874 373.853C955.11 374.58 956.071 375.618 956.756 376.968C957.442 378.308 957.784 379.907 957.784 381.766V397H951.149V382.95C951.159 381.486 950.785 380.343 950.027 379.523C949.269 378.692 948.225 378.277 946.896 378.277C946.003 378.277 945.214 378.469 944.528 378.853C943.853 379.237 943.324 379.798 942.94 380.535C942.566 381.262 942.374 382.14 942.363 383.168ZM970.515 397.389C968.697 397.389 967.051 396.922 965.577 395.988C964.113 395.043 962.95 393.656 962.088 391.829C961.236 389.99 960.81 387.737 960.81 385.068C960.81 382.327 961.252 380.047 962.134 378.23C963.017 376.402 964.19 375.037 965.655 374.133C967.129 373.22 968.744 372.763 970.499 372.763C971.839 372.763 972.955 372.991 973.848 373.448C974.752 373.895 975.478 374.455 976.029 375.13C976.59 375.795 977.015 376.449 977.306 377.093H977.509V365.099H984.129V397H977.586V393.168H977.306C976.995 393.833 976.553 394.492 975.982 395.146C975.421 395.79 974.689 396.325 973.786 396.751C972.893 397.177 971.802 397.389 970.515 397.389ZM972.618 392.109C973.687 392.109 974.591 391.818 975.328 391.237C976.076 390.645 976.647 389.819 977.041 388.76C977.446 387.701 977.649 386.46 977.649 385.037C977.649 383.614 977.451 382.379 977.057 381.33C976.662 380.281 976.091 379.471 975.343 378.9C974.596 378.329 973.687 378.043 972.618 378.043C971.527 378.043 970.608 378.339 969.86 378.931C969.113 379.523 968.547 380.343 968.163 381.392C967.778 382.441 967.586 383.656 967.586 385.037C967.586 386.429 967.778 387.659 968.163 388.729C968.557 389.788 969.123 390.619 969.86 391.221C970.608 391.813 971.527 392.109 972.618 392.109ZM644.547 429.267H637.725C637.6 428.385 637.346 427.601 636.961 426.915C636.577 426.22 636.084 425.628 635.482 425.14C634.879 424.651 634.183 424.278 633.394 424.018C632.615 423.758 631.769 423.629 630.855 423.629C629.204 423.629 627.766 424.039 626.54 424.859C625.315 425.669 624.365 426.853 623.69 428.411C623.015 429.958 622.677 431.838 622.677 434.049C622.677 436.324 623.015 438.234 623.69 439.782C624.375 441.329 625.331 442.497 626.556 443.286C627.781 444.076 629.199 444.47 630.809 444.47C631.712 444.47 632.548 444.351 633.316 444.112C634.095 443.873 634.786 443.525 635.388 443.068C635.99 442.601 636.489 442.035 636.883 441.37C637.288 440.706 637.569 439.948 637.725 439.096L644.547 439.127C644.371 440.592 643.929 442.004 643.223 443.364C642.527 444.714 641.588 445.924 640.404 446.994C639.23 448.053 637.828 448.894 636.198 449.517C634.578 450.13 632.745 450.436 630.699 450.436C627.854 450.436 625.31 449.792 623.067 448.505C620.834 447.217 619.069 445.353 617.771 442.913C616.483 440.472 615.839 437.518 615.839 434.049C615.839 430.571 616.493 427.611 617.802 425.171C619.11 422.73 620.886 420.872 623.129 419.594C625.372 418.307 627.896 417.663 630.699 417.663C632.548 417.663 634.261 417.922 635.84 418.442C637.429 418.961 638.836 419.719 640.061 420.716C641.286 421.702 642.283 422.912 643.052 424.345C643.831 425.778 644.329 427.419 644.547 429.267ZM665.374 427.274C665.249 426.017 664.714 425.041 663.769 424.345C662.824 423.649 661.542 423.301 659.922 423.301C658.821 423.301 657.892 423.457 657.134 423.769C656.375 424.07 655.794 424.491 655.389 425.03C654.994 425.57 654.797 426.183 654.797 426.869C654.776 427.44 654.896 427.938 655.155 428.364C655.425 428.79 655.794 429.158 656.261 429.47C656.729 429.771 657.269 430.036 657.881 430.264C658.494 430.482 659.148 430.669 659.844 430.825L662.71 431.51C664.101 431.822 665.379 432.237 666.542 432.757C667.705 433.276 668.712 433.914 669.564 434.672C670.415 435.431 671.075 436.324 671.542 437.352C672.02 438.38 672.264 439.558 672.274 440.888C672.264 442.84 671.765 444.533 670.779 445.966C669.803 447.388 668.39 448.494 666.542 449.283C664.704 450.062 662.487 450.452 659.891 450.452C657.315 450.452 655.072 450.057 653.161 449.268C651.261 448.479 649.776 447.31 648.706 445.763C647.647 444.205 647.092 442.279 647.04 439.984H653.566C653.639 441.054 653.945 441.947 654.485 442.663C655.036 443.37 655.768 443.904 656.682 444.268C657.606 444.621 658.65 444.797 659.813 444.797C660.955 444.797 661.947 444.631 662.788 444.299C663.639 443.967 664.299 443.505 664.766 442.913C665.233 442.321 665.467 441.64 665.467 440.872C665.467 440.156 665.254 439.553 664.828 439.065C664.413 438.577 663.8 438.162 662.99 437.819C662.191 437.476 661.209 437.165 660.046 436.884L656.573 436.012C653.883 435.358 651.76 434.335 650.202 432.943C648.644 431.552 647.871 429.678 647.881 427.32C647.871 425.389 648.385 423.701 649.423 422.258C650.472 420.814 651.91 419.688 653.738 418.878C655.565 418.068 657.642 417.663 659.968 417.663C662.336 417.663 664.403 418.068 666.168 418.878C667.944 419.688 669.325 420.814 670.311 422.258C671.298 423.701 671.807 425.373 671.838 427.274H665.374ZM692.801 427.274C692.676 426.017 692.141 425.041 691.196 424.345C690.251 423.649 688.969 423.301 687.349 423.301C686.248 423.301 685.319 423.457 684.561 423.769C683.802 424.07 683.221 424.491 682.816 425.03C682.421 425.57 682.224 426.183 682.224 426.869C682.203 427.44 682.323 427.938 682.582 428.364C682.852 428.79 683.221 429.158 683.688 429.47C684.156 429.771 684.696 430.036 685.308 430.264C685.921 430.482 686.575 430.669 687.271 430.825L690.137 431.51C691.529 431.822 692.806 432.237 693.969 432.757C695.132 433.276 696.139 433.914 696.991 434.672C697.842 435.431 698.502 436.324 698.969 437.352C699.447 438.38 699.691 439.558 699.701 440.888C699.691 442.84 699.192 444.533 698.206 445.966C697.23 447.388 695.817 448.494 693.969 449.283C692.131 450.062 689.914 450.452 687.318 450.452C684.742 450.452 682.499 450.057 680.588 449.268C678.688 448.479 677.203 447.31 676.134 445.763C675.074 444.205 674.519 442.279 674.467 439.984H680.993C681.066 441.054 681.373 441.947 681.913 442.663C682.463 443.37 683.195 443.904 684.109 444.268C685.033 444.621 686.077 444.797 687.24 444.797C688.382 444.797 689.374 444.631 690.215 444.299C691.066 443.967 691.726 443.505 692.193 442.913C692.66 442.321 692.894 441.64 692.894 440.872C692.894 440.156 692.681 439.553 692.255 439.065C691.84 438.577 691.227 438.162 690.417 437.819C689.618 437.476 688.636 437.165 687.473 436.884L684 436.012C681.31 435.358 679.187 434.335 677.629 432.943C676.071 431.552 675.298 429.678 675.308 427.32C675.298 425.389 675.812 423.701 676.85 422.258C677.899 420.814 679.337 419.688 681.165 418.878C682.992 418.068 685.069 417.663 687.396 417.663C689.763 417.663 691.83 418.068 693.595 418.878C695.371 419.688 696.752 420.814 697.738 422.258C698.725 423.701 699.234 425.373 699.265 427.274H692.801ZM722.444 450.467C719.993 450.467 717.885 449.948 716.12 448.91C714.365 447.861 713.015 446.407 712.07 444.548C711.135 442.689 710.668 440.55 710.668 438.131C710.668 435.68 711.14 433.53 712.085 431.682C713.041 429.823 714.396 428.374 716.151 427.336C717.906 426.287 719.993 425.763 722.413 425.763C724.5 425.763 726.328 426.142 727.896 426.9C729.464 427.658 730.705 428.722 731.618 430.093C732.532 431.464 733.036 433.073 733.129 434.922H726.868C726.691 433.728 726.224 432.767 725.466 432.04C724.718 431.303 723.737 430.934 722.522 430.934C721.494 430.934 720.595 431.214 719.827 431.775C719.069 432.326 718.477 433.13 718.051 434.19C717.625 435.249 717.413 436.531 717.413 438.037C717.413 439.564 717.62 440.862 718.036 441.931C718.461 443.001 719.058 443.816 719.827 444.377C720.595 444.938 721.494 445.218 722.522 445.218C723.28 445.218 723.96 445.062 724.562 444.751C725.175 444.439 725.679 443.987 726.073 443.395C726.478 442.793 726.743 442.071 726.868 441.23H733.129C733.026 443.058 732.527 444.668 731.634 446.059C730.751 447.44 729.531 448.52 727.974 449.299C726.416 450.078 724.573 450.467 722.444 450.467ZM746.872 450.467C744.453 450.467 742.36 449.953 740.595 448.925C738.84 447.887 737.485 446.443 736.529 444.595C735.574 442.736 735.096 440.581 735.096 438.131C735.096 435.659 735.574 433.499 736.529 431.651C737.485 429.792 738.84 428.348 740.595 427.32C742.36 426.282 744.453 425.763 746.872 425.763C749.292 425.763 751.379 426.282 753.134 427.32C754.9 428.348 756.26 429.792 757.215 431.651C758.171 433.499 758.648 435.659 758.648 438.131C758.648 440.581 758.171 442.736 757.215 444.595C756.26 446.443 754.9 447.887 753.134 448.925C751.379 449.953 749.292 450.467 746.872 450.467ZM746.903 445.327C748.004 445.327 748.923 445.015 749.661 444.392C750.398 443.759 750.953 442.897 751.327 441.807C751.711 440.716 751.904 439.475 751.904 438.084C751.904 436.692 751.711 435.451 751.327 434.361C750.953 433.271 750.398 432.409 749.661 431.775C748.923 431.142 748.004 430.825 746.903 430.825C745.792 430.825 744.858 431.142 744.1 431.775C743.352 432.409 742.786 433.271 742.402 434.361C742.028 435.451 741.841 436.692 741.841 438.084C741.841 439.475 742.028 440.716 742.402 441.807C742.786 442.897 743.352 443.759 744.1 444.392C744.858 445.015 745.792 445.327 746.903 445.327ZM761.647 450V426.074H767.971V430.295H768.252C768.75 428.894 769.581 427.788 770.744 426.978C771.907 426.168 773.299 425.763 774.919 425.763C776.559 425.763 777.956 426.173 779.109 426.993C780.261 427.803 781.03 428.904 781.414 430.295H781.663C782.151 428.925 783.034 427.829 784.311 427.009C785.599 426.178 787.12 425.763 788.875 425.763C791.108 425.763 792.92 426.474 794.312 427.897C795.713 429.309 796.414 431.313 796.414 433.909V450H789.794V435.218C789.794 433.888 789.441 432.892 788.735 432.227C788.029 431.562 787.146 431.23 786.087 431.23C784.882 431.23 783.943 431.614 783.268 432.383C782.593 433.141 782.255 434.143 782.255 435.389V450H775.822V435.077C775.822 433.904 775.484 432.969 774.809 432.274C774.145 431.578 773.267 431.23 772.177 431.23C771.44 431.23 770.775 431.417 770.183 431.791C769.602 432.154 769.14 432.668 768.797 433.333C768.454 433.987 768.283 434.756 768.283 435.638V450H761.647ZM800.34 458.972V426.074H806.882V430.093H807.178C807.469 429.449 807.89 428.795 808.44 428.13C809.001 427.455 809.728 426.895 810.621 426.448C811.524 425.991 812.646 425.763 813.985 425.763C815.73 425.763 817.339 426.22 818.814 427.133C820.289 428.037 821.467 429.402 822.35 431.23C823.233 433.047 823.674 435.327 823.674 438.068C823.674 440.737 823.243 442.99 822.381 444.829C821.53 446.656 820.367 448.043 818.892 448.988C817.428 449.922 815.787 450.389 813.97 450.389C812.682 450.389 811.586 450.177 810.683 449.751C809.79 449.325 809.058 448.79 808.487 448.146C807.916 447.492 807.479 446.833 807.178 446.168H806.976V458.972H800.34ZM806.836 438.037C806.836 439.46 807.033 440.701 807.427 441.76C807.822 442.819 808.393 443.645 809.141 444.237C809.889 444.818 810.797 445.109 811.867 445.109C812.947 445.109 813.861 444.813 814.608 444.221C815.356 443.619 815.922 442.788 816.306 441.729C816.701 440.659 816.898 439.429 816.898 438.037C816.898 436.656 816.706 435.441 816.322 434.392C815.938 433.343 815.372 432.523 814.624 431.931C813.876 431.339 812.957 431.043 811.867 431.043C810.787 431.043 809.873 431.329 809.125 431.9C808.388 432.471 807.822 433.281 807.427 434.33C807.033 435.379 806.836 436.614 806.836 438.037ZM837.592 450.467C835.173 450.467 833.08 449.953 831.315 448.925C829.56 447.887 828.205 446.443 827.249 444.595C826.294 442.736 825.816 440.581 825.816 438.131C825.816 435.659 826.294 433.499 827.249 431.651C828.205 429.792 829.56 428.348 831.315 427.32C833.08 426.282 835.173 425.763 837.592 425.763C840.012 425.763 842.099 426.282 843.854 427.32C845.619 428.348 846.98 429.792 847.935 431.651C848.89 433.499 849.368 435.659 849.368 438.131C849.368 440.581 848.89 442.736 847.935 444.595C846.98 446.443 845.619 447.887 843.854 448.925C842.099 449.953 840.012 450.467 837.592 450.467ZM837.623 445.327C838.724 445.327 839.643 445.015 840.38 444.392C841.118 443.759 841.673 442.897 842.047 441.807C842.431 440.716 842.623 439.475 842.623 438.084C842.623 436.692 842.431 435.451 842.047 434.361C841.673 433.271 841.118 432.409 840.38 431.775C839.643 431.142 838.724 430.825 837.623 430.825C836.512 430.825 835.578 431.142 834.819 431.775C834.072 432.409 833.506 433.271 833.122 434.361C832.748 435.451 832.561 436.692 832.561 438.084C832.561 439.475 832.748 440.716 833.122 441.807C833.506 442.897 834.072 443.759 834.819 444.392C835.578 445.015 836.512 445.327 837.623 445.327ZM859.003 436.168V450H852.367V426.074H858.691V430.295H858.972C859.501 428.904 860.389 427.803 861.635 426.993C862.881 426.173 864.392 425.763 866.168 425.763C867.829 425.763 869.278 426.126 870.514 426.853C871.75 427.58 872.71 428.618 873.396 429.968C874.081 431.308 874.424 432.907 874.424 434.766V450H867.788V435.95C867.798 434.486 867.424 433.343 866.666 432.523C865.908 431.692 864.865 431.277 863.535 431.277C862.642 431.277 861.853 431.469 861.168 431.853C860.493 432.237 859.963 432.798 859.579 433.535C859.205 434.262 859.013 435.14 859.003 436.168ZM889.241 450.467C886.78 450.467 884.662 449.969 882.886 448.972C881.121 447.965 879.76 446.542 878.805 444.704C877.85 442.855 877.372 440.67 877.372 438.146C877.372 435.685 877.85 433.525 878.805 431.666C879.76 429.807 881.105 428.359 882.839 427.32C884.584 426.282 886.63 425.763 888.976 425.763C890.555 425.763 892.024 426.017 893.385 426.526C894.755 427.024 895.95 427.777 896.967 428.784C897.995 429.792 898.795 431.059 899.366 432.585C899.937 434.101 900.223 435.877 900.223 437.912V439.735H880.02V435.623H893.977C893.977 434.667 893.769 433.821 893.354 433.084C892.938 432.346 892.362 431.77 891.625 431.355C890.898 430.929 890.051 430.716 889.086 430.716C888.078 430.716 887.185 430.95 886.406 431.417C885.638 431.874 885.036 432.492 884.599 433.271C884.163 434.039 883.94 434.896 883.93 435.841V439.751C883.93 440.934 884.148 441.957 884.584 442.819C885.03 443.681 885.659 444.346 886.469 444.813C887.279 445.28 888.239 445.514 889.35 445.514C890.088 445.514 890.763 445.41 891.375 445.202C891.988 444.995 892.512 444.683 892.949 444.268C893.385 443.852 893.717 443.344 893.945 442.741L900.083 443.146C899.771 444.621 899.133 445.909 898.167 447.009C897.211 448.1 895.976 448.951 894.46 449.564C892.954 450.166 891.214 450.467 889.241 450.467ZM909.873 436.168V450H903.237V426.074H909.561V430.295H909.842C910.371 428.904 911.259 427.803 912.505 426.993C913.752 426.173 915.263 425.763 917.038 425.763C918.7 425.763 920.148 426.126 921.384 426.853C922.62 427.58 923.581 428.618 924.266 429.968C924.951 431.308 925.294 432.907 925.294 434.766V450H918.658V435.95C918.669 434.486 918.295 433.343 917.537 432.523C916.779 431.692 915.735 431.277 914.406 431.277C913.513 431.277 912.724 431.469 912.038 431.853C911.363 432.237 910.834 432.798 910.449 433.535C910.075 434.262 909.883 435.14 909.873 436.168ZM941.934 426.074V431.059H927.526V426.074H941.934ZM930.797 420.342H937.432V442.648C937.432 443.26 937.526 443.738 937.713 444.081C937.9 444.413 938.159 444.647 938.492 444.782C938.834 444.917 939.229 444.984 939.675 444.984C939.987 444.984 940.299 444.958 940.61 444.906C940.922 444.844 941.16 444.797 941.327 444.766L942.37 449.704C942.038 449.808 941.571 449.927 940.968 450.062C940.366 450.208 939.634 450.296 938.772 450.327C937.173 450.389 935.771 450.177 934.566 449.688C933.372 449.2 932.443 448.442 931.778 447.414C931.113 446.386 930.786 445.088 930.797 443.52V420.342ZM964.548 432.897L958.473 433.271C958.369 432.751 958.146 432.284 957.803 431.869C957.461 431.443 957.009 431.105 956.448 430.856C955.898 430.597 955.238 430.467 954.47 430.467C953.442 430.467 952.575 430.685 951.869 431.121C951.162 431.547 950.809 432.118 950.809 432.834C950.809 433.406 951.038 433.888 951.495 434.283C951.952 434.678 952.736 434.994 953.847 435.233L958.177 436.106C960.503 436.583 962.237 437.352 963.38 438.411C964.522 439.47 965.093 440.862 965.093 442.585C965.093 444.154 964.631 445.529 963.707 446.713C962.793 447.897 961.536 448.821 959.937 449.486C958.348 450.14 956.516 450.467 954.439 450.467C951.271 450.467 948.748 449.808 946.868 448.489C944.999 447.16 943.904 445.353 943.582 443.068L950.108 442.726C950.306 443.691 950.783 444.429 951.541 444.938C952.299 445.436 953.27 445.685 954.454 445.685C955.617 445.685 956.552 445.462 957.258 445.015C957.975 444.559 958.338 443.972 958.348 443.255C958.338 442.653 958.084 442.16 957.585 441.775C957.087 441.381 956.318 441.08 955.28 440.872L951.136 440.046C948.8 439.579 947.06 438.769 945.918 437.616C944.786 436.464 944.22 434.994 944.22 433.208C944.22 431.671 944.636 430.347 945.466 429.236C946.308 428.125 947.486 427.268 949.002 426.666C950.529 426.064 952.315 425.763 954.361 425.763C957.383 425.763 959.761 426.401 961.495 427.679C963.24 428.956 964.257 430.695 964.548 432.897ZM971.834 450.405C970.806 450.405 969.924 450.042 969.186 449.315C968.459 448.577 968.096 447.695 968.096 446.667C968.096 445.649 968.459 444.777 969.186 444.05C969.924 443.323 970.806 442.959 971.834 442.959C972.831 442.959 973.703 443.323 974.451 444.05C975.199 444.777 975.573 445.649 975.573 446.667C975.573 447.352 975.396 447.98 975.043 448.551C974.7 449.112 974.249 449.564 973.688 449.907C973.127 450.239 972.509 450.405 971.834 450.405Z" fill="#5A5A5A"/>
</g>
<defs>
<filter id="filter0_d_211_387" x="131.183" y="66.5465" width="1328.63" height="1127.63" filterUnits="userSpaceOnUse" color-interpolation-filters="sRGB">
<feFlood flood-opacity="0" result="BackgroundImageFix"/>
<feColorMatrix in="SourceAlpha" type="matrix" values="0 0 0 0 0 0 0 0 0 0 0 0 0 0 0 0 0 0 127 0" result="hardAlpha"/>
<feOffset dy="22.3634"/>
<feGaussianBlur stdDeviation="55.9085"/>
<feComposite in2="hardAlpha" operator="out"/>
<feColorMatrix type="matrix" values="0 0 0 0 0 0 0 0 0 0 0 0 0 0 0 0 0 0 0.15 0"/>
<feBlend mode="normal" in2="BackgroundImageFix" result="effect1_dropShadow_211_387"/>
<feBlend mode="normal" in="SourceGraphic" in2="effect1_dropShadow_211_387" result="shape"/>
</filter>
<clipPath id="clip0_211_387">
<rect width="1536" height="1024" fill="white"/>
</clipPath>
<clipPath id="clip1_211_387">
<path d="M243 181C243 167.193 254.193 156 268 156H1323C1336.81 156 1348 167.193 1348 181V1060H243V181Z" fill="white"/>
</clipPath>
</defs>
</svg>
