<svg width="1536" height="1024" viewBox="0 0 1536 1024" fill="none" xmlns="http://www.w3.org/2000/svg">
<g clip-path="url(#clip0_218_327)">
<g filter="url(#filter0_d_218_327)">
<g clip-path="url(#clip1_218_327)">
<path d="M243 181C243 167.193 254.193 156 268 156H1323C1336.81 156 1348 167.193 1348 181V1060H243V181Z" fill="#F9FAFB"/>
<mask id="path-4-inside-1_218_327" fill="white">
<path d="M243 156H1348V218H243V156Z"/>
</mask>
<path d="M243 156H1348V218H243V156Z" fill="white"/>
<circle cx="293" cy="187" r="10" fill="#D1D5DB"/>
<circle cx="294" cy="187" r="10" fill="#D1D5DB"/>
<circle cx="319" cy="187" r="10" fill="#D1D5DB"/>
<circle cx="344" cy="187" r="10" fill="#D1D5DB"/>
<path d="M1348 217H243V219H1348V217Z" fill="#D1D5DB" mask="url(#path-4-inside-1_218_327)"/>
<rect x="376.765" y="574.765" width="146.512" height="67.0776" rx="15.8868" stroke="#3d67f6" stroke-width="3.5304"/>
<path d="M432.709 604.227V601.542H445.362V604.227H440.645V616.947H437.426V604.227H432.709ZM448.472 617.165C447.735 617.165 447.078 617.038 446.501 616.782C445.925 616.521 445.468 616.137 445.132 615.631C444.801 615.119 444.636 614.483 444.636 613.72C444.636 613.078 444.754 612.539 444.99 612.103C445.225 611.667 445.546 611.316 445.952 611.05C446.359 610.784 446.82 610.584 447.336 610.448C447.858 610.313 448.405 610.217 448.976 610.162C449.648 610.092 450.19 610.027 450.601 609.967C451.012 609.902 451.311 609.806 451.496 609.681C451.682 609.555 451.775 609.37 451.775 609.124V609.079C451.775 608.603 451.624 608.234 451.323 607.973C451.027 607.713 450.606 607.582 450.059 607.582C449.483 607.582 449.024 607.71 448.683 607.966C448.342 608.217 448.116 608.532 448.006 608.914L445.042 608.673C445.193 607.971 445.489 607.364 445.93 606.853C446.371 606.336 446.94 605.94 447.637 605.664C448.339 605.383 449.152 605.243 450.075 605.243C450.716 605.243 451.331 605.318 451.917 605.468C452.509 605.619 453.033 605.852 453.49 606.168C453.951 606.484 454.315 606.89 454.58 607.387C454.846 607.878 454.979 608.467 454.979 609.154V616.947H451.94V615.345H451.85C451.664 615.706 451.416 616.025 451.105 616.3C450.794 616.571 450.421 616.784 449.984 616.94C449.548 617.09 449.044 617.165 448.472 617.165ZM449.39 614.954C449.861 614.954 450.278 614.861 450.639 614.676C451 614.485 451.283 614.229 451.489 613.908C451.694 613.587 451.797 613.224 451.797 612.818V611.591C451.697 611.657 451.559 611.717 451.383 611.772C451.213 611.822 451.02 611.87 450.804 611.915C450.589 611.955 450.373 611.993 450.157 612.028C449.942 612.058 449.746 612.085 449.571 612.111C449.194 612.166 448.866 612.253 448.585 612.374C448.304 612.494 448.086 612.657 447.931 612.863C447.775 613.063 447.698 613.314 447.698 613.615C447.698 614.051 447.855 614.385 448.171 614.615C448.492 614.841 448.899 614.954 449.39 614.954ZM456.89 616.947V601.542H460.094V607.334H460.192C460.332 607.023 460.535 606.707 460.801 606.386C461.072 606.06 461.423 605.789 461.854 605.574C462.291 605.353 462.832 605.243 463.479 605.243C464.322 605.243 465.099 605.463 465.811 605.905C466.523 606.341 467.092 607 467.519 607.883C467.945 608.761 468.158 609.861 468.158 611.185C468.158 612.474 467.95 613.562 467.534 614.45C467.122 615.333 466.561 616.002 465.849 616.458C465.142 616.91 464.349 617.135 463.472 617.135C462.85 617.135 462.321 617.033 461.884 616.827C461.453 616.621 461.1 616.363 460.824 616.052C460.548 615.736 460.337 615.418 460.192 615.097H460.049V616.947H456.89ZM460.026 611.17C460.026 611.857 460.122 612.457 460.312 612.968C460.503 613.48 460.779 613.878 461.14 614.164C461.501 614.445 461.94 614.585 462.456 614.585C462.978 614.585 463.419 614.442 463.78 614.157C464.141 613.866 464.414 613.465 464.6 612.953C464.791 612.436 464.886 611.842 464.886 611.17C464.886 610.503 464.793 609.917 464.607 609.41C464.422 608.904 464.149 608.507 463.788 608.222C463.427 607.936 462.983 607.793 462.456 607.793C461.935 607.793 461.493 607.931 461.132 608.207C460.776 608.482 460.503 608.873 460.312 609.38C460.122 609.886 460.026 610.483 460.026 611.17Z" fill="black"/>
<rect x="547.991" y="573" width="150.042" height="70.608" rx="17.652" fill="#EEF2F8"/>
<path d="M605.701 604.227V601.542H618.353V604.227H613.637V616.947H610.417V604.227H605.701ZM621.464 617.165C620.726 617.165 620.069 617.038 619.493 616.782C618.916 616.521 618.46 616.137 618.124 615.631C617.793 615.119 617.627 614.483 617.627 613.72C617.627 613.078 617.745 612.539 617.981 612.103C618.216 611.667 618.537 611.316 618.944 611.05C619.35 610.784 619.811 610.584 620.328 610.448C620.849 610.313 621.396 610.217 621.968 610.162C622.639 610.092 623.181 610.027 623.592 609.967C624.003 609.902 624.302 609.806 624.487 609.681C624.673 609.555 624.766 609.37 624.766 609.124V609.079C624.766 608.603 624.615 608.234 624.314 607.973C624.019 607.713 623.597 607.582 623.051 607.582C622.474 607.582 622.015 607.71 621.674 607.966C621.333 608.217 621.107 608.532 620.997 608.914L618.033 608.673C618.184 607.971 618.48 607.364 618.921 606.853C619.362 606.336 619.932 605.94 620.629 605.664C621.331 605.383 622.143 605.243 623.066 605.243C623.708 605.243 624.322 605.318 624.909 605.468C625.5 605.619 626.024 605.852 626.481 606.168C626.942 606.484 627.306 606.89 627.572 607.387C627.837 607.878 627.97 608.467 627.97 609.154V616.947H624.931V615.345H624.841C624.655 615.706 624.407 616.025 624.096 616.3C623.785 616.571 623.412 616.784 622.975 616.94C622.539 617.09 622.035 617.165 621.464 617.165ZM622.381 614.954C622.853 614.954 623.269 614.861 623.63 614.676C623.991 614.485 624.274 614.229 624.48 613.908C624.686 613.587 624.788 613.224 624.788 612.818V611.591C624.688 611.657 624.55 611.717 624.375 611.772C624.204 611.822 624.011 611.87 623.795 611.915C623.58 611.955 623.364 611.993 623.148 612.028C622.933 612.058 622.737 612.085 622.562 612.111C622.186 612.166 621.857 612.253 621.576 612.374C621.296 612.494 621.077 612.657 620.922 612.863C620.766 613.063 620.689 613.314 620.689 613.615C620.689 614.051 620.847 614.385 621.163 614.615C621.484 614.841 621.89 614.954 622.381 614.954ZM629.881 616.947V601.542H633.085V607.334H633.183C633.324 607.023 633.527 606.707 633.792 606.386C634.063 606.06 634.414 605.789 634.846 605.574C635.282 605.353 635.823 605.243 636.47 605.243C637.313 605.243 638.09 605.463 638.802 605.905C639.514 606.341 640.084 607 640.51 607.883C640.936 608.761 641.149 609.861 641.149 611.185C641.149 612.474 640.941 613.562 640.525 614.45C640.114 615.333 639.552 616.002 638.84 616.458C638.133 616.91 637.34 617.135 636.463 617.135C635.841 617.135 635.312 617.033 634.876 616.827C634.444 616.621 634.091 616.363 633.815 616.052C633.539 615.736 633.329 615.418 633.183 615.097H633.04V616.947H629.881ZM633.018 611.17C633.018 611.857 633.113 612.457 633.304 612.968C633.494 613.48 633.77 613.878 634.131 614.164C634.492 614.445 634.931 614.585 635.447 614.585C635.969 614.585 636.41 614.442 636.771 614.157C637.132 613.866 637.406 613.465 637.591 612.953C637.782 612.436 637.877 611.842 637.877 611.17C637.877 610.503 637.784 609.917 637.599 609.41C637.413 608.904 637.14 608.507 636.779 608.222C636.418 607.936 635.974 607.793 635.447 607.793C634.926 607.793 634.485 607.931 634.123 608.207C633.767 608.482 633.494 608.873 633.304 609.38C633.113 609.886 633.018 610.483 633.018 611.17Z" fill="black"/>
<rect x="720.979" y="573" width="150.042" height="70.608" rx="17.652" fill="#EEF2F8"/>
<path d="M778.689 604.227V601.542H791.341V604.227H786.625V616.947H783.405V604.227H778.689ZM794.452 617.165C793.715 617.165 793.058 617.038 792.481 616.782C791.904 616.521 791.448 616.137 791.112 615.631C790.781 615.119 790.615 614.483 790.615 613.72C790.615 613.078 790.733 612.539 790.969 612.103C791.205 611.667 791.526 611.316 791.932 611.05C792.338 610.784 792.799 610.584 793.316 610.448C793.837 610.313 794.384 610.217 794.956 610.162C795.628 610.092 796.169 610.027 796.581 609.967C796.992 609.902 797.29 609.806 797.476 609.681C797.661 609.555 797.754 609.37 797.754 609.124V609.079C797.754 608.603 797.604 608.234 797.303 607.973C797.007 607.713 796.586 607.582 796.039 607.582C795.462 607.582 795.003 607.71 794.662 607.966C794.321 608.217 794.096 608.532 793.985 608.914L791.022 608.673C791.172 607.971 791.468 607.364 791.909 606.853C792.351 606.336 792.92 605.94 793.617 605.664C794.319 605.383 795.131 605.243 796.054 605.243C796.696 605.243 797.31 605.318 797.897 605.468C798.489 605.619 799.013 605.852 799.469 606.168C799.93 606.484 800.294 606.89 800.56 607.387C800.826 607.878 800.958 608.467 800.958 609.154V616.947H797.92V615.345H797.829C797.644 615.706 797.395 616.025 797.085 616.3C796.774 616.571 796.4 616.784 795.964 616.94C795.527 617.09 795.023 617.165 794.452 617.165ZM795.37 614.954C795.841 614.954 796.257 614.861 796.618 614.676C796.979 614.485 797.263 614.229 797.468 613.908C797.674 613.587 797.777 613.224 797.777 612.818V611.591C797.676 611.657 797.538 611.717 797.363 611.772C797.192 611.822 796.999 611.87 796.784 611.915C796.568 611.955 796.352 611.993 796.137 612.028C795.921 612.058 795.726 612.085 795.55 612.111C795.174 612.166 794.845 612.253 794.565 612.374C794.284 612.494 794.066 612.657 793.91 612.863C793.755 613.063 793.677 613.314 793.677 613.615C793.677 614.051 793.835 614.385 794.151 614.615C794.472 614.841 794.878 614.954 795.37 614.954ZM802.869 616.947V601.542H806.074V607.334H806.171C806.312 607.023 806.515 606.707 806.781 606.386C807.052 606.06 807.403 605.789 807.834 605.574C808.27 605.353 808.812 605.243 809.459 605.243C810.301 605.243 811.078 605.463 811.791 605.905C812.503 606.341 813.072 607 813.498 607.883C813.924 608.761 814.137 609.861 814.137 611.185C814.137 612.474 813.929 613.562 813.513 614.45C813.102 615.333 812.54 616.002 811.828 616.458C811.121 616.91 810.329 617.135 809.451 617.135C808.829 617.135 808.3 617.033 807.864 616.827C807.433 616.621 807.079 616.363 806.803 616.052C806.528 615.736 806.317 615.418 806.171 615.097H806.029V616.947H802.869ZM806.006 611.17C806.006 611.857 806.101 612.457 806.292 612.968C806.482 613.48 806.758 613.878 807.119 614.164C807.48 614.445 807.919 614.585 808.436 614.585C808.957 614.585 809.398 614.442 809.76 614.157C810.121 613.866 810.394 613.465 810.579 612.953C810.77 612.436 810.865 611.842 810.865 611.17C810.865 610.503 810.773 609.917 810.587 609.41C810.401 608.904 810.128 608.507 809.767 608.222C809.406 607.936 808.962 607.793 808.436 607.793C807.914 607.793 807.473 607.931 807.112 608.207C806.756 608.482 806.482 608.873 806.292 609.38C806.101 609.886 806.006 610.483 806.006 611.17Z" fill="black"/>
<rect x="893.971" y="573" width="150.042" height="70.608" rx="17.652" fill="#EEF2F8"/>
<path d="M951.68 604.227V601.542H964.332V604.227H959.616V616.947H956.397V604.227H951.68ZM967.443 617.165C966.706 617.165 966.049 617.038 965.472 616.782C964.896 616.521 964.439 616.137 964.103 615.631C963.772 615.119 963.607 614.483 963.607 613.72C963.607 613.078 963.725 612.539 963.96 612.103C964.196 611.667 964.517 611.316 964.923 611.05C965.329 610.784 965.791 610.584 966.307 610.448C966.829 610.313 967.375 610.217 967.947 610.162C968.619 610.092 969.161 610.027 969.572 609.967C969.983 609.902 970.281 609.806 970.467 609.681C970.652 609.555 970.745 609.37 970.745 609.124V609.079C970.745 608.603 970.595 608.234 970.294 607.973C969.998 607.713 969.577 607.582 969.03 607.582C968.453 607.582 967.995 607.71 967.654 607.966C967.313 608.217 967.087 608.532 966.977 608.914L964.013 608.673C964.163 607.971 964.459 607.364 964.901 606.853C965.342 606.336 965.911 605.94 966.608 605.664C967.31 605.383 968.123 605.243 969.045 605.243C969.687 605.243 970.301 605.318 970.888 605.468C971.48 605.619 972.004 605.852 972.46 606.168C972.922 606.484 973.285 606.89 973.551 607.387C973.817 607.878 973.95 608.467 973.95 609.154V616.947H970.911V615.345H970.82C970.635 615.706 970.387 616.025 970.076 616.3C969.765 616.571 969.391 616.784 968.955 616.94C968.519 617.09 968.015 617.165 967.443 617.165ZM968.361 614.954C968.832 614.954 969.248 614.861 969.609 614.676C969.97 614.485 970.254 614.229 970.459 613.908C970.665 613.587 970.768 613.224 970.768 612.818V611.591C970.668 611.657 970.53 611.717 970.354 611.772C970.184 611.822 969.991 611.87 969.775 611.915C969.559 611.955 969.344 611.993 969.128 612.028C968.912 612.058 968.717 612.085 968.541 612.111C968.165 612.166 967.837 612.253 967.556 612.374C967.275 612.494 967.057 612.657 966.901 612.863C966.746 613.063 966.668 613.314 966.668 613.615C966.668 614.051 966.826 614.385 967.142 614.615C967.463 614.841 967.869 614.954 968.361 614.954ZM975.86 616.947V601.542H979.065V607.334H979.163C979.303 607.023 979.506 606.707 979.772 606.386C980.043 606.06 980.394 605.789 980.825 605.574C981.261 605.353 981.803 605.243 982.45 605.243C983.292 605.243 984.07 605.463 984.782 605.905C985.494 606.341 986.063 607 986.489 607.883C986.916 608.761 987.129 609.861 987.129 611.185C987.129 612.474 986.921 613.562 986.504 614.45C986.093 615.333 985.531 616.002 984.819 616.458C984.112 616.91 983.32 617.135 982.442 617.135C981.821 617.135 981.291 617.033 980.855 616.827C980.424 616.621 980.07 616.363 979.795 616.052C979.519 615.736 979.308 615.418 979.163 615.097H979.02V616.947H975.86ZM978.997 611.17C978.997 611.857 979.092 612.457 979.283 612.968C979.474 613.48 979.749 613.878 980.11 614.164C980.472 614.445 980.91 614.585 981.427 614.585C981.948 614.585 982.39 614.442 982.751 614.157C983.112 613.866 983.385 613.465 983.571 612.953C983.761 612.436 983.857 611.842 983.857 611.17C983.857 610.503 983.764 609.917 983.578 609.41C983.393 608.904 983.119 608.507 982.758 608.222C982.397 607.936 981.953 607.793 981.427 607.793C980.905 607.793 980.464 607.931 980.103 608.207C979.747 608.482 979.474 608.873 979.283 609.38C979.092 609.886 978.997 610.483 978.997 611.17Z" fill="black"/>
<rect x="1066.96" y="573" width="150.042" height="70.608" rx="17.652" fill="#EEF2F8"/>
<path d="M1124.67 604.227V601.542H1137.32V604.227H1132.6V616.947H1129.38V604.227H1124.67ZM1140.43 617.165C1139.69 617.165 1139.04 617.038 1138.46 616.782C1137.88 616.521 1137.43 616.137 1137.09 615.631C1136.76 615.119 1136.59 614.483 1136.59 613.72C1136.59 613.078 1136.71 612.539 1136.95 612.103C1137.18 611.667 1137.5 611.316 1137.91 611.05C1138.32 610.784 1138.78 610.584 1139.29 610.448C1139.82 610.313 1140.36 610.217 1140.93 610.162C1141.61 610.092 1142.15 610.027 1142.56 609.967C1142.97 609.902 1143.27 609.806 1143.45 609.681C1143.64 609.555 1143.73 609.37 1143.73 609.124V609.079C1143.73 608.603 1143.58 608.234 1143.28 607.973C1142.99 607.713 1142.56 607.582 1142.02 607.582C1141.44 607.582 1140.98 607.71 1140.64 607.966C1140.3 608.217 1140.07 608.532 1139.96 608.914L1137 608.673C1137.15 607.971 1137.45 607.364 1137.89 606.853C1138.33 606.336 1138.9 605.94 1139.6 605.664C1140.3 605.383 1141.11 605.243 1142.03 605.243C1142.67 605.243 1143.29 605.318 1143.88 605.468C1144.47 605.619 1144.99 605.852 1145.45 606.168C1145.91 606.484 1146.27 606.89 1146.54 607.387C1146.8 607.878 1146.94 608.467 1146.94 609.154V616.947H1143.9V615.345H1143.81C1143.62 615.706 1143.37 616.025 1143.06 616.3C1142.75 616.571 1142.38 616.784 1141.94 616.94C1141.51 617.09 1141 617.165 1140.43 617.165ZM1141.35 614.954C1141.82 614.954 1142.24 614.861 1142.6 614.676C1142.96 614.485 1143.24 614.229 1143.45 613.908C1143.65 613.587 1143.76 613.224 1143.76 612.818V611.591C1143.65 611.657 1143.52 611.717 1143.34 611.772C1143.17 611.822 1142.98 611.87 1142.76 611.915C1142.55 611.955 1142.33 611.993 1142.12 612.028C1141.9 612.058 1141.7 612.085 1141.53 612.111C1141.15 612.166 1140.82 612.253 1140.54 612.374C1140.26 612.494 1140.04 612.657 1139.89 612.863C1139.73 613.063 1139.66 613.314 1139.66 613.615C1139.66 614.051 1139.81 614.385 1140.13 614.615C1140.45 614.841 1140.86 614.954 1141.35 614.954ZM1148.85 616.947V601.542H1152.05V607.334H1152.15C1152.29 607.023 1152.49 606.707 1152.76 606.386C1153.03 606.06 1153.38 605.789 1153.81 605.574C1154.25 605.353 1154.79 605.243 1155.44 605.243C1156.28 605.243 1157.06 605.463 1157.77 605.905C1158.48 606.341 1159.05 607 1159.48 607.883C1159.9 608.761 1160.12 609.861 1160.12 611.185C1160.12 612.474 1159.91 613.562 1159.49 614.45C1159.08 615.333 1158.52 616.002 1157.81 616.458C1157.1 616.91 1156.31 617.135 1155.43 617.135C1154.81 617.135 1154.28 617.033 1153.84 616.827C1153.41 616.621 1153.06 616.363 1152.78 616.052C1152.51 615.736 1152.3 615.418 1152.15 615.097H1152.01V616.947H1148.85ZM1151.98 611.17C1151.98 611.857 1152.08 612.457 1152.27 612.968C1152.46 613.48 1152.74 613.878 1153.1 614.164C1153.46 614.445 1153.9 614.585 1154.41 614.585C1154.94 614.585 1155.38 614.442 1155.74 614.157C1156.1 613.866 1156.37 613.465 1156.56 612.953C1156.75 612.436 1156.84 611.842 1156.84 611.17C1156.84 610.503 1156.75 609.917 1156.57 609.41C1156.38 608.904 1156.11 608.507 1155.75 608.222C1155.38 607.936 1154.94 607.793 1154.41 607.793C1153.89 607.793 1153.45 607.931 1153.09 608.207C1152.73 608.482 1152.46 608.873 1152.27 609.38C1152.08 609.886 1151.98 610.483 1151.98 611.17Z" fill="black"/>
</g>
<path d="M243.5 181C243.5 167.469 254.469 156.5 268 156.5H1323C1336.53 156.5 1347.5 167.469 1347.5 181V1059.5H243.5V181Z" stroke="#BFC3C9" shape-rendering="crispEdges"/>
</g>
</g>
<defs>
<filter id="filter0_d_218_327" x="131.183" y="66.5465" width="1328.63" height="1127.63" filterUnits="userSpaceOnUse" color-interpolation-filters="sRGB">
<feFlood flood-opacity="0" result="BackgroundImageFix"/>
<feColorMatrix in="SourceAlpha" type="matrix" values="0 0 0 0 0 0 0 0 0 0 0 0 0 0 0 0 0 0 127 0" result="hardAlpha"/>
<feOffset dy="22.3634"/>
<feGaussianBlur stdDeviation="55.9085"/>
<feComposite in2="hardAlpha" operator="out"/>
<feColorMatrix type="matrix" values="0 0 0 0 0 0 0 0 0 0 0 0 0 0 0 0 0 0 0.15 0"/>
<feBlend mode="normal" in2="BackgroundImageFix" result="effect1_dropShadow_218_327"/>
<feBlend mode="normal" in="SourceGraphic" in2="effect1_dropShadow_218_327" result="shape"/>
</filter>
<clipPath id="clip0_218_327">
<rect width="1536" height="1024" fill="white"/>
</clipPath>
<clipPath id="clip1_218_327">
<path d="M243 181C243 167.193 254.193 156 268 156H1323C1336.81 156 1348 167.193 1348 181V1060H243V181Z" fill="white"/>
</clipPath>
</defs>
</svg>
