<svg width="1536" height="1024" viewBox="0 0 1536 1024" fill="none" xmlns="http://www.w3.org/2000/svg">
<g clip-path="url(#clip0_214_2)">
<g filter="url(#filter0_d_214_2)">
<g clip-path="url(#clip1_214_2)">
<path d="M243 182C243 168.193 254.193 157 268 157H1323C1336.81 157 1348 168.193 1348 182V1061H243V182Z" fill="#F9FAFB"/>
<mask id="path-4-inside-1_214_2" fill="white">
<path d="M243 157H1348V219H243V157Z"/>
</mask>
<path d="M243 157H1348V219H243V157Z" fill="white"/>
<circle cx="293" cy="188" r="10" fill="#D1D5DB"/>
<circle cx="294" cy="188" r="10" fill="#D1D5DB"/>
<circle cx="319" cy="188" r="10" fill="#D1D5DB"/>
<circle cx="344" cy="188" r="10" fill="#D1D5DB"/>
<path d="M1348 218H243V220H1348V218Z" fill="#D1D5DB" mask="url(#path-4-inside-1_214_2)"/>
<path d="M650.773 345.099H659.091L667.876 366.532H668.25L677.035 345.099H685.353V377H678.811V356.236H678.546L670.29 376.844H665.835L657.58 356.158H657.315V377H650.773V345.099ZM700.373 377.467C697.912 377.467 695.794 376.969 694.018 375.972C692.253 374.965 690.892 373.542 689.937 371.704C688.981 369.855 688.504 367.67 688.504 365.146C688.504 362.685 688.981 360.525 689.937 358.666C690.892 356.807 692.237 355.359 693.971 354.32C695.716 353.282 697.761 352.763 700.108 352.763C701.687 352.763 703.156 353.017 704.517 353.526C705.887 354.024 707.082 354.777 708.099 355.784C709.127 356.792 709.927 358.059 710.498 359.585C711.069 361.101 711.355 362.877 711.355 364.912V366.735H691.152V362.623H705.109C705.109 361.667 704.901 360.821 704.485 360.084C704.07 359.346 703.494 358.77 702.756 358.355C702.03 357.929 701.183 357.716 700.217 357.716C699.21 357.716 698.317 357.95 697.538 358.417C696.77 358.874 696.167 359.492 695.731 360.271C695.295 361.039 695.072 361.896 695.062 362.841V366.751C695.062 367.934 695.28 368.957 695.716 369.819C696.162 370.681 696.791 371.346 697.601 371.813C698.411 372.28 699.371 372.514 700.482 372.514C701.22 372.514 701.895 372.41 702.507 372.202C703.12 371.995 703.644 371.683 704.08 371.268C704.517 370.852 704.849 370.344 705.077 369.741L711.215 370.146C710.903 371.621 710.264 372.909 709.299 374.009C708.343 375.1 707.108 375.951 705.591 376.564C704.086 377.166 702.346 377.467 700.373 377.467ZM725.273 377.467C722.812 377.467 720.693 376.969 718.918 375.972C717.152 374.965 715.792 373.542 714.836 371.704C713.881 369.855 713.403 367.67 713.403 365.146C713.403 362.685 713.881 360.525 714.836 358.666C715.792 356.807 717.137 355.359 718.871 354.32C720.615 353.282 722.661 352.763 725.008 352.763C726.587 352.763 728.056 353.017 729.416 353.526C730.787 354.024 731.981 354.777 732.999 355.784C734.027 356.792 734.827 358.059 735.398 359.585C735.969 361.101 736.254 362.877 736.254 364.912V366.735H716.051V362.623H730.008C730.008 361.667 729.801 360.821 729.385 360.084C728.97 359.346 728.393 358.77 727.656 358.355C726.929 357.929 726.083 357.716 725.117 357.716C724.11 357.716 723.217 357.95 722.438 358.417C721.669 358.874 721.067 359.492 720.631 360.271C720.195 361.039 719.972 361.896 719.961 362.841V366.751C719.961 367.934 720.179 368.957 720.615 369.819C721.062 370.681 721.69 371.346 722.5 371.813C723.31 372.28 724.271 372.514 725.382 372.514C726.119 372.514 726.794 372.41 727.407 372.202C728.02 371.995 728.544 371.683 728.98 371.268C729.416 370.852 729.749 370.344 729.977 369.741L736.114 370.146C735.803 371.621 735.164 372.909 734.198 374.009C733.243 375.1 732.007 375.951 730.491 376.564C728.985 377.166 727.246 377.467 725.273 377.467ZM751.995 353.074V358.059H737.587V353.074H751.995ZM740.858 347.342H747.493V369.648C747.493 370.26 747.587 370.738 747.774 371.081C747.961 371.413 748.22 371.647 748.553 371.782C748.895 371.917 749.29 371.984 749.736 371.984C750.048 371.984 750.36 371.958 750.671 371.906C750.983 371.844 751.221 371.797 751.388 371.766L752.431 376.704C752.099 376.808 751.632 376.927 751.029 377.062C750.427 377.208 749.695 377.296 748.833 377.327C747.234 377.389 745.832 377.177 744.627 376.688C743.433 376.2 742.504 375.442 741.839 374.414C741.174 373.386 740.847 372.088 740.858 370.52V347.342ZM774.648 377.467C772.229 377.467 770.136 376.953 768.371 375.925C766.616 374.887 765.261 373.443 764.305 371.595C763.35 369.736 762.872 367.581 762.872 365.131C762.872 362.659 763.35 360.499 764.305 358.651C765.261 356.792 766.616 355.348 768.371 354.32C770.136 353.282 772.229 352.763 774.648 352.763C777.068 352.763 779.155 353.282 780.91 354.32C782.675 355.348 784.036 356.792 784.991 358.651C785.947 360.499 786.424 362.659 786.424 365.131C786.424 367.581 785.947 369.736 784.991 371.595C784.036 373.443 782.675 374.887 780.91 375.925C779.155 376.953 777.068 377.467 774.648 377.467ZM774.679 372.327C775.78 372.327 776.699 372.015 777.436 371.392C778.174 370.759 778.729 369.897 779.103 368.807C779.487 367.716 779.679 366.475 779.679 365.084C779.679 363.692 779.487 362.451 779.103 361.361C778.729 360.271 778.174 359.409 777.436 358.775C776.699 358.142 775.78 357.825 774.679 357.825C773.568 357.825 772.634 358.142 771.876 358.775C771.128 359.409 770.562 360.271 770.178 361.361C769.804 362.451 769.617 363.692 769.617 365.084C769.617 366.475 769.804 367.716 770.178 368.807C770.562 369.897 771.128 370.759 771.876 371.392C772.634 372.015 773.568 372.327 774.679 372.327ZM804.766 366.813V353.074H811.402V377H805.031V372.654H804.782C804.242 374.056 803.343 375.183 802.087 376.034C800.841 376.886 799.319 377.312 797.523 377.312C795.924 377.312 794.517 376.948 793.302 376.221C792.087 375.494 791.136 374.461 790.451 373.121C789.776 371.782 789.433 370.177 789.423 368.308V353.074H796.059V367.124C796.069 368.537 796.448 369.653 797.196 370.473C797.943 371.294 798.946 371.704 800.202 371.704C801.002 371.704 801.749 371.522 802.445 371.159C803.141 370.785 803.702 370.235 804.127 369.508C804.564 368.781 804.776 367.882 804.766 366.813ZM815.394 377V353.074H821.827V357.249H822.076C822.512 355.764 823.244 354.642 824.272 353.884C825.3 353.116 826.484 352.731 827.824 352.731C828.156 352.731 828.514 352.752 828.899 352.794C829.283 352.835 829.62 352.892 829.911 352.965V358.853C829.6 358.76 829.169 358.677 828.618 358.604C828.068 358.531 827.564 358.495 827.107 358.495C826.131 358.495 825.259 358.708 824.49 359.133C823.732 359.549 823.13 360.13 822.684 360.878C822.247 361.626 822.029 362.488 822.029 363.464V377H815.394ZM853.588 353.074V358.059H839.18V353.074H853.588ZM842.451 347.342H849.087V369.648C849.087 370.26 849.18 370.738 849.367 371.081C849.554 371.413 849.814 371.647 850.146 371.782C850.489 371.917 850.883 371.984 851.33 371.984C851.641 371.984 851.953 371.958 852.264 371.906C852.576 371.844 852.815 371.797 852.981 371.766L854.025 376.704C853.692 376.808 853.225 376.927 852.623 377.062C852.02 377.208 851.288 377.296 850.426 377.327C848.827 377.389 847.425 377.177 846.221 376.688C845.026 376.2 844.097 375.442 843.432 374.414C842.768 373.386 842.441 372.088 842.451 370.52V347.342ZM867.242 377.467C864.781 377.467 862.662 376.969 860.886 375.972C859.121 374.965 857.761 373.542 856.805 371.704C855.85 369.855 855.372 367.67 855.372 365.146C855.372 362.685 855.85 360.525 856.805 358.666C857.761 356.807 859.105 355.359 860.84 354.32C862.584 353.282 864.63 352.763 866.977 352.763C868.555 352.763 870.025 353.017 871.385 353.526C872.756 354.024 873.95 354.777 874.968 355.784C875.996 356.792 876.795 358.059 877.367 359.585C877.938 361.101 878.223 362.877 878.223 364.912V366.735H858.02V362.623H871.977C871.977 361.667 871.769 360.821 871.354 360.084C870.939 359.346 870.362 358.77 869.625 358.355C868.898 357.929 868.052 357.716 867.086 357.716C866.079 357.716 865.186 357.95 864.407 358.417C863.638 358.874 863.036 359.492 862.6 360.271C862.164 361.039 861.94 361.896 861.93 362.841V366.751C861.93 367.934 862.148 368.957 862.584 369.819C863.031 370.681 863.659 371.346 864.469 371.813C865.279 372.28 866.24 372.514 867.351 372.514C868.088 372.514 868.763 372.41 869.376 372.202C869.988 371.995 870.513 371.683 870.949 371.268C871.385 370.852 871.717 370.344 871.946 369.741L878.083 370.146C877.772 371.621 877.133 372.909 876.167 374.009C875.212 375.1 873.976 375.951 872.46 376.564C870.954 377.166 869.215 377.467 867.242 377.467ZM888.06 377.452C886.534 377.452 885.173 377.187 883.979 376.657C882.785 376.117 881.84 375.323 881.144 374.274C880.459 373.215 880.116 371.896 880.116 370.318C880.116 368.988 880.36 367.872 880.848 366.969C881.336 366.065 882.001 365.338 882.842 364.788C883.683 364.237 884.639 363.822 885.708 363.542C886.788 363.261 887.92 363.064 889.104 362.95C890.496 362.804 891.617 362.669 892.469 362.545C893.32 362.41 893.938 362.212 894.322 361.953C894.706 361.693 894.899 361.309 894.899 360.8V360.707C894.899 359.72 894.587 358.957 893.964 358.417C893.351 357.877 892.479 357.607 891.347 357.607C890.153 357.607 889.203 357.872 888.496 358.401C887.79 358.921 887.323 359.575 887.095 360.364L880.957 359.866C881.269 358.412 881.882 357.155 882.795 356.096C883.709 355.026 884.888 354.206 886.331 353.635C887.785 353.053 889.467 352.763 891.378 352.763C892.707 352.763 893.98 352.918 895.194 353.23C896.42 353.541 897.505 354.024 898.45 354.679C899.405 355.333 900.158 356.174 900.709 357.202C901.259 358.22 901.534 359.44 901.534 360.863V377H895.241V373.682H895.054C894.67 374.43 894.156 375.089 893.512 375.66C892.868 376.221 892.095 376.663 891.191 376.984C890.288 377.296 889.244 377.452 888.06 377.452ZM889.961 372.872C890.937 372.872 891.799 372.68 892.546 372.296C893.294 371.901 893.881 371.372 894.307 370.707C894.732 370.042 894.945 369.29 894.945 368.448V365.909C894.738 366.044 894.452 366.169 894.089 366.283C893.735 366.387 893.336 366.486 892.889 366.579C892.443 366.662 891.996 366.74 891.55 366.813C891.103 366.875 890.698 366.932 890.335 366.984C889.556 367.098 888.876 367.28 888.294 367.529C887.712 367.779 887.261 368.116 886.939 368.542C886.617 368.957 886.456 369.476 886.456 370.1C886.456 371.003 886.783 371.694 887.437 372.171C888.102 372.639 888.943 372.872 889.961 372.872ZM905.366 377V353.074H911.691V357.295H911.971C912.469 355.894 913.3 354.788 914.463 353.978C915.626 353.168 917.018 352.763 918.638 352.763C920.279 352.763 921.675 353.173 922.828 353.993C923.981 354.803 924.749 355.904 925.133 357.295H925.383C925.871 355.925 926.753 354.829 928.031 354.009C929.318 353.178 930.84 352.763 932.595 352.763C934.827 352.763 936.639 353.474 938.031 354.897C939.433 356.309 940.134 358.313 940.134 360.909V377H933.514V362.218C933.514 360.888 933.16 359.892 932.454 359.227C931.748 358.562 930.866 358.23 929.806 358.23C928.602 358.23 927.662 358.614 926.987 359.383C926.312 360.141 925.974 361.143 925.974 362.389V377H919.541V362.077C919.541 360.904 919.204 359.969 918.529 359.274C917.864 358.578 916.987 358.23 915.896 358.23C915.159 358.23 914.494 358.417 913.902 358.791C913.321 359.154 912.859 359.668 912.516 360.333C912.173 360.987 912.002 361.756 912.002 362.638V377H905.366Z" fill="#5A5A5A"/>
<rect x="316.5" y="563.5" width="279" height="223" rx="24.5" fill="white" stroke="#BFC3C9"/>
<rect x="320" y="805" width="272.451" height="10.6496" rx="5.32478" fill="#D1D5DB"/>
<rect x="698" y="420" width="196" height="11" rx="5.5" fill="#D1D5DB"/>
<rect x="358" y="844.984" width="195.288" height="10.3807" rx="5.19037" fill="#D1D5DB"/>
<path d="M356 787C356 740.608 393.608 703 440 703H472C518.392 703 556 740.608 556 787H356Z" fill="#DDE0E4"/>
<rect x="406" y="599" width="100" height="100" rx="50" fill="#DDE0E4"/>
<rect x="656.5" y="563.5" width="279" height="223" rx="24.5" fill="white" stroke="#BFC3C9"/>
<rect x="660" y="805" width="272.451" height="10.6496" rx="5.32478" fill="#D1D5DB"/>
<rect x="698" y="844.984" width="195.288" height="10.3807" rx="5.19037" fill="#D1D5DB"/>
<path d="M696 787C696 740.608 733.608 703 780 703H812C858.392 703 896 740.608 896 787H696Z" fill="#DDE0E4"/>
<rect x="746" y="599" width="100" height="100" rx="50" fill="#DDE0E4"/>
<rect x="996.5" y="563.5" width="279" height="223" rx="24.5" fill="white" stroke="#BFC3C9"/>
<rect x="1000" y="805" width="272.451" height="10.6496" rx="5.32478" fill="#D1D5DB"/>
<rect x="1038" y="844.984" width="195.288" height="10.3807" rx="5.19037" fill="#D1D5DB"/>
<path d="M1036 787C1036 740.608 1073.61 703 1120 703H1152C1198.39 703 1236 740.608 1236 787H1036Z" fill="#DDE0E4"/>
<rect x="1086" y="599" width="100" height="100" rx="50" fill="#DDE0E4"/>
</g>
<path d="M243.5 182C243.5 168.469 254.469 157.5 268 157.5H1323C1336.53 157.5 1347.5 168.469 1347.5 182V1060.5H243.5V182Z" stroke="#BFC3C9" shape-rendering="crispEdges"/>
</g>
</g>
<defs>
<filter id="filter0_d_214_2" x="131.183" y="67.5465" width="1328.63" height="1127.63" filterUnits="userSpaceOnUse" color-interpolation-filters="sRGB">
<feFlood flood-opacity="0" result="BackgroundImageFix"/>
<feColorMatrix in="SourceAlpha" type="matrix" values="0 0 0 0 0 0 0 0 0 0 0 0 0 0 0 0 0 0 127 0" result="hardAlpha"/>
<feOffset dy="22.3634"/>
<feGaussianBlur stdDeviation="55.9085"/>
<feComposite in2="hardAlpha" operator="out"/>
<feColorMatrix type="matrix" values="0 0 0 0 0 0 0 0 0 0 0 0 0 0 0 0 0 0 0.15 0"/>
<feBlend mode="normal" in2="BackgroundImageFix" result="effect1_dropShadow_214_2"/>
<feBlend mode="normal" in="SourceGraphic" in2="effect1_dropShadow_214_2" result="shape"/>
</filter>
<clipPath id="clip0_214_2">
<rect width="1536" height="1024" fill="white"/>
</clipPath>
<clipPath id="clip1_214_2">
<path d="M243 182C243 168.193 254.193 157 268 157H1323C1336.81 157 1348 168.193 1348 182V1061H243V182Z" fill="white"/>
</clipPath>
</defs>
</svg>
