<svg width="4086" height="2232" viewBox="0 0 4086 2232" fill="none" xmlns="http://www.w3.org/2000/svg">
<g clip-path="url(#clip0_503_985)">
<path d="M4085.5 0H0.5V2232H4085.5V0Z" fill="#DDE2E9"/>
<path d="M1880.5 1072.75C1880.5 1030.04 1880.5 1008.68 1888.94 992.427C1896.06 978.729 1907.23 967.56 1920.93 960.444C1937.18 952 1958.54 952 2001.25 952H2084.75C2127.46 952 2148.82 952 2165.07 960.444C2178.77 967.56 2189.94 978.729 2197.06 992.427C2205.5 1008.68 2205.5 1030.04 2205.5 1072.75V1156.25C2205.5 1198.96 2205.5 1220.32 2197.06 1236.57C2189.94 1250.27 2178.77 1261.44 2165.07 1268.56C2148.82 1277 2127.46 1277 2084.75 1277H2001.25C1958.54 1277 1937.18 1277 1920.93 1268.56C1907.23 1261.44 1896.06 1250.27 1888.94 1236.57C1880.5 1220.32 1880.5 1198.96 1880.5 1156.25V1072.75Z" fill="#010101"/>
<path d="M2081.63 1064.18L2042.89 1102.92L2003.61 1064.18L2042.89 1024.9L2081.63 1064.18ZM2131.52 1114.06L2092.78 1153.34L2054.03 1114.06L2092.78 1075.32L2131.52 1114.06ZM2031.74 1114.06L1992.47 1153.34L1953.19 1114.06L1992.47 1075.32L2031.74 1114.06ZM2081.63 1164.49L2042.89 1203.23L2003.61 1164.49L2042.89 1125.21L2081.63 1164.49Z" fill="white"/>
<rect x="1953" y="1025" width="175" height="194" fill="#010101"/>
<path d="M2055.08 1061.23C2055.08 1053 2065.09 1048.95 2070.82 1054.85L2123.59 1109.25C2127.06 1112.83 2129.01 1117.62 2129.01 1122.61V1185.57C2129.01 1193.8 2119 1197.85 2113.27 1191.95L2060.5 1137.55C2057.03 1133.97 2055.08 1129.18 2055.08 1124.19V1061.23Z" fill="#737373"/>
<path d="M2011.03 1061.23C2011.03 1053 2021.04 1048.95 2026.76 1054.85L2078.76 1108.44C2082.73 1112.54 2084.96 1118.02 2084.96 1123.73V1185.57C2084.96 1193.8 2074.95 1197.85 2069.22 1191.95L2016.45 1137.55C2012.98 1133.97 2011.03 1129.18 2011.03 1124.19V1061.23Z" fill="#8F8F8F"/>
<path d="M1966.99 1061.23C1966.99 1053 1977 1048.95 1982.73 1054.85L2035.5 1109.25C2038.97 1112.83 2040.92 1117.62 2040.92 1122.61V1185.57C2040.92 1193.8 2030.91 1197.85 2025.18 1191.95L1972.41 1137.55C1968.94 1133.97 1966.99 1129.18 1966.99 1124.19V1061.23Z" fill="#ABABAB"/>
</g>
<defs>
<clipPath id="clip0_503_985">
<rect width="4085" height="2232" fill="white" transform="translate(0.5)"/>
</clipPath>
</defs>
</svg>
