<svg width="4085" height="4085" viewBox="0 0 4085 4085" fill="none" xmlns="http://www.w3.org/2000/svg">
<g clip-path="url(#clip0_503_997)">
<path d="M4085 0H0V4085H4085V0Z" fill="#DDE2E9"/>
<path d="M1880 1998.75C1880 1956.04 1880 1934.68 1888.44 1918.43C1895.56 1904.73 1906.73 1893.56 1920.43 1886.44C1936.68 1878 1958.04 1878 2000.75 1878H2084.25C2126.96 1878 2148.32 1878 2164.57 1886.44C2178.27 1893.56 2189.44 1904.73 2196.56 1918.43C2205 1934.68 2205 1956.04 2205 1998.75V2082.25C2205 2124.96 2205 2146.32 2196.56 2162.57C2189.44 2176.27 2178.27 2187.44 2164.57 2194.56C2148.32 2203 2126.96 2203 2084.25 2203H2000.75C1958.04 2203 1936.68 2203 1920.43 2194.56C1906.73 2187.44 1895.56 2176.27 1888.44 2162.57C1880 2146.32 1880 2124.96 1880 2082.25V1998.75Z" fill="#010101"/>
<path d="M2081.13 1990.18L2042.39 2028.92L2003.11 1990.18L2042.39 1950.9L2081.13 1990.18ZM2131.02 2040.06L2092.28 2079.34L2053.53 2040.06L2092.28 2001.32L2131.02 2040.06ZM2031.24 2040.06L1991.97 2079.34L1952.69 2040.06L1991.97 2001.32L2031.24 2040.06ZM2081.13 2090.49L2042.39 2129.23L2003.11 2090.49L2042.39 2051.21L2081.13 2090.49Z" fill="white"/>
<rect x="1956" y="1935" width="175" height="194" fill="#010101"/>
<path d="M2054.08 1981.23C2054.08 1973 2064.09 1968.95 2069.82 1974.85L2122.59 2029.25C2126.06 2032.83 2128.01 2037.62 2128.01 2042.61V2105.57C2128.01 2113.8 2118 2117.85 2112.27 2111.95L2059.5 2057.55C2056.03 2053.97 2054.08 2049.18 2054.08 2044.19V1981.23Z" fill="#737373"/>
<path d="M2010.03 1981.23C2010.03 1973 2020.04 1968.95 2025.76 1974.85L2077.76 2028.44C2081.73 2032.54 2083.96 2038.02 2083.96 2043.73V2105.57C2083.96 2113.8 2073.95 2117.85 2068.22 2111.95L2015.45 2057.55C2011.98 2053.97 2010.03 2049.18 2010.03 2044.19V1981.23Z" fill="#8F8F8F"/>
<path d="M1965.99 1981.23C1965.99 1973 1976 1968.95 1981.73 1974.85L2034.5 2029.25C2037.97 2032.83 2039.92 2037.62 2039.92 2042.61V2105.57C2039.92 2113.8 2029.91 2117.85 2024.18 2111.95L1971.41 2057.55C1967.94 2053.97 1965.99 2049.18 1965.99 2044.19V1981.23Z" fill="#ABABAB"/>
</g>
<defs>
<clipPath id="clip0_503_997">
<rect width="4085" height="4085" fill="white"/>
</clipPath>
</defs>
</svg>
