<svg width="4085" height="4085" viewBox="0 0 4085 4085" fill="none" xmlns="http://www.w3.org/2000/svg">
<g clip-path="url(#clip0_503_1001)">
<path d="M4085 0H0V4085H4085V0Z" fill="#DDE2E9"/>
<path d="M1880 1999.75C1880 1957.04 1880 1935.68 1888.44 1919.43C1895.56 1905.73 1906.73 1894.56 1920.43 1887.44C1936.68 1879 1958.04 1879 2000.75 1879H2084.25C2126.96 1879 2148.32 1879 2164.57 1887.44C2178.27 1894.56 2189.44 1905.73 2196.56 1919.43C2205 1935.68 2205 1957.04 2205 1999.75V2083.25C2205 2125.96 2205 2147.32 2196.56 2163.57C2189.44 2177.27 2178.27 2188.44 2164.57 2195.56C2148.32 2204 2126.96 2204 2084.25 2204H2000.75C1958.04 2204 1936.68 2204 1920.43 2195.56C1906.73 2188.44 1895.56 2177.27 1888.44 2163.57C1880 2147.32 1880 2125.96 1880 2083.25V1999.75Z" fill="#010101"/>
<path d="M2081.13 1991.18L2042.39 2029.92L2003.11 1991.18L2042.39 1951.9L2081.13 1991.18ZM2131.02 2041.06L2092.28 2080.34L2053.53 2041.06L2092.28 2002.32L2131.02 2041.06ZM2031.24 2041.06L1991.97 2080.34L1952.69 2041.06L1991.97 2002.32L2031.24 2041.06ZM2081.13 2091.49L2042.39 2130.23L2003.11 2091.49L2042.39 2052.21L2081.13 2091.49Z" fill="white"/>
<rect x="1956" y="1935" width="175" height="194" fill="#010101"/>
<path d="M2054.08 1981.22C2054.08 1973 2064.09 1968.95 2069.82 1974.85L2122.59 2029.25C2126.06 2032.83 2128.01 2037.62 2128.01 2042.61V2105.57C2128.01 2113.8 2118 2117.85 2112.27 2111.94L2059.5 2057.55C2056.03 2053.97 2054.08 2049.17 2054.08 2044.18V1981.22Z" fill="#737373"/>
<path d="M2010.03 1981.22C2010.03 1973 2020.04 1968.95 2025.76 1974.85L2077.76 2028.44C2081.73 2032.54 2083.96 2038.02 2083.96 2043.73V2105.57C2083.96 2113.8 2073.95 2117.85 2068.22 2111.94L2015.45 2057.55C2011.98 2053.97 2010.03 2049.17 2010.03 2044.18V1981.22Z" fill="#8F8F8F"/>
<path d="M1965.99 1981.22C1965.99 1973 1976 1968.95 1981.73 1974.85L2034.5 2029.25C2037.97 2032.83 2039.92 2037.62 2039.92 2042.61V2105.57C2039.92 2113.8 2029.91 2117.85 2024.18 2111.94L1971.41 2057.55C1967.94 2053.97 1965.99 2049.17 1965.99 2044.18V1981.22Z" fill="#ABABAB"/>
</g>
<defs>
<clipPath id="clip0_503_1001">
<rect width="4085" height="4085" fill="white"/>
</clipPath>
</defs>
</svg>
