<svg width="4085" height="4085" viewBox="0 0 4085 4085" fill="none" xmlns="http://www.w3.org/2000/svg">
<g clip-path="url(#clip0_503_989)">
<path d="M4085 0H0V4085H4085V0Z" fill="#DDE2E9"/>
<path d="M1880 2000.75C1880 1958.04 1880 1936.68 1888.44 1920.43C1895.56 1906.73 1906.73 1895.56 1920.43 1888.44C1936.68 1880 1958.04 1880 2000.75 1880H2084.25C2126.96 1880 2148.32 1880 2164.57 1888.44C2178.27 1895.56 2189.44 1906.73 2196.56 1920.43C2205 1936.68 2205 1958.04 2205 2000.75V2084.25C2205 2126.96 2205 2148.32 2196.56 2164.57C2189.44 2178.27 2178.27 2189.44 2164.57 2196.56C2148.32 2205 2126.96 2205 2084.25 2205H2000.75C1958.04 2205 1936.68 2205 1920.43 2196.56C1906.73 2189.44 1895.56 2178.27 1888.44 2164.57C1880 2148.32 1880 2126.96 1880 2084.25V2000.75Z" fill="#010101"/>
<path d="M2081.44 1992.28L2042.7 2031.02L2003.42 1992.28L2042.7 1953L2081.44 1992.28ZM2131.33 2042.16L2092.59 2081.44L2053.84 2042.16L2092.59 2003.42L2131.33 2042.16ZM2031.55 2042.16L1992.28 2081.44L1953 2042.16L1992.28 2003.42L2031.55 2042.16ZM2081.44 2092.59L2042.7 2131.33L2003.42 2092.59L2042.7 2053.31L2081.44 2092.59Z" fill="white"/>
<rect x="1955" y="1945" width="175" height="194" fill="#010101"/>
<path d="M2054.08 1981.23C2054.08 1973 2064.09 1968.95 2069.82 1974.85L2122.59 2029.25C2126.06 2032.83 2128.01 2037.62 2128.01 2042.61V2105.57C2128.01 2113.8 2118 2117.85 2112.27 2111.95L2059.5 2057.55C2056.03 2053.97 2054.08 2049.18 2054.08 2044.19V1981.23Z" fill="#737373"/>
<path d="M2010.03 1981.23C2010.03 1973 2020.04 1968.95 2025.76 1974.85L2077.76 2028.44C2081.73 2032.54 2083.96 2038.02 2083.96 2043.73V2105.57C2083.96 2113.8 2073.95 2117.85 2068.22 2111.95L2015.45 2057.55C2011.98 2053.97 2010.03 2049.18 2010.03 2044.19V1981.23Z" fill="#8F8F8F"/>
<path d="M1965.99 1981.23C1965.99 1973 1976 1968.95 1981.73 1974.85L2034.5 2029.25C2037.97 2032.83 2039.92 2037.62 2039.92 2042.61V2105.57C2039.92 2113.8 2029.91 2117.85 2024.18 2111.95L1971.41 2057.55C1967.94 2053.97 1965.99 2049.18 1965.99 2044.19V1981.23Z" fill="#ABABAB"/>
</g>
<defs>
<clipPath id="clip0_503_989">
<rect width="4085" height="4085" fill="white"/>
</clipPath>
</defs>
</svg>
