<svg width="290" height="270" viewBox="0 0 290 270" fill="none" xmlns="http://www.w3.org/2000/svg"> 
    <path fill-rule="evenodd" clip-rule="evenodd" d="M184.589 48.5615L259.174 177.176C271.689 198.757 264.34 226.397 242.76 238.912C221.862 251.03 195.284 244.523 182.258 224.504L168.033 245.393C189.368 269.831 225.685 276.557 254.799 259.673C287.846 240.509 299.1 198.183 279.936 165.136L204.374 34.8366C201.937 30.6351 199.126 26.7859 196.008 23.3066L184.589 48.5615Z" fill="currentColor"/>
    <path fill-rule="evenodd" clip-rule="evenodd" d="M184.19 92.696L108.622 222.992C96.1058 244.572 68.4656 251.92 46.8855 239.405C25.3055 226.889 17.9575 199.249 30.4733 177.668L106.042 47.3721C118.558 25.792 146.198 18.444 167.778 30.9599C189.358 43.4757 196.706 71.116 184.19 92.696ZM85.2807 35.3313C104.447 2.28524 146.773 -8.96694 179.819 10.1989C212.865 29.3647 224.117 71.6908 204.951 104.737L129.383 235.033C110.217 268.079 67.8908 279.331 34.8447 260.166C1.79866 241 -9.45348 198.674 9.71234 165.628L85.2807 35.3313Z" fill="currentColor"/>
    <path fill-rule="evenodd" clip-rule="evenodd" d="M108.622 222.992L184.19 92.696C196.706 71.116 189.358 43.4757 167.778 30.9599C146.198 18.444 118.558 25.792 106.042 47.3721L30.4733 177.668C17.9575 199.248 25.3054 226.889 46.8855 239.405C68.4656 251.92 96.1058 244.572 108.622 222.992ZM179.819 10.1989C146.773 -8.96694 104.447 2.28524 85.2807 35.3313L9.71233 165.628C-9.4535 198.674 1.79865 241 34.8447 260.166C67.8907 279.331 110.217 268.079 129.383 235.033L204.951 104.737C224.117 71.6908 212.865 29.3647 179.819 10.1989Z" fill="currentColor"/>
</svg>